<svg xmlns="http://www.w3.org/2000/svg" xmlns:xlink="http://www.w3.org/1999/xlink" width="170" zoomAndPan="magnify" viewBox="0 0 127.5 127.499994" height="170" preserveAspectRatio="xMidYMid meet" version="1.0"><defs><clipPath id="cbc72802cd"><path d="M 3 21 L 127 21 L 127 103 L 3 103 Z M 3 21 " clip-rule="nonzero"/></clipPath><clipPath id="a7cf3917a9"><path d="M 3 21 L 127 21 L 127 35 L 3 35 Z M 3 21 " clip-rule="nonzero"/></clipPath><clipPath id="13a2e46a3f"><path d="M 80 24 L 127 24 L 127 103 L 80 103 Z M 80 24 " clip-rule="nonzero"/></clipPath><clipPath id="af61327723"><path d="M 117 21 L 127 21 L 127 35 L 117 35 Z M 117 21 " clip-rule="nonzero"/></clipPath><clipPath id="c2be2721eb"><path d="M 0 88 L 66 88 L 66 123.691406 L 0 123.691406 Z M 0 88 " clip-rule="nonzero"/></clipPath><clipPath id="8cd74aff17"><path d="M 25 88 L 66 88 L 66 123.691406 L 25 123.691406 Z M 25 88 " clip-rule="nonzero"/></clipPath></defs><g clip-path="url(#cbc72802cd)"><path fill="#e6e6e6" d="M 127.007812 28.132812 L 127.007812 96.472656 C 127.007812 99.496094 124.953125 102.039062 122.164062 102.78125 C 121.628906 102.925781 121.066406 103 120.484375 103 L 10.457031 103 C 6.855469 103 3.933594 100.078125 3.933594 96.472656 L 3.933594 28.132812 C 3.933594 24.527344 6.855469 21.605469 10.457031 21.605469 L 120.484375 21.605469 C 121.066406 21.605469 121.628906 21.679688 122.164062 21.824219 C 124.953125 22.566406 127.007812 25.109375 127.007812 28.132812 " fill-opacity="1" fill-rule="nonzero"/></g><g clip-path="url(#a7cf3917a9)"><path fill="#b3b3b3" d="M 127.007812 28.132812 L 127.007812 34.625 L 3.933594 34.625 L 3.933594 28.132812 C 3.933594 24.527344 6.855469 21.605469 10.457031 21.605469 L 120.484375 21.605469 C 124.085938 21.605469 127.007812 24.527344 127.007812 28.132812 " fill-opacity="1" fill-rule="nonzero"/></g><path fill="#999999" d="M 11.414062 43.039062 L 43.644531 43.039062 L 43.644531 38.554688 L 11.414062 38.554688 Z M 11.414062 43.039062 " fill-opacity="1" fill-rule="nonzero"/><path fill="#ffffff" d="M 69.574219 96.480469 L 119.921875 96.480469 L 119.921875 60.738281 L 69.574219 60.738281 Z M 69.574219 96.480469 " fill-opacity="1" fill-rule="nonzero"/><path fill="#29abe2" d="M 71.984375 94.246094 L 117.800781 94.246094 L 117.800781 89.757812 L 71.984375 89.757812 Z M 71.984375 94.246094 " fill-opacity="1" fill-rule="nonzero"/><path fill="#fc7a51" d="M 71.984375 85.566406 L 77.679688 85.566406 L 77.679688 81.082031 L 71.984375 81.082031 Z M 71.984375 85.566406 " fill-opacity="1" fill-rule="nonzero"/><path fill="#f9de58" d="M 71.984375 76.886719 L 95.027344 76.886719 L 95.027344 72.402344 L 71.984375 72.402344 Z M 71.984375 76.886719 " fill-opacity="1" fill-rule="nonzero"/><path fill="#999999" d="M 71.984375 68.207031 L 111.566406 68.207031 L 111.566406 63.722656 L 71.984375 63.722656 Z M 71.984375 68.207031 " fill-opacity="1" fill-rule="nonzero"/><path fill="#fc7a51" d="M 16.945312 28.113281 C 16.945312 30.363281 15.125 32.183594 12.878906 32.183594 C 10.636719 32.183594 8.8125 30.363281 8.8125 28.113281 C 8.8125 25.867188 10.636719 24.046875 12.878906 24.046875 C 15.125 24.046875 16.945312 25.867188 16.945312 28.113281 Z M 16.945312 28.113281 " fill-opacity="1" fill-rule="nonzero"/><path fill="#f9de58" d="M 27.789062 28.113281 C 27.789062 30.363281 25.96875 32.183594 23.722656 32.183594 C 21.480469 32.183594 19.65625 30.363281 19.65625 28.113281 C 19.65625 25.867188 21.480469 24.046875 23.722656 24.046875 C 25.96875 24.046875 27.789062 25.867188 27.789062 28.113281 Z M 27.789062 28.113281 " fill-opacity="1" fill-rule="nonzero"/><g clip-path="url(#13a2e46a3f)"><path fill="#eeeeee" d="M 125.699219 24.210938 C 126.519531 25.300781 127.007812 26.660156 127.007812 28.132812 L 127.007812 34.628906 L 120.683594 34.628906 C 120.695312 44.367188 115.421875 53.777344 106.195312 58.597656 C 105.628906 58.847656 105.050781 59.078125 104.472656 59.296875 L 105.222656 60.738281 L 119.921875 60.738281 L 119.921875 96.480469 L 80.933594 96.480469 L 82.921875 103 L 120.484375 103 C 121.0625 103 121.628906 102.925781 122.164062 102.78125 C 124.953125 102.039062 127.007812 99.496094 127.007812 96.472656 L 127.007812 28.132812 C 127.007812 26.660156 126.519531 25.300781 125.699219 24.210938 M 125.6875 24.195312 C 125.691406 24.203125 125.695312 24.207031 125.699219 24.210938 C 125.695312 24.207031 125.691406 24.199219 125.6875 24.195312 M 125.679688 24.183594 C 125.679688 24.1875 125.683594 24.191406 125.683594 24.191406 C 125.683594 24.191406 125.679688 24.1875 125.679688 24.183594 M 125.671875 24.171875 L 125.671875 24.175781 L 125.671875 24.171875 " fill-opacity="1" fill-rule="nonzero"/></g><g clip-path="url(#af61327723)"><path fill="#cbcbcb" d="M 120.484375 21.605469 L 117.300781 21.605469 C 117.410156 21.800781 117.515625 21.996094 117.617188 22.191406 C 119.695312 26.171875 120.679688 30.429688 120.683594 34.628906 L 127.007812 34.628906 L 127.007812 28.132812 C 127.007812 26.660156 126.519531 25.300781 125.699219 24.210938 C 125.695312 24.207031 125.691406 24.203125 125.6875 24.199219 C 125.6875 24.195312 125.6875 24.195312 125.683594 24.191406 C 125.683594 24.191406 125.679688 24.1875 125.679688 24.183594 C 125.675781 24.183594 125.675781 24.179688 125.671875 24.175781 L 125.671875 24.171875 C 124.804688 23.039062 123.582031 22.199219 122.164062 21.824219 C 121.628906 21.679688 121.066406 21.605469 120.484375 21.605469 " fill-opacity="1" fill-rule="nonzero"/></g><path fill="#ffffff" d="M 119.921875 60.738281 L 105.222656 60.738281 L 106.667969 63.503906 C 106.527344 63.578125 106.386719 63.652344 106.242188 63.722656 L 111.566406 63.722656 L 111.566406 68.207031 L 72.328125 68.207031 L 73.605469 72.402344 L 95.027344 72.402344 L 95.027344 76.886719 L 74.96875 76.886719 L 76.246094 81.082031 L 77.679688 81.082031 L 77.679688 85.566406 L 77.613281 85.566406 L 78.890625 89.757812 L 117.800781 89.757812 L 117.800781 94.246094 L 80.253906 94.246094 L 80.933594 96.480469 L 119.921875 96.480469 L 119.921875 60.738281 " fill-opacity="1" fill-rule="nonzero"/><path fill="#6ec6eb" d="M 117.800781 89.757812 L 78.890625 89.757812 L 80.253906 94.246094 L 117.800781 94.246094 L 117.800781 89.757812 " fill-opacity="1" fill-rule="nonzero"/><path fill="#fda589" d="M 77.679688 81.082031 L 76.246094 81.082031 L 77.613281 85.566406 L 77.679688 85.566406 L 77.679688 81.082031 " fill-opacity="1" fill-rule="nonzero"/><path fill="#fbe98e" d="M 95.027344 72.402344 L 73.605469 72.402344 L 74.96875 76.886719 L 95.027344 76.886719 L 95.027344 72.402344 " fill-opacity="1" fill-rule="nonzero"/><path fill="#eeeeee" d="M 66.757812 34.625 L 62.101562 34.625 L 70.050781 60.738281 L 87.105469 60.738281 C 86.707031 60.660156 86.3125 60.578125 85.917969 60.484375 L 85.644531 60.421875 C 79.0625 58.355469 73.269531 53.773438 69.824219 47.167969 C 67.730469 43.15625 66.746094 38.859375 66.757812 34.625 " fill-opacity="1" fill-rule="nonzero"/><path fill="#cbcbcb" d="M 70.136719 21.605469 L 58.136719 21.605469 L 62.101562 34.625 L 66.757812 34.625 C 66.765625 31.890625 67.191406 29.183594 68.003906 26.597656 C 68.542969 24.871094 69.257812 23.195312 70.136719 21.605469 " fill-opacity="1" fill-rule="nonzero"/><path fill="#ffffff" d="M 87.105469 60.738281 L 70.050781 60.738281 L 71.984375 67.089844 L 71.984375 63.722656 L 86.621094 63.722656 L 87.53125 60.816406 C 87.390625 60.792969 87.246094 60.765625 87.105469 60.738281 " fill-opacity="1" fill-rule="nonzero"/><path fill="#bababa" d="M 111.566406 63.722656 L 106.242188 63.722656 C 102.382812 65.65625 98.269531 66.574219 94.214844 66.574219 C 91.453125 66.574219 88.722656 66.148438 86.117188 65.328125 L 86.621094 63.722656 L 71.984375 63.722656 L 71.984375 67.089844 L 72.328125 68.207031 L 111.566406 68.207031 L 111.566406 63.722656 " fill-opacity="1" fill-rule="nonzero"/><path fill="#cecece" d="M 104.472656 59.296875 C 102.792969 59.917969 101.070312 60.398438 99.320312 60.738281 L 105.222656 60.738281 L 104.472656 59.296875 " fill-opacity="1" fill-rule="nonzero"/><path fill="#dbdbdb" d="M 105.222656 60.738281 L 99.320312 60.738281 C 97.308594 61.125 95.265625 61.320312 93.214844 61.320312 C 91.316406 61.320312 89.414062 61.152344 87.53125 60.816406 L 86.621094 63.722656 L 106.246094 63.722656 C 106.386719 63.652344 106.527344 63.578125 106.667969 63.503906 L 105.222656 60.738281 " fill-opacity="1" fill-rule="nonzero"/><path fill="#a4a4a4" d="M 106.242188 63.722656 L 86.621094 63.722656 L 86.117188 65.328125 C 88.722656 66.148438 91.453125 66.574219 94.214844 66.574219 C 98.269531 66.574219 102.382812 65.65625 106.242188 63.722656 " fill-opacity="1" fill-rule="nonzero"/><path fill="#dbdbdb" d="M 93.695312 7.691406 C 89.492188 7.691406 85.226562 8.679688 81.242188 10.761719 C 76.375 13.304688 72.609375 17.128906 70.136719 21.605469 L 117.300781 21.605469 C 113.824219 15.316406 108.183594 10.945312 101.796875 8.9375 C 99.1875 8.117188 96.457031 7.691406 93.695312 7.691406 " fill-opacity="1" fill-rule="nonzero"/><path fill="#cecece" d="M 120.683594 34.625 L 66.757812 34.625 C 66.746094 38.859375 67.730469 43.152344 69.824219 47.167969 C 73.269531 53.773438 79.0625 58.355469 85.644531 60.421875 L 85.917969 60.484375 C 86.3125 60.578125 86.707031 60.660156 87.105469 60.738281 L 99.320312 60.738281 C 101.070312 60.398438 102.792969 59.917969 104.472656 59.296875 C 105.050781 59.078125 105.625 58.847656 106.195312 58.597656 C 115.421875 53.777344 120.695312 44.367188 120.683594 34.625 " fill-opacity="1" fill-rule="nonzero"/><path fill="#b2b2b2" d="M 117.300781 21.605469 L 70.136719 21.605469 C 69.257812 23.195312 68.542969 24.871094 68 26.597656 C 67.191406 29.183594 66.765625 31.890625 66.757812 34.625 L 120.683594 34.625 C 120.679688 30.429688 119.691406 26.171875 117.617188 22.191406 C 117.515625 21.996094 117.410156 21.800781 117.300781 21.605469 " fill-opacity="1" fill-rule="nonzero"/><path fill="#dbdbdb" d="M 99.320312 60.738281 L 87.105469 60.738281 C 87.246094 60.765625 87.390625 60.792969 87.53125 60.816406 C 89.414062 61.152344 91.316406 61.320312 93.214844 61.320312 C 95.265625 61.320312 97.308594 61.125 99.320312 60.738281 " fill-opacity="1" fill-rule="nonzero"/><path fill="#f9de58" d="M 93.722656 31.015625 L 92.300781 35.542969 L 85.644531 56.757812 C 79.0625 54.6875 73.269531 50.105469 69.824219 43.503906 C 66.378906 36.894531 65.9375 29.523438 68 22.933594 L 90.625 30.042969 Z M 93.722656 31.015625 " fill-opacity="1" fill-rule="nonzero"/><path fill="#29abe2" d="M 106.667969 59.839844 C 104.640625 60.898438 102.539062 61.675781 100.410156 62.183594 C 95.613281 63.324219 90.675781 63.101562 86.113281 61.664062 L 93.289062 38.796875 L 94.191406 35.921875 Z M 106.667969 59.839844 " fill-opacity="1" fill-rule="nonzero"/><path fill="#fc7a51" d="M 106.195312 54.933594 L 93.722656 31.015625 L 90.625 30.042969 L 68 22.933594 C 70.070312 16.34375 74.644531 10.546875 81.242188 7.097656 C 81.933594 6.738281 82.632812 6.40625 83.339844 6.117188 C 89.375 3.582031 95.902344 3.421875 101.796875 5.273438 C 108.382812 7.34375 114.175781 11.921875 117.621094 18.527344 C 124.507812 31.738281 119.394531 48.035156 106.195312 54.933594 Z M 106.195312 54.933594 " fill-opacity="1" fill-rule="nonzero"/><path fill="#ffffff" d="M 11.019531 96.480469 L 61.367188 96.480469 L 61.367188 46.085938 L 11.019531 46.085938 Z M 11.019531 96.480469 " fill-opacity="1" fill-rule="nonzero"/><path fill="#2be0c6" d="M 15.613281 93.628906 L 25.371094 93.628906 L 25.371094 69.210938 L 15.613281 69.210938 Z M 15.613281 93.628906 " fill-opacity="1" fill-rule="nonzero"/><path fill="#f9de58" d="M 31.316406 93.628906 L 41.074219 93.628906 L 41.074219 61.074219 L 31.316406 61.074219 Z M 31.316406 93.628906 " fill-opacity="1" fill-rule="nonzero"/><path fill="#fc7a51" d="M 47.015625 93.628906 L 56.773438 93.628906 L 56.773438 52.121094 L 47.015625 52.121094 Z M 47.015625 93.628906 " fill-opacity="1" fill-rule="nonzero"/><g clip-path="url(#c2be2721eb)"><path fill="#29abe2" d="M 0 123.683594 L 65.828125 123.683594 L 65.828125 88.683594 L 0 88.683594 Z M 0 123.683594 " fill-opacity="1" fill-rule="nonzero"/></g><path fill="#f2f2f2" d="M 4.066406 119.613281 L 61.761719 119.613281 L 61.761719 92.753906 L 4.066406 92.753906 Z M 4.066406 119.613281 " fill-opacity="1" fill-rule="nonzero"/><path fill="#fc7a51" d="M 29.292969 117.230469 L 23.695312 111.15625 L 21.324219 114.375 L 19.492188 113.027344 L 23.496094 107.582031 L 28.828125 113.363281 L 37.203125 98.230469 L 43.585938 108.5 L 51.070312 95.136719 L 53.058594 96.25 L 43.6875 112.976562 L 37.316406 102.730469 L 29.292969 117.230469 " fill-opacity="1" fill-rule="nonzero"/><path fill="#999999" d="M 7.046875 100.351562 L 14.367188 100.351562 L 14.367188 97.363281 L 7.046875 97.363281 Z M 7.046875 100.351562 " fill-opacity="1" fill-rule="nonzero"/><path fill="#999999" d="M 7.046875 107.675781 L 14.367188 107.675781 L 14.367188 104.691406 L 7.046875 104.691406 Z M 7.046875 107.675781 " fill-opacity="1" fill-rule="nonzero"/><path fill="#999999" d="M 7.046875 115 L 14.367188 115 L 14.367188 112.015625 L 7.046875 112.015625 Z M 7.046875 115 " fill-opacity="1" fill-rule="nonzero"/><g clip-path="url(#8cd74aff17)"><path fill="#6ec6eb" d="M 65.828125 88.683594 L 25.179688 88.683594 L 26.417969 92.753906 L 61.761719 92.753906 L 61.761719 119.613281 L 34.59375 119.613281 L 35.835938 123.683594 L 65.828125 123.683594 L 65.828125 88.683594 " fill-opacity="1" fill-rule="nonzero"/></g><path fill="#f6f6f6" d="M 61.761719 92.753906 L 26.417969 92.753906 L 31.320312 108.863281 L 37.203125 98.230469 L 43.585938 108.5 L 51.070312 95.136719 L 53.058594 96.25 L 43.6875 112.976562 L 37.316406 102.730469 L 32.246094 111.894531 L 34.59375 119.613281 L 61.761719 119.613281 L 61.761719 92.753906 " fill-opacity="1" fill-rule="nonzero"/><path fill="#fda589" d="M 51.070312 95.136719 L 43.585938 108.5 L 37.203125 98.230469 L 31.320312 108.863281 L 32.246094 111.894531 L 37.316406 102.730469 L 43.6875 112.976562 L 53.058594 96.25 L 51.070312 95.136719 " fill-opacity="1" fill-rule="nonzero"/><path fill="#cccccc" d="M 106.722656 113.683594 L 109.023438 108.078125 L 115.867188 114.929688 C 116.265625 115.324219 116.789062 115.523438 117.304688 115.523438 C 117.828125 115.523438 118.347656 115.324219 118.742188 114.929688 C 119.539062 114.132812 119.535156 112.84375 118.742188 112.050781 L 111.898438 105.199219 L 117.503906 102.894531 L 96.207031 92.371094 Z M 106.722656 113.683594 " fill-opacity="1" fill-rule="nonzero"/><path fill="#808080" d="M 106.722656 113.683594 L 109.023438 108.078125 L 115.867188 114.929688 C 116.265625 115.324219 116.789062 115.523438 117.304688 115.523438 C 117.828125 115.523438 118.347656 115.324219 118.742188 114.929688 L 96.203125 92.371094 Z M 106.722656 113.683594 " fill-opacity="1" fill-rule="nonzero"/></svg>