<svg xmlns="http://www.w3.org/2000/svg" xmlns:xlink="http://www.w3.org/1999/xlink" width="170" zoomAndPan="magnify" viewBox="0 0 127.5 127.499994" height="170" preserveAspectRatio="xMidYMid meet" version="1.0"><defs><filter x="0%" y="0%" width="100%" height="100%" id="619cc42ec8"><feColorMatrix values="0 0 0 0 1 0 0 0 0 1 0 0 0 0 1 0 0 0 1 0" color-interpolation-filters="sRGB"/></filter><clipPath id="115dc4755d"><path d="M 1.917969 67 L 100 67 L 100 125.742188 L 1.917969 125.742188 Z M 1.917969 67 " clip-rule="nonzero"/></clipPath><clipPath id="1decf8327a"><path d="M 1.917969 67 L 100 67 L 100 99 L 1.917969 99 Z M 1.917969 67 " clip-rule="nonzero"/></clipPath><clipPath id="cee5306a51"><path d="M 1.917969 83 L 100 83 L 100 125.742188 L 1.917969 125.742188 Z M 1.917969 83 " clip-rule="nonzero"/></clipPath><clipPath id="5d0a6e1b0b"><path d="M 1.917969 34 L 100 34 L 100 93 L 1.917969 93 Z M 1.917969 34 " clip-rule="nonzero"/></clipPath><clipPath id="06eed8667d"><path d="M 1.917969 34 L 100 34 L 100 66 L 1.917969 66 Z M 1.917969 34 " clip-rule="nonzero"/></clipPath><clipPath id="584a648bfe"><path d="M 1.917969 50 L 100 50 L 100 93 L 1.917969 93 Z M 1.917969 50 " clip-rule="nonzero"/></clipPath><clipPath id="6c2a31267d"><path d="M 1.917969 1 L 100 1 L 100 60 L 1.917969 60 Z M 1.917969 1 " clip-rule="nonzero"/></clipPath><clipPath id="6558fc7ee6"><path d="M 1.917969 1 L 100 1 L 100 33 L 1.917969 33 Z M 1.917969 1 " clip-rule="nonzero"/></clipPath><clipPath id="2f958795bd"><path d="M 1.917969 16 L 100 16 L 100 60 L 1.917969 60 Z M 1.917969 16 " clip-rule="nonzero"/></clipPath><clipPath id="e34d935310"><path d="M 9 1 L 93 1 L 93 125.742188 L 9 125.742188 Z M 9 1 " clip-rule="nonzero"/></clipPath><mask id="deb64f5991"><g filter="url(#619cc42ec8)"><rect x="-12.75" width="153" fill="#000000" y="-12.749999" height="152.999993" fill-opacity="0.16"/></g></mask><clipPath id="14ccc53697"><path d="M 1 0.195312 L 65 0.195312 L 65 124.742188 L 1 124.742188 Z M 1 0.195312 " clip-rule="nonzero"/></clipPath><clipPath id="2cbf594c6e"><path d="M 43 0.195312 L 82 0.195312 L 82 121 L 43 121 Z M 43 0.195312 " clip-rule="nonzero"/></clipPath><clipPath id="20e0072b5f"><rect x="0" width="84" y="0" height="125"/></clipPath><clipPath id="ce13a2478c"><path d="M 74 74 L 125.1875 74 L 125.1875 125.742188 L 74 125.742188 Z M 74 74 " clip-rule="nonzero"/></clipPath></defs><path fill="#ffffff" d="M 0 0 L 127 0 L 127 127 L 0 127 Z M 0 0 " fill-opacity="1" fill-rule="nonzero"/><path fill="#ffffff" d="M 0 0 L 127 0 L 127 127 L 0 127 Z M 0 0 " fill-opacity="1" fill-rule="nonzero"/><g clip-path="url(#115dc4755d)"><path fill="#4f5d99" d="M 99.835938 83.152344 L 99.835938 109.882812 C 99.835938 118.445312 77.914062 125.382812 50.898438 125.382812 C 23.863281 125.382812 1.941406 118.445312 1.941406 109.882812 L 1.941406 83.152344 C 1.941406 74.574219 23.863281 67.636719 50.898438 67.636719 C 77.914062 67.636719 99.835938 74.574219 99.835938 83.152344 Z M 99.835938 83.152344 " fill-opacity="1" fill-rule="nonzero"/></g><g clip-path="url(#1decf8327a)"><path fill="#3d4a75" d="M 99.835938 83.152344 C 99.835938 91.710938 77.914062 98.652344 50.898438 98.652344 C 23.863281 98.652344 1.941406 91.710938 1.941406 83.152344 C 1.941406 74.574219 23.863281 67.636719 50.898438 67.636719 C 77.914062 67.636719 99.835938 74.574219 99.835938 83.152344 Z M 99.835938 83.152344 " fill-opacity="1" fill-rule="nonzero"/></g><g clip-path="url(#cee5306a51)"><path fill="#4f5d99" d="M 1.941406 83.152344 C 1.941406 91.710938 23.863281 98.652344 50.898438 98.652344 C 77.914062 98.652344 99.835938 91.710938 99.835938 83.152344 L 99.835938 109.886719 C 99.835938 118.445312 77.914062 125.386719 50.898438 125.386719 C 23.863281 125.386719 1.941406 118.445312 1.941406 109.886719 Z M 1.941406 83.152344 " fill-opacity="1" fill-rule="nonzero"/></g><path fill="#e9e9ff" d="M 32.972656 111.550781 C 32.972656 112.78125 31.890625 113.726562 30.660156 113.59375 C 19.964844 112.378906 12.890625 109.898438 10.117188 108.03125 C 9.625 107.707031 9.359375 107.144531 9.359375 106.570312 C 9.359375 105.328125 10.574219 104.46875 11.734375 104.867188 C 17.503906 106.894531 24.222656 108.757812 31.105469 109.496094 C 32.15625 109.617188 32.972656 110.488281 32.972656 111.550781 Z M 32.972656 111.550781 " fill-opacity="1" fill-rule="nonzero"/><path fill="#7bd681" d="M 93.789062 105.234375 C 93.789062 107.074219 92.289062 108.558594 90.441406 108.558594 C 88.589844 108.558594 87.089844 107.074219 87.089844 105.234375 C 87.089844 103.390625 88.589844 101.890625 90.441406 101.890625 C 92.289062 101.890625 93.789062 103.390625 93.789062 105.234375 Z M 93.789062 105.234375 " fill-opacity="1" fill-rule="nonzero"/><path fill="#ed524e" d="M 70.46875 110.28125 C 70.46875 112.125 68.964844 113.605469 67.117188 113.605469 C 65.269531 113.605469 63.765625 112.125 63.765625 110.28125 C 63.765625 108.4375 65.269531 106.941406 67.117188 106.941406 C 68.964844 106.941406 70.46875 108.4375 70.46875 110.28125 Z M 70.46875 110.28125 " fill-opacity="1" fill-rule="nonzero"/><g clip-path="url(#5d0a6e1b0b)"><path fill="#4f5d99" d="M 99.835938 50 L 99.835938 76.730469 C 99.835938 85.289062 77.914062 92.230469 50.898438 92.230469 C 23.863281 92.230469 1.941406 85.289062 1.941406 76.730469 L 1.941406 50 C 1.941406 41.421875 23.863281 34.484375 50.898438 34.484375 C 77.914062 34.484375 99.835938 41.421875 99.835938 50 Z M 99.835938 50 " fill-opacity="1" fill-rule="nonzero"/></g><g clip-path="url(#06eed8667d)"><path fill="#3d4a75" d="M 99.835938 50 C 99.835938 58.558594 77.914062 65.5 50.898438 65.5 C 23.863281 65.5 1.941406 58.558594 1.941406 50 C 1.941406 41.421875 23.863281 34.484375 50.898438 34.484375 C 77.914062 34.484375 99.835938 41.421875 99.835938 50 Z M 99.835938 50 " fill-opacity="1" fill-rule="nonzero"/></g><g clip-path="url(#584a648bfe)"><path fill="#4f5d99" d="M 1.941406 50 C 1.941406 58.558594 23.863281 65.5 50.898438 65.5 C 77.914062 65.5 99.835938 58.558594 99.835938 50 L 99.835938 76.734375 C 99.835938 85.292969 77.914062 92.234375 50.898438 92.234375 C 23.863281 92.234375 1.941406 85.292969 1.941406 76.734375 Z M 1.941406 50 " fill-opacity="1" fill-rule="nonzero"/></g><path fill="#e9e9ff" d="M 32.972656 78.398438 C 32.972656 79.628906 31.890625 80.574219 30.660156 80.441406 C 19.964844 79.226562 12.890625 76.742188 10.117188 74.878906 C 9.625 74.554688 9.359375 73.992188 9.359375 73.417969 C 9.359375 72.175781 10.574219 71.316406 11.734375 71.714844 C 17.503906 73.742188 24.222656 75.605469 31.105469 76.34375 C 32.15625 76.460938 32.972656 77.335938 32.972656 78.398438 Z M 32.972656 78.398438 " fill-opacity="1" fill-rule="nonzero"/><path fill="#7bd681" d="M 93.789062 72.078125 C 93.789062 73.921875 92.289062 75.402344 90.441406 75.402344 C 88.589844 75.402344 87.089844 73.921875 87.089844 72.078125 C 87.089844 70.238281 88.589844 68.738281 90.441406 68.738281 C 92.289062 68.738281 93.789062 70.238281 93.789062 72.078125 Z M 93.789062 72.078125 " fill-opacity="1" fill-rule="nonzero"/><path fill="#fdc72e" d="M 82.308594 75.414062 C 82.308594 77.257812 80.808594 78.738281 78.957031 78.738281 C 77.109375 78.738281 75.609375 77.257812 75.609375 75.414062 C 75.609375 73.570312 77.109375 72.070312 78.957031 72.070312 C 80.808594 72.070312 82.308594 73.570312 82.308594 75.414062 Z M 82.308594 75.414062 " fill-opacity="1" fill-rule="nonzero"/><path fill="#ed524e" d="M 70.46875 77.128906 C 70.46875 78.972656 68.964844 80.453125 67.117188 80.453125 C 65.269531 80.453125 63.765625 78.972656 63.765625 77.128906 C 63.765625 75.285156 65.269531 73.789062 67.117188 73.789062 C 68.964844 73.789062 70.46875 75.285156 70.46875 77.128906 Z M 70.46875 77.128906 " fill-opacity="1" fill-rule="nonzero"/><g clip-path="url(#6c2a31267d)"><path fill="#4f5d99" d="M 99.835938 16.847656 L 99.835938 43.578125 C 99.835938 52.136719 77.914062 59.078125 50.898438 59.078125 C 23.863281 59.078125 1.941406 52.136719 1.941406 43.578125 L 1.941406 16.847656 C 1.941406 8.269531 23.863281 1.328125 50.898438 1.328125 C 77.914062 1.328125 99.835938 8.269531 99.835938 16.847656 Z M 99.835938 16.847656 " fill-opacity="1" fill-rule="nonzero"/></g><g clip-path="url(#6558fc7ee6)"><path fill="#3d4a75" d="M 99.835938 16.847656 C 99.835938 25.40625 77.914062 32.347656 50.898438 32.347656 C 23.863281 32.347656 1.941406 25.40625 1.941406 16.847656 C 1.941406 8.269531 23.863281 1.328125 50.898438 1.328125 C 77.914062 1.328125 99.835938 8.269531 99.835938 16.847656 Z M 99.835938 16.847656 " fill-opacity="1" fill-rule="nonzero"/></g><g clip-path="url(#2f958795bd)"><path fill="#4f5d99" d="M 1.941406 16.847656 C 1.941406 25.40625 23.863281 32.347656 50.898438 32.347656 C 77.914062 32.347656 99.835938 25.40625 99.835938 16.847656 L 99.835938 43.582031 C 99.835938 52.140625 77.914062 59.082031 50.898438 59.082031 C 23.863281 59.082031 1.941406 52.140625 1.941406 43.582031 Z M 1.941406 16.847656 " fill-opacity="1" fill-rule="nonzero"/></g><path fill="#e9e9ff" d="M 32.972656 45.246094 C 32.972656 46.476562 31.890625 47.421875 30.660156 47.289062 C 19.964844 46.074219 12.890625 43.589844 10.117188 41.726562 C 9.625 41.402344 9.359375 40.839844 9.359375 40.265625 C 9.359375 39.019531 10.574219 38.164062 11.734375 38.5625 C 17.503906 40.589844 24.222656 42.453125 31.105469 43.191406 C 32.15625 43.308594 32.972656 44.183594 32.972656 45.246094 Z M 32.972656 45.246094 " fill-opacity="1" fill-rule="nonzero"/><path fill="#7bd681" d="M 93.789062 38.925781 C 93.789062 40.769531 92.289062 42.25 90.441406 42.25 C 88.589844 42.25 87.089844 40.769531 87.089844 38.925781 C 87.089844 37.085938 88.589844 35.585938 90.441406 35.585938 C 92.289062 35.585938 93.789062 37.085938 93.789062 38.925781 Z M 93.789062 38.925781 " fill-opacity="1" fill-rule="nonzero"/><path fill="#fdc72e" d="M 82.308594 42.261719 C 82.308594 44.101562 80.808594 45.585938 78.957031 45.585938 C 77.109375 45.585938 75.609375 44.101562 75.609375 42.261719 C 75.609375 40.417969 77.109375 38.917969 78.957031 38.917969 C 80.808594 38.917969 82.308594 40.417969 82.308594 42.261719 Z M 82.308594 42.261719 " fill-opacity="1" fill-rule="nonzero"/><path fill="#ed524e" d="M 70.46875 43.976562 C 70.46875 45.820312 68.964844 47.300781 67.117188 47.300781 C 65.269531 47.300781 63.765625 45.820312 63.765625 43.976562 C 63.765625 42.132812 65.269531 40.636719 67.117188 40.636719 C 68.964844 40.636719 70.46875 42.132812 70.46875 43.976562 Z M 70.46875 43.976562 " fill-opacity="1" fill-rule="nonzero"/><g clip-path="url(#e34d935310)"><g mask="url(#deb64f5991)"><g transform="matrix(1, 0, 0, 1, 9, 1)"><g clip-path="url(#20e0072b5f)"><g clip-path="url(#14ccc53697)"><path fill="#ffffff" d="M 64.710938 122.609375 C 57.898438 123.753906 50.15625 124.394531 41.902344 124.394531 C 38.097656 124.394531 34.40625 124.261719 30.867188 123.996094 L 1.800781 6.957031 C 9.277344 3.558594 20.910156 1.179688 34.359375 0.515625 Z M 64.710938 122.609375 " fill-opacity="1" fill-rule="nonzero"/></g><g clip-path="url(#2cbf594c6e)"><path fill="#ffffff" d="M 81.988281 117.777344 C 79.441406 118.925781 76.433594 119.960938 73.050781 120.84375 L 43.121094 0.339844 C 46.484375 0.363281 49.757812 0.492188 52.917969 0.734375 Z M 81.988281 117.777344 " fill-opacity="1" fill-rule="nonzero"/></g></g></g></g></g><g clip-path="url(#ce13a2478c)"><path fill="#70c1f9" d="M 124.457031 96.128906 L 118.03125 94.433594 C 117.703125 93.363281 117.25 92.3125 116.730469 91.328125 L 120.089844 85.613281 C 120.300781 85.25 120.246094 84.78125 119.9375 84.472656 L 115.554688 80.101562 C 115.242188 79.792969 114.773438 79.722656 114.394531 79.949219 L 108.660156 83.28125 C 107.984375 82.933594 107.292969 82.605469 106.566406 82.347656 C 106.21875 82.210938 105.890625 82.105469 105.542969 81.984375 L 103.863281 75.597656 C 103.742188 75.183594 103.378906 74.890625 102.945312 74.890625 L 96.726562 74.890625 C 96.292969 74.890625 95.914062 75.183594 95.808594 75.597656 L 95.601562 76.375 L 95.324219 77.445312 L 94.128906 81.984375 C 93.039062 82.332031 92 82.761719 90.996094 83.28125 L 85.28125 79.949219 C 84.898438 79.722656 84.429688 79.792969 84.121094 80.101562 L 81.296875 82.917969 L 79.738281 84.472656 C 79.425781 84.78125 79.375 85.25 79.582031 85.613281 L 82.925781 91.328125 C 82.40625 92.3125 81.972656 93.363281 81.644531 94.453125 L 75.21875 96.128906 C 74.800781 96.230469 74.507812 96.609375 74.507812 97.042969 L 74.507812 103.222656 C 74.507812 103.671875 74.800781 104.035156 75.21875 104.140625 L 81.644531 105.832031 C 81.972656 106.902344 82.40625 107.957031 82.941406 108.9375 L 79.582031 114.65625 C 79.375 115.015625 79.425781 115.5 79.738281 115.792969 L 84.121094 120.179688 C 84.429688 120.472656 84.898438 120.542969 85.28125 120.320312 L 90.996094 116.984375 C 91.6875 117.347656 92.378906 117.660156 93.109375 117.933594 C 93.4375 118.054688 93.785156 118.175781 94.128906 118.28125 L 95.808594 124.6875 C 95.914062 125.101562 96.292969 125.394531 96.726562 125.394531 L 102.945312 125.394531 C 103.378906 125.394531 103.742188 125.101562 103.863281 124.6875 L 105.542969 118.28125 C 106.632812 117.933594 107.671875 117.503906 108.660156 116.984375 L 108.679688 117.003906 L 109.476562 117.46875 L 113.058594 119.542969 L 114.394531 120.320312 C 114.496094 120.386719 114.617188 120.421875 114.738281 120.457031 C 115.035156 120.492188 115.328125 120.386719 115.554688 120.179688 L 119.9375 115.792969 C 120.246094 115.5 120.300781 115.015625 120.089844 114.65625 L 116.730469 108.9375 C 117.25 107.957031 117.703125 106.902344 118.03125 105.832031 L 124.457031 104.140625 C 124.871094 104.035156 125.164062 103.671875 125.164062 103.222656 L 125.164062 97.042969 C 125.164062 96.609375 124.871094 96.230469 124.457031 96.128906 Z M 99.828125 112.1875 C 93.160156 112.1875 87.738281 106.796875 87.738281 100.132812 C 87.738281 93.484375 93.160156 88.082031 99.828125 88.082031 C 106.496094 88.082031 111.917969 93.484375 111.917969 100.132812 C 111.917969 106.796875 106.496094 112.1875 99.828125 112.1875 Z M 99.828125 112.1875 " fill-opacity="1" fill-rule="nonzero"/></g><path fill="#4f5d99" d="M 111.917969 100.132812 C 111.917969 100.925781 111.839844 101.707031 111.683594 102.484375 C 111.53125 103.261719 111.300781 104.015625 110.996094 104.746094 C 110.691406 105.476562 110.320312 106.171875 109.878906 106.828125 C 109.4375 107.488281 108.9375 108.097656 108.375 108.65625 C 107.816406 109.214844 107.203125 109.714844 106.542969 110.15625 C 105.882812 110.59375 105.1875 110.964844 104.453125 111.269531 C 103.71875 111.570312 102.964844 111.800781 102.1875 111.953125 C 101.40625 112.109375 100.621094 112.1875 99.828125 112.1875 C 99.035156 112.1875 98.246094 112.109375 97.46875 111.953125 C 96.691406 111.800781 95.933594 111.570312 95.199219 111.269531 C 94.46875 110.964844 93.769531 110.59375 93.109375 110.15625 C 92.449219 109.714844 91.839844 109.214844 91.277344 108.65625 C 90.71875 108.097656 90.214844 107.488281 89.773438 106.828125 C 89.335938 106.171875 88.960938 105.476562 88.65625 104.746094 C 88.355469 104.015625 88.125 103.261719 87.96875 102.484375 C 87.816406 101.707031 87.738281 100.925781 87.738281 100.132812 C 87.738281 99.339844 87.816406 98.558594 87.96875 97.78125 C 88.125 97.003906 88.355469 96.25 88.65625 95.519531 C 88.960938 94.789062 89.335938 94.09375 89.773438 93.4375 C 90.214844 92.777344 90.71875 92.167969 91.277344 91.609375 C 91.839844 91.050781 92.449219 90.550781 93.109375 90.109375 C 93.769531 89.671875 94.46875 89.300781 95.199219 88.996094 C 95.933594 88.695312 96.691406 88.464844 97.46875 88.3125 C 98.246094 88.15625 99.035156 88.078125 99.828125 88.078125 C 100.621094 88.078125 101.40625 88.15625 102.1875 88.3125 C 102.964844 88.464844 103.71875 88.695312 104.453125 88.996094 C 105.1875 89.300781 105.882812 89.671875 106.542969 90.109375 C 107.203125 90.550781 107.816406 91.050781 108.375 91.609375 C 108.9375 92.167969 109.4375 92.777344 109.878906 93.4375 C 110.320312 94.09375 110.691406 94.789062 110.996094 95.519531 C 111.300781 96.25 111.53125 97.003906 111.683594 97.78125 C 111.839844 98.558594 111.917969 99.339844 111.917969 100.132812 Z M 111.917969 100.132812 " fill-opacity="1" fill-rule="nonzero"/><path fill="#e9e9ff" d="M 109.585938 100.132812 C 109.585938 100.773438 109.523438 101.40625 109.398438 102.03125 C 109.273438 102.65625 109.089844 103.265625 108.84375 103.855469 C 108.597656 104.445312 108.296875 105.007812 107.941406 105.539062 C 107.585938 106.070312 107.183594 106.5625 106.730469 107.011719 C 106.277344 107.464844 105.78125 107.867188 105.25 108.222656 C 104.71875 108.578125 104.15625 108.878906 103.5625 109.121094 C 102.96875 109.367188 102.359375 109.550781 101.730469 109.675781 C 101.101562 109.800781 100.46875 109.863281 99.828125 109.863281 C 99.1875 109.863281 98.550781 109.800781 97.921875 109.675781 C 97.292969 109.550781 96.683594 109.367188 96.09375 109.121094 C 95.5 108.878906 94.9375 108.578125 94.40625 108.222656 C 93.871094 107.867188 93.378906 107.464844 92.925781 107.011719 C 92.472656 106.5625 92.066406 106.070312 91.710938 105.539062 C 91.355469 105.007812 91.054688 104.445312 90.808594 103.855469 C 90.566406 103.265625 90.378906 102.65625 90.253906 102.03125 C 90.128906 101.40625 90.066406 100.773438 90.066406 100.132812 C 90.066406 99.492188 90.128906 98.859375 90.253906 98.234375 C 90.378906 97.609375 90.566406 97 90.808594 96.410156 C 91.054688 95.820312 91.355469 95.257812 91.710938 94.726562 C 92.066406 94.195312 92.472656 93.703125 92.925781 93.25 C 93.378906 92.800781 93.871094 92.398438 94.40625 92.042969 C 94.9375 91.6875 95.5 91.386719 96.09375 91.140625 C 96.683594 90.898438 97.292969 90.714844 97.921875 90.589844 C 98.550781 90.464844 99.1875 90.402344 99.828125 90.402344 C 100.46875 90.402344 101.101562 90.464844 101.730469 90.589844 C 102.359375 90.714844 102.96875 90.898438 103.5625 91.140625 C 104.15625 91.386719 104.71875 91.6875 105.25 92.042969 C 105.78125 92.398438 106.277344 92.800781 106.730469 93.25 C 107.183594 93.703125 107.585938 94.195312 107.941406 94.726562 C 108.296875 95.257812 108.597656 95.820312 108.84375 96.410156 C 109.089844 97 109.273438 97.609375 109.398438 98.234375 C 109.523438 98.859375 109.585938 99.492188 109.585938 100.132812 Z M 109.585938 100.132812 " fill-opacity="1" fill-rule="nonzero"/></svg>