<svg xmlns="http://www.w3.org/2000/svg" xmlns:xlink="http://www.w3.org/1999/xlink" width="170" zoomAndPan="magnify" viewBox="0 0 127.5 127.499994" height="170" preserveAspectRatio="xMidYMid meet" version="1.0"><path fill="#abbcff" d="M 94.910156 82.988281 L 83.804688 51.523438 C 80.777344 42.949219 72.140625 38.65625 64.558594 38.65625 C 56.980469 38.65625 48.34375 42.945312 45.3125 51.523438 L 34.210938 82.988281 C 28.449219 99.304688 18.238281 113.679688 4.726562 124.488281 L 4.234375 124.886719 L 124.886719 124.886719 C 111.375 114.078125 100.664062 99.304688 94.910156 82.988281 Z M 94.910156 82.988281 " fill-opacity="1" fill-rule="nonzero"/><path fill="#2b3660" d="M 95.25 122.769531 L 95.25 120.652344 L 91.019531 120.652344 L 91.019531 122.769531 L 65.617188 122.769531 L 65.617188 120.652344 L 61.382812 120.652344 L 61.382812 122.769531 L 38.101562 122.769531 L 38.101562 120.652344 L 33.867188 120.652344 L 33.867188 122.769531 L 4.234375 122.769531 L 4.234375 0 L 0 0 L 0 124.886719 C 0 126.054688 0.945312 127 2.117188 127 L 127 127 L 127 122.769531 Z M 95.25 122.769531 " fill-opacity="1" fill-rule="nonzero"/><path fill="#2b3660" d="M 61.382812 52.917969 L 65.617188 52.917969 L 65.617188 57.152344 L 61.382812 57.152344 Z M 61.382812 52.917969 " fill-opacity="1" fill-rule="nonzero"/><path fill="#2b3660" d="M 61.382812 61.382812 L 65.617188 61.382812 L 65.617188 65.617188 L 61.382812 65.617188 Z M 61.382812 61.382812 " fill-opacity="1" fill-rule="nonzero"/><path fill="#2b3660" d="M 61.382812 69.851562 L 65.617188 69.851562 L 65.617188 74.085938 L 61.382812 74.085938 Z M 61.382812 69.851562 " fill-opacity="1" fill-rule="nonzero"/><path fill="#2b3660" d="M 61.382812 78.316406 L 65.617188 78.316406 L 65.617188 82.550781 L 61.382812 82.550781 Z M 61.382812 78.316406 " fill-opacity="1" fill-rule="nonzero"/><path fill="#2b3660" d="M 61.382812 86.785156 L 65.617188 86.785156 L 65.617188 91.019531 L 61.382812 91.019531 Z M 61.382812 86.785156 " fill-opacity="1" fill-rule="nonzero"/><path fill="#2b3660" d="M 61.382812 95.25 L 65.617188 95.25 L 65.617188 99.484375 L 61.382812 99.484375 Z M 61.382812 95.25 " fill-opacity="1" fill-rule="nonzero"/><path fill="#2b3660" d="M 61.382812 103.71875 L 65.617188 103.71875 L 65.617188 107.953125 L 61.382812 107.953125 Z M 61.382812 103.71875 " fill-opacity="1" fill-rule="nonzero"/><path fill="#2b3660" d="M 61.382812 112.183594 L 65.617188 112.183594 L 65.617188 116.417969 L 61.382812 116.417969 Z M 61.382812 112.183594 " fill-opacity="1" fill-rule="nonzero"/><path fill="#2b3660" d="M 33.867188 95.25 L 38.101562 95.25 L 38.101562 99.484375 L 33.867188 99.484375 Z M 33.867188 95.25 " fill-opacity="1" fill-rule="nonzero"/><path fill="#2b3660" d="M 33.867188 103.71875 L 38.101562 103.71875 L 38.101562 107.953125 L 33.867188 107.953125 Z M 33.867188 103.71875 " fill-opacity="1" fill-rule="nonzero"/><path fill="#2b3660" d="M 33.867188 112.183594 L 38.101562 112.183594 L 38.101562 116.417969 L 33.867188 116.417969 Z M 33.867188 112.183594 " fill-opacity="1" fill-rule="nonzero"/><path fill="#2b3660" d="M 61.382812 44.449219 L 65.617188 44.449219 L 65.617188 48.683594 L 61.382812 48.683594 Z M 61.382812 44.449219 " fill-opacity="1" fill-rule="nonzero"/><path fill="#2b3660" d="M 91.019531 95.25 L 95.25 95.25 L 95.25 99.484375 L 91.019531 99.484375 Z M 91.019531 95.25 " fill-opacity="1" fill-rule="nonzero"/><path fill="#2b3660" d="M 91.019531 103.71875 L 95.25 103.71875 L 95.25 107.953125 L 91.019531 107.953125 Z M 91.019531 103.71875 " fill-opacity="1" fill-rule="nonzero"/><path fill="#2b3660" d="M 91.019531 112.183594 L 95.25 112.183594 L 95.25 116.417969 L 91.019531 116.417969 Z M 91.019531 112.183594 " fill-opacity="1" fill-rule="nonzero"/></svg>