<svg xmlns="http://www.w3.org/2000/svg" xmlns:xlink="http://www.w3.org/1999/xlink" width="170" zoomAndPan="magnify" viewBox="0 0 127.5 127.499994" height="170" preserveAspectRatio="xMidYMid meet" version="1.0"><defs><clipPath id="ee71e8bb3c"><path d="M 49 87 L 119 87 L 119 127 L 49 127 Z M 49 87 " clip-rule="nonzero"/></clipPath><clipPath id="0d76a449ee"><path d="M 0 0.238281 L 112 0.238281 L 112 125 L 0 125 Z M 0 0.238281 " clip-rule="nonzero"/></clipPath><clipPath id="8d35f3f2d7"><path d="M 51 0.238281 L 67 0.238281 L 67 8 L 51 8 Z M 51 0.238281 " clip-rule="nonzero"/></clipPath><clipPath id="db9b1eb401"><path d="M 31 0.238281 L 54 0.238281 L 54 19 L 31 19 Z M 31 0.238281 " clip-rule="nonzero"/></clipPath><clipPath id="1f4b84269e"><path d="M 70 98 L 119 98 L 119 127 L 70 127 Z M 70 98 " clip-rule="nonzero"/></clipPath><clipPath id="aa494fd2b4"><path d="M 49 115 L 71 115 L 71 127 L 49 127 Z M 49 115 " clip-rule="nonzero"/></clipPath></defs><g clip-path="url(#ee71e8bb3c)"><path fill="#bac1ce" d="M 99.554688 87.476562 L 118.796875 98.542969 L 118.796875 99.148438 L 70.625 127.242188 L 55.769531 118.714844 L 52.816406 120.433594 C 52.453125 120.644531 51.945312 120.621094 51.371094 120.285156 C 50.242188 119.640625 49.332031 118.058594 49.332031 116.753906 C 49.339844 116.089844 49.578125 115.632812 49.964844 115.421875 L 98.109375 87.339844 C 98.476562 87.121094 98.980469 87.148438 99.554688 87.476562 Z M 99.554688 87.476562 " fill-opacity="1" fill-rule="nonzero"/></g><path fill="#bac1ce" d="M 126.808594 66.5 C 126.808594 66.691406 126.679688 66.890625 126.425781 67.039062 L 103.269531 80.460938 C 102.753906 80.757812 101.929688 80.757812 101.425781 80.460938 L 87.054688 72.316406 C 86.878906 72.226562 86.769531 72.039062 86.769531 71.839844 L 86.757812 71.261719 L 111.765625 56.769531 L 126.425781 65.320312 C 126.671875 65.46875 126.800781 65.65625 126.800781 65.855469 Z M 126.808594 66.5 " fill-opacity="1" fill-rule="nonzero"/><g clip-path="url(#0d76a449ee)"><path fill="#bac1ce" d="M 50.835938 104.347656 L 42.03125 109.449219 C 41.695312 109.636719 41.386719 109.636719 41.179688 109.488281 L 39.011719 108.226562 C 38.792969 108.097656 38.664062 107.859375 38.664062 107.511719 L 38.59375 80.222656 C 38.59375 79.503906 39.109375 78.621094 39.714844 78.261719 L 47.945312 73.492188 C 47.925781 73.421875 47.90625 73.351562 47.90625 73.273438 L 47.90625 50.128906 L 39.933594 54.75 L 39.960938 66.054688 C 39.960938 66.292969 39.832031 66.511719 39.636719 66.632812 L 1.355469 88.808594 L 1.386719 99.296875 L 9.964844 104.339844 L 15.804688 100.957031 C 16.351562 100.640625 17.242188 100.640625 17.785156 100.957031 L 40.328125 114.101562 C 40.605469 114.269531 40.734375 114.480469 40.734375 114.699219 L 40.746094 116.359375 C 40.746094 116.578125 40.597656 116.785156 40.320312 116.945312 L 27.382812 124.441406 C 26.839844 124.769531 25.949219 124.769531 25.402344 124.441406 L 2.863281 111.296875 C 2.585938 111.136719 2.457031 110.929688 2.457031 110.722656 L 2.457031 109.039062 C 2.457031 109.101562 2.484375 109.148438 2.503906 109.199219 C 2.414062 108.941406 2.515625 108.664062 2.863281 108.453125 L 8.65625 105.105469 L 0.394531 100.253906 C 0.199219 100.132812 0.0703125 99.914062 0.0703125 99.675781 L 0.0390625 88.433594 C 0.0390625 88.195312 0.167969 87.976562 0.367188 87.867188 L 38.644531 65.675781 L 38.617188 55.507812 L 22.480469 64.863281 C 19.183594 66.769531 16.222656 66.761719 14.242188 65.210938 C 14.429688 65.359375 14.628906 65.496094 14.835938 65.617188 L 10.636719 63.171875 C 8.707031 62.046875 7.507812 59.640625 7.496094 56.222656 C 7.476562 49.402344 12.269531 41.042969 18.210938 37.601562 C 18.449219 37.464844 18.667969 37.332031 18.90625 37.226562 C 18.707031 36.460938 18.597656 35.613281 18.597656 34.667969 C 18.578125 28.417969 22.976562 20.761719 28.355469 17.648438 C 29.414062 17.035156 30.445312 16.644531 31.375 16.425781 L 31.386719 16.425781 C 32.8125 10.742188 36.78125 4.90625 41.488281 2.191406 C 44.476562 0.453125 47.203125 0.292969 49.152344 1.433594 L 53.027344 3.691406 C 53.796875 3.027344 54.589844 2.4375 55.414062 1.960938 C 58.144531 0.382812 60.613281 0.242188 62.382812 1.277344 L 66.585938 3.730469 C 65.355469 3.007812 63.800781 2.855469 62.046875 3.363281 C 65.792969 2.300781 68.652344 4.21875 69.296875 8.285156 C 70.84375 8.484375 72.25 8.941406 73.128906 9.457031 L 77.25 11.875 C 79.222656 12.976562 80.449219 15.382812 80.460938 18.8125 C 80.488281 25.703125 75.675781 34.011719 69.753906 37.460938 L 58.929688 43.734375 L 58.886719 56.519531 L 95.601562 35.15625 C 95.800781 35.039062 96.046875 35.039062 96.257812 35.15625 C 96.464844 35.277344 96.582031 35.496094 96.582031 35.722656 L 96.601562 46.371094 L 109.875 38.6875 C 110.132812 38.535156 110.371094 38.515625 110.539062 38.617188 L 111.4375 39.144531 C 111.4375 39.144531 111.4375 39.144531 111.449219 39.152344 C 111.609375 39.242188 111.714844 39.449219 111.714844 39.738281 L 111.765625 56.757812 L 86.757812 71.253906 L 86.113281 70.886719 C 85.945312 70.785156 85.847656 70.597656 85.847656 70.410156 L 85.796875 53.707031 C 85.796875 53.109375 86.203125 52.394531 86.71875 52.097656 L 95.285156 47.136719 L 95.277344 36.875 L 58.5625 58.242188 C 58.460938 58.300781 58.34375 58.328125 58.234375 58.328125 C 58.117188 58.328125 58.007812 58.300781 57.898438 58.242188 C 57.699219 58.132812 57.570312 57.902344 57.570312 57.671875 L 57.609375 44.5 L 49.222656 49.363281 L 49.222656 72.753906 L 76.300781 57.078125 C 76.585938 56.886719 76.882812 56.886719 77.082031 57.007812 L 79.230469 58.261719 C 79.46875 58.359375 79.628906 58.617188 79.628906 59.015625 L 79.707031 86.292969 C 79.707031 87.019531 79.210938 87.894531 78.585938 88.261719 L 69.613281 93.460938 L 73.425781 95.679688 L 73.457031 97.28125 L 56.035156 107.378906 Z M 50.835938 104.347656 " fill-opacity="1" fill-rule="nonzero"/></g><path fill="#416e84" d="M 48.5625 73.9375 C 48.199219 73.9375 47.902344 73.640625 47.902344 73.277344 L 47.902344 46.457031 C 47.902344 46.09375 48.199219 45.796875 48.5625 45.796875 C 48.925781 45.796875 49.21875 46.09375 49.21875 46.457031 L 49.21875 73.277344 C 49.21875 73.640625 48.925781 73.9375 48.5625 73.9375 Z M 48.5625 73.9375 " fill-opacity="1" fill-rule="nonzero"/><path fill="#416e84" d="M 58.230469 58.332031 C 58.117188 58.332031 58.003906 58.304688 57.902344 58.242188 C 57.699219 58.125 57.574219 57.90625 57.574219 57.671875 L 57.636719 34.917969 C 57.640625 34.554688 57.933594 34.261719 58.296875 34.261719 C 58.660156 34.261719 58.953125 34.558594 58.953125 34.921875 L 58.894531 56.527344 L 95.597656 35.15625 C 95.804688 35.039062 96.050781 35.039062 96.257812 35.15625 C 96.460938 35.273438 96.585938 35.488281 96.585938 35.726562 L 96.605469 47.226562 C 96.605469 47.589844 96.3125 47.886719 95.949219 47.886719 L 95.945312 47.886719 C 95.582031 47.886719 95.289062 47.589844 95.289062 47.226562 L 95.273438 36.871094 L 58.5625 58.242188 C 58.457031 58.304688 58.34375 58.332031 58.230469 58.332031 Z M 58.230469 58.332031 " fill-opacity="1" fill-rule="nonzero"/><path fill="#474b59" d="M 56.035156 107.378906 L 47.808594 102.578125 L 47.777344 100.980469 L 56.003906 105.777344 Z M 56.035156 107.378906 " fill-opacity="1" fill-rule="nonzero"/><path fill="#525566" d="M 56.003906 105.777344 L 47.777344 100.980469 L 65.203125 90.882812 L 73.429688 95.679688 Z M 56.003906 105.777344 " fill-opacity="1" fill-rule="nonzero"/><path fill="#3f434f" d="M 73.429688 95.679688 L 73.460938 97.277344 L 56.035156 107.378906 L 56.003906 105.777344 Z M 73.429688 95.679688 " fill-opacity="1" fill-rule="nonzero"/><path fill="#bac1ce" d="M 79.300781 58.304688 C 79.105469 58.183594 78.8125 58.183594 78.496094 58.378906 L 41.9375 79.554688 C 41.324219 79.921875 40.8125 80.800781 40.8125 81.511719 L 40.886719 108.785156 C 40.886719 109.152344 41.007812 109.394531 41.226562 109.519531 L 39.007812 108.222656 C 38.789062 108.101562 38.667969 107.855469 38.667969 107.511719 L 38.59375 80.214844 C 38.59375 79.507812 39.105469 78.625 39.714844 78.257812 L 76.300781 57.082031 C 76.589844 56.886719 76.882812 56.886719 77.078125 57.007812 Z M 79.300781 58.304688 " fill-opacity="1" fill-rule="nonzero"/><path fill="#5b5e71" d="M 78.507812 58.375 C 79.128906 58.011719 79.628906 58.296875 79.628906 59.015625 L 79.707031 86.296875 C 79.710938 87.015625 79.214844 87.898438 78.589844 88.257812 L 42.027344 109.449219 C 41.40625 109.808594 40.890625 109.511719 40.886719 108.796875 L 40.8125 81.511719 C 40.808594 80.796875 41.320312 79.921875 41.945312 79.5625 Z M 78.507812 58.375 " fill-opacity="1" fill-rule="nonzero"/><path fill="#748bfd" d="M 42.542969 81.207031 L 42.613281 107.105469 L 77.976562 86.613281 L 77.902344 60.714844 Z M 42.542969 81.207031 " fill-opacity="1" fill-rule="nonzero"/><path fill="#e4e8f4" d="M 47.4375 86.167969 L 47.4375 86.664062 L 44.472656 88.382812 L 44.46875 87.886719 Z M 47.4375 86.167969 " fill-opacity="1" fill-rule="nonzero"/><path fill="#e4e8f4" d="M 49.777344 98.628906 L 49.777344 99.117188 L 44.511719 102.171875 L 44.511719 101.683594 Z M 49.777344 98.628906 " fill-opacity="1" fill-rule="nonzero"/><path fill="#e4e8f4" d="M 65.667969 91.398438 L 65.667969 91.886719 L 62.492188 93.726562 L 62.492188 93.238281 Z M 65.667969 91.398438 " fill-opacity="1" fill-rule="nonzero"/><path fill="#e4e8f4" d="M 61.695312 93.703125 L 61.695312 94.1875 L 55.992188 97.492188 L 55.992188 97.007812 Z M 61.695312 93.703125 " fill-opacity="1" fill-rule="nonzero"/><path fill="#e4e8f4" d="M 65.660156 89.425781 L 65.660156 89.914062 L 59.097656 93.714844 L 59.097656 93.230469 Z M 65.660156 89.425781 " fill-opacity="1" fill-rule="nonzero"/><path fill="#e4e8f4" d="M 59.265625 89.183594 L 59.269531 89.671875 L 51.175781 94.363281 L 51.171875 93.875 Z M 59.265625 89.183594 " fill-opacity="1" fill-rule="nonzero"/><path fill="#e4e8f4" d="M 63.167969 75.082031 L 63.171875 75.566406 L 59.359375 77.777344 L 59.359375 77.289062 Z M 63.167969 75.082031 " fill-opacity="1" fill-rule="nonzero"/><path fill="#e4e8f4" d="M 65.648438 85.484375 L 65.652344 85.972656 L 60.558594 88.925781 L 60.554688 88.4375 Z M 65.648438 85.484375 " fill-opacity="1" fill-rule="nonzero"/><path fill="#e4e8f4" d="M 61.96875 89.59375 L 61.96875 90.082031 L 56.527344 93.234375 L 56.527344 92.75 Z M 61.96875 89.59375 " fill-opacity="1" fill-rule="nonzero"/><path fill="#e4e8f4" d="M 65.65625 87.460938 L 65.65625 87.945312 L 62.460938 89.796875 L 62.460938 89.3125 Z M 65.65625 87.460938 " fill-opacity="1" fill-rule="nonzero"/><path fill="#e4e8f4" d="M 63.34375 84.851562 L 63.34375 85.339844 L 55.726562 89.753906 L 55.726562 89.265625 Z M 63.34375 84.851562 " fill-opacity="1" fill-rule="nonzero"/><path fill="#e4e8f4" d="M 65.644531 83.519531 L 65.644531 84.007812 L 63.976562 84.972656 L 63.972656 84.488281 Z M 65.644531 83.519531 " fill-opacity="1" fill-rule="nonzero"/><path fill="#e4e8f4" d="M 65.632812 79.570312 L 65.632812 80.066406 L 62.507812 81.875 L 62.507812 81.382812 Z M 65.632812 79.570312 " fill-opacity="1" fill-rule="nonzero"/><path fill="#e4e8f4" d="M 65.636719 81.542969 L 65.640625 82.03125 L 60.394531 85.070312 L 60.390625 84.585938 Z M 65.636719 81.542969 " fill-opacity="1" fill-rule="nonzero"/><path fill="#e4e8f4" d="M 65.628906 77.601562 L 65.628906 78.089844 L 59.164062 81.839844 L 59.160156 81.351562 Z M 65.628906 77.601562 " fill-opacity="1" fill-rule="nonzero"/><path fill="#e4e8f4" d="M 65.621094 75.628906 L 65.621094 76.125 L 56.171875 81.601562 L 56.167969 81.105469 Z M 65.621094 75.628906 " fill-opacity="1" fill-rule="nonzero"/><path fill="#e4e8f4" d="M 61.578125 81.917969 L 61.578125 82.414062 L 55.417969 85.984375 L 55.417969 85.488281 Z M 61.578125 81.917969 " fill-opacity="1" fill-rule="nonzero"/><path fill="#e4e8f4" d="M 59.589844 85.050781 L 59.589844 85.539062 L 52.8125 89.464844 L 52.8125 88.976562 Z M 59.589844 85.050781 " fill-opacity="1" fill-rule="nonzero"/><path fill="#e4e8f4" d="M 54.800781 85.847656 L 54.800781 86.34375 L 49.527344 89.398438 L 49.527344 88.902344 Z M 54.800781 85.847656 " fill-opacity="1" fill-rule="nonzero"/><path fill="#e4e8f4" d="M 54.832031 81.882812 L 54.832031 82.378906 L 48.441406 86.082031 L 48.441406 85.585938 Z M 54.832031 81.882812 " fill-opacity="1" fill-rule="nonzero"/><path fill="#e4e8f4" d="M 47.222656 98.140625 L 47.222656 98.628906 L 44.503906 100.203125 L 44.503906 99.714844 Z M 47.222656 98.140625 " fill-opacity="1" fill-rule="nonzero"/><path fill="#e4e8f4" d="M 55.367188 97.367188 L 55.371094 97.855469 L 48.390625 101.898438 L 48.390625 101.410156 Z M 55.367188 97.367188 " fill-opacity="1" fill-rule="nonzero"/><path fill="#e4e8f4" d="M 58.09375 93.8125 L 58.09375 94.296875 L 50.839844 98.503906 L 50.835938 98.015625 Z M 58.09375 93.8125 " fill-opacity="1" fill-rule="nonzero"/><path fill="#e4e8f4" d="M 55.945312 93.085938 L 55.949219 93.574219 L 47.957031 98.203125 L 47.957031 97.714844 Z M 55.945312 93.085938 " fill-opacity="1" fill-rule="nonzero"/><path fill="#e4e8f4" d="M 49.648438 94.757812 L 49.648438 95.246094 L 44.5 98.230469 L 44.5 97.742188 Z M 49.648438 94.757812 " fill-opacity="1" fill-rule="nonzero"/><path fill="#e4e8f4" d="M 47.222656 94.191406 L 47.226562 94.679688 L 44.496094 96.261719 L 44.492188 95.777344 Z M 47.222656 94.191406 " fill-opacity="1" fill-rule="nonzero"/><path fill="#e4e8f4" d="M 51.339844 89.828125 L 51.34375 90.316406 L 44.488281 94.289062 L 44.488281 93.800781 Z M 51.339844 89.828125 " fill-opacity="1" fill-rule="nonzero"/><path fill="#e4e8f4" d="M 54.292969 90.097656 L 54.292969 90.585938 L 48.5625 93.90625 L 48.5625 93.417969 Z M 54.292969 90.097656 " fill-opacity="1" fill-rule="nonzero"/><path fill="#e4e8f4" d="M 48.785156 89.332031 L 48.789062 89.828125 L 44.484375 92.324219 L 44.480469 91.828125 Z M 48.785156 89.332031 " fill-opacity="1" fill-rule="nonzero"/><path fill="#e4e8f4" d="M 52.652344 85.121094 L 52.65625 85.609375 L 44.476562 90.347656 L 44.476562 89.859375 Z M 52.652344 85.121094 " fill-opacity="1" fill-rule="nonzero"/><path fill="#e4e8f4" d="M 51.671875 81.742188 L 51.675781 82.230469 L 44.46875 86.40625 L 44.464844 85.921875 Z M 51.671875 81.742188 " fill-opacity="1" fill-rule="nonzero"/><path fill="#e4e8f4" d="M 49.484375 81.035156 L 49.484375 81.53125 L 44.460938 84.441406 L 44.460938 83.945312 Z M 49.484375 81.035156 " fill-opacity="1" fill-rule="nonzero"/><path fill="#e4e8f4" d="M 56.648438 76.882812 L 56.652344 77.378906 L 50.476562 80.957031 L 50.476562 80.460938 Z M 56.648438 76.882812 " fill-opacity="1" fill-rule="nonzero"/><path fill="#e4e8f4" d="M 51.953125 77.632812 L 51.953125 78.121094 L 44.457031 82.46875 L 44.453125 81.980469 Z M 51.953125 77.632812 " fill-opacity="1" fill-rule="nonzero"/><path fill="#e4e8f4" d="M 65.617188 73.664062 L 65.617188 74.148438 L 64.183594 74.980469 L 64.179688 74.496094 Z M 65.617188 73.664062 " fill-opacity="1" fill-rule="nonzero"/><path fill="#e4e8f4" d="M 65.609375 71.6875 L 65.613281 72.183594 L 57.433594 76.921875 L 57.433594 76.425781 Z M 65.609375 71.6875 " fill-opacity="1" fill-rule="nonzero"/><path fill="#e4e8f4" d="M 65.605469 69.722656 L 65.605469 70.210938 L 62.167969 72.203125 L 62.167969 71.714844 Z M 65.605469 69.722656 " fill-opacity="1" fill-rule="nonzero"/><path fill="#e4e8f4" d="M 58.699219 77.671875 L 58.699219 78.160156 L 52.929688 81.503906 L 52.925781 81.015625 Z M 58.699219 77.671875 " fill-opacity="1" fill-rule="nonzero"/><path fill="#e4e8f4" d="M 61.101562 72.332031 L 61.101562 72.820312 L 52.710938 77.683594 L 52.707031 77.195312 Z M 61.101562 72.332031 " fill-opacity="1" fill-rule="nonzero"/><path fill="#e4e8f4" d="M 58.273438 81.863281 L 58.277344 82.351562 L 53.085938 85.359375 L 53.082031 84.871094 Z M 58.273438 81.863281 " fill-opacity="1" fill-rule="nonzero"/><path fill="#e4e8f4" d="M 47.382812 101.996094 L 47.386719 102.480469 L 44.515625 104.144531 L 44.515625 103.65625 Z M 47.382812 101.996094 " fill-opacity="1" fill-rule="nonzero"/><path fill="#e4e8f4" d="M 76.042969 63.671875 L 76.042969 64.160156 L 68.558594 68.5 L 68.558594 68.011719 Z M 76.042969 63.671875 " fill-opacity="1" fill-rule="nonzero"/><path fill="#e4e8f4" d="M 73.765625 66.960938 L 73.769531 67.457031 L 68.5625 70.472656 L 68.5625 69.976562 Z M 73.765625 66.960938 " fill-opacity="1" fill-rule="nonzero"/><path fill="#e4e8f4" d="M 73.039062 75.277344 L 73.042969 75.773438 L 68.585938 78.355469 L 68.585938 77.859375 Z M 73.039062 75.277344 " fill-opacity="1" fill-rule="nonzero"/><path fill="#e4e8f4" d="M 75.695312 75.71875 L 75.695312 76.203125 L 68.589844 80.320312 L 68.589844 79.832031 Z M 75.695312 75.71875 " fill-opacity="1" fill-rule="nonzero"/><path fill="#e4e8f4" d="M 76.0625 71.554688 L 76.066406 72.042969 L 68.582031 76.378906 L 68.578125 75.894531 Z M 76.0625 71.554688 " fill-opacity="1" fill-rule="nonzero"/><path fill="#e4e8f4" d="M 71.644531 72.140625 L 71.644531 72.632812 L 68.574219 74.414062 L 68.574219 73.917969 Z M 71.644531 72.140625 " fill-opacity="1" fill-rule="nonzero"/><path fill="#e4e8f4" d="M 76.03125 67.625 L 76.03125 68.113281 L 68.570312 72.441406 L 68.566406 71.953125 Z M 76.03125 67.625 " fill-opacity="1" fill-rule="nonzero"/><path fill="#e4e8f4" d="M 73.9375 80.679688 L 73.9375 81.167969 L 68.601562 84.261719 L 68.601562 83.773438 Z M 73.9375 80.679688 " fill-opacity="1" fill-rule="nonzero"/><path fill="#e4e8f4" d="M 71.429688 80.164062 L 71.433594 80.652344 L 68.597656 82.296875 L 68.59375 81.808594 Z M 71.429688 80.164062 " fill-opacity="1" fill-rule="nonzero"/><path fill="#e4e8f4" d="M 71.421875 84.117188 L 71.421875 84.605469 L 68.609375 86.234375 L 68.605469 85.75 Z M 71.421875 84.117188 " fill-opacity="1" fill-rule="nonzero"/><path fill="#e4e8f4" d="M 71.589844 87.964844 L 71.59375 88.453125 L 68.621094 90.175781 L 68.617188 89.6875 Z M 71.589844 87.964844 " fill-opacity="1" fill-rule="nonzero"/><path fill="#e4e8f4" d="M 74.074219 84.550781 L 74.074219 85.039062 L 68.613281 88.203125 L 68.613281 87.714844 Z M 74.074219 84.550781 " fill-opacity="1" fill-rule="nonzero"/><path fill="#bac1ce" d="M 111.445312 39.148438 C 111.277344 39.050781 111.042969 39.0625 110.785156 39.214844 L 87.632812 52.632812 C 87.117188 52.929688 86.707031 53.644531 86.707031 54.238281 L 86.757812 71.253906 L 86.117188 70.882812 C 85.949219 70.78125 85.84375 70.601562 85.84375 70.40625 L 85.796875 53.703125 C 85.796875 53.113281 86.207031 52.398438 86.71875 52.097656 L 109.871094 38.683594 C 110.132812 38.535156 110.367188 38.519531 110.535156 38.617188 Z M 111.445312 39.148438 " fill-opacity="1" fill-rule="nonzero"/><path fill="#5b5e71" d="M 110.785156 39.214844 C 111.296875 38.917969 111.714844 39.15625 111.714844 39.746094 L 111.761719 56.761719 L 86.757812 71.253906 L 86.707031 54.238281 C 86.707031 53.648438 87.121094 52.929688 87.632812 52.632812 Z M 110.785156 39.214844 " fill-opacity="1" fill-rule="nonzero"/><path fill="#fed57a" d="M 87.847656 54.234375 C 87.847656 54.050781 88.042969 53.714844 88.199219 53.621094 L 110.578125 40.652344 L 110.621094 56.101562 L 87.890625 69.277344 Z M 87.847656 54.234375 " fill-opacity="1" fill-rule="nonzero"/><path fill="#e4e8f4" d="M 86.757812 71.261719 L 86.765625 71.839844 C 86.765625 72.039062 86.875 72.222656 87.050781 72.320312 L 101.425781 80.457031 C 101.933594 80.757812 102.757812 80.757812 103.269531 80.457031 L 126.421875 67.042969 C 126.683594 66.894531 126.8125 66.695312 126.8125 66.5 L 126.804688 65.855469 C 126.804688 66.050781 126.675781 66.246094 126.414062 66.394531 L 103.265625 79.773438 C 102.753906 80.066406 101.925781 80.066406 101.421875 79.773438 Z M 86.757812 71.261719 " fill-opacity="1" fill-rule="nonzero"/><path fill="#cad0dd" d="M 86.757812 71.257812 L 101.417969 79.808594 C 101.925781 80.105469 102.75 80.105469 103.261719 79.808594 L 126.414062 66.390625 C 126.929688 66.09375 126.933594 65.613281 126.421875 65.316406 L 111.765625 56.765625 Z M 86.757812 71.257812 " fill-opacity="1" fill-rule="nonzero"/><path fill="#bac1ce" d="M 115.445312 71.464844 L 115.320312 71.542969 L 111.316406 73.867188 C 111.097656 73.996094 110.824219 73.996094 110.605469 73.867188 L 108.105469 72.417969 L 107.96875 72.335938 C 107.726562 72.210938 107.726562 71.855469 107.96875 71.726562 L 112.085938 69.324219 C 112.316406 69.183594 112.589844 69.183594 112.820312 69.3125 L 115.433594 70.84375 C 115.6875 70.980469 115.6875 71.324219 115.445312 71.464844 Z M 115.445312 71.464844 " fill-opacity="1" fill-rule="nonzero"/><path fill="#5b5e71" d="M 106.457031 63.519531 C 106.410156 63.550781 106.410156 63.597656 106.457031 63.625 L 107.371094 64.15625 C 107.417969 64.183594 107.496094 64.183594 107.546875 64.15625 L 108.464844 63.625 C 108.511719 63.59375 108.511719 63.550781 108.464844 63.523438 L 107.550781 62.992188 C 107.503906 62.960938 107.425781 62.960938 107.375 62.988281 Z M 106.457031 63.519531 " fill-opacity="1" fill-rule="nonzero"/><path fill="#5b5e71" d="M 105.671875 65.925781 C 105.621094 65.953125 105.625 66 105.671875 66.027344 L 106.585938 66.558594 C 106.632812 66.585938 106.710938 66.585938 106.757812 66.558594 L 107.675781 66.027344 C 107.726562 66 107.726562 65.953125 107.679688 65.925781 L 106.769531 65.390625 C 106.71875 65.363281 106.636719 65.363281 106.589844 65.390625 Z M 105.671875 65.925781 " fill-opacity="1" fill-rule="nonzero"/><path fill="#5b5e71" d="M 107.367188 64.941406 C 107.316406 64.972656 107.316406 65.019531 107.363281 65.046875 L 108.277344 65.578125 C 108.324219 65.605469 108.402344 65.605469 108.453125 65.578125 L 110.140625 64.601562 C 110.1875 64.570312 110.183594 64.527344 110.140625 64.5 L 109.226562 63.96875 C 109.179688 63.9375 109.101562 63.9375 109.050781 63.964844 Z M 107.367188 64.941406 " fill-opacity="1" fill-rule="nonzero"/><path fill="#5b5e71" d="M 98.222656 72.1875 C 98.171875 72.21875 98.175781 72.261719 98.222656 72.289062 L 99.132812 72.820312 C 99.183594 72.851562 99.261719 72.851562 99.308594 72.824219 L 100.226562 72.289062 C 100.277344 72.261719 100.273438 72.21875 100.226562 72.1875 L 99.3125 71.65625 C 99.265625 71.628906 99.191406 71.628906 99.140625 71.65625 Z M 98.222656 72.1875 " fill-opacity="1" fill-rule="nonzero"/><path fill="#5b5e71" d="M 93.324219 73.078125 C 93.277344 73.105469 93.277344 73.152344 93.328125 73.183594 L 94.238281 73.714844 C 94.285156 73.742188 94.363281 73.742188 94.410156 73.714844 L 95.734375 72.949219 C 95.777344 72.921875 95.777344 72.875 95.734375 72.847656 L 94.820312 72.316406 C 94.773438 72.289062 94.691406 72.289062 94.644531 72.3125 Z M 93.324219 73.078125 " fill-opacity="1" fill-rule="nonzero"/><path fill="#5b5e71" d="M 95.691406 71.707031 C 95.644531 71.734375 95.644531 71.78125 95.695312 71.808594 L 96.609375 72.339844 C 96.652344 72.367188 96.730469 72.371094 96.78125 72.339844 L 97.699219 71.808594 C 97.75 71.78125 97.746094 71.734375 97.699219 71.707031 L 96.789062 71.175781 C 96.738281 71.148438 96.660156 71.144531 96.613281 71.175781 Z M 95.691406 71.707031 " fill-opacity="1" fill-rule="nonzero"/><path fill="#5b5e71" d="M 97.355469 70.742188 C 97.308594 70.769531 97.308594 70.816406 97.359375 70.84375 L 98.269531 71.378906 C 98.316406 71.40625 98.398438 71.40625 98.445312 71.378906 L 99.363281 70.84375 C 99.410156 70.816406 99.410156 70.769531 99.367188 70.742188 L 98.453125 70.210938 C 98.402344 70.183594 98.324219 70.183594 98.273438 70.210938 Z M 97.355469 70.742188 " fill-opacity="1" fill-rule="nonzero"/><path fill="#5b5e71" d="M 109.824219 67.410156 C 109.777344 67.441406 109.777344 67.484375 109.824219 67.511719 L 110.738281 68.042969 C 110.785156 68.074219 110.859375 68.074219 110.910156 68.042969 L 113.484375 66.550781 C 113.535156 66.523438 113.535156 66.480469 113.484375 66.453125 L 112.574219 65.917969 C 112.523438 65.890625 112.449219 65.890625 112.402344 65.917969 Z M 109.824219 67.410156 " fill-opacity="1" fill-rule="nonzero"/><path fill="#5b5e71" d="M 102.347656 67.851562 C 102.296875 67.878906 102.300781 67.925781 102.347656 67.953125 L 103.261719 68.484375 C 103.308594 68.511719 103.382812 68.515625 103.433594 68.484375 L 104.351562 67.953125 C 104.402344 67.925781 104.398438 67.878906 104.351562 67.851562 L 103.441406 67.320312 C 103.390625 67.292969 103.3125 67.289062 103.265625 67.320312 Z M 102.347656 67.851562 " fill-opacity="1" fill-rule="nonzero"/><path fill="#5b5e71" d="M 104.902344 68.316406 C 104.851562 68.347656 104.855469 68.390625 104.902344 68.417969 L 105.8125 68.949219 C 105.863281 68.980469 105.941406 68.980469 105.988281 68.953125 L 106.90625 68.421875 C 106.957031 68.390625 106.953125 68.347656 106.90625 68.316406 L 105.992188 67.785156 C 105.945312 67.757812 105.867188 67.757812 105.820312 67.785156 Z M 104.902344 68.316406 " fill-opacity="1" fill-rule="nonzero"/><path fill="#5b5e71" d="M 100.683594 68.816406 C 100.632812 68.84375 100.632812 68.890625 100.683594 68.917969 L 101.59375 69.449219 C 101.640625 69.476562 101.722656 69.476562 101.769531 69.449219 L 102.6875 68.917969 C 102.734375 68.890625 102.734375 68.84375 102.691406 68.816406 L 101.777344 68.285156 C 101.730469 68.253906 101.648438 68.253906 101.601562 68.28125 Z M 100.683594 68.816406 " fill-opacity="1" fill-rule="nonzero"/><path fill="#5b5e71" d="M 103.230469 69.285156 C 103.183594 69.3125 103.183594 69.359375 103.230469 69.386719 L 104.140625 69.917969 C 104.191406 69.949219 104.273438 69.949219 104.316406 69.921875 L 105.238281 69.386719 C 105.285156 69.359375 105.285156 69.3125 105.238281 69.285156 L 104.324219 68.753906 C 104.277344 68.726562 104.199219 68.726562 104.152344 68.753906 Z M 103.230469 69.285156 " fill-opacity="1" fill-rule="nonzero"/><path fill="#5b5e71" d="M 99.019531 69.78125 C 98.972656 69.804688 98.972656 69.855469 99.019531 69.882812 L 99.933594 70.414062 C 99.980469 70.441406 100.058594 70.441406 100.105469 70.414062 L 101.027344 69.878906 C 101.074219 69.855469 101.074219 69.804688 101.027344 69.78125 L 100.117188 69.246094 C 100.066406 69.21875 99.984375 69.21875 99.941406 69.246094 Z M 99.019531 69.78125 " fill-opacity="1" fill-rule="nonzero"/><path fill="#5b5e71" d="M 101.5625 70.253906 C 101.511719 70.28125 101.515625 70.328125 101.5625 70.355469 L 102.472656 70.886719 C 102.523438 70.914062 102.601562 70.917969 102.648438 70.886719 L 103.566406 70.355469 C 103.617188 70.328125 103.613281 70.28125 103.566406 70.253906 L 102.652344 69.722656 C 102.605469 69.695312 102.527344 69.691406 102.480469 69.722656 Z M 101.5625 70.253906 " fill-opacity="1" fill-rule="nonzero"/><path fill="#5b5e71" d="M 99.890625 71.222656 C 99.84375 71.25 99.84375 71.296875 99.890625 71.324219 L 100.800781 71.855469 C 100.851562 71.882812 100.933594 71.882812 100.976562 71.855469 L 101.894531 71.324219 C 101.945312 71.296875 101.945312 71.25 101.898438 71.21875 L 100.984375 70.6875 C 100.9375 70.660156 100.859375 70.660156 100.808594 70.691406 Z M 99.890625 71.222656 " fill-opacity="1" fill-rule="nonzero"/><path fill="#5b5e71" d="M 99.78125 73.234375 C 99.734375 73.257812 99.730469 73.304688 99.78125 73.332031 L 100.691406 73.867188 C 100.742188 73.894531 100.820312 73.890625 100.867188 73.867188 L 110.3125 68.390625 C 110.359375 68.363281 110.359375 68.320312 110.3125 68.289062 L 109.398438 67.757812 C 109.351562 67.730469 109.277344 67.730469 109.226562 67.757812 Z M 99.78125 73.234375 " fill-opacity="1" fill-rule="nonzero"/><path fill="#5b5e71" d="M 106.570312 67.351562 C 106.523438 67.378906 106.523438 67.425781 106.570312 67.453125 L 107.480469 67.984375 C 107.53125 68.011719 107.609375 68.011719 107.65625 67.984375 L 108.578125 67.453125 C 108.625 67.425781 108.625 67.378906 108.574219 67.347656 L 107.664062 66.816406 C 107.617188 66.789062 107.535156 66.789062 107.492188 66.816406 Z M 106.570312 67.351562 " fill-opacity="1" fill-rule="nonzero"/><path fill="#5b5e71" d="M 108.25 66.378906 C 108.199219 66.40625 108.199219 66.453125 108.246094 66.480469 L 109.15625 67.011719 C 109.207031 67.039062 109.289062 67.039062 109.335938 67.011719 L 111.8125 65.578125 C 111.863281 65.546875 111.859375 65.503906 111.8125 65.472656 L 110.898438 64.941406 C 110.851562 64.914062 110.773438 64.914062 110.726562 64.941406 Z M 108.25 66.378906 " fill-opacity="1" fill-rule="nonzero"/><path fill="#5b5e71" d="M 103.167969 65.425781 C 103.117188 65.457031 103.117188 65.503906 103.167969 65.53125 L 104.078125 66.0625 C 104.128906 66.09375 104.207031 66.089844 104.253906 66.0625 L 105.171875 65.53125 C 105.21875 65.503906 105.222656 65.457031 105.175781 65.429688 L 104.261719 64.898438 C 104.214844 64.867188 104.132812 64.867188 104.085938 64.894531 Z M 103.167969 65.425781 " fill-opacity="1" fill-rule="nonzero"/><path fill="#5b5e71" d="M 104.8125 64.472656 C 104.765625 64.503906 104.761719 64.550781 104.8125 64.578125 L 105.726562 65.109375 C 105.773438 65.136719 105.851562 65.136719 105.902344 65.109375 L 106.820312 64.578125 C 106.867188 64.550781 106.867188 64.503906 106.820312 64.476562 L 105.90625 63.945312 C 105.859375 63.914062 105.777344 63.914062 105.730469 63.941406 Z M 104.8125 64.472656 " fill-opacity="1" fill-rule="nonzero"/><path fill="#5b5e71" d="M 96.671875 75.035156 C 96.625 75.058594 96.625 75.105469 96.671875 75.132812 L 97.585938 75.667969 C 97.632812 75.695312 97.710938 75.695312 97.757812 75.667969 L 99.90625 74.421875 C 99.953125 74.394531 99.953125 74.351562 99.90625 74.320312 L 98.992188 73.789062 C 98.945312 73.761719 98.867188 73.761719 98.820312 73.789062 Z M 96.671875 75.035156 " fill-opacity="1" fill-rule="nonzero"/><path fill="#5b5e71" d="M 95 74.058594 C 94.953125 74.082031 94.953125 74.128906 94.996094 74.15625 L 95.910156 74.691406 C 95.960938 74.71875 96.039062 74.71875 96.085938 74.691406 L 98.601562 73.234375 C 98.648438 73.207031 98.648438 73.160156 98.597656 73.132812 L 97.6875 72.601562 C 97.640625 72.574219 97.5625 72.570312 97.511719 72.601562 Z M 95 74.058594 " fill-opacity="1" fill-rule="nonzero"/><path fill="#5b5e71" d="M 104.007812 66.886719 C 103.960938 66.917969 103.960938 66.960938 104.011719 66.992188 L 104.921875 67.523438 C 104.96875 67.550781 105.046875 67.550781 105.097656 67.523438 L 106.015625 66.992188 C 106.0625 66.960938 106.0625 66.917969 106.015625 66.890625 L 105.101562 66.359375 C 105.054688 66.328125 104.976562 66.328125 104.925781 66.355469 Z M 104.007812 66.886719 " fill-opacity="1" fill-rule="nonzero"/><path fill="#5b5e71" d="M 94.9375 70.195312 C 94.894531 70.222656 94.890625 70.269531 94.941406 70.296875 L 95.855469 70.832031 C 95.902344 70.859375 95.980469 70.855469 96.027344 70.832031 L 96.949219 70.296875 C 96.996094 70.269531 96.996094 70.222656 96.949219 70.195312 L 96.035156 69.664062 C 95.988281 69.636719 95.90625 69.636719 95.859375 69.660156 Z M 94.9375 70.195312 " fill-opacity="1" fill-rule="nonzero"/><path fill="#5b5e71" d="M 96.585938 69.242188 C 96.539062 69.269531 96.539062 69.316406 96.585938 69.34375 L 97.5 69.878906 C 97.546875 69.90625 97.625 69.902344 97.675781 69.875 L 98.59375 69.34375 C 98.640625 69.316406 98.640625 69.269531 98.59375 69.242188 L 97.679688 68.710938 C 97.632812 68.683594 97.550781 68.683594 97.503906 68.707031 Z M 96.585938 69.242188 " fill-opacity="1" fill-rule="nonzero"/><path fill="#5b5e71" d="M 98.234375 68.289062 C 98.183594 68.316406 98.183594 68.363281 98.230469 68.390625 L 99.144531 68.925781 C 99.191406 68.953125 99.269531 68.949219 99.320312 68.921875 L 100.238281 68.390625 C 100.285156 68.363281 100.289062 68.316406 100.238281 68.289062 L 99.328125 67.757812 C 99.277344 67.730469 99.195312 67.730469 99.152344 67.753906 Z M 98.234375 68.289062 " fill-opacity="1" fill-rule="nonzero"/><path fill="#5b5e71" d="M 101.523438 66.382812 C 101.472656 66.410156 101.472656 66.457031 101.523438 66.484375 L 102.433594 67.015625 C 102.484375 67.046875 102.5625 67.042969 102.609375 67.015625 L 103.527344 66.484375 C 103.574219 66.457031 103.578125 66.410156 103.527344 66.382812 L 102.617188 65.851562 C 102.566406 65.820312 102.488281 65.820312 102.441406 65.847656 Z M 101.523438 66.382812 " fill-opacity="1" fill-rule="nonzero"/><path fill="#5b5e71" d="M 99.878906 67.335938 C 99.828125 67.363281 99.828125 67.410156 99.878906 67.4375 L 100.789062 67.96875 C 100.839844 68 100.917969 67.996094 100.964844 67.96875 L 101.882812 67.4375 C 101.929688 67.410156 101.933594 67.363281 101.882812 67.335938 L 100.972656 66.804688 C 100.921875 66.777344 100.84375 66.777344 100.796875 66.800781 Z M 99.878906 67.335938 " fill-opacity="1" fill-rule="nonzero"/><path fill="#5b5e71" d="M 112.160156 60.214844 C 112.113281 60.246094 112.113281 60.289062 112.164062 60.316406 L 113.074219 60.851562 C 113.125 60.878906 113.199219 60.878906 113.25 60.851562 L 114.167969 60.316406 C 114.214844 60.289062 114.214844 60.246094 114.167969 60.21875 L 113.253906 59.683594 C 113.207031 59.65625 113.128906 59.65625 113.078125 59.683594 Z M 112.160156 60.214844 " fill-opacity="1" fill-rule="nonzero"/><path fill="#5b5e71" d="M 110.515625 61.167969 C 110.464844 61.199219 110.46875 61.242188 110.519531 61.269531 L 111.429688 61.804688 C 111.480469 61.832031 111.554688 61.832031 111.605469 61.804688 L 112.523438 61.269531 C 112.570312 61.242188 112.570312 61.199219 112.523438 61.171875 L 111.609375 60.636719 C 111.5625 60.609375 111.484375 60.609375 111.433594 60.636719 Z M 110.515625 61.167969 " fill-opacity="1" fill-rule="nonzero"/><path fill="#5b5e71" d="M 113.835938 61.191406 C 113.785156 61.222656 113.789062 61.265625 113.839844 61.296875 L 114.75 61.828125 C 114.796875 61.855469 114.875 61.855469 114.925781 61.828125 L 115.84375 61.296875 C 115.890625 61.265625 115.886719 61.222656 115.84375 61.195312 L 114.929688 60.660156 C 114.882812 60.632812 114.804688 60.632812 114.753906 60.660156 Z M 113.835938 61.191406 " fill-opacity="1" fill-rule="nonzero"/><path fill="#5b5e71" d="M 112.191406 62.144531 C 112.140625 62.175781 112.144531 62.21875 112.191406 62.25 L 113.105469 62.78125 C 113.152344 62.808594 113.230469 62.808594 113.277344 62.78125 L 114.195312 62.25 C 114.246094 62.21875 114.242188 62.175781 114.199219 62.148438 L 113.285156 61.617188 C 113.234375 61.585938 113.15625 61.585938 113.109375 61.613281 Z M 112.191406 62.144531 " fill-opacity="1" fill-rule="nonzero"/><path fill="#5b5e71" d="M 115.511719 62.167969 C 115.460938 62.199219 115.464844 62.242188 115.507812 62.269531 L 116.421875 62.800781 C 116.472656 62.832031 116.550781 62.832031 116.597656 62.804688 L 117.515625 62.273438 C 117.566406 62.242188 117.5625 62.199219 117.515625 62.171875 L 116.601562 61.636719 C 116.554688 61.609375 116.476562 61.609375 116.429688 61.636719 Z M 115.511719 62.167969 " fill-opacity="1" fill-rule="nonzero"/><path fill="#5b5e71" d="M 117.175781 63.101562 C 117.128906 63.128906 117.132812 63.171875 117.175781 63.199219 L 118.089844 63.734375 C 118.136719 63.761719 118.214844 63.761719 118.265625 63.734375 L 119.183594 63.203125 C 119.234375 63.171875 119.230469 63.128906 119.179688 63.101562 L 118.269531 62.566406 C 118.222656 62.542969 118.144531 62.539062 118.09375 62.566406 Z M 117.175781 63.101562 " fill-opacity="1" fill-rule="nonzero"/><path fill="#5b5e71" d="M 110.546875 63.097656 C 110.496094 63.128906 110.5 63.171875 110.546875 63.203125 L 111.460938 63.734375 C 111.507812 63.761719 111.585938 63.761719 111.632812 63.734375 L 112.550781 63.203125 C 112.601562 63.171875 112.597656 63.128906 112.550781 63.101562 L 111.640625 62.570312 C 111.589844 62.539062 111.511719 62.539062 111.464844 62.566406 Z M 110.546875 63.097656 " fill-opacity="1" fill-rule="nonzero"/><path fill="#5b5e71" d="M 113.867188 63.121094 C 113.816406 63.152344 113.820312 63.195312 113.863281 63.222656 L 114.777344 63.757812 C 114.824219 63.785156 114.902344 63.785156 114.953125 63.757812 L 115.871094 63.226562 C 115.921875 63.195312 115.917969 63.152344 115.867188 63.125 L 114.957031 62.589844 C 114.910156 62.566406 114.832031 62.5625 114.78125 62.589844 Z M 113.867188 63.121094 " fill-opacity="1" fill-rule="nonzero"/><path fill="#5b5e71" d="M 112.21875 64.078125 C 112.171875 64.105469 112.171875 64.148438 112.21875 64.175781 L 113.132812 64.710938 C 113.179688 64.738281 113.257812 64.738281 113.308594 64.710938 L 114.226562 64.179688 C 114.273438 64.152344 114.273438 64.105469 114.222656 64.078125 L 113.3125 63.542969 C 113.265625 63.515625 113.1875 63.515625 113.136719 63.542969 Z M 112.21875 64.078125 " fill-opacity="1" fill-rule="nonzero"/><path fill="#5b5e71" d="M 115.539062 64.101562 C 115.492188 64.128906 115.492188 64.171875 115.539062 64.199219 L 116.453125 64.734375 C 116.5 64.761719 116.574219 64.761719 116.625 64.734375 L 117.542969 64.199219 C 117.59375 64.171875 117.59375 64.128906 117.542969 64.101562 L 116.632812 63.566406 C 116.582031 63.539062 116.507812 63.539062 116.457031 63.566406 Z M 115.539062 64.101562 " fill-opacity="1" fill-rule="nonzero"/><path fill="#5b5e71" d="M 113.894531 65.054688 C 113.847656 65.082031 113.84375 65.125 113.894531 65.152344 L 114.804688 65.6875 C 114.855469 65.714844 114.929688 65.714844 114.980469 65.6875 L 115.898438 65.152344 C 115.945312 65.125 115.949219 65.082031 115.898438 65.054688 L 114.988281 64.519531 C 114.9375 64.492188 114.863281 64.492188 114.8125 64.519531 Z M 113.894531 65.054688 " fill-opacity="1" fill-rule="nonzero"/><path fill="#5b5e71" d="M 108.871094 62.121094 C 108.820312 62.152344 108.824219 62.195312 108.875 62.226562 L 109.785156 62.757812 C 109.835938 62.785156 109.910156 62.785156 109.957031 62.757812 L 110.875 62.226562 C 110.925781 62.195312 110.925781 62.152344 110.878906 62.125 L 109.964844 61.59375 C 109.917969 61.5625 109.839844 61.5625 109.789062 61.589844 Z M 108.871094 62.121094 " fill-opacity="1" fill-rule="nonzero"/><path fill="#5b5e71" d="M 93.292969 71.148438 C 93.246094 71.175781 93.246094 71.222656 93.296875 71.25 L 94.207031 71.785156 C 94.257812 71.8125 94.335938 71.8125 94.382812 71.785156 L 95.304688 71.25 C 95.351562 71.222656 95.351562 71.179688 95.304688 71.148438 L 94.390625 70.617188 C 94.34375 70.589844 94.261719 70.589844 94.214844 70.617188 Z M 93.292969 71.148438 " fill-opacity="1" fill-rule="nonzero"/><path fill="#5b5e71" d="M 91.648438 72.101562 C 91.601562 72.128906 91.601562 72.175781 91.652344 72.207031 L 92.5625 72.738281 C 92.613281 72.765625 92.691406 72.765625 92.738281 72.738281 L 93.65625 72.207031 C 93.703125 72.175781 93.707031 72.132812 93.660156 72.101562 L 92.746094 71.570312 C 92.699219 71.542969 92.617188 71.542969 92.566406 71.570312 Z M 91.648438 72.101562 " fill-opacity="1" fill-rule="nonzero"/><path fill="#5b5e71" d="M 102.613281 63.792969 C 102.566406 63.820312 102.566406 63.863281 102.613281 63.890625 L 103.011719 64.125 C 103.058594 64.148438 103.132812 64.148438 103.179688 64.125 L 104.0625 63.613281 C 104.109375 63.585938 104.109375 63.539062 104.0625 63.515625 L 103.664062 63.28125 C 103.617188 63.253906 103.542969 63.253906 103.496094 63.28125 Z M 102.613281 63.792969 " fill-opacity="1" fill-rule="nonzero"/><path fill="#5b5e71" d="M 104.195312 62.878906 C 104.148438 62.90625 104.148438 62.949219 104.195312 62.976562 L 104.59375 63.207031 C 104.636719 63.234375 104.714844 63.234375 104.757812 63.207031 L 105.644531 62.695312 C 105.6875 62.667969 105.691406 62.625 105.644531 62.597656 L 105.246094 62.367188 C 105.199219 62.339844 105.125 62.339844 105.078125 62.367188 Z M 104.195312 62.878906 " fill-opacity="1" fill-rule="nonzero"/><path fill="#5b5e71" d="M 105.777344 61.960938 C 105.730469 61.988281 105.730469 62.03125 105.777344 62.058594 L 106.171875 62.289062 C 106.21875 62.316406 106.292969 62.316406 106.339844 62.289062 L 106.785156 62.03125 C 106.832031 62.003906 106.832031 61.960938 106.785156 61.933594 L 106.390625 61.703125 C 106.34375 61.675781 106.269531 61.675781 106.222656 61.703125 Z M 105.777344 61.960938 " fill-opacity="1" fill-rule="nonzero"/><path fill="#5b5e71" d="M 108.941406 60.128906 C 108.894531 60.15625 108.894531 60.199219 108.941406 60.226562 L 109.335938 60.457031 C 109.382812 60.484375 109.457031 60.484375 109.503906 60.457031 L 110.382812 59.945312 C 110.433594 59.917969 110.433594 59.875 110.386719 59.847656 L 109.992188 59.617188 C 109.945312 59.589844 109.871094 59.589844 109.820312 59.617188 Z M 108.941406 60.128906 " fill-opacity="1" fill-rule="nonzero"/><path fill="#5b5e71" d="M 107.359375 61.042969 C 107.3125 61.070312 107.3125 61.117188 107.359375 61.140625 L 107.753906 61.375 C 107.800781 61.402344 107.875 61.402344 107.921875 61.375 L 108.804688 60.863281 C 108.851562 60.835938 108.851562 60.792969 108.804688 60.765625 L 108.410156 60.53125 C 108.363281 60.507812 108.289062 60.507812 108.242188 60.53125 Z M 107.359375 61.042969 " fill-opacity="1" fill-rule="nonzero"/><path fill="#5b5e71" d="M 110.519531 59.210938 C 110.476562 59.238281 110.472656 59.28125 110.519531 59.308594 L 110.917969 59.539062 C 110.964844 59.566406 111.039062 59.566406 111.085938 59.539062 L 111.964844 59.03125 C 112.011719 59.003906 112.011719 58.960938 111.964844 58.933594 L 111.570312 58.703125 C 111.523438 58.675781 111.449219 58.675781 111.402344 58.703125 Z M 110.519531 59.210938 " fill-opacity="1" fill-rule="nonzero"/><path fill="#5b5e71" d="M 97.875 66.542969 C 97.828125 66.570312 97.828125 66.613281 97.871094 66.640625 L 98.269531 66.871094 C 98.316406 66.898438 98.390625 66.898438 98.4375 66.871094 L 99.316406 66.359375 C 99.363281 66.332031 99.363281 66.289062 99.316406 66.261719 L 98.921875 66.03125 C 98.875 66.003906 98.800781 66.003906 98.753906 66.03125 Z M 97.875 66.542969 " fill-opacity="1" fill-rule="nonzero"/><path fill="#5b5e71" d="M 99.453125 65.625 C 99.40625 65.652344 99.40625 65.699219 99.449219 65.726562 L 99.847656 65.957031 C 99.894531 65.984375 99.96875 65.984375 100.019531 65.953125 L 100.898438 65.445312 C 100.945312 65.417969 100.945312 65.375 100.898438 65.347656 L 100.503906 65.117188 C 100.457031 65.089844 100.382812 65.089844 100.335938 65.117188 Z M 99.453125 65.625 " fill-opacity="1" fill-rule="nonzero"/><path fill="#5b5e71" d="M 101.03125 64.710938 C 100.984375 64.738281 100.984375 64.78125 101.03125 64.808594 L 101.429688 65.039062 C 101.476562 65.066406 101.550781 65.066406 101.597656 65.039062 L 102.480469 64.527344 C 102.527344 64.5 102.527344 64.457031 102.480469 64.429688 L 102.082031 64.199219 C 102.039062 64.171875 101.960938 64.171875 101.917969 64.199219 Z M 101.03125 64.710938 " fill-opacity="1" fill-rule="nonzero"/><path fill="#5b5e71" d="M 93.128906 69.292969 C 93.082031 69.316406 93.082031 69.363281 93.128906 69.390625 L 93.523438 69.621094 C 93.570312 69.648438 93.644531 69.648438 93.691406 69.621094 L 94.574219 69.109375 C 94.621094 69.082031 94.621094 69.039062 94.578125 69.011719 L 94.179688 68.78125 C 94.132812 68.753906 94.058594 68.753906 94.011719 68.78125 Z M 93.128906 69.292969 " fill-opacity="1" fill-rule="nonzero"/><path fill="#5b5e71" d="M 94.710938 68.375 C 94.664062 68.402344 94.664062 68.445312 94.710938 68.472656 L 95.105469 68.703125 C 95.152344 68.730469 95.226562 68.730469 95.273438 68.703125 L 96.15625 68.191406 C 96.203125 68.164062 96.203125 68.121094 96.15625 68.09375 L 95.761719 67.863281 C 95.714844 67.835938 95.640625 67.835938 95.59375 67.863281 Z M 94.710938 68.375 " fill-opacity="1" fill-rule="nonzero"/><path fill="#5b5e71" d="M 96.292969 67.457031 C 96.246094 67.484375 96.246094 67.527344 96.289062 67.554688 L 96.6875 67.789062 C 96.734375 67.8125 96.808594 67.8125 96.855469 67.789062 L 97.734375 67.277344 C 97.78125 67.25 97.78125 67.207031 97.734375 67.179688 L 97.339844 66.949219 C 97.292969 66.921875 97.21875 66.921875 97.171875 66.949219 Z M 96.292969 67.457031 " fill-opacity="1" fill-rule="nonzero"/><path fill="#5b5e71" d="M 91.546875 70.207031 C 91.5 70.234375 91.5 70.277344 91.546875 70.304688 L 91.945312 70.535156 C 91.988281 70.5625 92.066406 70.5625 92.109375 70.535156 L 92.996094 70.023438 C 93.039062 69.996094 93.042969 69.953125 92.996094 69.925781 L 92.597656 69.695312 C 92.550781 69.667969 92.476562 69.667969 92.429688 69.695312 Z M 91.546875 70.207031 " fill-opacity="1" fill-rule="nonzero"/><path fill="#5b5e71" d="M 89.964844 71.125 C 89.917969 71.152344 89.917969 71.195312 89.964844 71.222656 L 90.363281 71.453125 C 90.410156 71.480469 90.484375 71.480469 90.53125 71.453125 L 91.414062 70.941406 C 91.460938 70.914062 91.460938 70.871094 91.414062 70.84375 L 91.015625 70.613281 C 90.96875 70.585938 90.894531 70.585938 90.847656 70.613281 Z M 89.964844 71.125 " fill-opacity="1" fill-rule="nonzero"/><path fill="#bac1ce" d="M 90.21875 73.566406 L 90.214844 73.785156 L 91.414062 74.480469 L 91.414062 74.261719 Z M 90.21875 73.566406 " fill-opacity="1" fill-rule="nonzero"/><path fill="#bac1ce" d="M 89.070312 72.902344 L 89.066406 73.121094 L 89.742188 73.511719 L 89.742188 73.292969 Z M 89.070312 72.902344 " fill-opacity="1" fill-rule="nonzero"/><path fill="#ffffff" d="M 100.949219 48.492188 C 102.730469 47.457031 104.175781 48.285156 104.183594 50.339844 C 104.183594 50.566406 104.167969 50.796875 104.128906 51.042969 C 105.550781 50.394531 106.671875 51.148438 106.675781 52.839844 C 106.679688 54.652344 105.40625 56.863281 103.839844 57.769531 L 95.039062 62.871094 C 93.816406 63.578125 92.820312 63.007812 92.816406 61.597656 C 92.8125 60.566406 93.335938 59.371094 94.097656 58.523438 C 94.066406 58.328125 94.042969 58.125 94.042969 57.894531 C 94.035156 56.097656 95.300781 53.902344 96.859375 53 C 97.246094 52.773438 97.621094 52.648438 97.957031 52.625 C 98.417969 50.953125 99.585938 49.28125 100.949219 48.492188 Z M 100.949219 48.492188 " fill-opacity="1" fill-rule="nonzero"/><path fill="#416e84" d="M 14.113281 108.207031 C 14 108.207031 13.886719 108.175781 13.78125 108.117188 L 0.394531 100.25 C 0.195312 100.128906 0.0742188 99.914062 0.0703125 99.679688 L 0.0390625 88.433594 C 0.0390625 88.199219 0.164062 87.980469 0.367188 87.863281 L 38.644531 65.679688 L 38.582031 43.308594 C 38.578125 42.945312 38.875 42.648438 39.238281 42.648438 C 39.601562 42.648438 39.894531 42.941406 39.894531 43.308594 L 39.960938 66.058594 C 39.960938 66.292969 39.835938 66.515625 39.632812 66.632812 L 1.355469 88.8125 L 1.386719 99.300781 L 14.445312 106.976562 C 14.757812 107.160156 14.863281 107.566406 14.679688 107.878906 C 14.558594 108.089844 14.339844 108.207031 14.113281 108.207031 Z M 14.113281 108.207031 " fill-opacity="1" fill-rule="nonzero"/><path fill="#525566" d="M 2.449219 109.042969 L 2.449219 110.726562 C 2.449219 110.933594 2.585938 111.136719 2.863281 111.292969 L 25.398438 124.445312 C 25.941406 124.765625 26.835938 124.765625 27.382812 124.445312 L 40.320312 116.945312 C 40.597656 116.78125 40.742188 116.574219 40.742188 116.359375 L 40.730469 114.675781 C 40.730469 114.894531 40.597656 115.097656 40.320312 115.265625 L 27.382812 122.761719 C 26.828125 123.082031 25.941406 123.082031 25.398438 122.761719 L 2.851562 109.613281 C 2.585938 109.457031 2.449219 109.25 2.449219 109.042969 Z M 2.449219 109.042969 " fill-opacity="1" fill-rule="nonzero"/><path fill="#5b5e71" d="M 2.867188 108.457031 C 2.3125 108.777344 2.3125 109.292969 2.851562 109.609375 L 25.394531 122.757812 C 25.941406 123.078125 26.832031 123.078125 27.382812 122.757812 L 40.320312 115.261719 C 40.871094 114.941406 40.875 114.425781 40.328125 114.105469 L 17.785156 100.957031 C 17.246094 100.640625 16.355469 100.640625 15.804688 100.960938 Z M 2.867188 108.457031 " fill-opacity="1" fill-rule="nonzero"/><path fill="#525566" d="M 31.949219 117.859375 C 31.636719 118.042969 31.632812 118.347656 31.953125 118.53125 C 32.265625 118.714844 32.78125 118.710938 33.097656 118.527344 C 33.417969 118.34375 33.421875 118.046875 33.109375 117.863281 C 32.789062 117.675781 32.273438 117.671875 31.949219 117.859375 Z M 31.949219 117.859375 " fill-opacity="1" fill-rule="nonzero"/><path fill="#525566" d="M 10.027344 105.070312 C 9.8125 105.195312 9.8125 105.394531 10.027344 105.519531 C 10.242188 105.644531 10.582031 105.644531 10.796875 105.519531 C 11.015625 105.394531 11.015625 105.195312 10.800781 105.070312 C 10.585938 104.945312 10.246094 104.945312 10.027344 105.070312 Z M 10.027344 105.070312 " fill-opacity="1" fill-rule="nonzero"/><path fill="#525566" d="M 26.898438 121.054688 C 26.707031 121.164062 26.707031 121.347656 26.894531 121.457031 C 27.089844 121.570312 27.398438 121.566406 27.585938 121.457031 L 28.78125 120.765625 C 28.972656 120.652344 28.980469 120.476562 28.785156 120.363281 C 28.59375 120.25 28.28125 120.25 28.089844 120.363281 Z M 26.898438 121.054688 " fill-opacity="1" fill-rule="nonzero"/><path fill="#525566" d="M 36.121094 115.707031 C 35.929688 115.816406 35.929688 116 36.121094 116.109375 C 36.316406 116.222656 36.621094 116.21875 36.8125 116.109375 L 38.007812 115.417969 C 38.195312 115.308594 38.203125 115.128906 38.007812 115.015625 C 37.820312 114.90625 37.507812 114.90625 37.316406 115.015625 Z M 36.121094 115.707031 " fill-opacity="1" fill-rule="nonzero"/><path fill="#9ad898" d="M 5.03125 109.527344 L 24.902344 121.117188 L 37.585938 113.769531 L 17.714844 102.179688 Z M 5.03125 109.527344 " fill-opacity="1" fill-rule="nonzero"/><path fill="#cad0dd" d="M 77.316406 11.90625 C 75.367188 10.761719 72.667969 10.917969 69.679688 12.664062 L 69.1875 12.976562 L 63.1875 9.457031 L 63.679688 9.144531 C 66.667969 7.421875 71.160156 8.308594 73.136719 9.457031 Z M 77.316406 11.90625 " fill-opacity="1" fill-rule="nonzero"/><g clip-path="url(#8d35f3f2d7)"><path fill="#bac1ce" d="M 62.386719 1.28125 L 66.585938 3.730469 C 64.804688 2.691406 62.339844 2.832031 59.613281 4.414062 C 58.328125 5.160156 57.089844 6.152344 55.960938 7.335938 L 51.761719 4.886719 C 52.890625 3.707031 54.132812 2.710938 55.414062 1.964844 C 58.144531 0.386719 60.609375 0.242188 62.386719 1.28125 Z M 62.386719 1.28125 " fill-opacity="1" fill-rule="nonzero"/></g><g clip-path="url(#db9b1eb401)"><path fill="#cad0dd" d="M 53.34375 3.878906 C 51.394531 2.757812 48.691406 2.914062 45.679688 4.632812 C 40.980469 7.371094 37.003906 13.1875 35.578125 18.871094 L 31.382812 16.429688 C 32.8125 10.746094 36.785156 4.90625 41.488281 2.195312 C 44.472656 0.449219 47.203125 0.292969 49.148438 1.4375 Z M 53.34375 3.878906 " fill-opacity="1" fill-rule="nonzero"/></g><path fill="#cad0dd" d="M 14.835938 65.617188 L 10.640625 63.171875 C 8.707031 62.042969 7.511719 59.644531 7.5 56.222656 C 7.480469 49.398438 12.273438 41.042969 18.210938 37.601562 C 18.453125 37.460938 18.667969 37.335938 18.90625 37.222656 L 23.105469 39.671875 C 22.867188 39.785156 22.648438 39.910156 22.410156 40.050781 C 16.46875 43.492188 11.679688 51.847656 11.695312 58.671875 C 11.707031 62.089844 12.90625 64.492188 14.835938 65.617188 Z M 14.835938 65.617188 " fill-opacity="1" fill-rule="nonzero"/><path fill="#bac1ce" d="M 23.105469 39.671875 L 18.90625 37.222656 C 18.710938 36.457031 18.597656 35.617188 18.597656 34.664062 C 18.578125 28.417969 22.980469 20.765625 28.351562 17.648438 C 29.417969 17.03125 30.441406 16.640625 31.378906 16.425781 L 35.574219 18.871094 C 34.640625 19.089844 33.617188 19.480469 32.550781 20.097656 C 27.175781 23.210938 22.777344 30.863281 22.792969 37.113281 C 22.796875 38.066406 22.90625 38.90625 23.105469 39.671875 Z M 23.105469 39.671875 " fill-opacity="1" fill-rule="nonzero"/><path fill="#e4e8f4" d="M 80.460938 18.816406 C 80.484375 25.699219 75.679688 34.015625 69.757812 37.457031 L 22.484375 64.859375 C 16.539062 68.300781 11.707031 65.539062 11.707031 58.679688 C 11.679688 51.851562 16.460938 43.480469 22.40625 40.039062 C 22.640625 39.910156 22.875 39.78125 23.109375 39.675781 C 22.902344 38.917969 22.796875 38.058594 22.796875 37.121094 C 22.769531 30.863281 27.1875 23.222656 32.539062 20.09375 C 33.628906 19.46875 34.640625 19.078125 35.578125 18.871094 C 37.003906 13.1875 40.980469 7.371094 45.679688 4.632812 C 50.484375 1.84375 54.5625 3.148438 55.964844 7.34375 C 57.082031 6.144531 58.328125 5.15625 59.601562 4.425781 C 65.058594 1.269531 69.445312 3.824219 69.445312 10.082031 C 69.445312 11.023438 69.34375 11.984375 69.1875 12.976562 L 69.679688 12.664062 C 75.628906 9.222656 80.433594 11.988281 80.460938 18.816406 Z M 80.460938 18.816406 " fill-opacity="1" fill-rule="nonzero"/><path fill="#4c7891" d="M 47 33.078125 L 44.082031 35.175781 C 43.9375 35.78125 43.734375 36.390625 43.480469 37.015625 L 45.371094 38.644531 L 43.105469 42.570312 L 40.617188 41.765625 C 40.265625 42.179688 39.878906 42.574219 39.476562 42.917969 L 39.109375 46.796875 L 35.921875 48.644531 L 35.535156 45.199219 C 35.148438 45.3125 34.746094 45.378906 34.378906 45.378906 L 31.90625 49.0625 L 29.636719 47.761719 L 31.5 43.957031 C 31.242188 43.628906 31.046875 43.25 30.902344 42.816406 L 27.96875 44.105469 L 27.957031 40.417969 L 30.679688 38.460938 C 30.800781 37.757812 30.992188 37.027344 31.261719 36.296875 L 29.597656 34.84375 L 31.855469 30.925781 L 33.839844 31.585938 C 34.375 30.894531 34.96875 30.242188 35.578125 29.707031 L 35.863281 26.691406 L 39.046875 24.84375 L 39.347656 27.523438 C 39.96875 27.347656 40.566406 27.308594 41.089844 27.382812 L 43.054688 24.433594 L 45.335938 25.722656 L 43.6875 29.09375 C 43.945312 29.523438 44.140625 30.027344 44.277344 30.582031 L 46.992188 29.386719 Z M 37.5 42.320312 C 40.164062 40.777344 42.324219 37.027344 42.3125 33.953125 C 42.304688 30.882812 40.132812 29.640625 37.46875 31.183594 C 34.804688 32.726562 32.648438 36.476562 32.65625 39.550781 C 32.664062 42.621094 34.835938 43.863281 37.5 42.320312 " fill-opacity="1" fill-rule="nonzero"/><path fill="#f9607f" d="M 59.109375 16.253906 L 56.847656 17.703125 C 56.714844 18.160156 56.546875 18.636719 56.328125 19.113281 L 57.660156 20.550781 L 55.804688 23.492188 L 53.988281 22.675781 C 53.707031 22.992188 53.394531 23.289062 53.089844 23.523438 L 52.648438 26.574219 L 50.203125 27.808594 L 50.058594 25.050781 C 49.757812 25.117188 49.464844 25.132812 49.195312 25.105469 L 47.179688 27.859375 L 45.558594 26.664062 L 47.097656 23.777344 C 46.925781 23.496094 46.800781 23.175781 46.703125 22.824219 L 44.464844 23.644531 L 44.613281 20.707031 L 46.730469 19.351562 C 46.851562 18.792969 47.019531 18.242188 47.25 17.675781 L 46.078125 16.402344 L 47.921875 13.464844 L 49.382812 14.121094 C 49.796875 13.613281 50.269531 13.140625 50.742188 12.753906 L 51.089844 10.375 L 53.546875 9.136719 L 53.652344 11.28125 C 54.113281 11.195312 54.5625 11.203125 54.953125 11.296875 L 56.542969 9.097656 L 58.191406 10.28125 L 56.824219 12.84375 C 56.992188 13.207031 57.117188 13.613281 57.191406 14.0625 L 59.273438 13.304688 Z M 55.578125 16.613281 C 55.707031 14.164062 54.144531 13.035156 52.097656 14.0625 C 52.015625 14.105469 51.933594 14.148438 51.851562 14.195312 C 49.90625 15.324219 48.28125 18.015625 48.160156 20.351562 C 48.03125 22.800781 49.59375 23.929688 51.636719 22.902344 C 51.71875 22.859375 51.800781 22.816406 51.882812 22.769531 C 53.832031 21.640625 55.457031 18.949219 55.578125 16.613281 " fill-opacity="1" fill-rule="nonzero"/><path fill="#bac1ce" d="M 59.859375 35.167969 L 57.597656 36.632812 C 57.464844 37.089844 57.28125 37.574219 57.078125 38.027344 L 58.40625 39.476562 L 56.554688 42.421875 L 54.722656 41.613281 C 54.457031 41.90625 54.140625 42.203125 53.835938 42.449219 L 53.394531 45.5 L 50.9375 46.742188 L 50.796875 43.988281 C 50.503906 44.042969 50.210938 44.058594 49.929688 44.039062 L 47.929688 46.785156 L 46.304688 45.589844 L 47.84375 42.703125 C 47.671875 42.425781 47.539062 42.109375 47.453125 41.753906 L 45.210938 42.570312 L 45.363281 39.632812 L 47.476562 38.28125 C 47.597656 37.71875 47.769531 37.171875 47.996094 36.601562 L 46.824219 35.328125 L 48.667969 32.378906 L 50.117188 33.054688 C 50.542969 32.527344 51.015625 32.054688 51.492188 31.683594 L 51.839844 29.289062 L 54.296875 28.046875 L 54.386719 30.214844 C 54.859375 30.125 55.3125 30.113281 55.703125 30.226562 L 57.292969 28.027344 L 58.925781 29.214844 L 57.558594 31.777344 C 57.742188 32.121094 57.851562 32.535156 57.9375 32.992188 L 60.007812 32.242188 Z M 56.328125 35.527344 C 56.453125 33.09375 54.890625 31.945312 52.847656 32.976562 C 52.773438 33.015625 52.695312 33.058594 52.621094 33.101562 C 50.664062 34.234375 49.027344 36.933594 48.90625 39.277344 C 48.777344 41.714844 50.339844 42.859375 52.386719 41.828125 C 52.46875 41.789062 52.550781 41.742188 52.632812 41.695312 C 54.578125 40.566406 56.203125 37.875 56.328125 35.527344 " fill-opacity="1" fill-rule="nonzero"/><path fill="#ffffff" d="M 17.335938 109.332031 C 16.550781 109.789062 16.417969 110.460938 16.917969 110.980469 C 16.671875 111.050781 16.4375 111.136719 16.230469 111.253906 C 15.28125 111.804688 15.265625 112.695312 16.21875 113.253906 L 16.273438 113.269531 C 15.679688 113.8125 15.792969 114.53125 16.605469 115.007812 C 17.539062 115.550781 19.0625 115.550781 20.019531 114.992188 L 26.957031 110.972656 C 27.902344 110.425781 27.910156 109.539062 26.976562 108.996094 C 26.195312 108.539062 24.984375 108.460938 24.070312 108.765625 L 24.027344 108.726562 C 23.074219 108.171875 21.5625 108.164062 20.613281 108.714844 C 20.410156 108.832031 20.269531 108.964844 20.160156 109.101562 C 19.261719 108.816406 18.101562 108.890625 17.335938 109.332031 Z M 17.335938 109.332031 " fill-opacity="1" fill-rule="nonzero"/><path fill="#bac1ce" d="M 50.300781 116.082031 L 98.472656 87.980469 C 98.199219 88.140625 98.03125 88.476562 98.03125 88.957031 C 98.027344 89.917969 98.707031 91.101562 99.542969 91.585938 C 99.960938 91.832031 100.34375 91.851562 100.621094 91.691406 L 52.449219 119.792969 C 52.171875 119.953125 51.789062 119.929688 51.371094 119.6875 C 50.535156 119.203125 49.855469 118.019531 49.859375 117.058594 C 49.859375 116.578125 50.027344 116.242188 50.300781 116.082031 Z M 50.300781 116.082031 " fill-opacity="1" fill-rule="nonzero"/><path fill="#bac1ce" d="M 100.992188 92.332031 L 52.820312 120.433594 C 53.1875 120.21875 53.414062 119.765625 53.414062 119.117188 L 101.585938 91.019531 C 101.585938 91.664062 101.359375 92.121094 100.992188 92.332031 Z M 100.992188 92.332031 " fill-opacity="1" fill-rule="nonzero"/><path fill="#a6afbc" d="M 52.894531 118.816406 L 101.066406 90.714844 L 101.585938 91.019531 L 53.414062 119.117188 Z M 52.894531 118.816406 " fill-opacity="1" fill-rule="nonzero"/><g clip-path="url(#1f4b84269e)"><path fill="#a6afbc" d="M 70.625 126.644531 L 118.796875 98.542969 L 118.796875 99.144531 L 70.625 127.246094 Z M 70.625 126.644531 " fill-opacity="1" fill-rule="nonzero"/></g><path fill="#d4dae8" d="M 118.804688 98.546875 L 70.617188 126.648438 L 51.378906 115.589844 C 50.8125 115.246094 50.292969 115.21875 49.9375 115.441406 L 98.109375 87.34375 C 98.480469 87.117188 98.984375 87.148438 99.550781 87.476562 Z M 118.804688 98.546875 " fill-opacity="1" fill-rule="nonzero"/><g clip-path="url(#aa494fd2b4)"><path fill="#cad0dd" d="M 70.625 126.644531 L 70.625 127.246094 L 51.378906 116.1875 C 50.546875 115.703125 49.859375 116.09375 49.859375 117.058594 C 49.855469 118.019531 50.535156 119.203125 51.371094 119.6875 C 52.207031 120.171875 52.890625 119.78125 52.894531 118.816406 L 53.414062 119.117188 C 53.410156 120.421875 52.496094 120.945312 51.367188 120.289062 C 50.238281 119.636719 49.332031 118.058594 49.335938 116.753906 C 49.339844 115.453125 50.253906 114.929688 51.382812 115.585938 Z M 70.625 126.644531 " fill-opacity="1" fill-rule="nonzero"/></g><path fill="#bac1ce" d="M 59.375 117.730469 L 59.386719 117.867188 L 61.605469 119.160156 L 61.84375 119.167969 L 65.042969 117.3125 L 65.042969 117.167969 L 62.824219 115.875 L 62.574219 115.875 Z M 59.375 117.730469 " fill-opacity="1" fill-rule="nonzero"/><path fill="#bac1ce" d="M 68.054688 122.839844 L 68.054688 122.984375 L 70.273438 124.28125 L 70.511719 124.273438 L 72.902344 122.890625 L 72.914062 122.75 L 70.691406 121.457031 L 70.445312 121.457031 Z M 68.054688 122.839844 " fill-opacity="1" fill-rule="nonzero"/><path fill="#bac1ce" d="M 71.191406 121.023438 L 71.203125 121.160156 L 73.421875 122.457031 L 73.648438 122.457031 L 76.039062 121.070312 L 76.050781 120.933594 L 73.832031 119.636719 L 73.582031 119.636719 Z M 71.191406 121.023438 " fill-opacity="1" fill-rule="nonzero"/><path fill="#bac1ce" d="M 77.703125 113.863281 L 77.714844 114.003906 L 79.933594 115.296875 L 80.171875 115.300781 L 82.5625 113.917969 L 82.5625 113.773438 L 80.34375 112.480469 L 80.09375 112.480469 Z M 77.703125 113.863281 " fill-opacity="1" fill-rule="nonzero"/><path fill="#bac1ce" d="M 96.324219 106.457031 L 96.324219 106.601562 L 98.542969 107.898438 L 98.78125 107.890625 L 101.167969 106.507812 L 101.179688 106.367188 L 98.960938 105.074219 L 98.714844 105.074219 Z M 96.324219 106.457031 " fill-opacity="1" fill-rule="nonzero"/><path fill="#bac1ce" d="M 96.550781 102.941406 L 96.558594 103.082031 L 98.777344 104.375 L 99.015625 104.382812 L 101.417969 102.988281 L 101.40625 102.851562 L 99.1875 101.558594 L 98.949219 101.550781 Z M 96.550781 102.941406 " fill-opacity="1" fill-rule="nonzero"/><path fill="#bac1ce" d="M 91.457031 99.136719 L 91.457031 99.28125 L 93.675781 100.574219 L 93.921875 100.574219 L 96.3125 99.191406 L 96.3125 99.046875 L 94.09375 97.753906 L 93.847656 97.753906 Z M 91.457031 99.136719 " fill-opacity="1" fill-rule="nonzero"/><path fill="#bac1ce" d="M 83.714844 100.25 L 83.703125 100.390625 L 85.921875 101.683594 L 86.171875 101.683594 L 88.5625 100.300781 L 88.5625 100.15625 L 86.34375 98.859375 L 86.105469 98.867188 Z M 83.714844 100.25 " fill-opacity="1" fill-rule="nonzero"/><path fill="#bac1ce" d="M 86.808594 98.457031 L 86.808594 98.589844 L 89.027344 99.882812 L 89.265625 99.890625 L 91.65625 98.503906 L 91.65625 98.359375 L 89.4375 97.066406 L 89.199219 97.070312 Z M 86.808594 98.457031 " fill-opacity="1" fill-rule="nonzero"/><path fill="#bac1ce" d="M 88.328125 100.949219 L 88.328125 101.09375 L 90.546875 102.386719 L 90.796875 102.386719 L 93.1875 101.003906 L 93.1875 100.859375 L 90.96875 99.566406 L 90.71875 99.566406 Z M 88.328125 100.949219 " fill-opacity="1" fill-rule="nonzero"/><path fill="#bac1ce" d="M 92.039062 102.183594 L 92.039062 102.316406 L 94.269531 103.617188 L 94.496094 103.617188 L 96.894531 102.226562 L 96.898438 102.09375 L 94.667969 100.792969 L 94.441406 100.792969 Z M 92.039062 102.183594 " fill-opacity="1" fill-rule="nonzero"/><path fill="#bac1ce" d="M 82.636719 107.632812 L 82.636719 107.765625 L 84.867188 109.066406 L 85.09375 109.066406 L 87.484375 107.679688 L 87.496094 107.542969 L 85.265625 106.242188 L 85.027344 106.246094 Z M 82.636719 107.632812 " fill-opacity="1" fill-rule="nonzero"/><path fill="#bac1ce" d="M 72.5625 103.699219 L 72.5625 103.84375 L 74.132812 104.761719 L 74.378906 104.761719 L 76.34375 103.621094 L 76.332031 103.484375 L 74.765625 102.570312 L 74.527344 102.5625 Z M 72.5625 103.699219 " fill-opacity="1" fill-rule="nonzero"/><path fill="#bac1ce" d="M 69.894531 105.246094 L 69.894531 105.390625 L 71.460938 106.308594 L 71.710938 106.308594 L 73.671875 105.167969 L 73.675781 105.023438 L 72.105469 104.109375 L 71.855469 104.109375 Z M 69.894531 105.246094 " fill-opacity="1" fill-rule="nonzero"/><path fill="#bac1ce" d="M 77.511719 103.84375 L 77.5 103.984375 L 79.71875 105.277344 L 79.96875 105.277344 L 82.359375 103.894531 L 82.347656 103.753906 L 80.128906 102.460938 L 79.902344 102.460938 Z M 77.511719 103.84375 " fill-opacity="1" fill-rule="nonzero"/><path fill="#bac1ce" d="M 74.40625 105.644531 L 74.394531 105.785156 L 76.613281 107.078125 L 76.863281 107.078125 L 79.253906 105.695312 L 79.253906 105.550781 L 77.035156 104.253906 L 76.796875 104.261719 Z M 74.40625 105.644531 " fill-opacity="1" fill-rule="nonzero"/><path fill="#bac1ce" d="M 71.308594 107.4375 L 71.300781 107.578125 L 73.519531 108.871094 L 73.765625 108.871094 L 76.15625 107.488281 L 76.148438 107.347656 L 73.925781 106.054688 L 73.699219 106.054688 Z M 71.308594 107.4375 " fill-opacity="1" fill-rule="nonzero"/><path fill="#bac1ce" d="M 75.832031 108.191406 L 75.839844 108.332031 L 78.058594 109.625 L 78.296875 109.632812 L 80.6875 108.246094 L 80.6875 108.101562 L 78.46875 106.808594 L 78.222656 106.808594 Z M 75.832031 108.191406 " fill-opacity="1" fill-rule="nonzero"/><path fill="#bac1ce" d="M 72.703125 110.003906 L 72.714844 110.144531 L 74.933594 111.4375 L 75.171875 111.441406 L 77.570312 110.050781 L 77.5625 109.914062 L 75.34375 108.621094 L 75.105469 108.613281 Z M 72.703125 110.003906 " fill-opacity="1" fill-rule="nonzero"/><path fill="#bac1ce" d="M 78.957031 106.378906 L 78.957031 106.523438 L 81.175781 107.820312 L 81.425781 107.820312 L 83.816406 106.433594 L 83.816406 106.289062 L 81.597656 104.996094 L 81.347656 104.996094 Z M 78.957031 106.378906 " fill-opacity="1" fill-rule="nonzero"/><path fill="#bac1ce" d="M 99.523438 104.605469 L 99.523438 104.75 L 101.742188 106.042969 L 101.980469 106.035156 L 104.371094 104.652344 L 104.371094 104.519531 L 102.152344 103.226562 L 101.914062 103.21875 Z M 99.523438 104.605469 " fill-opacity="1" fill-rule="nonzero"/><path fill="#bac1ce" d="M 96.574219 89.785156 L 96.570312 89.929688 L 98.140625 90.847656 L 98.390625 90.847656 L 100.351562 89.707031 L 100.34375 89.570312 L 98.773438 88.65625 L 98.535156 88.648438 Z M 96.574219 89.785156 " fill-opacity="1" fill-rule="nonzero"/><path fill="#bac1ce" d="M 93.902344 91.335938 L 93.902344 91.480469 L 95.46875 92.394531 L 95.71875 92.394531 L 97.683594 91.253906 L 97.683594 91.113281 L 96.113281 90.195312 L 95.867188 90.195312 Z M 93.902344 91.335938 " fill-opacity="1" fill-rule="nonzero"/><path fill="#bac1ce" d="M 91.234375 92.882812 L 91.242188 93.019531 L 92.8125 93.933594 L 93.046875 93.941406 L 95.011719 92.804688 L 95.011719 92.660156 L 93.445312 91.742188 L 93.195312 91.742188 Z M 91.234375 92.882812 " fill-opacity="1" fill-rule="nonzero"/><path fill="#bac1ce" d="M 96.117188 93.0625 L 96.109375 93.199219 L 98.328125 94.496094 L 98.574219 94.496094 L 103.582031 91.59375 L 103.574219 91.453125 L 101.355469 90.160156 L 101.125 90.160156 Z M 96.117188 93.0625 " fill-opacity="1" fill-rule="nonzero"/><path fill="#bac1ce" d="M 100.890625 93.671875 L 100.886719 93.816406 L 103.109375 95.109375 L 103.355469 95.109375 L 106.503906 93.285156 L 106.496094 93.144531 L 104.273438 91.851562 L 104.039062 91.847656 Z M 100.890625 93.671875 " fill-opacity="1" fill-rule="nonzero"/><path fill="#bac1ce" d="M 93.011719 94.863281 L 93.011719 94.996094 L 95.230469 96.289062 L 95.46875 96.292969 L 97.867188 94.902344 L 97.859375 94.765625 L 95.640625 93.472656 L 95.414062 93.472656 Z M 93.011719 94.863281 " fill-opacity="1" fill-rule="nonzero"/><path fill="#bac1ce" d="M 97.699219 95.519531 L 97.710938 95.65625 L 99.929688 96.953125 L 100.167969 96.957031 L 102.554688 95.574219 L 102.558594 95.429688 L 100.339844 94.132812 L 100.089844 94.132812 Z M 97.699219 95.519531 " fill-opacity="1" fill-rule="nonzero"/><path fill="#bac1ce" d="M 89.917969 96.65625 L 89.90625 96.796875 L 92.125 98.089844 L 92.375 98.089844 L 94.761719 96.703125 L 94.761719 96.558594 L 92.542969 95.265625 L 92.304688 95.273438 Z M 89.917969 96.65625 " fill-opacity="1" fill-rule="nonzero"/><path fill="#bac1ce" d="M 101.523438 96.6875 L 101.523438 96.820312 L 103.753906 98.121094 L 103.980469 98.121094 L 109.402344 94.976562 L 109.40625 94.84375 L 107.175781 93.542969 L 106.949219 93.542969 Z M 101.523438 96.6875 " fill-opacity="1" fill-rule="nonzero"/><path fill="#bac1ce" d="M 94.574219 97.332031 L 94.582031 97.46875 L 96.800781 98.765625 L 97.039062 98.769531 L 99.441406 97.378906 L 99.429688 97.242188 L 97.210938 95.945312 L 96.972656 95.941406 Z M 94.574219 97.332031 " fill-opacity="1" fill-rule="nonzero"/><path fill="#bac1ce" d="M 105.671875 97.65625 L 105.671875 97.800781 L 107.890625 99.09375 L 108.140625 99.09375 L 109.914062 98.066406 L 109.917969 97.921875 L 107.695312 96.625 L 107.449219 96.625 Z M 105.671875 97.65625 " fill-opacity="1" fill-rule="nonzero"/><path fill="#bac1ce" d="M 98.316406 98.546875 L 98.304688 98.683594 L 100.53125 99.984375 L 100.769531 99.980469 L 103.160156 98.59375 L 103.171875 98.457031 L 100.941406 97.15625 L 100.703125 97.164062 Z M 98.316406 98.546875 " fill-opacity="1" fill-rule="nonzero"/><path fill="#bac1ce" d="M 108.582031 99.355469 L 108.582031 99.496094 L 110.800781 100.792969 L 111.039062 100.785156 L 112.816406 99.757812 L 112.828125 99.617188 L 110.605469 98.324219 L 110.359375 98.324219 Z M 108.582031 99.355469 " fill-opacity="1" fill-rule="nonzero"/><path fill="#bac1ce" d="M 102.359375 99.578125 L 102.367188 99.714844 L 104.585938 101.007812 L 104.824219 101.015625 L 107.503906 99.460938 L 107.503906 99.316406 L 105.285156 98.023438 L 105.039062 98.023438 Z M 102.359375 99.578125 " fill-opacity="1" fill-rule="nonzero"/><path fill="#bac1ce" d="M 95.175781 100.367188 L 95.175781 100.496094 L 97.40625 101.796875 L 97.632812 101.796875 L 100.023438 100.414062 L 100.035156 100.273438 L 97.804688 98.976562 L 97.566406 98.980469 Z M 95.175781 100.367188 " fill-opacity="1" fill-rule="nonzero"/><path fill="#bac1ce" d="M 106.171875 100.75 L 106.171875 100.894531 L 108.390625 102.191406 L 108.628906 102.183594 L 110.40625 101.152344 L 110.417969 101.015625 L 108.195312 99.722656 L 107.949219 99.722656 Z M 106.171875 100.75 " fill-opacity="1" fill-rule="nonzero"/><path fill="#bac1ce" d="M 99.707031 101.113281 L 99.71875 101.25 L 101.9375 102.542969 L 102.175781 102.550781 L 103.992188 101.496094 L 103.996094 101.351562 L 101.773438 100.058594 L 101.527344 100.058594 Z M 99.707031 101.113281 " fill-opacity="1" fill-rule="nonzero"/><path fill="#bac1ce" d="M 102.742188 102.738281 L 102.742188 102.882812 L 104.960938 104.175781 L 105.199219 104.171875 L 107.878906 102.617188 L 107.882812 102.484375 L 105.664062 101.191406 L 105.425781 101.183594 Z M 102.742188 102.738281 " fill-opacity="1" fill-rule="nonzero"/><path fill="#bac1ce" d="M 88.5625 94.429688 L 88.570312 94.566406 L 90.140625 95.484375 L 90.378906 95.488281 L 92.34375 94.351562 L 92.34375 94.207031 L 90.773438 93.289062 L 90.527344 93.289062 Z M 88.5625 94.429688 " fill-opacity="1" fill-rule="nonzero"/><path fill="#bac1ce" d="M 85.902344 95.96875 L 85.902344 96.113281 L 87.472656 97.03125 L 87.71875 97.03125 L 89.683594 95.890625 L 89.671875 95.753906 L 88.105469 94.839844 L 87.867188 94.832031 Z M 85.902344 95.96875 " fill-opacity="1" fill-rule="nonzero"/><path fill="#bac1ce" d="M 83.234375 97.519531 L 83.230469 97.660156 L 84.800781 98.578125 L 85.050781 98.578125 L 87.011719 97.4375 L 87.011719 97.292969 L 85.445312 96.378906 L 85.195312 96.378906 Z M 83.234375 97.519531 " fill-opacity="1" fill-rule="nonzero"/><path fill="#bac1ce" d="M 80.5625 99.066406 L 80.5625 99.210938 L 82.132812 100.125 L 82.378906 100.125 L 84.34375 98.988281 L 84.34375 98.84375 L 82.773438 97.925781 L 82.527344 97.925781 Z M 80.5625 99.066406 " fill-opacity="1" fill-rule="nonzero"/><path fill="#bac1ce" d="M 77.894531 100.613281 L 77.902344 100.75 L 79.472656 101.664062 L 79.710938 101.671875 L 81.671875 100.535156 L 81.671875 100.390625 L 80.105469 99.472656 L 79.855469 99.472656 Z M 77.894531 100.613281 " fill-opacity="1" fill-rule="nonzero"/><path fill="#bac1ce" d="M 80.609375 102.050781 L 80.609375 102.183594 L 82.828125 103.476562 L 83.066406 103.484375 L 85.453125 102.097656 L 85.457031 101.953125 L 83.234375 100.660156 L 83 100.667969 Z M 80.609375 102.050781 " fill-opacity="1" fill-rule="nonzero"/><path fill="#bac1ce" d="M 85.203125 102.761719 L 85.210938 102.898438 L 87.429688 104.195312 L 87.667969 104.199219 L 90.058594 102.816406 L 90.058594 102.671875 L 87.839844 101.375 L 87.589844 101.375 Z M 85.203125 102.761719 " fill-opacity="1" fill-rule="nonzero"/><path fill="#bac1ce" d="M 82.085938 104.566406 L 82.085938 104.710938 L 84.304688 106.007812 L 84.550781 106.007812 L 86.941406 104.621094 L 86.933594 104.484375 L 84.714844 103.1875 L 84.476562 103.183594 Z M 82.085938 104.566406 " fill-opacity="1" fill-rule="nonzero"/><path fill="#bac1ce" d="M 88.914062 103.996094 L 88.902344 104.132812 L 91.132812 105.433594 L 91.367188 105.429688 L 93.757812 104.042969 L 93.757812 103.910156 L 91.53125 102.609375 L 91.300781 102.609375 Z M 88.914062 103.996094 " fill-opacity="1" fill-rule="nonzero"/><path fill="#bac1ce" d="M 93.414062 104.761719 L 93.414062 104.90625 L 95.632812 106.199219 L 95.878906 106.199219 L 98.269531 104.8125 L 98.269531 104.671875 L 96.050781 103.375 L 95.800781 103.375 Z M 93.414062 104.761719 " fill-opacity="1" fill-rule="nonzero"/><path fill="#bac1ce" d="M 85.773438 105.8125 L 85.765625 105.953125 L 87.992188 107.253906 L 88.230469 107.246094 L 90.621094 105.863281 L 90.632812 105.722656 L 88.402344 104.421875 L 88.164062 104.429688 Z M 85.773438 105.8125 " fill-opacity="1" fill-rule="nonzero"/><path fill="#bac1ce" d="M 90.277344 106.578125 L 90.273438 106.722656 L 92.492188 108.015625 L 92.742188 108.015625 L 95.132812 106.632812 L 95.132812 106.488281 L 92.914062 105.195312 L 92.664062 105.195312 Z M 90.277344 106.578125 " fill-opacity="1" fill-rule="nonzero"/><path fill="#bac1ce" d="M 87.128906 108.402344 L 87.136719 108.542969 L 89.355469 109.835938 L 89.59375 109.84375 L 91.992188 108.453125 L 91.984375 108.3125 L 89.765625 107.019531 L 89.527344 107.011719 Z M 87.128906 108.402344 " fill-opacity="1" fill-rule="nonzero"/><path fill="#bac1ce" d="M 83.988281 110.222656 L 83.988281 110.367188 L 86.207031 111.660156 L 86.457031 111.660156 L 88.847656 110.277344 L 88.847656 110.132812 L 86.628906 108.835938 L 86.378906 108.835938 Z M 83.988281 110.222656 " fill-opacity="1" fill-rule="nonzero"/><path fill="#bac1ce" d="M 79.511719 109.445312 L 79.5 109.582031 L 81.730469 110.882812 L 81.96875 110.878906 L 84.355469 109.492188 L 84.359375 109.359375 L 82.128906 108.058594 L 81.898438 108.058594 Z M 79.511719 109.445312 " fill-opacity="1" fill-rule="nonzero"/><path fill="#bac1ce" d="M 76.375 111.261719 L 76.363281 111.402344 L 78.589844 112.703125 L 78.828125 112.695312 L 81.21875 111.3125 L 81.230469 111.171875 L 79 109.871094 L 78.761719 109.878906 Z M 76.375 111.261719 " fill-opacity="1" fill-rule="nonzero"/><path fill="#bac1ce" d="M 61.894531 109.882812 L 61.894531 110.027344 L 63.460938 110.945312 L 63.710938 110.945312 L 65.675781 109.804688 L 65.664062 109.667969 L 64.097656 108.75 L 63.859375 108.746094 Z M 61.894531 109.882812 " fill-opacity="1" fill-rule="nonzero"/><path fill="#bac1ce" d="M 67.222656 106.796875 L 67.234375 106.933594 L 68.800781 107.847656 L 69.039062 107.855469 L 71.003906 106.71875 L 71.003906 106.574219 L 69.433594 105.65625 L 69.1875 105.65625 Z M 67.222656 106.796875 " fill-opacity="1" fill-rule="nonzero"/><path fill="#bac1ce" d="M 64.554688 108.34375 L 64.5625 108.480469 L 66.132812 109.394531 L 66.371094 109.402344 L 68.332031 108.265625 L 68.335938 108.121094 L 66.765625 107.203125 L 66.515625 107.203125 Z M 64.554688 108.34375 " fill-opacity="1" fill-rule="nonzero"/><path fill="#bac1ce" d="M 68.203125 109.238281 L 68.191406 109.378906 L 70.410156 110.671875 L 70.660156 110.671875 L 73.050781 109.289062 L 73.050781 109.144531 L 70.832031 107.847656 L 70.59375 107.855469 Z M 68.203125 109.238281 " fill-opacity="1" fill-rule="nonzero"/><path fill="#bac1ce" d="M 59.222656 111.429688 L 59.222656 111.574219 L 60.792969 112.492188 L 61.039062 112.492188 L 63.003906 111.351562 L 63.003906 111.207031 L 61.4375 110.292969 L 61.1875 110.292969 Z M 59.222656 111.429688 " fill-opacity="1" fill-rule="nonzero"/><path fill="#bac1ce" d="M 65.097656 111.039062 L 65.097656 111.171875 L 67.316406 112.46875 L 67.554688 112.472656 L 69.953125 111.082031 L 69.945312 110.945312 L 67.726562 109.648438 L 67.496094 109.648438 Z M 65.097656 111.039062 " fill-opacity="1" fill-rule="nonzero"/><path fill="#bac1ce" d="M 69.585938 111.8125 L 69.585938 111.953125 L 71.804688 113.25 L 72.054688 113.25 L 74.445312 111.863281 L 74.445312 111.71875 L 72.226562 110.425781 L 71.976562 110.425781 Z M 69.585938 111.8125 " fill-opacity="1" fill-rule="nonzero"/><path fill="#bac1ce" d="M 56.554688 112.980469 L 56.5625 113.117188 L 58.132812 114.03125 L 58.371094 114.039062 L 60.332031 112.898438 L 60.335938 112.757812 L 58.765625 111.839844 L 58.519531 111.839844 Z M 56.554688 112.980469 " fill-opacity="1" fill-rule="nonzero"/><path fill="#bac1ce" d="M 62 112.835938 L 61.992188 112.972656 L 64.210938 114.265625 L 64.457031 114.265625 L 66.847656 112.882812 L 66.847656 112.738281 L 64.628906 111.445312 L 64.390625 111.449219 Z M 62 112.835938 " fill-opacity="1" fill-rule="nonzero"/><path fill="#bac1ce" d="M 73.234375 113.082031 L 73.222656 113.21875 L 75.453125 114.519531 L 75.691406 114.515625 L 78.082031 113.128906 L 78.09375 112.992188 L 75.863281 111.691406 L 75.625 111.695312 Z M 73.234375 113.082031 " fill-opacity="1" fill-rule="nonzero"/><path fill="#bac1ce" d="M 66.460938 113.621094 L 66.460938 113.765625 L 68.679688 115.0625 L 68.925781 115.0625 L 71.316406 113.675781 L 71.316406 113.53125 L 69.097656 112.238281 L 68.851562 112.238281 Z M 66.460938 113.621094 " fill-opacity="1" fill-rule="nonzero"/><path fill="#bac1ce" d="M 58.894531 114.632812 L 58.894531 114.765625 L 61.113281 116.0625 L 61.351562 116.066406 L 63.75 114.675781 L 63.742188 114.539062 L 61.523438 113.242188 L 61.296875 113.242188 Z M 58.894531 114.632812 " fill-opacity="1" fill-rule="nonzero"/><path fill="#bac1ce" d="M 70.097656 114.898438 L 70.097656 115.03125 L 72.328125 116.332031 L 72.554688 116.332031 L 74.945312 114.949219 L 74.957031 114.808594 L 72.726562 113.507812 L 72.488281 113.515625 Z M 70.097656 114.898438 " fill-opacity="1" fill-rule="nonzero"/><path fill="#bac1ce" d="M 63.332031 115.433594 L 63.34375 115.574219 L 65.5625 116.867188 L 65.800781 116.875 L 68.199219 115.484375 L 68.191406 115.34375 L 65.972656 114.050781 L 65.734375 114.042969 Z M 63.332031 115.433594 " fill-opacity="1" fill-rule="nonzero"/><path fill="#bac1ce" d="M 74.566406 115.683594 L 74.566406 115.828125 L 76.785156 117.121094 L 77.035156 117.121094 L 79.421875 115.738281 L 79.425781 115.59375 L 77.207031 114.296875 L 76.957031 114.296875 Z M 74.566406 115.683594 " fill-opacity="1" fill-rule="nonzero"/><path fill="#bac1ce" d="M 66.972656 116.710938 L 66.960938 116.851562 L 69.191406 118.152344 L 69.425781 118.144531 L 71.816406 116.761719 L 71.816406 116.628906 L 69.589844 115.328125 L 69.359375 115.328125 Z M 66.972656 116.710938 " fill-opacity="1" fill-rule="nonzero"/><path fill="#bac1ce" d="M 71.429688 117.5 L 71.429688 117.644531 L 73.648438 118.9375 L 73.898438 118.9375 L 76.285156 117.554688 L 76.277344 117.414062 L 74.058594 116.121094 L 73.820312 116.117188 Z M 71.429688 117.5 " fill-opacity="1" fill-rule="nonzero"/><path fill="#bac1ce" d="M 62.308594 119.414062 L 62.296875 119.554688 L 64.523438 120.855469 L 64.761719 120.847656 L 68.710938 118.558594 L 68.722656 118.421875 L 66.492188 117.121094 L 66.253906 117.128906 Z M 62.308594 119.414062 " fill-opacity="1" fill-rule="nonzero"/><path fill="#bac1ce" d="M 65.207031 121.105469 L 65.207031 121.25 L 67.425781 122.546875 L 67.671875 122.546875 L 73.117188 119.390625 L 73.117188 119.246094 L 70.898438 117.953125 L 70.652344 117.953125 Z M 65.207031 121.105469 " fill-opacity="1" fill-rule="nonzero"/><path fill="#bac1ce" d="M 53.882812 114.527344 L 53.894531 114.664062 L 55.460938 115.578125 L 55.699219 115.585938 L 57.664062 114.449219 L 57.664062 114.304688 L 56.097656 113.386719 L 55.847656 113.386719 Z M 53.882812 114.527344 " fill-opacity="1" fill-rule="nonzero"/><path fill="#bac1ce" d="M 56.476562 116.035156 L 56.472656 116.167969 L 58.691406 117.464844 L 58.929688 117.46875 L 60.574219 116.519531 L 60.574219 116.375 L 58.355469 115.082031 L 58.117188 115.085938 Z M 56.476562 116.035156 " fill-opacity="1" fill-rule="nonzero"/><path fill="#bac1ce" d="M 77.476562 117.378906 L 77.476562 117.523438 L 79.695312 118.820312 L 79.933594 118.8125 L 82.324219 117.429688 L 82.335938 117.289062 L 80.117188 115.996094 L 79.867188 115.996094 Z M 77.476562 117.378906 " fill-opacity="1" fill-rule="nonzero"/><path fill="#bac1ce" d="M 74.339844 119.199219 L 74.339844 119.34375 L 76.558594 120.636719 L 76.796875 120.632812 L 79.1875 119.246094 L 79.1875 119.113281 L 76.96875 117.820312 L 76.730469 117.8125 Z M 74.339844 119.199219 " fill-opacity="1" fill-rule="nonzero"/><path fill="#bac1ce" d="M 80.851562 112.039062 L 80.851562 112.183594 L 83.070312 113.476562 L 83.320312 113.476562 L 85.707031 112.09375 L 85.699219 111.953125 L 83.480469 110.660156 L 83.242188 110.65625 Z M 80.851562 112.039062 " fill-opacity="1" fill-rule="nonzero"/><path fill="#bac1ce" d="M 80.492188 115.632812 L 80.488281 115.777344 L 82.710938 117.074219 L 82.945312 117.066406 L 98.03125 108.324219 L 98.042969 108.1875 L 95.824219 106.890625 L 95.574219 106.890625 Z M 80.492188 115.632812 " fill-opacity="1" fill-rule="nonzero"/><path fill="#bac1ce" d="M 110.972656 97.96875 L 110.980469 98.109375 L 113.199219 99.402344 L 113.429688 99.402344 L 115.214844 98.367188 L 115.214844 98.234375 L 112.996094 96.941406 L 112.757812 96.933594 Z M 110.972656 97.96875 " fill-opacity="1" fill-rule="nonzero"/><path fill="#bac1ce" d="M 108.0625 96.269531 L 108.070312 96.410156 L 110.289062 97.703125 L 110.527344 97.710938 L 112.316406 96.675781 L 112.304688 96.535156 L 110.085938 95.242188 L 109.847656 95.234375 Z M 108.0625 96.269531 " fill-opacity="1" fill-rule="nonzero"/><path fill="#bac1ce" d="M 75.234375 102.152344 L 75.234375 102.296875 L 76.800781 103.214844 L 77.050781 103.214844 L 79.011719 102.074219 L 79.003906 101.9375 L 77.433594 101.019531 L 77.195312 101.015625 Z M 75.234375 102.152344 " fill-opacity="1" fill-rule="nonzero"/></svg>