<svg xmlns="http://www.w3.org/2000/svg" xmlns:xlink="http://www.w3.org/1999/xlink" width="150" zoomAndPan="magnify" viewBox="0 0 112.5 112.499997" height="150" preserveAspectRatio="xMidYMid meet" version="1.0"><defs><clipPath id="478d94ca2e"><path d="M 0 0 L 89.675781 0 L 89.675781 111.996094 L 0 111.996094 Z M 0 0 " clip-rule="nonzero"/></clipPath><clipPath id="b20b947d37"><path d="M 53.324219 100.519531 L 84.789062 100.519531 L 84.789062 111.996094 L 53.324219 111.996094 Z M 53.324219 100.519531 " clip-rule="nonzero"/></clipPath><clipPath id="4a89f14d36"><path d="M 86.621094 95 L 112.003906 95 L 112.003906 109.65625 L 86.621094 109.65625 Z M 86.621094 95 " clip-rule="nonzero"/></clipPath></defs><g clip-path="url(#478d94ca2e)"><path fill="#f6b88d" d="M 9.660156 43.238281 C 9.660156 41.3125 9.804688 36.582031 10.082031 32.472656 C 10.273438 29.636719 10.542969 27.070312 10.890625 25.820312 C 13.078125 17.96875 18.03125 11.679688 24.550781 7.269531 C 31.371094 2.65625 39.910156 0.113281 48.757812 0.00390625 C 53.808594 -0.0585938 58.632812 0.738281 63.09375 2.25 C 67.734375 3.828125 71.992188 6.183594 75.714844 9.164062 C 78.300781 11.234375 80.742188 14.136719 82.804688 17.574219 C 84.785156 20.882812 86.425781 24.6875 87.507812 28.71875 C 89.5 36.132812 90.136719 42.582031 89.082031 49.808594 C 88.039062 56.917969 85.355469 64.707031 80.703125 74.882812 C 79.078125 78.433594 77.558594 82.757812 76.4375 88.371094 C 75.304688 94.019531 74.589844 100.949219 74.589844 109.664062 C 74.589844 110.953125 73.542969 111.996094 72.25 111.996094 L 35.40625 111.996094 C 34.113281 111.996094 33.066406 110.953125 33.066406 109.664062 C 33.066406 106.707031 33.304688 104.121094 33.503906 101.972656 C 33.628906 100.617188 33.734375 99.457031 33.734375 98.410156 C 33.734375 96.675781 32.964844 95.957031 29.378906 95.957031 C 27.675781 95.957031 26.371094 95.992188 25.085938 96.027344 C 17.945312 96.230469 11.199219 96.417969 8.476562 91.730469 L 8.472656 91.730469 C 7.714844 90.425781 7.570312 86.878906 7.746094 82.804688 C 7.914062 78.890625 8.339844 74.316406 8.757812 70.980469 C 4.71875 70.976562 2.734375 70.964844 0.429688 68.300781 C -0.03125 67.769531 -0.207031 67.089844 -0.113281 66.445312 C 0.53125 61.242188 9.660156 46.167969 9.660156 43.238281 " fill-opacity="1" fill-rule="evenodd"/></g><path fill="#4f6a79" d="M 66.738281 40.667969 C 66.738281 39.378906 67.785156 38.335938 69.078125 38.335938 C 70.371094 38.335938 71.417969 39.378906 71.417969 40.667969 L 71.417969 109.832031 C 71.417969 111.121094 70.277344 110.660156 68.984375 110.660156 C 67.695312 110.660156 66.738281 111.121094 66.738281 109.832031 L 66.738281 40.667969 " fill-opacity="1" fill-rule="nonzero"/><path fill="#9d8179" d="M 99.558594 62.171875 C 99.304688 61.242188 99.855469 60.285156 100.785156 60.03125 C 101.71875 59.78125 102.679688 60.328125 102.933594 61.257812 L 110.921875 96.167969 C 111.175781 97.097656 110.625 98.058594 109.695312 98.308594 C 108.761719 98.5625 107.800781 98.015625 107.546875 97.085938 L 99.558594 62.171875 " fill-opacity="1" fill-rule="nonzero"/><g clip-path="url(#b20b947d37)"><path fill="#4f6a79" d="M 84.734375 111.996094 L 53.421875 111.996094 L 69.078125 100.558594 Z M 84.734375 111.996094 " fill-opacity="1" fill-rule="evenodd"/></g><path fill="#9d8179" d="M 40.558594 40.117188 C 40.8125 39.1875 40.261719 38.230469 39.328125 37.976562 C 38.398438 37.722656 37.4375 38.273438 37.183594 39.199219 L 27.636719 73.976562 C 27.386719 74.90625 27.933594 75.863281 28.867188 76.117188 C 29.796875 76.371094 30.757812 75.820312 31.011719 74.894531 L 40.558594 40.117188 " fill-opacity="1" fill-rule="nonzero"/><path fill="#67423a" d="M 105.171875 61.257812 C 106.382812 61.691406 107.015625 63.023438 106.582031 64.230469 C 106.148438 65.441406 104.8125 66.070312 103.601562 65.636719 L 34.628906 42.039062 C 33.414062 41.605469 32.785156 40.273438 33.21875 39.066406 C 33.652344 37.859375 34.988281 37.230469 36.199219 37.664062 L 105.171875 61.257812 " fill-opacity="1" fill-rule="nonzero"/><path fill="#9d8179" d="M 37.917969 39.660156 C 37.664062 38.730469 37.550781 37.773438 39.144531 37.519531 C 40.078125 37.265625 41.039062 37.816406 41.289062 38.742188 L 50.105469 73.976562 C 50.359375 74.90625 49.808594 75.863281 48.875 76.117188 C 47.945312 76.371094 46.984375 75.820312 46.730469 74.894531 L 37.917969 39.660156 " fill-opacity="1" fill-rule="nonzero"/><path fill="#33414b" d="M 38.871094 72.8125 L 49.902344 72.8125 C 50.871094 72.8125 51.65625 73.597656 51.65625 74.5625 C 51.65625 78.082031 50.226562 81.269531 47.914062 83.578125 C 45.597656 85.886719 42.402344 87.3125 38.871094 87.3125 C 35.339844 87.3125 32.144531 85.886719 29.828125 83.578125 C 27.515625 81.269531 26.085938 78.082031 26.085938 74.5625 C 26.085938 73.597656 26.871094 72.8125 27.839844 72.8125 L 38.871094 72.8125 " fill-opacity="1" fill-rule="nonzero"/><path fill="#9d8179" d="M 99.007812 60.25 C 99.261719 59.324219 100.222656 58.773438 101.15625 59.027344 C 102.085938 59.28125 102.636719 60.238281 102.382812 61.167969 L 91.828125 97.085938 C 91.574219 98.015625 90.613281 98.5625 89.679688 98.308594 C 88.75 98.058594 88.199219 97.097656 88.453125 96.167969 L 99.007812 60.25 " fill-opacity="1" fill-rule="nonzero"/><g clip-path="url(#4a89f14d36)"><path fill="#33414b" d="M 99.6875 95.003906 L 110.71875 95.003906 C 111.6875 95.003906 112.476562 95.789062 112.476562 96.753906 C 112.476562 100.277344 111.042969 103.464844 108.730469 105.769531 C 106.414062 108.078125 103.21875 109.503906 99.6875 109.503906 C 96.15625 109.503906 92.960938 108.078125 90.644531 105.769531 C 88.332031 103.464844 86.902344 100.277344 86.902344 96.753906 C 86.902344 95.789062 87.6875 95.003906 88.65625 95.003906 L 99.6875 95.003906 " fill-opacity="1" fill-rule="nonzero"/></g><path fill="#67423a" d="M 68.921875 56.628906 C 71.671875 56.628906 73.917969 54.390625 73.917969 51.648438 C 73.917969 48.90625 71.671875 46.667969 68.921875 46.667969 C 66.171875 46.667969 63.925781 48.90625 63.925781 51.648438 C 63.925781 54.390625 66.171875 56.628906 68.921875 56.628906 " fill-opacity="1" fill-rule="evenodd"/></svg>