<svg xmlns="http://www.w3.org/2000/svg" xmlns:xlink="http://www.w3.org/1999/xlink" width="150" zoomAndPan="magnify" viewBox="0 0 112.5 112.499997" height="150" preserveAspectRatio="xMidYMid meet" version="1.0"><defs><clipPath id="567dc796e9"><path d="M 22 71 L 55 71 L 55 112.003906 L 22 112.003906 Z M 22 71 " clip-rule="nonzero"/></clipPath><clipPath id="8ef71ebf67"><path d="M 53 71 L 87 71 L 87 112.003906 L 53 112.003906 Z M 53 71 " clip-rule="nonzero"/></clipPath><clipPath id="d8a6595651"><path d="M 0 111 L 112.003906 111 L 112.003906 112.003906 L 0 112.003906 Z M 0 111 " clip-rule="nonzero"/></clipPath></defs><path fill="#d3d2d2" d="M 53.109375 72.855469 L 36.277344 38.671875 C 36.046875 38.207031 35.484375 38.015625 35.019531 38.242188 L 25.066406 43.144531 C 24.601562 43.375 24.410156 43.9375 24.636719 44.402344 L 41.46875 78.589844 L 53.109375 72.855469 " fill-opacity="1" fill-rule="nonzero"/><path fill="#24265d" d="M 53.109375 72.855469 L 53.523438 72.652344 L 36.695312 38.464844 C 36.449219 37.96875 35.949219 37.683594 35.433594 37.683594 C 35.226562 37.683594 35.011719 37.730469 34.816406 37.828125 L 24.859375 42.726562 C 24.367188 42.972656 24.078125 43.46875 24.078125 43.988281 C 24.078125 44.195312 24.125 44.410156 24.222656 44.609375 L 41.054688 78.792969 C 41.109375 78.902344 41.207031 78.988281 41.320312 79.027344 C 41.4375 79.066406 41.566406 79.058594 41.675781 79.003906 L 53.316406 73.273438 C 53.421875 73.21875 53.507812 73.121094 53.546875 73.007812 C 53.585938 72.890625 53.578125 72.761719 53.523438 72.652344 L 53.109375 72.855469 L 52.90625 72.441406 L 41.679688 77.96875 L 25.054688 44.199219 C 25.019531 44.128906 25.003906 44.058594 25.003906 43.988281 C 25.007812 43.8125 25.101562 43.644531 25.269531 43.5625 L 35.226562 38.660156 C 35.292969 38.625 35.363281 38.609375 35.433594 38.609375 C 35.609375 38.609375 35.777344 38.707031 35.863281 38.875 L 52.691406 73.0625 L 53.109375 72.855469 L 52.90625 72.441406 L 53.109375 72.855469 " fill-opacity="1" fill-rule="nonzero"/><path fill="#4ab6d9" d="M 35.117188 43.855469 C 35.886719 45.417969 35.242188 47.308594 33.679688 48.078125 C 32.113281 48.847656 30.222656 48.203125 29.453125 46.640625 C 28.683594 45.078125 29.328125 43.1875 30.890625 42.417969 C 32.453125 41.648438 34.34375 42.289062 35.117188 43.855469 " fill-opacity="1" fill-rule="nonzero"/><path fill="#24265d" d="M 35.117188 43.855469 L 34.699219 44.058594 C 34.890625 44.441406 34.976562 44.847656 34.976562 45.246094 C 34.976562 46.238281 34.425781 47.195312 33.472656 47.664062 C 33.089844 47.851562 32.6875 47.941406 32.289062 47.941406 C 31.292969 47.941406 30.339844 47.390625 29.871094 46.4375 C 29.679688 46.054688 29.59375 45.648438 29.59375 45.25 C 29.59375 44.253906 30.144531 43.300781 31.097656 42.832031 C 31.480469 42.644531 31.882812 42.554688 32.285156 42.554688 C 33.277344 42.554688 34.230469 43.105469 34.699219 44.058594 L 35.117188 43.855469 L 35.53125 43.648438 C 34.902344 42.371094 33.617188 41.625 32.285156 41.628906 C 31.746094 41.628906 31.199219 41.75 30.6875 42 C 29.410156 42.632812 28.664062 43.914062 28.664062 45.25 C 28.664062 45.789062 28.785156 46.332031 29.039062 46.847656 C 29.667969 48.125 30.953125 48.867188 32.289062 48.867188 C 32.824219 48.867188 33.371094 48.746094 33.882812 48.496094 C 35.164062 47.863281 35.90625 46.582031 35.90625 45.246094 C 35.90625 44.710938 35.785156 44.164062 35.53125 43.648438 L 35.117188 43.855469 " fill-opacity="1" fill-rule="nonzero"/><path fill="#24265d" d="M 47.007812 73.527344 C 47.183594 73.882812 47.039062 74.3125 46.683594 74.488281 C 46.328125 74.664062 45.898438 74.519531 45.722656 74.164062 C 45.546875 73.808594 45.695312 73.378906 46.050781 73.203125 C 46.402344 73.027344 46.832031 73.175781 47.007812 73.527344 " fill-opacity="1" fill-rule="nonzero"/><path fill="#24265d" d="M 47.007812 73.527344 L 46.59375 73.734375 C 46.609375 73.769531 46.617188 73.808594 46.617188 73.84375 C 46.617188 73.9375 46.566406 74.027344 46.476562 74.074219 C 46.441406 74.089844 46.402344 74.097656 46.367188 74.097656 C 46.273438 74.097656 46.183594 74.046875 46.140625 73.957031 C 46.121094 73.921875 46.113281 73.882812 46.113281 73.847656 C 46.113281 73.753906 46.164062 73.664062 46.253906 73.617188 C 46.292969 73.601562 46.328125 73.59375 46.363281 73.59375 C 46.460938 73.59375 46.550781 73.644531 46.59375 73.734375 L 47.425781 73.324219 C 47.21875 72.90625 46.800781 72.664062 46.363281 72.664062 C 46.191406 72.664062 46.011719 72.703125 45.84375 72.789062 C 45.425781 72.992188 45.183594 73.410156 45.183594 73.847656 C 45.183594 74.023438 45.226562 74.203125 45.308594 74.367188 C 45.511719 74.785156 45.929688 75.027344 46.367188 75.027344 C 46.542969 75.027344 46.71875 74.988281 46.886719 74.90625 C 47.304688 74.699219 47.546875 74.28125 47.546875 73.84375 C 47.546875 73.667969 47.507812 73.488281 47.425781 73.324219 L 47.007812 73.527344 " fill-opacity="1" fill-rule="nonzero"/><path fill="#83c6db" d="M 40.535156 51.039062 L 31.84375 55.320312 L 30.308594 52.203125 L 39.003906 47.921875 L 40.535156 51.039062 " fill-opacity="1" fill-rule="nonzero"/><path fill="#24265d" d="M 40.535156 51.039062 L 40.332031 50.621094 L 32.054688 54.699219 L 30.929688 52.417969 L 38.792969 48.542969 L 40.121094 51.242188 L 40.535156 51.039062 L 40.332031 50.621094 L 40.535156 51.039062 L 40.953125 50.832031 L 39.417969 47.71875 C 39.367188 47.609375 39.269531 47.523438 39.152344 47.484375 C 39.039062 47.445312 38.910156 47.453125 38.800781 47.507812 L 30.105469 51.789062 C 29.875 51.902344 29.78125 52.179688 29.890625 52.410156 L 31.425781 55.527344 C 31.480469 55.632812 31.578125 55.71875 31.695312 55.757812 C 31.808594 55.796875 31.9375 55.792969 32.046875 55.734375 L 40.742188 51.457031 C 40.972656 51.339844 41.066406 51.0625 40.953125 50.832031 L 40.535156 51.039062 " fill-opacity="1" fill-rule="nonzero"/><path fill="#6dbfda" d="M 42.074219 54.15625 L 33.375 58.4375 L 31.84375 55.320312 L 40.535156 51.039062 L 42.074219 54.15625 " fill-opacity="1" fill-rule="nonzero"/><path fill="#24265d" d="M 42.074219 54.15625 L 41.867188 53.738281 L 33.585938 57.816406 L 32.464844 55.53125 L 40.328125 51.660156 L 41.65625 54.359375 L 42.074219 54.15625 L 41.867188 53.738281 L 42.074219 54.15625 L 42.488281 53.949219 L 40.953125 50.832031 C 40.839844 50.605469 40.5625 50.507812 40.332031 50.621094 L 31.636719 54.90625 C 31.40625 55.015625 31.3125 55.296875 31.425781 55.527344 L 32.960938 58.640625 C 33.074219 58.871094 33.351562 58.964844 33.582031 58.851562 L 42.277344 54.570312 C 42.386719 54.515625 42.472656 54.421875 42.511719 54.304688 C 42.550781 54.1875 42.542969 54.0625 42.488281 53.949219 L 42.074219 54.15625 " fill-opacity="1" fill-rule="nonzero"/><path fill="#4ab6d9" d="M 43.605469 57.269531 L 34.910156 61.550781 L 33.375 58.4375 L 42.074219 54.15625 L 43.605469 57.269531 " fill-opacity="1" fill-rule="nonzero"/><path fill="#24265d" d="M 43.605469 57.269531 L 43.402344 56.851562 L 35.121094 60.929688 L 33.996094 58.648438 L 41.863281 54.773438 L 43.191406 57.476562 L 43.605469 57.269531 L 43.402344 56.851562 L 43.605469 57.269531 L 44.023438 57.066406 L 42.488281 53.949219 C 42.375 53.71875 42.097656 53.625 41.867188 53.738281 L 33.171875 58.019531 C 33.0625 58.074219 32.976562 58.171875 32.9375 58.285156 C 32.898438 58.402344 32.90625 58.53125 32.960938 58.640625 L 34.496094 61.757812 C 34.546875 61.867188 34.644531 61.953125 34.761719 61.992188 C 34.878906 62.03125 35.007812 62.019531 35.117188 61.96875 L 43.808594 57.6875 C 43.921875 57.632812 44.007812 57.535156 44.046875 57.417969 C 44.085938 57.304688 44.074219 57.175781 44.023438 57.066406 L 43.605469 57.269531 " fill-opacity="1" fill-rule="nonzero"/><path fill="#3a8daa" d="M 45.140625 60.386719 L 36.445312 64.667969 L 34.910156 61.550781 L 43.605469 57.269531 L 45.140625 60.386719 " fill-opacity="1" fill-rule="nonzero"/><path fill="#24265d" d="M 45.140625 60.386719 L 44.9375 59.96875 L 36.65625 64.046875 L 35.53125 61.761719 L 43.394531 57.890625 L 44.726562 60.589844 L 45.140625 60.386719 L 44.9375 59.96875 L 45.140625 60.386719 L 45.554688 60.179688 L 44.023438 57.066406 C 43.910156 56.835938 43.628906 56.742188 43.402344 56.851562 L 34.707031 61.136719 C 34.476562 61.25 34.382812 61.527344 34.496094 61.757812 L 36.027344 64.871094 C 36.082031 64.980469 36.179688 65.066406 36.296875 65.105469 C 36.410156 65.144531 36.539062 65.136719 36.648438 65.082031 L 45.34375 60.800781 C 45.457031 60.746094 45.539062 60.652344 45.578125 60.535156 C 45.617188 60.417969 45.613281 60.292969 45.554688 60.179688 L 45.140625 60.386719 " fill-opacity="1" fill-rule="nonzero"/><path fill="#327994" d="M 46.671875 63.503906 L 37.976562 67.785156 L 36.445312 64.667969 L 45.140625 60.386719 L 46.671875 63.503906 " fill-opacity="1" fill-rule="nonzero"/><path fill="#24265d" d="M 46.671875 63.503906 L 46.46875 63.085938 L 38.191406 67.164062 L 37.066406 64.878906 L 44.929688 61.007812 L 46.257812 63.707031 L 46.671875 63.503906 L 46.46875 63.085938 L 46.671875 63.503906 L 47.089844 63.296875 L 45.554688 60.179688 C 45.503906 60.070312 45.40625 59.988281 45.289062 59.949219 C 45.175781 59.90625 45.046875 59.914062 44.9375 59.96875 L 36.238281 64.25 C 36.011719 64.363281 35.917969 64.644531 36.027344 64.871094 L 37.5625 67.988281 C 37.617188 68.097656 37.710938 68.183594 37.828125 68.222656 C 37.945312 68.261719 38.070312 68.253906 38.183594 68.199219 L 46.878906 63.917969 C 47.109375 63.804688 47.203125 63.527344 47.089844 63.296875 L 46.671875 63.503906 " fill-opacity="1" fill-rule="nonzero"/><path fill="#296279" d="M 48.207031 66.617188 L 39.511719 70.898438 L 37.976562 67.785156 L 46.671875 63.503906 L 48.207031 66.617188 " fill-opacity="1" fill-rule="nonzero"/><path fill="#24265d" d="M 48.207031 66.617188 L 48.003906 66.199219 L 39.722656 70.277344 L 38.601562 67.996094 L 46.464844 64.121094 L 47.792969 66.824219 L 48.207031 66.617188 L 48.003906 66.199219 L 48.207031 66.617188 L 48.625 66.414062 L 47.089844 63.296875 C 46.976562 63.066406 46.699219 62.972656 46.46875 63.085938 L 37.773438 67.367188 C 37.542969 67.480469 37.449219 67.757812 37.5625 67.988281 L 39.097656 71.105469 C 39.148438 71.214844 39.246094 71.300781 39.363281 71.339844 C 39.480469 71.378906 39.609375 71.371094 39.71875 71.316406 L 48.414062 67.03125 C 48.523438 66.980469 48.609375 66.882812 48.648438 66.765625 C 48.6875 66.652344 48.679688 66.519531 48.625 66.414062 L 48.207031 66.617188 " fill-opacity="1" fill-rule="nonzero"/><path fill="#1e4557" d="M 49.742188 69.730469 L 41.046875 74.015625 L 39.511719 70.898438 L 48.207031 66.617188 L 49.742188 69.730469 " fill-opacity="1" fill-rule="nonzero"/><path fill="#24265d" d="M 49.742188 69.730469 L 49.539062 69.316406 L 41.257812 73.394531 L 40.132812 71.109375 L 47.996094 67.238281 L 49.324219 69.9375 L 49.742188 69.730469 L 49.539062 69.316406 L 49.742188 69.730469 L 50.160156 69.527344 L 48.625 66.414062 C 48.511719 66.183594 48.234375 66.085938 48.003906 66.199219 L 39.308594 70.484375 C 39.078125 70.597656 38.984375 70.875 39.097656 71.105469 L 40.632812 74.21875 C 40.683594 74.328125 40.78125 74.414062 40.898438 74.453125 C 41.011719 74.492188 41.144531 74.484375 41.25 74.429688 L 49.945312 70.148438 C 50.054688 70.09375 50.140625 69.996094 50.179688 69.882812 C 50.222656 69.765625 50.210938 69.636719 50.160156 69.527344 L 49.742188 69.730469 " fill-opacity="1" fill-rule="nonzero"/><path fill="#d3d2d2" d="M 52.9375 75.652344 L 51.277344 37.582031 C 51.253906 37.066406 50.816406 36.664062 50.300781 36.683594 L 39.214844 37.167969 C 38.695312 37.191406 38.292969 37.628906 38.316406 38.148438 L 39.976562 76.21875 L 52.9375 75.652344 " fill-opacity="1" fill-rule="nonzero"/><path fill="#24265d" d="M 52.9375 75.652344 L 53.402344 75.632812 L 51.742188 37.5625 C 51.707031 36.808594 51.089844 36.222656 50.339844 36.222656 L 50.273438 36.222656 L 50.300781 36.683594 L 50.277344 36.222656 L 39.195312 36.707031 C 38.441406 36.742188 37.851562 37.359375 37.851562 38.105469 L 37.851562 38.171875 L 37.851562 38.167969 L 39.511719 76.238281 C 39.515625 76.359375 39.570312 76.476562 39.660156 76.5625 C 39.753906 76.644531 39.875 76.6875 39.996094 76.683594 L 52.957031 76.117188 C 53.078125 76.113281 53.199219 76.058594 53.28125 75.96875 C 53.363281 75.875 53.40625 75.753906 53.402344 75.632812 L 52.9375 75.652344 L 52.917969 75.191406 L 40.417969 75.734375 L 38.78125 38.128906 L 38.78125 38.105469 C 38.78125 37.855469 38.980469 37.644531 39.234375 37.632812 L 50.316406 37.148438 L 50.339844 37.148438 C 50.59375 37.148438 50.804688 37.347656 50.816406 37.605469 L 52.472656 75.675781 L 52.9375 75.652344 L 52.917969 75.191406 L 52.9375 75.652344 " fill-opacity="1" fill-rule="nonzero"/><path fill="#da303b" d="M 48.128906 41.863281 C 48.207031 43.605469 46.855469 45.074219 45.113281 45.152344 C 43.371094 45.226562 41.902344 43.878906 41.824219 42.136719 C 41.75 40.394531 43.097656 38.921875 44.839844 38.847656 C 46.582031 38.769531 48.054688 40.121094 48.128906 41.863281 " fill-opacity="1" fill-rule="nonzero"/><path fill="#24265d" d="M 48.128906 41.863281 L 47.667969 41.882812 C 47.667969 41.921875 47.667969 41.960938 47.667969 42.003906 C 47.667969 43.433594 46.539062 44.625 45.09375 44.6875 C 45.054688 44.691406 45.015625 44.691406 44.976562 44.691406 C 43.542969 44.691406 42.351562 43.5625 42.289062 42.117188 C 42.285156 42.078125 42.285156 42.035156 42.285156 41.996094 C 42.285156 40.566406 43.414062 39.371094 44.859375 39.308594 C 44.898438 39.308594 44.941406 39.308594 44.980469 39.308594 C 46.410156 39.308594 47.605469 40.4375 47.667969 41.882812 L 48.59375 41.839844 C 48.507812 39.898438 46.90625 38.378906 44.980469 38.378906 C 44.925781 38.378906 44.871094 38.378906 44.820312 38.382812 C 42.875 38.46875 41.359375 40.070312 41.359375 41.996094 C 41.359375 42.046875 41.359375 42.105469 41.363281 42.15625 C 41.445312 44.101562 43.046875 45.617188 44.976562 45.621094 C 45.027344 45.621094 45.082031 45.617188 45.136719 45.613281 C 47.078125 45.53125 48.597656 43.929688 48.597656 42.003906 C 48.597656 41.949219 48.59375 41.894531 48.59375 41.839844 L 48.128906 41.863281 " fill-opacity="1" fill-rule="nonzero"/><path fill="#24265d" d="M 47.082031 73.816406 C 47.097656 74.210938 46.792969 74.546875 46.398438 74.5625 C 46 74.578125 45.667969 74.273438 45.648438 73.878906 C 45.632812 73.484375 45.9375 73.148438 46.335938 73.128906 C 46.730469 73.113281 47.066406 73.417969 47.082031 73.816406 " fill-opacity="1" fill-rule="nonzero"/><path fill="#24265d" d="M 47.082031 73.816406 L 46.617188 73.835938 L 46.617188 73.847656 C 46.617188 73.980469 46.511719 74.09375 46.375 74.097656 L 46.363281 74.097656 C 46.230469 74.097656 46.117188 73.992188 46.113281 73.855469 L 46.113281 73.84375 C 46.113281 73.710938 46.21875 73.597656 46.355469 73.59375 L 46.367188 73.59375 C 46.5 73.59375 46.613281 73.699219 46.617188 73.835938 L 47.082031 73.816406 L 47.542969 73.792969 C 47.515625 73.160156 46.996094 72.664062 46.367188 72.664062 L 46.3125 72.667969 C 45.679688 72.695312 45.1875 73.214844 45.1875 73.84375 L 45.1875 73.898438 C 45.214844 74.53125 45.734375 75.027344 46.363281 75.027344 L 46.414062 75.023438 C 47.050781 74.996094 47.546875 74.476562 47.546875 73.847656 L 47.542969 73.792969 L 47.082031 73.816406 " fill-opacity="1" fill-rule="nonzero"/><path fill="#dd5a65" d="M 50.203125 50.621094 L 40.519531 51.042969 L 40.371094 47.574219 L 50.054688 47.152344 L 50.203125 50.621094 " fill-opacity="1" fill-rule="nonzero"/><path fill="#24265d" d="M 50.203125 50.621094 L 50.183594 50.160156 L 40.964844 50.558594 L 40.851562 48.015625 L 49.609375 47.632812 L 49.742188 50.640625 L 50.203125 50.621094 L 50.183594 50.160156 L 50.203125 50.621094 L 50.667969 50.601562 L 50.515625 47.132812 C 50.503906 46.875 50.289062 46.675781 50.03125 46.6875 L 40.347656 47.109375 C 40.09375 47.121094 39.894531 47.335938 39.90625 47.59375 L 40.058594 51.0625 C 40.0625 51.1875 40.117188 51.304688 40.207031 51.382812 C 40.296875 51.46875 40.417969 51.511719 40.542969 51.507812 L 50.222656 51.085938 C 50.34375 51.078125 50.464844 51.023438 50.546875 50.933594 C 50.628906 50.84375 50.671875 50.722656 50.667969 50.601562 L 50.203125 50.621094 " fill-opacity="1" fill-rule="nonzero"/><path fill="#dc4651" d="M 50.355469 54.089844 L 40.671875 54.511719 L 40.519531 51.042969 L 50.203125 50.621094 L 50.355469 54.089844 " fill-opacity="1" fill-rule="nonzero"/><path fill="#24265d" d="M 50.355469 54.089844 L 50.335938 53.628906 L 41.117188 54.027344 L 41.003906 51.484375 L 49.761719 51.105469 L 49.890625 54.109375 L 50.355469 54.089844 L 50.335938 53.628906 L 50.355469 54.089844 L 50.820312 54.070312 L 50.667969 50.601562 C 50.65625 50.34375 50.441406 50.148438 50.183594 50.160156 L 40.5 50.578125 C 40.246094 50.589844 40.046875 50.808594 40.058594 51.0625 L 40.207031 54.535156 C 40.214844 54.65625 40.269531 54.773438 40.359375 54.855469 C 40.449219 54.9375 40.570312 54.980469 40.691406 54.976562 L 50.375 54.554688 C 50.496094 54.546875 50.613281 54.496094 50.699219 54.402344 C 50.78125 54.3125 50.824219 54.191406 50.820312 54.070312 L 50.355469 54.089844 " fill-opacity="1" fill-rule="nonzero"/><path fill="#da303b" d="M 50.507812 57.5625 L 40.824219 57.984375 L 40.671875 54.511719 L 50.355469 54.089844 L 50.507812 57.5625 " fill-opacity="1" fill-rule="nonzero"/><path fill="#24265d" d="M 50.507812 57.5625 L 50.484375 57.097656 L 41.265625 57.5 L 41.15625 54.957031 L 49.914062 54.574219 L 50.042969 57.582031 L 50.507812 57.5625 L 50.484375 57.097656 L 50.507812 57.5625 L 50.96875 57.539062 L 50.820312 54.070312 C 50.8125 53.949219 50.757812 53.832031 50.667969 53.746094 C 50.578125 53.664062 50.457031 53.621094 50.335938 53.628906 L 40.652344 54.050781 C 40.398438 54.0625 40.199219 54.277344 40.207031 54.535156 L 40.359375 58.003906 C 40.371094 58.257812 40.585938 58.457031 40.84375 58.445312 L 50.527344 58.023438 C 50.648438 58.019531 50.765625 57.964844 50.847656 57.875 C 50.929688 57.785156 50.972656 57.664062 50.96875 57.539062 L 50.507812 57.5625 " fill-opacity="1" fill-rule="nonzero"/><path fill="#c22a33" d="M 50.65625 61.03125 L 40.976562 61.453125 L 40.824219 57.984375 L 50.507812 57.5625 L 50.65625 61.03125 " fill-opacity="1" fill-rule="nonzero"/><path fill="#24265d" d="M 50.65625 61.03125 L 50.636719 60.566406 L 41.417969 60.96875 L 41.304688 58.425781 L 50.0625 58.042969 L 50.195312 61.050781 L 50.65625 61.03125 L 50.636719 60.566406 L 50.65625 61.03125 L 51.121094 61.011719 L 50.96875 57.539062 C 50.957031 57.285156 50.742188 57.085938 50.484375 57.097656 L 40.804688 57.519531 C 40.683594 57.523438 40.566406 57.578125 40.480469 57.667969 C 40.398438 57.757812 40.355469 57.882812 40.359375 58.003906 L 40.511719 61.472656 C 40.523438 61.730469 40.738281 61.925781 40.996094 61.914062 L 50.675781 61.492188 C 50.800781 61.488281 50.917969 61.433594 51 61.34375 C 51.082031 61.253906 51.125 61.132812 51.121094 61.011719 L 50.65625 61.03125 " fill-opacity="1" fill-rule="nonzero"/><path fill="#a6232a" d="M 50.808594 64.5 L 41.125 64.921875 L 40.976562 61.453125 L 50.65625 61.03125 L 50.808594 64.5 " fill-opacity="1" fill-rule="nonzero"/><path fill="#24265d" d="M 50.808594 64.5 L 50.789062 64.035156 L 41.570312 64.4375 L 41.457031 61.894531 L 50.214844 61.515625 L 50.34375 64.519531 L 50.808594 64.5 L 50.789062 64.035156 L 50.808594 64.5 L 51.273438 64.480469 L 51.121094 61.011719 C 51.109375 60.753906 50.894531 60.554688 50.636719 60.566406 L 40.953125 60.988281 C 40.699219 61 40.5 61.21875 40.511719 61.472656 L 40.664062 64.941406 C 40.667969 65.0625 40.722656 65.179688 40.8125 65.261719 C 40.902344 65.347656 41.023438 65.390625 41.144531 65.386719 L 50.828125 64.964844 C 50.953125 64.957031 51.066406 64.902344 51.152344 64.8125 C 51.234375 64.722656 51.277344 64.601562 51.273438 64.480469 L 50.808594 64.5 " fill-opacity="1" fill-rule="nonzero"/><path fill="#891d22" d="M 50.960938 67.96875 L 41.277344 68.390625 L 41.125 64.921875 L 50.808594 64.5 L 50.960938 67.96875 " fill-opacity="1" fill-rule="nonzero"/><path fill="#24265d" d="M 50.960938 67.96875 L 50.941406 67.503906 L 41.71875 67.90625 L 41.609375 65.363281 L 50.367188 64.984375 L 50.496094 67.988281 L 50.960938 67.96875 L 50.941406 67.503906 L 50.960938 67.96875 L 51.421875 67.949219 L 51.273438 64.480469 C 51.261719 64.222656 51.042969 64.027344 50.789062 64.035156 L 41.105469 64.457031 C 40.851562 64.46875 40.652344 64.683594 40.664062 64.941406 L 40.8125 68.414062 C 40.820312 68.53125 40.875 68.648438 40.964844 68.734375 C 41.054688 68.816406 41.175781 68.859375 41.296875 68.855469 L 50.980469 68.433594 C 51.101562 68.425781 51.21875 68.371094 51.300781 68.28125 C 51.382812 68.191406 51.429688 68.070312 51.421875 67.949219 L 50.960938 67.96875 " fill-opacity="1" fill-rule="nonzero"/><path fill="#6f1619" d="M 51.113281 71.4375 L 41.429688 71.859375 L 41.277344 68.390625 L 50.960938 67.96875 L 51.113281 71.4375 " fill-opacity="1" fill-rule="nonzero"/><path fill="#24265d" d="M 51.113281 71.4375 L 51.09375 70.972656 L 41.871094 71.378906 L 41.761719 68.832031 L 50.515625 68.453125 L 50.648438 71.457031 L 51.113281 71.4375 L 51.09375 70.972656 L 51.113281 71.4375 L 51.574219 71.417969 L 51.421875 67.949219 C 51.414062 67.691406 51.195312 67.496094 50.941406 67.503906 L 41.257812 67.929688 C 41 67.9375 40.800781 68.15625 40.8125 68.410156 L 40.964844 71.878906 C 40.96875 72.003906 41.027344 72.121094 41.117188 72.203125 C 41.207031 72.285156 41.328125 72.328125 41.449219 72.324219 L 51.132812 71.902344 C 51.253906 71.894531 51.371094 71.839844 51.453125 71.75 C 51.535156 71.660156 51.582031 71.539062 51.574219 71.417969 L 51.113281 71.4375 " fill-opacity="1" fill-rule="nonzero"/><path fill="#d3d2d2" d="M 39.558594 73.5 L 53.085938 37.875 C 53.269531 37.390625 53.8125 37.144531 54.300781 37.332031 L 64.671875 41.269531 C 65.15625 41.453125 65.398438 41.996094 65.214844 42.480469 L 51.6875 78.105469 L 39.558594 73.5 " fill-opacity="1" fill-rule="nonzero"/><path fill="#24265d" d="M 39.558594 73.5 L 39.992188 73.664062 L 53.519531 38.039062 C 53.59375 37.847656 53.773438 37.734375 53.96875 37.734375 C 54.023438 37.734375 54.078125 37.742188 54.136719 37.761719 L 64.507812 41.703125 C 64.695312 41.773438 64.8125 41.957031 64.8125 42.148438 C 64.8125 42.207031 64.804688 42.261719 64.78125 42.316406 L 51.417969 77.507812 L 39.722656 73.0625 L 39.558594 73.5 L 39.992188 73.664062 L 39.558594 73.5 L 39.394531 73.933594 L 51.523438 78.539062 C 51.636719 78.582031 51.765625 78.578125 51.878906 78.527344 C 51.992188 78.476562 52.078125 78.386719 52.121094 78.269531 L 65.648438 42.648438 C 65.710938 42.484375 65.742188 42.316406 65.742188 42.148438 C 65.742188 41.582031 65.398438 41.050781 64.835938 40.835938 L 54.464844 36.898438 C 54.300781 36.835938 54.132812 36.804688 53.96875 36.804688 C 53.398438 36.804688 52.867188 37.152344 52.652344 37.710938 L 39.125 73.332031 C 39.082031 73.449219 39.085938 73.578125 39.132812 73.6875 C 39.183594 73.800781 39.28125 73.886719 39.394531 73.933594 L 39.558594 73.5 " fill-opacity="1" fill-rule="nonzero"/><path fill="#f9ab41" d="M 54.734375 42.925781 C 54.113281 44.554688 54.933594 46.378906 56.5625 46.996094 C 58.191406 47.613281 60.015625 46.796875 60.632812 45.167969 C 61.25 43.535156 60.433594 41.714844 58.804688 41.09375 C 57.171875 40.476562 55.351562 41.296875 54.734375 42.925781 " fill-opacity="1" fill-rule="nonzero"/><path fill="#24265d" d="M 54.734375 42.925781 L 54.300781 42.761719 C 54.140625 43.183594 54.0625 43.617188 54.0625 44.046875 C 54.0625 45.507812 54.953125 46.878906 56.398438 47.429688 C 56.820312 47.589844 57.253906 47.667969 57.683594 47.667969 C 59.144531 47.667969 60.515625 46.777344 61.066406 45.332031 C 61.226562 44.910156 61.304688 44.472656 61.304688 44.046875 C 61.304688 42.585938 60.414062 41.210938 58.96875 40.660156 C 58.546875 40.503906 58.109375 40.425781 57.683594 40.425781 C 56.222656 40.425781 54.847656 41.316406 54.300781 42.761719 L 55.167969 43.089844 C 55.574219 42.015625 56.597656 41.351562 57.683594 41.351562 C 58 41.351562 58.324219 41.410156 58.636719 41.53125 C 59.714844 41.9375 60.375 42.960938 60.375 44.046875 C 60.375 44.363281 60.320312 44.6875 60.199219 45.003906 C 59.792969 46.078125 58.765625 46.738281 57.683594 46.738281 C 57.363281 46.738281 57.042969 46.683594 56.726562 46.5625 C 55.652344 46.152344 54.992188 45.132812 54.992188 44.046875 C 54.992188 43.726562 55.046875 43.40625 55.167969 43.089844 L 54.734375 42.925781 " fill-opacity="1" fill-rule="nonzero"/><path fill="#24265d" d="M 45.695312 73.589844 C 45.554688 73.960938 45.742188 74.375 46.109375 74.515625 C 46.480469 74.65625 46.894531 74.472656 47.035156 74.101562 C 47.175781 73.730469 46.988281 73.316406 46.621094 73.175781 C 46.25 73.035156 45.835938 73.222656 45.695312 73.589844 " fill-opacity="1" fill-rule="nonzero"/><path fill="#24265d" d="M 45.695312 73.589844 L 45.261719 73.429688 C 45.210938 73.5625 45.1875 73.707031 45.1875 73.84375 C 45.183594 74.320312 45.476562 74.769531 45.945312 74.949219 C 46.082031 75 46.226562 75.027344 46.363281 75.027344 C 46.84375 75.027344 47.289062 74.738281 47.46875 74.265625 C 47.523438 74.128906 47.546875 73.984375 47.546875 73.847656 C 47.546875 73.371094 47.253906 72.921875 46.785156 72.742188 C 46.648438 72.691406 46.503906 72.664062 46.367188 72.664062 C 45.890625 72.664062 45.441406 72.957031 45.261719 73.425781 L 46.128906 73.753906 C 46.167969 73.65625 46.265625 73.59375 46.367188 73.59375 L 46.453125 73.609375 C 46.554688 73.648438 46.617188 73.746094 46.617188 73.847656 L 46.601562 73.9375 C 46.5625 74.035156 46.464844 74.097656 46.363281 74.097656 L 46.273438 74.082031 C 46.175781 74.046875 46.113281 73.949219 46.113281 73.84375 L 46.128906 73.753906 L 45.695312 73.589844 " fill-opacity="1" fill-rule="nonzero"/><path fill="#fbcc7d" d="M 50.015625 50.589844 L 59.074219 54.03125 L 60.308594 50.785156 L 51.246094 47.34375 L 50.015625 50.589844 " fill-opacity="1" fill-rule="nonzero"/><path fill="#24265d" d="M 50.015625 50.589844 L 49.847656 51.023438 L 58.910156 54.464844 C 59.027344 54.511719 59.152344 54.503906 59.265625 54.457031 C 59.378906 54.40625 59.464844 54.3125 59.507812 54.195312 L 60.742188 50.949219 C 60.832031 50.710938 60.710938 50.441406 60.472656 50.351562 L 51.410156 46.910156 C 51.171875 46.820312 50.902344 46.941406 50.8125 47.179688 L 49.578125 50.425781 C 49.539062 50.539062 49.539062 50.667969 49.589844 50.78125 C 49.640625 50.890625 49.734375 50.980469 49.847656 51.023438 L 50.015625 50.589844 L 50.445312 50.753906 L 51.515625 47.941406 L 59.710938 51.054688 L 58.804688 53.433594 L 50.175781 50.15625 L 50.015625 50.589844 L 50.445312 50.753906 L 50.015625 50.589844 " fill-opacity="1" fill-rule="nonzero"/><path fill="#fabb5c" d="M 48.78125 53.835938 L 57.839844 57.277344 L 59.074219 54.03125 L 50.015625 50.589844 L 48.78125 53.835938 " fill-opacity="1" fill-rule="nonzero"/><path fill="#24265d" d="M 48.78125 53.835938 L 48.617188 54.269531 L 57.675781 57.710938 C 57.792969 57.757812 57.917969 57.753906 58.03125 57.703125 C 58.144531 57.652344 58.230469 57.558594 58.273438 57.441406 L 59.507812 54.195312 C 59.597656 53.957031 59.480469 53.691406 59.238281 53.597656 L 50.175781 50.15625 C 50.066406 50.113281 49.933594 50.117188 49.824219 50.167969 C 49.710938 50.21875 49.621094 50.3125 49.578125 50.425781 L 48.347656 53.671875 C 48.257812 53.910156 48.378906 54.179688 48.617188 54.269531 L 48.78125 53.835938 L 49.214844 54 L 50.28125 51.1875 L 58.476562 54.300781 L 57.574219 56.679688 L 48.945312 53.402344 L 48.78125 53.835938 L 49.214844 54 L 48.78125 53.835938 " fill-opacity="1" fill-rule="nonzero"/><path fill="#f9ab41" d="M 47.546875 57.082031 L 56.609375 60.527344 L 57.839844 57.277344 L 48.78125 53.835938 L 47.546875 57.082031 " fill-opacity="1" fill-rule="nonzero"/><path fill="#24265d" d="M 47.546875 57.082031 L 47.382812 57.515625 L 56.445312 60.960938 C 56.5625 61.003906 56.6875 61 56.800781 60.949219 C 56.914062 60.898438 57 60.804688 57.042969 60.691406 L 58.273438 57.441406 C 58.367188 57.203125 58.246094 56.9375 58.007812 56.84375 L 48.945312 53.402344 C 48.707031 53.3125 48.4375 53.433594 48.347656 53.671875 L 47.113281 56.917969 C 47.070312 57.035156 47.074219 57.164062 47.125 57.273438 C 47.175781 57.386719 47.269531 57.472656 47.382812 57.515625 L 47.546875 57.082031 L 47.980469 57.246094 L 49.050781 54.433594 L 57.242188 57.546875 L 56.339844 59.925781 L 47.710938 56.652344 L 47.546875 57.082031 L 47.980469 57.246094 L 47.546875 57.082031 " fill-opacity="1" fill-rule="nonzero"/><path fill="#f79541" d="M 46.3125 60.332031 L 55.375 63.773438 L 56.609375 60.527344 L 47.546875 57.082031 L 46.3125 60.332031 " fill-opacity="1" fill-rule="nonzero"/><path fill="#24265d" d="M 46.3125 60.332031 L 46.152344 60.761719 L 55.210938 64.207031 C 55.449219 64.296875 55.71875 64.175781 55.808594 63.9375 L 57.042969 60.691406 C 57.085938 60.578125 57.082031 60.445312 57.03125 60.335938 C 56.980469 60.222656 56.886719 60.132812 56.773438 60.09375 L 47.710938 56.652344 C 47.472656 56.558594 47.207031 56.679688 47.113281 56.917969 L 45.882812 60.164062 C 45.789062 60.40625 45.910156 60.671875 46.152344 60.761719 L 46.3125 60.332031 L 46.746094 60.492188 L 47.816406 57.679688 L 56.011719 60.792969 L 55.105469 63.171875 L 46.480469 59.898438 L 46.3125 60.332031 L 46.746094 60.492188 L 46.3125 60.332031 " fill-opacity="1" fill-rule="nonzero"/><path fill="#f57e41" d="M 45.082031 63.578125 L 54.140625 67.019531 L 55.375 63.773438 L 46.3125 60.332031 L 45.082031 63.578125 " fill-opacity="1" fill-rule="nonzero"/><path fill="#24265d" d="M 45.082031 63.578125 L 44.917969 64.007812 L 53.976562 67.453125 C 54.09375 67.496094 54.21875 67.492188 54.332031 67.441406 C 54.445312 67.390625 54.53125 67.300781 54.578125 67.183594 L 55.808594 63.9375 C 55.898438 63.695312 55.78125 63.429688 55.539062 63.339844 L 46.480469 59.898438 C 46.242188 59.804688 45.972656 59.925781 45.882812 60.164062 L 44.648438 63.414062 C 44.605469 63.527344 44.609375 63.65625 44.65625 63.765625 C 44.707031 63.878906 44.804688 63.964844 44.917969 64.007812 L 45.082031 63.578125 L 45.515625 63.742188 L 46.582031 60.929688 L 54.777344 64.042969 L 53.875 66.421875 L 45.246094 63.144531 L 45.082031 63.578125 L 45.515625 63.742188 L 45.082031 63.578125 " fill-opacity="1" fill-rule="nonzero"/><path fill="#f36140" d="M 43.847656 66.824219 L 52.910156 70.265625 L 54.140625 67.019531 L 45.082031 63.578125 L 43.847656 66.824219 " fill-opacity="1" fill-rule="nonzero"/><path fill="#24265d" d="M 43.847656 66.824219 L 43.683594 67.257812 L 52.746094 70.699219 C 52.859375 70.742188 52.988281 70.738281 53.101562 70.6875 C 53.214844 70.636719 53.300781 70.546875 53.34375 70.429688 L 54.578125 67.183594 C 54.667969 66.945312 54.546875 66.675781 54.308594 66.585938 L 45.246094 63.144531 C 45.007812 63.050781 44.738281 63.171875 44.648438 63.414062 L 43.414062 66.660156 C 43.371094 66.773438 43.375 66.902344 43.425781 67.015625 C 43.476562 67.125 43.570312 67.214844 43.683594 67.257812 L 43.847656 66.824219 L 44.28125 66.988281 L 45.351562 64.175781 L 53.546875 67.289062 L 52.640625 69.667969 L 44.011719 66.390625 L 43.847656 66.824219 L 44.28125 66.988281 L 43.847656 66.824219 " fill-opacity="1" fill-rule="nonzero"/><path fill="#f14440" d="M 42.613281 70.070312 L 51.675781 73.511719 L 52.910156 70.265625 L 43.847656 66.824219 L 42.613281 70.070312 " fill-opacity="1" fill-rule="nonzero"/><path fill="#24265d" d="M 42.613281 70.070312 L 42.453125 70.503906 L 51.511719 73.945312 C 51.75 74.035156 52.019531 73.917969 52.109375 73.675781 L 53.34375 70.429688 C 53.386719 70.316406 53.382812 70.1875 53.332031 70.074219 C 53.28125 69.964844 53.1875 69.875 53.074219 69.832031 L 44.011719 66.390625 C 43.773438 66.300781 43.507812 66.417969 43.414062 66.660156 L 42.183594 69.90625 C 42.136719 70.019531 42.144531 70.148438 42.191406 70.261719 C 42.242188 70.371094 42.335938 70.460938 42.453125 70.503906 L 42.613281 70.070312 L 43.050781 70.234375 L 44.117188 67.421875 L 52.3125 70.535156 L 51.40625 72.914062 L 42.78125 69.636719 L 42.613281 70.070312 L 43.050781 70.234375 L 42.613281 70.070312 " fill-opacity="1" fill-rule="nonzero"/><path fill="#db8f6f" d="M 12.484375 43.28125 L 13.84375 44.050781 L 14.074219 42.503906 L 15.507812 43.238281 L 15.8125 41.65625 L 17.171875 42.421875 L 17.402344 40.878906 L 18.722656 41.664062 L 18.914062 40.136719 L 10.851562 33.574219 L 10.96875 44.019531 L 12.292969 44.808594 L 12.484375 43.28125 " fill-opacity="1" fill-rule="nonzero"/><path fill="#24265d" d="M 12.484375 43.28125 L 12.257812 43.683594 L 13.617188 44.453125 C 13.75 44.53125 13.910156 44.535156 14.046875 44.46875 C 14.1875 44.398438 14.28125 44.269531 14.304688 44.117188 L 14.4375 43.210938 L 15.296875 43.648438 C 15.429688 43.714844 15.582031 43.714844 15.710938 43.652344 C 15.84375 43.589844 15.9375 43.46875 15.964844 43.324219 L 16.148438 42.375 L 16.945312 42.828125 C 17.078125 42.902344 17.238281 42.90625 17.375 42.839844 C 17.515625 42.773438 17.609375 42.644531 17.628906 42.492188 L 17.757812 41.628906 L 18.488281 42.0625 C 18.621094 42.144531 18.785156 42.148438 18.925781 42.082031 C 19.066406 42.011719 19.164062 41.878906 19.183594 41.722656 L 19.375 40.195312 C 19.394531 40.039062 19.332031 39.878906 19.207031 39.777344 L 11.144531 33.210938 C 11.003906 33.097656 10.8125 33.078125 10.652344 33.15625 C 10.488281 33.234375 10.386719 33.398438 10.386719 33.578125 L 10.507812 44.023438 C 10.511719 44.1875 10.59375 44.335938 10.734375 44.417969 L 12.054688 45.207031 C 12.191406 45.289062 12.359375 45.292969 12.496094 45.226562 C 12.636719 45.15625 12.734375 45.019531 12.753906 44.867188 L 12.945312 43.339844 L 12.484375 43.28125 L 12.257812 43.683594 L 12.484375 43.28125 L 12.023438 43.222656 L 11.921875 44.046875 L 11.429688 43.753906 L 11.324219 34.554688 L 18.421875 40.335938 L 18.351562 40.902344 L 17.636719 40.480469 C 17.503906 40.398438 17.34375 40.390625 17.203125 40.457031 C 17.0625 40.527344 16.964844 40.65625 16.941406 40.808594 L 16.8125 41.6875 L 16.039062 41.25 C 15.910156 41.175781 15.753906 41.171875 15.617188 41.234375 C 15.484375 41.296875 15.386719 41.417969 15.355469 41.566406 L 15.171875 42.542969 L 14.285156 42.089844 C 14.152344 42.023438 13.992188 42.023438 13.863281 42.09375 C 13.726562 42.160156 13.636719 42.289062 13.613281 42.4375 L 13.484375 43.3125 L 12.710938 42.878906 C 12.578125 42.800781 12.414062 42.796875 12.277344 42.867188 C 12.136719 42.9375 12.042969 43.070312 12.023438 43.222656 L 12.484375 43.28125 " fill-opacity="1" fill-rule="nonzero"/><path fill="#24265d" d="M 13.425781 35.667969 L 10.851562 33.574219 L 10.890625 36.90625 Z M 13.425781 35.667969 " fill-opacity="1" fill-rule="nonzero"/><path fill="#24265d" d="M 13.425781 35.667969 L 13.714844 35.308594 L 11.144531 33.210938 C 11.003906 33.097656 10.8125 33.078125 10.652344 33.15625 C 10.488281 33.234375 10.386719 33.398438 10.386719 33.578125 L 10.425781 36.910156 C 10.425781 37.070312 10.511719 37.21875 10.644531 37.300781 C 10.78125 37.382812 10.949219 37.390625 11.09375 37.324219 L 13.628906 36.082031 C 13.769531 36.015625 13.867188 35.875 13.882812 35.71875 C 13.902344 35.5625 13.839844 35.40625 13.714844 35.308594 L 13.425781 35.667969 L 13.222656 35.25 L 11.34375 36.167969 L 11.324219 34.554688 L 13.132812 36.027344 L 13.425781 35.667969 L 13.222656 35.25 L 13.425781 35.667969 " fill-opacity="1" fill-rule="nonzero"/><path fill="#da303b" d="M 35.574219 75.222656 L 18.914062 40.136719 L 18.722656 41.664062 L 17.402344 40.878906 L 34.0625 75.960938 L 35.574219 75.222656 " fill-opacity="1" fill-rule="nonzero"/><path fill="#24265d" d="M 35.574219 75.222656 L 35.996094 75.023438 L 19.332031 39.9375 C 19.246094 39.753906 19.042969 39.648438 18.839844 39.679688 C 18.636719 39.710938 18.480469 39.875 18.453125 40.082031 L 18.351562 40.902344 L 17.636719 40.480469 C 17.460938 40.375 17.242188 40.398438 17.089844 40.535156 C 16.9375 40.671875 16.894531 40.890625 16.984375 41.078125 L 33.640625 76.164062 C 33.695312 76.273438 33.792969 76.359375 33.910156 76.398438 C 34.023438 76.441406 34.152344 76.433594 34.265625 76.378906 L 35.777344 75.640625 C 36.007812 75.527344 36.101562 75.253906 35.996094 75.023438 L 35.574219 75.222656 L 35.371094 74.804688 L 34.28125 75.339844 L 18.472656 42.054688 L 18.488281 42.0625 C 18.621094 42.144531 18.785156 42.148438 18.925781 42.082031 C 19.066406 42.011719 19.164062 41.878906 19.183594 41.722656 L 19.375 40.195312 L 18.914062 40.136719 L 18.496094 40.335938 L 35.15625 75.421875 L 35.574219 75.222656 L 35.371094 74.804688 L 35.574219 75.222656 " fill-opacity="1" fill-rule="nonzero"/><path fill="#da303b" d="M 29.144531 78.367188 L 12.484375 43.28125 L 12.292969 44.808594 L 10.96875 44.019531 L 27.632812 79.105469 L 29.144531 78.367188 " fill-opacity="1" fill-rule="nonzero"/><path fill="#24265d" d="M 29.144531 78.367188 L 29.566406 78.167969 L 12.902344 43.082031 C 12.816406 42.894531 12.613281 42.789062 12.410156 42.824219 C 12.207031 42.855469 12.050781 43.019531 12.023438 43.222656 L 11.921875 44.046875 L 11.207031 43.621094 C 11.03125 43.519531 10.808594 43.539062 10.660156 43.675781 C 10.507812 43.816406 10.464844 44.035156 10.550781 44.21875 L 27.214844 79.304688 C 27.265625 79.417969 27.363281 79.503906 27.476562 79.542969 C 27.59375 79.585938 27.722656 79.578125 27.835938 79.523438 L 29.347656 78.785156 C 29.578125 78.671875 29.671875 78.398438 29.566406 78.167969 L 29.144531 78.367188 L 28.941406 77.949219 L 27.847656 78.484375 L 12.042969 45.199219 L 12.054688 45.207031 C 12.191406 45.289062 12.359375 45.292969 12.496094 45.226562 C 12.636719 45.15625 12.734375 45.019531 12.753906 44.867188 L 12.945312 43.339844 L 12.484375 43.28125 L 12.066406 43.480469 L 28.726562 78.566406 L 29.144531 78.367188 L 28.941406 77.949219 L 29.144531 78.367188 " fill-opacity="1" fill-rule="nonzero"/><path fill="#db3f45" d="M 34.0625 75.960938 L 17.402344 40.878906 L 17.171875 42.421875 L 15.8125 41.65625 L 32.472656 76.738281 L 34.0625 75.960938 " fill-opacity="1" fill-rule="nonzero"/><path fill="#24265d" d="M 34.0625 75.960938 L 34.480469 75.765625 L 17.820312 40.675781 C 17.730469 40.492188 17.535156 40.386719 17.332031 40.417969 C 17.128906 40.449219 16.972656 40.605469 16.941406 40.808594 L 16.8125 41.6875 L 16.039062 41.25 C 15.867188 41.148438 15.644531 41.175781 15.496094 41.3125 C 15.351562 41.453125 15.308594 41.671875 15.394531 41.851562 L 32.054688 76.9375 C 32.109375 77.050781 32.203125 77.136719 32.320312 77.175781 C 32.4375 77.21875 32.566406 77.210938 32.675781 77.15625 L 34.265625 76.378906 C 34.496094 76.269531 34.589844 75.996094 34.480469 75.765625 L 34.0625 75.960938 L 33.859375 75.546875 L 32.691406 76.117188 L 16.859375 42.777344 L 16.945312 42.828125 C 17.078125 42.902344 17.238281 42.90625 17.375 42.839844 C 17.515625 42.773438 17.609375 42.644531 17.628906 42.492188 L 17.636719 42.453125 L 33.640625 76.164062 L 34.0625 75.960938 L 33.859375 75.546875 L 34.0625 75.960938 " fill-opacity="1" fill-rule="nonzero"/><path fill="#db3f45" d="M 30.734375 77.589844 L 14.074219 42.503906 L 13.84375 44.050781 L 12.484375 43.28125 L 29.144531 78.367188 L 30.734375 77.589844 " fill-opacity="1" fill-rule="nonzero"/><path fill="#24265d" d="M 30.734375 77.589844 L 31.152344 77.390625 L 14.492188 42.304688 C 14.40625 42.121094 14.207031 42.015625 14.003906 42.046875 C 13.800781 42.078125 13.644531 42.234375 13.613281 42.4375 L 13.484375 43.3125 L 12.710938 42.878906 C 12.535156 42.777344 12.316406 42.804688 12.167969 42.941406 C 12.019531 43.078125 11.980469 43.296875 12.066406 43.480469 L 28.726562 78.566406 C 28.78125 78.679688 28.875 78.765625 28.992188 78.804688 C 29.109375 78.84375 29.238281 78.835938 29.347656 78.785156 L 30.9375 78.003906 C 31.167969 77.894531 31.261719 77.621094 31.152344 77.390625 L 30.734375 77.589844 L 30.53125 77.171875 L 29.363281 77.742188 L 13.53125 44.40625 L 13.617188 44.453125 C 13.75 44.53125 13.910156 44.535156 14.046875 44.46875 C 14.1875 44.398438 14.28125 44.269531 14.304688 44.117188 L 14.308594 44.082031 L 30.316406 77.789062 L 30.734375 77.589844 L 30.53125 77.171875 L 30.734375 77.589844 " fill-opacity="1" fill-rule="nonzero"/><path fill="#dc5756" d="M 32.472656 76.738281 L 15.8125 41.65625 L 15.507812 43.238281 L 14.074219 42.503906 L 30.734375 77.589844 L 32.472656 76.738281 " fill-opacity="1" fill-rule="nonzero"/><path fill="#24265d" d="M 32.472656 76.738281 L 32.890625 76.539062 L 16.230469 41.453125 C 16.144531 41.273438 15.953125 41.167969 15.753906 41.195312 C 15.554688 41.21875 15.394531 41.367188 15.355469 41.566406 L 15.171875 42.542969 L 14.285156 42.089844 C 14.105469 42 13.894531 42.03125 13.75 42.171875 C 13.609375 42.308594 13.570312 42.523438 13.65625 42.703125 L 30.316406 77.789062 C 30.367188 77.898438 30.464844 77.988281 30.582031 78.027344 C 30.699219 78.066406 30.824219 78.0625 30.9375 78.003906 L 32.675781 77.15625 C 32.90625 77.042969 33.003906 76.769531 32.890625 76.539062 L 32.472656 76.738281 L 32.269531 76.320312 L 30.953125 76.964844 L 15.078125 43.535156 L 15.296875 43.648438 C 15.429688 43.714844 15.582031 43.714844 15.710938 43.652344 C 15.84375 43.589844 15.9375 43.46875 15.964844 43.324219 L 16 43.132812 L 32.054688 76.9375 L 32.472656 76.738281 L 32.269531 76.320312 L 32.472656 76.738281 " fill-opacity="1" fill-rule="nonzero"/><path fill="#d3d2d2" d="M 27.257812 79.289062 L 35.949219 75.039062 L 38.476562 80.210938 L 29.785156 84.460938 L 27.257812 79.289062 " fill-opacity="1" fill-rule="nonzero"/><path fill="#24265d" d="M 27.257812 79.289062 L 27.460938 79.707031 L 35.738281 75.660156 L 37.855469 79.996094 L 29.996094 83.839844 L 27.675781 79.085938 L 27.257812 79.289062 L 27.460938 79.707031 L 27.257812 79.289062 L 26.839844 79.492188 L 29.367188 84.660156 C 29.421875 84.773438 29.519531 84.859375 29.632812 84.898438 C 29.75 84.9375 29.878906 84.929688 29.988281 84.875 L 38.679688 80.625 C 38.789062 80.574219 38.875 80.476562 38.914062 80.359375 C 38.953125 80.246094 38.945312 80.117188 38.890625 80.003906 L 36.367188 74.835938 C 36.253906 74.605469 35.976562 74.511719 35.746094 74.625 L 27.054688 78.871094 C 26.824219 78.984375 26.730469 79.261719 26.839844 79.492188 L 27.257812 79.289062 " fill-opacity="1" fill-rule="nonzero"/><path fill="#24265d" d="M 36.753906 75.730469 L 27.414062 80.296875 C 27.1875 80.410156 27.089844 80.6875 27.203125 80.917969 C 27.316406 81.144531 27.59375 81.242188 27.824219 81.128906 L 37.164062 76.5625 C 37.394531 76.453125 37.488281 76.175781 37.375 75.945312 C 37.261719 75.714844 36.984375 75.617188 36.753906 75.730469 " fill-opacity="1" fill-rule="nonzero"/><path fill="#24265d" d="M 37.386719 77.023438 L 28.046875 81.589844 C 27.816406 81.703125 27.722656 81.976562 27.835938 82.207031 C 27.949219 82.4375 28.222656 82.535156 28.453125 82.421875 L 37.792969 77.855469 C 38.023438 77.742188 38.117188 77.464844 38.007812 77.234375 C 37.894531 77.007812 37.617188 76.910156 37.386719 77.023438 " fill-opacity="1" fill-rule="nonzero"/><path fill="#24265d" d="M 38.019531 78.316406 L 28.679688 82.878906 C 28.449219 82.992188 28.351562 83.269531 28.464844 83.5 C 28.578125 83.730469 28.855469 83.828125 29.085938 83.714844 L 38.425781 79.148438 C 38.65625 79.035156 38.75 78.757812 38.640625 78.527344 C 38.527344 78.296875 38.246094 78.203125 38.019531 78.316406 " fill-opacity="1" fill-rule="nonzero"/><path fill="#dd6972" d="M 30.160156 84.273438 L 31.90625 87.851562 C 32.753906 89.585938 34.847656 90.304688 36.578125 89.457031 L 38.179688 88.675781 C 39.914062 87.828125 40.632812 85.734375 39.785156 84.003906 L 38.035156 80.425781 L 30.160156 84.273438 " fill-opacity="1" fill-rule="nonzero"/><path fill="#24265d" d="M 30.160156 84.273438 L 29.742188 84.480469 L 31.492188 88.054688 C 32.175781 89.460938 33.585938 90.277344 35.046875 90.277344 C 35.628906 90.277344 36.226562 90.148438 36.78125 89.875 L 38.382812 89.09375 C 39.785156 88.40625 40.605469 86.996094 40.605469 85.535156 C 40.605469 84.949219 40.472656 84.355469 40.199219 83.796875 L 38.449219 80.222656 C 38.339844 79.992188 38.0625 79.894531 37.832031 80.007812 L 29.953125 83.859375 C 29.722656 83.96875 29.628906 84.25 29.742188 84.480469 L 30.160156 84.273438 L 30.363281 84.691406 L 37.820312 81.042969 L 39.367188 84.207031 C 39.578125 84.636719 39.675781 85.089844 39.675781 85.535156 C 39.675781 86.65625 39.050781 87.734375 37.976562 88.257812 L 36.375 89.039062 C 35.945312 89.25 35.496094 89.347656 35.046875 89.347656 C 33.925781 89.347656 32.847656 88.726562 32.324219 87.648438 L 30.574219 84.070312 L 30.160156 84.273438 L 30.363281 84.691406 L 30.160156 84.273438 " fill-opacity="1" fill-rule="nonzero"/><path fill="#24265d" d="M 37.648438 88.15625 C 38.707031 87.636719 39.324219 86.578125 39.320312 85.472656 C 39.320312 85.03125 39.222656 84.585938 39.019531 84.167969 C 38.90625 83.9375 38.628906 83.839844 38.398438 83.953125 C 38.167969 84.066406 38.070312 84.34375 38.183594 84.574219 C 38.328125 84.863281 38.394531 85.171875 38.394531 85.472656 C 38.394531 86.234375 37.972656 86.964844 37.242188 87.320312 C 37.011719 87.433594 36.914062 87.710938 37.027344 87.941406 C 37.140625 88.171875 37.417969 88.265625 37.648438 88.15625 " fill-opacity="1" fill-rule="nonzero"/><path fill="#24265d" d="M 31.664062 85.628906 L 32.507812 87.347656 C 33.023438 88.40625 34.085938 89.023438 35.1875 89.023438 C 35.625 89.023438 36.074219 88.925781 36.496094 88.71875 C 36.726562 88.605469 36.820312 88.328125 36.707031 88.097656 C 36.59375 87.867188 36.316406 87.773438 36.089844 87.886719 C 35.796875 88.027344 35.488281 88.09375 35.1875 88.09375 C 34.425781 88.09375 33.695312 87.671875 33.339844 86.941406 L 32.5 85.222656 C 32.386719 84.992188 32.109375 84.898438 31.878906 85.007812 C 31.648438 85.121094 31.554688 85.402344 31.664062 85.628906 " fill-opacity="1" fill-rule="nonzero"/><path fill="#db8f6f" d="M 74.128906 77.859375 L 73.679688 76.160156 L 71.9375 76.378906 L 71.460938 74.664062 L 69.746094 74.902344 L 68.257812 84.109375 L 76.324219 79.332031 L 75.898438 77.65625 L 74.128906 77.859375 " fill-opacity="1" fill-rule="nonzero"/><path fill="#24265d" d="M 74.128906 77.859375 L 74.578125 77.738281 L 74.128906 76.039062 C 74.066406 75.816406 73.851562 75.671875 73.621094 75.699219 L 72.277344 75.871094 L 71.90625 74.539062 C 71.84375 74.316406 71.625 74.175781 71.394531 74.207031 L 69.683594 74.445312 C 69.480469 74.472656 69.320312 74.628906 69.289062 74.828125 L 67.800781 84.039062 C 67.773438 84.214844 67.847656 84.390625 67.996094 84.492188 C 68.148438 84.59375 68.339844 84.601562 68.496094 84.507812 L 76.558594 79.734375 C 76.734375 79.628906 76.824219 79.421875 76.773438 79.21875 L 76.347656 77.542969 C 76.289062 77.316406 76.078125 77.167969 75.847656 77.195312 L 74.078125 77.398438 L 74.128906 77.859375 L 74.578125 77.738281 L 74.128906 77.859375 L 74.183594 78.316406 L 75.546875 78.164062 L 75.789062 79.113281 L 68.875 83.207031 L 70.148438 75.316406 L 71.121094 75.179688 L 71.488281 76.503906 C 71.550781 76.726562 71.769531 76.871094 71.996094 76.839844 L 73.335938 76.671875 L 73.679688 77.976562 C 73.742188 78.199219 73.953125 78.34375 74.183594 78.316406 L 74.128906 77.859375 " fill-opacity="1" fill-rule="nonzero"/><path fill="#24265d" d="M 68.734375 81.171875 L 68.257812 84.109375 L 70.832031 82.585938 Z M 68.734375 81.171875 " fill-opacity="1" fill-rule="nonzero"/><path fill="#24265d" d="M 68.734375 81.171875 L 68.273438 81.097656 L 67.800781 84.039062 C 67.773438 84.214844 67.847656 84.390625 67.996094 84.492188 C 68.148438 84.59375 68.339844 84.601562 68.496094 84.507812 L 71.070312 82.984375 C 71.207031 82.902344 71.289062 82.757812 71.296875 82.601562 C 71.300781 82.441406 71.222656 82.292969 71.089844 82.203125 L 68.992188 80.789062 C 68.859375 80.699219 68.695312 80.683594 68.546875 80.746094 C 68.402344 80.808594 68.300781 80.941406 68.273438 81.097656 L 68.734375 81.171875 L 68.476562 81.558594 L 69.964844 82.5625 L 68.875 83.207031 L 69.191406 81.246094 L 68.734375 81.171875 L 68.476562 81.558594 L 68.734375 81.171875 " fill-opacity="1" fill-rule="nonzero"/><path fill="#f48e3a" d="M 87.28125 48.9375 L 69.746094 74.902344 L 71.460938 74.664062 L 71.9375 76.378906 L 89.472656 50.414062 L 87.28125 48.9375 " fill-opacity="1" fill-rule="nonzero"/><path fill="#24265d" d="M 87.28125 48.9375 L 86.894531 48.675781 L 69.363281 74.644531 C 69.257812 74.796875 69.253906 74.992188 69.351562 75.148438 C 69.449219 75.304688 69.628906 75.386719 69.808594 75.363281 L 71.121094 75.179688 L 71.488281 76.503906 C 71.539062 76.679688 71.6875 76.808594 71.863281 76.835938 C 72.039062 76.867188 72.21875 76.789062 72.320312 76.640625 L 89.855469 50.675781 C 89.925781 50.570312 89.949219 50.449219 89.929688 50.328125 C 89.902344 50.203125 89.832031 50.097656 89.730469 50.03125 L 87.539062 48.550781 C 87.328125 48.410156 87.039062 48.464844 86.894531 48.675781 L 87.28125 48.9375 L 87.019531 49.320312 L 88.828125 50.539062 L 72.113281 75.289062 L 71.90625 74.539062 C 71.84375 74.316406 71.625 74.175781 71.394531 74.207031 L 70.710938 74.300781 L 87.664062 49.199219 L 87.28125 48.9375 L 87.019531 49.320312 L 87.28125 48.9375 " fill-opacity="1" fill-rule="nonzero"/><path fill="#f6ab4a" d="M 89.472656 50.414062 L 71.9375 76.378906 L 73.707031 76.179688 L 74.128906 77.859375 L 91.664062 51.890625 L 89.472656 50.414062 " fill-opacity="1" fill-rule="nonzero"/><path fill="#24265d" d="M 89.472656 50.414062 L 89.085938 50.15625 L 71.554688 76.121094 C 71.453125 76.269531 71.449219 76.464844 71.539062 76.621094 C 71.636719 76.777344 71.808594 76.859375 71.988281 76.839844 L 73.355469 76.6875 L 73.679688 77.972656 C 73.726562 78.148438 73.871094 78.28125 74.050781 78.316406 C 74.230469 78.34375 74.410156 78.269531 74.515625 78.117188 L 92.050781 52.152344 C 92.117188 52.046875 92.144531 51.925781 92.121094 51.804688 C 92.09375 51.679688 92.027344 51.574219 91.921875 51.507812 L 89.730469 50.03125 C 89.519531 49.886719 89.230469 49.941406 89.085938 50.15625 L 89.472656 50.414062 L 89.214844 50.796875 L 91.019531 52.015625 L 74.324219 76.738281 L 74.15625 76.066406 C 74.097656 75.839844 73.882812 75.691406 73.652344 75.71875 L 72.886719 75.804688 L 89.855469 50.675781 L 89.472656 50.414062 L 89.214844 50.796875 L 89.472656 50.414062 " fill-opacity="1" fill-rule="nonzero"/><path fill="#f48e3a" d="M 91.664062 51.890625 L 74.128906 77.859375 L 75.898438 77.65625 L 76.324219 79.332031 L 93.855469 53.367188 L 91.664062 51.890625 " fill-opacity="1" fill-rule="nonzero"/><path fill="#24265d" d="M 91.664062 51.890625 L 91.28125 51.632812 L 73.746094 77.597656 C 73.644531 77.746094 73.640625 77.945312 73.734375 78.097656 C 73.828125 78.253906 74.003906 78.339844 74.183594 78.316406 L 75.546875 78.164062 L 75.871094 79.449219 C 75.917969 79.625 76.0625 79.757812 76.242188 79.792969 C 76.421875 79.824219 76.605469 79.746094 76.707031 79.59375 L 94.242188 53.628906 C 94.308594 53.523438 94.335938 53.402344 94.3125 53.28125 C 94.289062 53.15625 94.21875 53.050781 94.117188 52.984375 L 91.921875 51.507812 C 91.710938 51.363281 91.421875 51.417969 91.28125 51.632812 L 91.664062 51.890625 L 91.40625 52.277344 L 93.210938 53.492188 L 76.519531 78.214844 L 76.347656 77.542969 C 76.289062 77.316406 76.078125 77.167969 75.847656 77.195312 L 75.078125 77.28125 L 92.050781 52.152344 L 91.664062 51.890625 L 91.40625 52.277344 L 91.664062 51.890625 " fill-opacity="1" fill-rule="nonzero"/><path fill="#d3d2d2" d="M 94.167969 53.578125 L 86.96875 48.726562 L 89.851562 44.449219 L 97.046875 49.296875 L 94.167969 53.578125 " fill-opacity="1" fill-rule="nonzero"/><path fill="#24265d" d="M 94.167969 53.578125 L 94.425781 53.191406 L 87.613281 48.601562 L 89.980469 45.09375 L 96.40625 49.421875 L 93.78125 53.316406 L 94.167969 53.578125 L 94.425781 53.191406 L 94.167969 53.578125 L 94.550781 53.835938 L 97.433594 49.558594 C 97.578125 49.34375 97.519531 49.054688 97.308594 48.910156 L 90.113281 44.066406 C 90.011719 43.996094 89.882812 43.96875 89.765625 43.992188 C 89.644531 44.015625 89.535156 44.089844 89.46875 44.191406 L 86.585938 48.46875 C 86.441406 48.679688 86.496094 48.96875 86.710938 49.113281 L 93.90625 53.960938 C 94.011719 54.03125 94.132812 54.054688 94.253906 54.03125 C 94.375 54.007812 94.480469 53.9375 94.550781 53.835938 L 94.167969 53.578125 " fill-opacity="1" fill-rule="nonzero"/><path fill="#24265d" d="M 87.117188 47.832031 L 94.851562 53.042969 C 95.0625 53.1875 95.351562 53.128906 95.496094 52.917969 C 95.636719 52.703125 95.582031 52.417969 95.367188 52.273438 L 87.636719 47.0625 C 87.425781 46.921875 87.136719 46.976562 86.992188 47.1875 C 86.851562 47.402344 86.90625 47.691406 87.117188 47.832031 " fill-opacity="1" fill-rule="nonzero"/><path fill="#24265d" d="M 87.839844 46.761719 L 95.570312 51.972656 C 95.785156 52.117188 96.070312 52.058594 96.214844 51.847656 C 96.359375 51.636719 96.300781 51.347656 96.089844 51.203125 L 88.355469 45.992188 C 88.144531 45.851562 87.855469 45.90625 87.714844 46.121094 C 87.570312 46.332031 87.625 46.621094 87.839844 46.761719 " fill-opacity="1" fill-rule="nonzero"/><path fill="#24265d" d="M 88.558594 45.691406 L 96.292969 50.902344 C 96.503906 51.046875 96.792969 50.988281 96.933594 50.777344 C 97.078125 50.5625 97.023438 50.277344 96.8125 50.132812 L 89.078125 44.925781 C 88.867188 44.78125 88.578125 44.835938 88.433594 45.046875 C 88.292969 45.261719 88.347656 45.550781 88.558594 45.691406 " fill-opacity="1" fill-rule="nonzero"/><path fill="#dd6972" d="M 96.738281 49.089844 L 98.734375 46.125 C 99.703125 44.691406 99.320312 42.742188 97.886719 41.777344 L 96.5625 40.886719 C 95.128906 39.917969 93.179688 40.296875 92.214844 41.734375 L 90.21875 44.695312 L 96.738281 49.089844 " fill-opacity="1" fill-rule="nonzero"/><path fill="#24265d" d="M 96.738281 49.089844 L 97.125 49.347656 L 99.121094 46.382812 C 99.535156 45.769531 99.734375 45.070312 99.734375 44.378906 C 99.734375 43.222656 99.175781 42.085938 98.144531 41.390625 L 96.820312 40.5 C 96.207031 40.085938 95.503906 39.886719 94.8125 39.886719 C 93.660156 39.886719 92.523438 40.441406 91.828125 41.472656 L 89.832031 44.433594 C 89.765625 44.535156 89.738281 44.664062 89.761719 44.785156 C 89.785156 44.902344 89.855469 45.011719 89.957031 45.078125 L 96.480469 49.472656 C 96.582031 49.539062 96.707031 49.566406 96.828125 49.542969 C 96.945312 49.519531 97.054688 49.449219 97.125 49.347656 L 96.738281 49.089844 L 96.996094 48.703125 L 90.859375 44.570312 L 92.597656 41.992188 C 93.113281 41.226562 93.953125 40.8125 94.8125 40.8125 C 95.328125 40.8125 95.84375 40.960938 96.300781 41.269531 L 97.628906 42.160156 C 98.394531 42.675781 98.804688 43.519531 98.804688 44.378906 C 98.804688 44.890625 98.660156 45.40625 98.351562 45.867188 L 96.355469 48.828125 L 96.738281 49.089844 L 96.996094 48.703125 L 96.738281 49.089844 " fill-opacity="1" fill-rule="nonzero"/><path fill="#24265d" d="M 96.421875 41.492188 C 95.957031 41.175781 95.425781 41.027344 94.902344 41.027344 C 94.027344 41.027344 93.167969 41.445312 92.644531 42.226562 C 92.5 42.441406 92.554688 42.726562 92.769531 42.871094 C 92.980469 43.015625 93.269531 42.957031 93.414062 42.746094 C 93.757812 42.230469 94.324219 41.953125 94.902344 41.953125 C 95.25 41.953125 95.59375 42.050781 95.902344 42.261719 C 96.117188 42.402344 96.402344 42.347656 96.546875 42.132812 C 96.691406 41.921875 96.632812 41.632812 96.421875 41.492188 " fill-opacity="1" fill-rule="nonzero"/><path fill="#24265d" d="M 97.15625 47.335938 L 98.113281 45.914062 C 98.429688 45.449219 98.578125 44.917969 98.578125 44.394531 C 98.582031 43.519531 98.15625 42.660156 97.378906 42.132812 C 97.164062 41.992188 96.875 42.046875 96.734375 42.261719 C 96.589844 42.472656 96.648438 42.761719 96.859375 42.902344 C 97.375 43.25 97.652344 43.816406 97.652344 44.394531 C 97.652344 44.738281 97.554688 45.085938 97.34375 45.394531 L 96.386719 46.816406 C 96.246094 47.03125 96.300781 47.320312 96.511719 47.460938 C 96.726562 47.605469 97.011719 47.546875 97.15625 47.335938 " fill-opacity="1" fill-rule="nonzero"/><path fill="#444142" d="M 67.554688 75.027344 C 66.960938 74.859375 66.449219 74.683594 66.011719 74.507812 L 65.835938 75.128906 C 65.796875 75.261719 65.820312 75.773438 67.230469 76.171875 C 68.636719 76.570312 68.929688 76.148438 68.964844 76.015625 L 69.140625 75.394531 C 68.671875 75.316406 68.148438 75.195312 67.554688 75.027344 " fill-opacity="1" fill-rule="nonzero"/><path fill="#24265d" d="M 67.554688 75.027344 L 67.683594 74.582031 C 67.101562 74.417969 66.605469 74.25 66.183594 74.078125 C 66.0625 74.027344 65.925781 74.035156 65.808594 74.089844 C 65.691406 74.148438 65.601562 74.253906 65.566406 74.382812 L 65.386719 75 C 65.371094 75.0625 65.363281 75.125 65.363281 75.195312 C 65.359375 75.433594 65.484375 75.730469 65.757812 75.972656 C 66.035156 76.214844 66.449219 76.429688 67.105469 76.617188 C 67.566406 76.746094 67.929688 76.804688 68.234375 76.804688 C 68.578125 76.804688 68.84375 76.730469 69.046875 76.601562 C 69.148438 76.539062 69.230469 76.464844 69.289062 76.382812 C 69.347656 76.304688 69.386719 76.222656 69.414062 76.140625 L 69.585938 75.523438 C 69.621094 75.394531 69.605469 75.257812 69.535156 75.148438 C 69.464844 75.035156 69.347656 74.960938 69.21875 74.9375 C 68.769531 74.859375 68.257812 74.746094 67.679688 74.582031 L 67.429688 75.472656 C 68.035156 75.644531 68.578125 75.769531 69.0625 75.851562 L 69.140625 75.394531 L 68.695312 75.269531 L 68.519531 75.886719 L 68.699219 75.9375 L 68.546875 75.824219 C 68.542969 75.835938 68.53125 75.851562 68.519531 75.886719 L 68.699219 75.9375 L 68.546875 75.824219 L 68.609375 75.871094 L 68.554688 75.816406 L 68.546875 75.824219 L 68.609375 75.871094 L 68.554688 75.816406 L 68.566406 75.828125 L 68.554688 75.816406 L 68.566406 75.828125 L 68.554688 75.816406 C 68.554688 75.816406 68.484375 75.875 68.234375 75.875 C 68.042969 75.875 67.757812 75.839844 67.359375 75.726562 C 66.785156 75.5625 66.496094 75.386719 66.375 75.28125 C 66.316406 75.226562 66.296875 75.191406 66.289062 75.179688 L 66.285156 75.171875 L 66.222656 75.195312 L 66.289062 75.195312 L 66.285156 75.171875 L 66.222656 75.195312 L 66.289062 75.195312 L 66.078125 75.195312 L 66.28125 75.253906 L 66.289062 75.195312 L 66.078125 75.195312 L 66.28125 75.253906 L 66.457031 74.632812 L 66.011719 74.507812 L 65.835938 74.9375 C 66.296875 75.121094 66.820312 75.300781 67.429688 75.472656 L 67.554688 75.027344 " fill-opacity="1" fill-rule="nonzero"/><path fill="#b9b7b8" d="M 69.136719 70.113281 C 66.566406 69.386719 65.152344 68.621094 64.460938 67.984375 L 63.355469 71.882812 C 63.242188 72.285156 63.316406 73.828125 67.554688 75.027344 C 71.792969 76.230469 72.664062 74.957031 72.777344 74.554688 L 73.863281 70.730469 C 73.011719 70.890625 71.550781 70.800781 69.136719 70.113281 " fill-opacity="1" fill-rule="nonzero"/><path fill="#24265d" d="M 69.136719 70.113281 L 69.261719 69.667969 C 66.734375 68.957031 65.371094 68.199219 64.773438 67.644531 C 64.65625 67.535156 64.488281 67.496094 64.332031 67.539062 C 64.179688 67.582031 64.058594 67.703125 64.011719 67.859375 L 62.910156 71.757812 C 62.882812 71.851562 62.867188 71.960938 62.867188 72.089844 C 62.859375 72.527344 63.074219 73.136719 63.746094 73.730469 C 64.421875 74.328125 65.539062 74.9375 67.429688 75.472656 C 68.757812 75.847656 69.777344 75.996094 70.578125 75.996094 C 71.480469 75.996094 72.101562 75.808594 72.527344 75.539062 C 72.738281 75.40625 72.894531 75.253906 73.007812 75.105469 C 73.121094 74.957031 73.1875 74.8125 73.226562 74.679688 L 74.308594 70.855469 C 74.355469 70.703125 74.3125 70.535156 74.207031 70.417969 C 74.097656 70.300781 73.933594 70.242188 73.777344 70.273438 C 73.582031 70.3125 73.335938 70.335938 73.035156 70.335938 C 72.21875 70.335938 71 70.160156 69.261719 69.667969 L 69.011719 70.5625 C 70.800781 71.070312 72.089844 71.261719 73.035156 71.261719 C 73.382812 71.261719 73.683594 71.234375 73.949219 71.1875 L 73.863281 70.730469 L 73.417969 70.601562 L 72.332031 74.429688 C 72.332031 74.4375 72.3125 74.488281 72.265625 74.546875 C 72.199219 74.636719 72.070312 74.757812 71.8125 74.867188 C 71.550781 74.976562 71.160156 75.066406 70.578125 75.066406 C 69.894531 75.066406 68.949219 74.941406 67.683594 74.582031 C 65.875 74.070312 64.882812 73.5 64.367188 73.039062 C 63.847656 72.574219 63.796875 72.242188 63.792969 72.089844 C 63.792969 72.046875 63.796875 72.015625 63.800781 72.007812 L 64.90625 68.113281 L 64.460938 67.984375 L 64.144531 68.328125 C 64.933594 69.046875 66.402344 69.820312 69.011719 70.5625 L 69.136719 70.113281 " fill-opacity="1" fill-rule="nonzero"/><path fill="#f0efef" d="M 75.246094 68.878906 C 75.0625 69.519531 73.808594 70.207031 69.460938 68.972656 C 65.113281 67.738281 64.066406 66.402344 64.246094 65.761719 C 64.347656 65.40625 65.3125 64.710938 70.101562 66.066406 C 74.890625 67.425781 75.34375 68.523438 75.246094 68.878906 " fill-opacity="1" fill-rule="nonzero"/><path fill="#24265d" d="M 75.246094 68.878906 L 74.796875 68.753906 C 74.78125 68.804688 74.746094 68.890625 74.539062 68.996094 C 74.332031 69.097656 73.957031 69.195312 73.355469 69.195312 C 72.539062 69.195312 71.320312 69.019531 69.585938 68.527344 C 67.59375 67.964844 66.324219 67.378906 65.585938 66.878906 C 65.214844 66.632812 64.976562 66.40625 64.84375 66.230469 C 64.710938 66.054688 64.691406 65.941406 64.691406 65.90625 L 64.691406 65.886719 L 64.554688 65.851562 L 64.679688 65.921875 L 64.691406 65.886719 L 64.554688 65.851562 L 64.679688 65.921875 L 64.628906 65.890625 L 64.675781 65.929688 L 64.679688 65.921875 L 64.628906 65.890625 L 64.675781 65.929688 L 64.675781 65.925781 C 64.679688 65.921875 64.738281 65.867188 64.898438 65.820312 C 65.0625 65.769531 65.324219 65.726562 65.707031 65.726562 C 66.515625 65.726562 67.859375 65.914062 69.972656 66.515625 C 72.167969 67.132812 73.421875 67.699219 74.09375 68.132812 C 74.429688 68.34375 74.617188 68.527344 74.707031 68.644531 C 74.753906 68.703125 74.773438 68.75 74.785156 68.773438 L 74.792969 68.792969 L 74.792969 68.796875 L 74.84375 68.789062 L 74.792969 68.789062 L 74.792969 68.796875 L 74.84375 68.789062 L 74.792969 68.789062 L 74.925781 68.789062 L 74.796875 68.753906 L 74.792969 68.789062 L 74.925781 68.789062 L 74.796875 68.753906 L 75.246094 68.878906 L 75.691406 69.003906 C 75.710938 68.9375 75.71875 68.863281 75.71875 68.789062 C 75.71875 68.554688 75.621094 68.3125 75.441406 68.078125 C 75.167969 67.726562 74.703125 67.367188 73.890625 66.957031 C 73.078125 66.546875 71.910156 66.097656 70.226562 65.621094 C 68.0625 65.007812 66.652344 64.800781 65.707031 64.800781 C 65.125 64.800781 64.710938 64.878906 64.402344 65.015625 C 64.09375 65.152344 63.875 65.367188 63.800781 65.636719 L 63.800781 65.632812 C 63.777344 65.722656 63.765625 65.8125 63.765625 65.90625 C 63.765625 66.214844 63.890625 66.507812 64.105469 66.792969 C 64.433594 67.21875 64.972656 67.644531 65.8125 68.089844 C 66.652344 68.53125 67.792969 68.984375 69.335938 69.417969 C 71.125 69.925781 72.414062 70.121094 73.355469 70.121094 C 74.050781 70.121094 74.5625 70.019531 74.949219 69.828125 C 75.335938 69.640625 75.601562 69.335938 75.691406 69.007812 L 75.691406 69.003906 L 75.246094 68.878906 " fill-opacity="1" fill-rule="nonzero"/><path fill="#24265d" d="M 73.789062 71.132812 C 73.480469 71.222656 73.023438 71.285156 72.402344 71.285156 C 71.578125 71.285156 70.460938 71.175781 68.984375 70.894531 C 66.257812 70.378906 64.730469 69.726562 64.011719 69.203125 C 63.804688 69.054688 63.515625 69.101562 63.367188 69.308594 C 63.214844 69.515625 63.261719 69.804688 63.46875 69.957031 C 64.378906 70.609375 66.007812 71.269531 68.8125 71.804688 C 70.328125 72.09375 71.496094 72.210938 72.402344 72.210938 C 73.085938 72.210938 73.621094 72.144531 74.042969 72.023438 C 74.289062 71.953125 74.433594 71.699219 74.363281 71.449219 C 74.292969 71.203125 74.035156 71.0625 73.789062 71.132812 " fill-opacity="1" fill-rule="nonzero"/><path fill="#24265d" d="M 73.40625 72.460938 C 73.097656 72.546875 72.640625 72.613281 72.015625 72.609375 C 71.191406 72.609375 70.074219 72.5 68.597656 72.222656 C 65.875 71.707031 64.34375 71.050781 63.628906 70.53125 C 63.421875 70.382812 63.132812 70.429688 62.980469 70.636719 C 62.832031 70.84375 62.878906 71.132812 63.085938 71.28125 C 63.996094 71.9375 65.621094 72.597656 68.425781 73.132812 C 69.945312 73.421875 71.113281 73.539062 72.015625 73.539062 C 72.703125 73.539062 73.234375 73.472656 73.660156 73.351562 C 73.90625 73.28125 74.046875 73.023438 73.976562 72.777344 C 73.90625 72.53125 73.652344 72.390625 73.40625 72.460938 " fill-opacity="1" fill-rule="nonzero"/><path fill="#24265d" d="M 73.019531 73.785156 C 72.710938 73.875 72.257812 73.9375 71.632812 73.9375 C 70.808594 73.9375 69.691406 73.828125 68.214844 73.546875 C 65.488281 73.03125 63.957031 72.378906 63.242188 71.859375 C 63.035156 71.710938 62.746094 71.753906 62.597656 71.960938 C 62.445312 72.171875 62.492188 72.460938 62.699219 72.609375 C 63.609375 73.261719 65.238281 73.921875 68.039062 74.460938 C 69.558594 74.746094 70.726562 74.867188 71.632812 74.867188 C 72.316406 74.867188 72.851562 74.796875 73.273438 74.675781 C 73.519531 74.609375 73.664062 74.351562 73.59375 74.105469 C 73.523438 73.859375 73.265625 73.714844 73.019531 73.785156 " fill-opacity="1" fill-rule="nonzero"/><path fill="#f0efef" d="M 69.460938 68.972656 C 65.113281 67.738281 64.066406 66.402344 64.246094 65.761719 L 63.921875 66.902344 C 63.742188 67.542969 64.789062 68.882812 69.136719 70.113281 C 73.484375 71.347656 74.738281 70.660156 74.921875 70.023438 L 75.246094 68.878906 C 75.0625 69.519531 73.808594 70.207031 69.460938 68.972656 " fill-opacity="1" fill-rule="nonzero"/><path fill="#24265d" d="M 69.460938 68.972656 L 69.585938 68.527344 C 67.59375 67.964844 66.324219 67.378906 65.585938 66.878906 C 65.214844 66.632812 64.976562 66.40625 64.84375 66.230469 C 64.710938 66.054688 64.6875 65.941406 64.691406 65.90625 L 64.691406 65.890625 C 64.726562 65.769531 64.710938 65.644531 64.652344 65.535156 C 64.589844 65.429688 64.492188 65.351562 64.375 65.316406 C 64.253906 65.28125 64.128906 65.296875 64.019531 65.355469 C 63.914062 65.417969 63.832031 65.515625 63.800781 65.636719 L 63.476562 66.777344 C 63.453125 66.863281 63.4375 66.957031 63.4375 67.046875 C 63.441406 67.355469 63.566406 67.648438 63.78125 67.933594 C 64.109375 68.359375 64.648438 68.789062 65.488281 69.230469 C 66.328125 69.671875 67.46875 70.125 69.011719 70.5625 C 70.800781 71.070312 72.089844 71.261719 73.035156 71.261719 C 73.726562 71.261719 74.238281 71.160156 74.625 70.96875 C 75.011719 70.78125 75.273438 70.476562 75.367188 70.148438 L 75.691406 69.007812 C 75.757812 68.761719 75.617188 68.503906 75.371094 68.433594 C 75.125 68.363281 74.867188 68.507812 74.796875 68.753906 C 74.78125 68.804688 74.746094 68.890625 74.539062 68.996094 C 74.332031 69.097656 73.957031 69.195312 73.355469 69.195312 C 72.539062 69.195312 71.320312 69.019531 69.585938 68.527344 L 69.335938 69.417969 C 71.125 69.925781 72.414062 70.121094 73.355469 70.121094 C 74.050781 70.121094 74.5625 70.019531 74.949219 69.828125 C 75.335938 69.640625 75.601562 69.335938 75.691406 69.007812 C 75.757812 68.761719 75.617188 68.503906 75.371094 68.433594 C 75.125 68.363281 74.867188 68.507812 74.796875 68.753906 L 74.472656 69.894531 C 74.457031 69.945312 74.421875 70.03125 74.214844 70.136719 C 74.011719 70.242188 73.632812 70.335938 73.035156 70.335938 C 72.21875 70.335938 71 70.160156 69.261719 69.667969 C 67.273438 69.105469 66.003906 68.519531 65.261719 68.023438 C 64.890625 67.773438 64.652344 67.546875 64.523438 67.375 C 64.386719 67.199219 64.367188 67.082031 64.367188 67.046875 L 64.371094 67.03125 L 64.691406 65.886719 C 64.761719 65.640625 64.621094 65.386719 64.375 65.316406 C 64.128906 65.246094 63.871094 65.386719 63.800781 65.632812 C 63.777344 65.722656 63.765625 65.8125 63.765625 65.90625 C 63.765625 66.214844 63.890625 66.507812 64.105469 66.792969 C 64.433594 67.21875 64.972656 67.644531 65.8125 68.089844 C 66.652344 68.53125 67.792969 68.984375 69.335938 69.417969 L 69.460938 68.972656 " fill-opacity="1" fill-rule="nonzero"/><path fill="#f6ab4a" d="M 63.761719 57.179688 C 66.914062 62.445312 63.742188 64.351562 65.335938 66.023438 C 65.335938 66.023438 66.105469 67.117188 69.527344 68.089844 C 72.949219 69.058594 74.207031 68.539062 74.207031 68.539062 C 76.738281 67.714844 75.449219 64.300781 80.164062 61.828125 C 83.203125 60.296875 85.617188 57.542969 86.617188 54.011719 C 88.515625 47.3125 84.628906 40.34375 77.929688 38.445312 C 71.234375 36.546875 64.265625 40.4375 62.367188 47.132812 C 61.367188 50.667969 61.976562 54.277344 63.761719 57.179688 " fill-opacity="1" fill-rule="nonzero"/><path fill="#24265d" d="M 63.761719 57.179688 L 63.363281 57.414062 C 64.488281 59.296875 64.757812 60.679688 64.761719 61.78125 C 64.761719 62.390625 64.675781 62.914062 64.585938 63.402344 C 64.496094 63.890625 64.394531 64.34375 64.394531 64.808594 C 64.394531 65.070312 64.425781 65.335938 64.527344 65.601562 C 64.625 65.863281 64.78125 66.117188 65 66.34375 L 65.335938 66.023438 L 64.957031 66.289062 C 65.035156 66.402344 65.910156 67.546875 69.402344 68.535156 C 71.085938 69.011719 72.277344 69.144531 73.074219 69.144531 C 73.925781 69.144531 74.324219 68.992188 74.382812 68.96875 L 74.207031 68.539062 L 74.351562 68.980469 C 74.71875 68.863281 75.03125 68.6875 75.292969 68.476562 C 75.75 68.097656 76.035156 67.621094 76.28125 67.121094 C 76.644531 66.363281 76.933594 65.535156 77.5 64.703125 C 78.0625 63.871094 78.890625 63.019531 80.378906 62.238281 L 80.164062 61.828125 L 80.371094 62.242188 C 83.523438 60.65625 86.027344 57.800781 87.066406 54.136719 C 87.402344 52.945312 87.5625 51.746094 87.5625 50.566406 C 87.5625 44.867188 83.808594 39.632812 78.058594 38 C 76.867188 37.660156 75.667969 37.5 74.488281 37.5 C 68.789062 37.5 63.554688 41.257812 61.921875 47.007812 C 61.585938 48.199219 61.421875 49.398438 61.421875 50.578125 C 61.421875 53.027344 62.117188 55.390625 63.367188 57.421875 L 63.761719 57.179688 L 63.363281 57.414062 L 63.761719 57.179688 L 64.15625 56.933594 C 62.996094 55.050781 62.351562 52.851562 62.351562 50.578125 C 62.351562 49.480469 62.5 48.367188 62.816406 47.261719 C 64.328125 41.917969 69.195312 38.429688 74.488281 38.429688 C 75.582031 38.429688 76.695312 38.578125 77.804688 38.890625 C 83.148438 40.40625 86.636719 45.273438 86.636719 50.566406 C 86.636719 51.660156 86.488281 52.777344 86.171875 53.882812 C 85.207031 57.289062 82.882812 59.9375 79.953125 61.414062 L 79.945312 61.417969 C 78.722656 62.058594 77.867188 62.777344 77.246094 63.503906 C 76.316406 64.59375 75.921875 65.6875 75.539062 66.511719 C 75.351562 66.925781 75.164062 67.265625 74.941406 67.523438 C 74.71875 67.78125 74.460938 67.96875 74.0625 68.097656 L 74.03125 68.109375 L 74.144531 68.390625 L 74.039062 68.109375 L 74.03125 68.109375 L 74.144531 68.390625 L 74.039062 68.109375 C 74.015625 68.113281 73.726562 68.214844 73.074219 68.214844 C 72.378906 68.214844 71.273438 68.101562 69.652344 67.644531 C 67.976562 67.167969 66.972656 66.667969 66.398438 66.300781 C 66.109375 66.117188 65.929688 65.96875 65.828125 65.871094 C 65.773438 65.824219 65.742188 65.789062 65.726562 65.769531 L 65.710938 65.75 L 65.699219 65.761719 L 65.710938 65.75 L 65.699219 65.761719 L 65.710938 65.75 L 65.457031 65.941406 L 65.714844 65.757812 L 65.710938 65.75 L 65.457031 65.941406 L 65.714844 65.757812 L 65.671875 65.707031 C 65.527344 65.554688 65.449219 65.417969 65.394531 65.277344 C 65.34375 65.136719 65.320312 64.988281 65.320312 64.808594 C 65.320312 64.488281 65.402344 64.074219 65.496094 63.574219 C 65.589844 63.070312 65.6875 62.476562 65.6875 61.78125 C 65.691406 60.515625 65.355469 58.933594 64.15625 56.9375 L 64.15625 56.933594 L 63.761719 57.179688 " fill-opacity="1" fill-rule="nonzero"/><path fill="#f8c790" d="M 75.976562 42.238281 C 74.480469 42.460938 73.015625 42.90625 71.59375 43.503906 C 71.792969 44.429688 71.980469 45.351562 72.167969 46.277344 C 73.351562 45.933594 74.613281 45.816406 75.886719 45.960938 C 75.90625 45.105469 75.9375 44.25 75.960938 43.394531 C 75.96875 43.011719 75.972656 42.625 75.976562 42.238281 " fill-opacity="1" fill-rule="nonzero"/><path fill="#f8c790" d="M 75.980469 41.570312 C 75.980469 40.890625 75.984375 40.207031 76 39.519531 C 74.191406 39.253906 72.398438 39.449219 70.75 40.027344 C 71.011719 40.960938 71.242188 41.90625 71.449219 42.855469 C 72.917969 42.246094 74.433594 41.796875 75.980469 41.570312 " fill-opacity="1" fill-rule="nonzero"/><path fill="#f8c790" d="M 66.703125 45.417969 C 68.019531 44.550781 69.402344 43.765625 70.832031 43.121094 C 70.621094 42.164062 70.390625 41.210938 70.128906 40.265625 C 68.402344 40.988281 66.863281 42.148438 65.691406 43.644531 C 66.042969 44.226562 66.375 44.820312 66.703125 45.417969 " fill-opacity="1" fill-rule="nonzero"/><path fill="#f8c790" d="M 67.019531 45.992188 C 67.46875 46.792969 68.003906 47.542969 68.511719 48.304688 C 69.398438 47.515625 70.425781 46.902344 71.535156 46.488281 C 71.351562 45.585938 71.167969 44.679688 70.972656 43.777344 C 69.605469 44.402344 68.28125 45.160156 67.019531 45.992188 " fill-opacity="1" fill-rule="nonzero"/><path fill="#24265d" d="M 67.835938 67.539062 L 70.171875 59.296875 L 70.175781 59.285156 C 70.183594 59.257812 70.390625 58.410156 70.390625 57.175781 C 70.390625 56.324219 70.292969 55.285156 69.945312 54.207031 C 69.601562 53.132812 69.007812 52.011719 68.027344 51.027344 C 67.847656 50.84375 67.554688 50.84375 67.371094 51.023438 C 67.1875 51.203125 67.1875 51.496094 67.367188 51.679688 C 68.234375 52.550781 68.753906 53.527344 69.0625 54.492188 C 69.371094 55.453125 69.464844 56.398438 69.464844 57.175781 C 69.464844 57.742188 69.417969 58.21875 69.367188 58.550781 C 69.34375 58.71875 69.320312 58.847656 69.304688 58.933594 C 69.292969 58.976562 69.285156 59.011719 69.28125 59.03125 L 69.277344 59.054688 L 69.277344 59.058594 L 69.726562 59.171875 L 69.28125 59.042969 L 66.941406 67.285156 C 66.875 67.53125 67.015625 67.789062 67.261719 67.859375 C 67.507812 67.929688 67.765625 67.785156 67.835938 67.539062 " fill-opacity="1" fill-rule="nonzero"/><path fill="#24265d" d="M 72.148438 68.761719 L 74.484375 60.519531 L 74.039062 60.394531 L 74.480469 60.535156 C 74.492188 60.496094 74.855469 59.402344 75.726562 58.210938 C 76.597656 57.015625 77.957031 55.742188 79.976562 55.253906 C 80.226562 55.191406 80.378906 54.941406 80.316406 54.695312 C 80.257812 54.445312 80.007812 54.292969 79.757812 54.351562 C 78.59375 54.632812 77.621094 55.148438 76.824219 55.753906 C 75.628906 56.667969 74.828125 57.785156 74.324219 58.675781 C 73.816406 59.566406 73.605469 60.230469 73.59375 60.253906 L 73.589844 60.269531 L 71.253906 68.507812 C 71.1875 68.753906 71.328125 69.011719 71.574219 69.082031 C 71.820312 69.152344 72.078125 69.007812 72.148438 68.761719 " fill-opacity="1" fill-rule="nonzero"/><path fill="#24265d" d="M 66.28125 52.105469 C 66.578125 52.507812 66.824219 52.789062 67.09375 52.992188 C 67.230469 53.09375 67.375 53.171875 67.527344 53.21875 C 67.679688 53.269531 67.832031 53.292969 67.980469 53.292969 C 68.261719 53.292969 68.515625 53.226562 68.789062 53.152344 C 69.035156 53.089844 69.234375 53.0625 69.390625 53.0625 C 69.648438 53.066406 69.796875 53.121094 69.9375 53.207031 C 70.042969 53.273438 70.144531 53.367188 70.253906 53.480469 C 70.417969 53.648438 70.59375 53.875 70.851562 54.078125 C 71.113281 54.28125 71.484375 54.445312 71.921875 54.4375 C 72.191406 54.4375 72.484375 54.386719 72.816406 54.28125 C 73.046875 54.207031 73.230469 54.179688 73.378906 54.179688 C 73.609375 54.179688 73.757812 54.234375 73.914062 54.332031 C 74.144531 54.476562 74.367188 54.742188 74.648438 55.027344 C 74.789062 55.171875 74.953125 55.316406 75.15625 55.429688 C 75.363281 55.542969 75.617188 55.621094 75.890625 55.621094 C 76.1875 55.621094 76.496094 55.539062 76.832031 55.382812 C 77.105469 55.253906 77.296875 55.214844 77.414062 55.214844 C 77.550781 55.21875 77.617188 55.246094 77.71875 55.324219 C 77.796875 55.382812 77.882812 55.476562 77.976562 55.589844 C 78.125 55.761719 78.289062 55.988281 78.542969 56.1875 C 78.792969 56.386719 79.148438 56.542969 79.570312 56.542969 C 79.804688 56.542969 80.054688 56.5 80.328125 56.414062 C 80.570312 56.335938 80.707031 56.078125 80.628906 55.832031 C 80.550781 55.585938 80.292969 55.453125 80.046875 55.527344 C 79.847656 55.589844 79.691406 55.613281 79.570312 55.613281 C 79.378906 55.613281 79.277344 55.566406 79.160156 55.488281 C 78.984375 55.375 78.8125 55.132812 78.570312 54.859375 C 78.449219 54.726562 78.304688 54.585938 78.109375 54.472656 C 77.917969 54.359375 77.675781 54.285156 77.414062 54.289062 C 77.113281 54.289062 76.792969 54.375 76.4375 54.542969 C 76.1875 54.660156 76.015625 54.695312 75.890625 54.695312 C 75.742188 54.691406 75.644531 54.652344 75.511719 54.558594 C 75.414062 54.488281 75.304688 54.378906 75.183594 54.253906 C 75.003906 54.0625 74.796875 53.820312 74.511719 53.613281 C 74.222656 53.410156 73.835938 53.246094 73.378906 53.25 C 73.117188 53.25 72.835938 53.300781 72.527344 53.398438 C 72.269531 53.484375 72.070312 53.511719 71.921875 53.511719 C 71.707031 53.507812 71.59375 53.460938 71.464844 53.378906 C 71.371094 53.316406 71.273438 53.21875 71.164062 53.101562 C 71 52.925781 70.8125 52.691406 70.527344 52.488281 C 70.246094 52.28125 69.855469 52.132812 69.390625 52.136719 C 69.136719 52.136719 68.859375 52.175781 68.554688 52.257812 C 68.289062 52.328125 68.097656 52.367188 67.980469 52.367188 C 67.917969 52.363281 67.871094 52.355469 67.820312 52.339844 C 67.75 52.316406 67.660156 52.265625 67.527344 52.144531 C 67.394531 52.023438 67.230469 51.832031 67.03125 51.558594 C 66.878906 51.351562 66.589844 51.308594 66.382812 51.457031 C 66.179688 51.609375 66.132812 51.898438 66.28125 52.105469 " fill-opacity="1" fill-rule="nonzero"/><path fill="#b37a3c" d="M 72.730469 67.363281 C 72.671875 67.363281 72.609375 67.359375 72.546875 67.355469 L 74.46875 60.570312 C 74.765625 60.511719 75.066406 60.433594 75.378906 60.339844 C 83.410156 57.945312 84.304688 50.125 84.710938 49.445312 C 84.894531 49.140625 85.042969 49.011719 85.167969 49.011719 C 85.804688 49.011719 85.753906 52.355469 85.613281 52.851562 C 84.757812 56.285156 82.875 59.054688 78.820312 60.792969 C 77.359375 61.417969 76.902344 62.582031 76.039062 63.972656 C 75.324219 65.054688 74.765625 66.824219 73.472656 67.273438 C 73.238281 67.335938 72.992188 67.363281 72.730469 67.363281 M 71.617188 67.234375 C 70.757812 67.066406 69.878906 66.769531 69.15625 66.632812 C 68.804688 66.574219 68.484375 66.46875 68.175781 66.339844 L 68.613281 64.796875 C 69.550781 64.742188 70.488281 64.691406 70.710938 64.445312 C 71.597656 63.476562 70.558594 62.53125 69.503906 61.648438 L 69.984375 59.960938 C 70.574219 60.136719 71.144531 60.367188 71.542969 60.480469 C 72.109375 60.640625 72.640625 60.710938 73.160156 60.710938 C 73.265625 60.710938 73.367188 60.710938 73.46875 60.703125 L 71.617188 67.234375 M 67.320312 65.960938 C 67.039062 65.835938 66.761719 65.71875 66.464844 65.636719 L 66.527344 65.417969 C 66.292969 65.070312 66.851562 64.9375 67.628906 64.863281 L 67.320312 65.960938 M 68.726562 60.988281 C 68.296875 60.59375 67.964844 60.21875 67.925781 59.863281 C 68.121094 59.75 68.363281 59.707031 68.628906 59.707031 C 68.773438 59.707031 68.925781 59.71875 69.082031 59.742188 L 68.726562 60.988281 " fill-opacity="1" fill-rule="nonzero"/><path fill="#1f2047" d="M 68.175781 66.339844 C 67.882812 66.222656 67.601562 66.085938 67.320312 65.960938 L 67.628906 64.863281 C 67.9375 64.832031 68.273438 64.8125 68.613281 64.796875 L 68.175781 66.339844 M 69.503906 61.648438 C 69.238281 61.425781 68.96875 61.203125 68.726562 60.988281 L 69.082031 59.742188 C 69.375 59.789062 69.683594 59.867188 69.984375 59.960938 L 69.503906 61.648438 " fill-opacity="1" fill-rule="nonzero"/><path fill="#1f2047" d="M 72.546875 67.355469 C 72.246094 67.34375 71.933594 67.296875 71.617188 67.234375 L 73.46875 60.703125 C 73.800781 60.6875 74.128906 60.640625 74.46875 60.570312 L 72.546875 67.355469 " fill-opacity="1" fill-rule="nonzero"/><path fill="#e69674" d="M 54.175781 111.566406 L 22.679688 111.566406 L 22.679688 72.273438 L 54.175781 72.273438 L 54.175781 111.566406 " fill-opacity="1" fill-rule="nonzero"/><g clip-path="url(#567dc796e9)"><path fill="#24265d" d="M 54.175781 111.566406 L 54.175781 111.101562 L 23.144531 111.101562 L 23.144531 72.738281 L 53.710938 72.738281 L 53.710938 111.566406 L 54.175781 111.566406 L 54.175781 111.101562 L 54.175781 111.566406 L 54.636719 111.566406 L 54.636719 72.273438 C 54.636719 72.152344 54.585938 72.03125 54.5 71.945312 C 54.414062 71.859375 54.296875 71.808594 54.175781 71.808594 L 22.679688 71.808594 C 22.554688 71.808594 22.4375 71.859375 22.351562 71.945312 C 22.265625 72.03125 22.214844 72.152344 22.214844 72.273438 L 22.214844 111.566406 C 22.214844 111.6875 22.265625 111.804688 22.351562 111.894531 C 22.4375 111.980469 22.554688 112.027344 22.679688 112.027344 L 54.175781 112.027344 C 54.296875 112.027344 54.414062 111.980469 54.5 111.894531 C 54.585938 111.804688 54.636719 111.6875 54.636719 111.566406 L 54.175781 111.566406 " fill-opacity="1" fill-rule="nonzero"/></g><path fill="#f4af8d" d="M 54.175781 72.273438 L 22.679688 72.273438 L 10.390625 90.035156 L 41.882812 90.035156 L 54.175781 72.273438 " fill-opacity="1" fill-rule="nonzero"/><path fill="#24265d" d="M 54.175781 72.273438 L 54.175781 71.808594 L 22.679688 71.808594 C 22.527344 71.808594 22.382812 71.882812 22.296875 72.007812 L 10.007812 89.769531 C 9.910156 89.914062 9.898438 90.097656 9.976562 90.25 C 10.058594 90.402344 10.214844 90.496094 10.390625 90.496094 L 41.882812 90.496094 C 42.035156 90.496094 42.179688 90.425781 42.265625 90.296875 L 54.554688 72.535156 C 54.652344 72.394531 54.664062 72.210938 54.585938 72.058594 C 54.503906 71.90625 54.347656 71.808594 54.175781 71.808594 L 54.175781 72.273438 L 53.792969 72.007812 L 41.640625 89.570312 L 11.273438 89.570312 L 22.921875 72.738281 L 54.175781 72.738281 L 54.175781 72.273438 L 53.792969 72.007812 L 54.175781 72.273438 " fill-opacity="1" fill-rule="nonzero"/><path fill="#b37459" d="M 54.191406 111.566406 L 85.6875 111.566406 L 85.6875 72.273438 L 54.191406 72.273438 L 54.191406 111.566406 " fill-opacity="1" fill-rule="nonzero"/><g clip-path="url(#8ef71ebf67)"><path fill="#24265d" d="M 54.191406 111.566406 L 54.191406 112.027344 L 85.6875 112.027344 C 85.808594 112.027344 85.929688 111.980469 86.015625 111.894531 C 86.101562 111.804688 86.152344 111.6875 86.152344 111.566406 L 86.152344 72.273438 C 86.152344 72.152344 86.101562 72.03125 86.015625 71.945312 C 85.929688 71.859375 85.808594 71.808594 85.6875 71.808594 L 54.191406 71.808594 C 54.070312 71.808594 53.949219 71.859375 53.863281 71.945312 C 53.777344 72.03125 53.730469 72.152344 53.730469 72.273438 L 53.730469 111.566406 C 53.730469 111.6875 53.777344 111.804688 53.863281 111.894531 C 53.949219 111.980469 54.070312 112.027344 54.191406 112.027344 L 54.191406 111.566406 L 54.65625 111.566406 L 54.65625 72.738281 L 85.222656 72.738281 L 85.222656 111.101562 L 54.191406 111.101562 L 54.191406 111.566406 L 54.65625 111.566406 L 54.191406 111.566406 " fill-opacity="1" fill-rule="nonzero"/></g><path fill="#e69674" d="M 54.191406 72.273438 L 85.6875 72.273438 L 97.976562 90.035156 L 66.480469 90.035156 L 54.191406 72.273438 " fill-opacity="1" fill-rule="nonzero"/><path fill="#24265d" d="M 54.191406 72.273438 L 54.191406 72.738281 L 85.445312 72.738281 L 97.09375 89.570312 L 66.726562 89.570312 L 54.574219 72.007812 L 54.191406 72.273438 L 54.191406 72.738281 L 54.191406 72.273438 L 53.808594 72.535156 L 66.101562 90.296875 C 66.1875 90.425781 66.332031 90.496094 66.480469 90.496094 L 97.976562 90.496094 C 98.148438 90.496094 98.308594 90.402344 98.386719 90.25 C 98.46875 90.097656 98.457031 89.914062 98.359375 89.769531 L 86.070312 72.007812 C 85.980469 71.882812 85.839844 71.808594 85.6875 71.808594 L 54.191406 71.808594 C 54.019531 71.808594 53.863281 71.90625 53.78125 72.058594 C 53.703125 72.210938 53.714844 72.394531 53.808594 72.535156 L 54.191406 72.273438 " fill-opacity="1" fill-rule="nonzero"/><g clip-path="url(#d8a6595651)"><path fill="#24265d" d="M -7.941406 112.027344 L 116.328125 112.027344 C 116.582031 112.027344 116.792969 111.820312 116.792969 111.566406 C 116.792969 111.308594 116.582031 111.101562 116.328125 111.101562 L -7.941406 111.101562 C -8.199219 111.101562 -8.40625 111.308594 -8.40625 111.566406 C -8.40625 111.820312 -8.199219 112.027344 -7.941406 112.027344 " fill-opacity="1" fill-rule="nonzero"/></g><path fill="#f9ab41" d="M 75.902344 0.472656 L 51.582031 0.472656 C 45.570312 0.472656 40.699219 5.347656 40.699219 11.355469 L 40.699219 13.292969 C 40.699219 19.304688 45.570312 24.175781 51.582031 24.175781 L 60.082031 24.175781 L 63.742188 37.871094 L 67.402344 24.175781 L 75.902344 24.175781 C 81.914062 24.175781 86.785156 19.304688 86.785156 13.292969 L 86.785156 11.355469 C 86.785156 5.347656 81.914062 0.472656 75.902344 0.472656 " fill-opacity="1" fill-rule="nonzero"/><path fill="#24265d" d="M 75.902344 0.472656 L 75.902344 0.0117188 L 51.582031 0.0117188 C 45.3125 0.0117188 40.234375 5.089844 40.234375 11.355469 L 40.234375 13.292969 C 40.234375 19.558594 45.3125 24.640625 51.582031 24.640625 L 59.722656 24.640625 L 63.292969 37.988281 C 63.347656 38.191406 63.53125 38.332031 63.742188 38.332031 C 63.953125 38.332031 64.136719 38.191406 64.191406 37.988281 L 67.761719 24.640625 L 75.902344 24.640625 C 82.167969 24.640625 87.25 19.558594 87.25 13.292969 L 87.25 11.355469 C 87.25 5.089844 82.167969 0.0117188 75.902344 0.0117188 L 75.902344 0.9375 C 78.78125 0.9375 81.382812 2.101562 83.269531 3.988281 C 85.15625 5.878906 86.320312 8.476562 86.324219 11.355469 L 86.324219 13.292969 C 86.320312 16.171875 85.15625 18.773438 83.269531 20.660156 C 81.382812 22.546875 78.78125 23.710938 75.902344 23.710938 L 67.402344 23.710938 C 67.195312 23.710938 67.011719 23.855469 66.957031 24.058594 L 63.742188 36.074219 L 60.527344 24.058594 C 60.472656 23.855469 60.289062 23.710938 60.082031 23.710938 L 51.582031 23.710938 C 48.699219 23.710938 46.101562 22.546875 44.214844 20.660156 C 42.328125 18.773438 41.164062 16.171875 41.160156 13.292969 L 41.160156 11.355469 C 41.164062 8.476562 42.328125 5.878906 44.214844 3.988281 C 46.101562 2.101562 48.699219 0.9375 51.582031 0.9375 L 75.902344 0.9375 L 75.902344 0.472656 " fill-opacity="1" fill-rule="nonzero"/><path fill="#e5e4e4" d="M 55.875 12.164062 C 55.875 14.421875 54.046875 16.25 51.789062 16.25 C 49.53125 16.25 47.703125 14.421875 47.703125 12.164062 C 47.703125 9.90625 49.53125 8.074219 51.789062 8.074219 C 54.046875 8.074219 55.875 9.90625 55.875 12.164062 " fill-opacity="1" fill-rule="nonzero"/><path fill="#24265d" d="M 55.875 12.164062 L 55.410156 12.164062 C 55.410156 13.164062 55.003906 14.066406 54.347656 14.722656 C 53.691406 15.378906 52.789062 15.785156 51.789062 15.785156 C 50.785156 15.785156 49.882812 15.378906 49.226562 14.722656 C 48.570312 14.066406 48.164062 13.164062 48.164062 12.164062 C 48.164062 11.160156 48.570312 10.257812 49.226562 9.601562 C 49.882812 8.945312 50.785156 8.539062 51.789062 8.539062 C 52.789062 8.539062 53.691406 8.945312 54.347656 9.601562 C 55.003906 10.257812 55.410156 11.160156 55.410156 12.164062 L 56.339844 12.164062 C 56.335938 9.648438 54.300781 7.613281 51.789062 7.613281 C 49.273438 7.613281 47.238281 9.648438 47.238281 12.164062 C 47.238281 14.675781 49.273438 16.710938 51.789062 16.710938 C 54.300781 16.710938 56.335938 14.675781 56.339844 12.164062 L 55.875 12.164062 " fill-opacity="1" fill-rule="nonzero"/><path fill="#e5e4e4" d="M 67.5 12.164062 C 67.5 14.421875 65.667969 16.25 63.410156 16.25 C 61.15625 16.25 59.324219 14.421875 59.324219 12.164062 C 59.324219 9.90625 61.15625 8.074219 63.410156 8.074219 C 65.667969 8.074219 67.5 9.90625 67.5 12.164062 " fill-opacity="1" fill-rule="nonzero"/><path fill="#24265d" d="M 67.5 12.164062 L 67.035156 12.164062 C 67.035156 13.164062 66.628906 14.066406 65.972656 14.722656 C 65.316406 15.378906 64.414062 15.785156 63.410156 15.785156 C 62.410156 15.785156 61.507812 15.378906 60.851562 14.722656 C 60.195312 14.066406 59.789062 13.164062 59.789062 12.164062 C 59.789062 11.160156 60.195312 10.257812 60.851562 9.601562 C 61.507812 8.945312 62.410156 8.539062 63.410156 8.539062 C 64.414062 8.539062 65.316406 8.945312 65.972656 9.601562 C 66.628906 10.257812 67.035156 11.160156 67.035156 12.164062 L 67.964844 12.164062 C 67.960938 9.648438 65.925781 7.613281 63.410156 7.613281 C 60.898438 7.613281 58.863281 9.648438 58.863281 12.164062 C 58.863281 14.675781 60.898438 16.710938 63.410156 16.710938 C 65.925781 16.710938 67.960938 14.675781 67.964844 12.164062 L 67.5 12.164062 " fill-opacity="1" fill-rule="nonzero"/><path fill="#e5e4e4" d="M 79.121094 12.164062 C 79.121094 14.421875 77.292969 16.25 75.035156 16.25 C 72.78125 16.25 70.949219 14.421875 70.949219 12.164062 C 70.949219 9.90625 72.78125 8.074219 75.035156 8.074219 C 77.292969 8.074219 79.121094 9.90625 79.121094 12.164062 " fill-opacity="1" fill-rule="nonzero"/><path fill="#24265d" d="M 79.121094 12.164062 L 78.660156 12.164062 C 78.660156 13.164062 78.253906 14.066406 77.597656 14.722656 C 76.941406 15.378906 76.039062 15.785156 75.035156 15.785156 C 74.035156 15.785156 73.132812 15.378906 72.472656 14.722656 C 71.816406 14.066406 71.414062 13.164062 71.414062 12.164062 C 71.414062 11.160156 71.816406 10.257812 72.472656 9.601562 C 73.132812 8.945312 74.035156 8.539062 75.035156 8.539062 C 76.039062 8.539062 76.941406 8.945312 77.597656 9.601562 C 78.253906 10.257812 78.660156 11.160156 78.660156 12.164062 L 79.585938 12.164062 C 79.585938 9.648438 77.550781 7.613281 75.035156 7.613281 C 72.523438 7.613281 70.484375 9.648438 70.484375 12.164062 C 70.484375 14.675781 72.523438 16.710938 75.035156 16.710938 C 77.550781 16.710938 79.585938 14.675781 79.585938 12.164062 L 79.121094 12.164062 " fill-opacity="1" fill-rule="nonzero"/></svg>