<svg xmlns="http://www.w3.org/2000/svg" xmlns:xlink="http://www.w3.org/1999/xlink" width="150" zoomAndPan="magnify" viewBox="0 0 112.5 112.499997" height="150" preserveAspectRatio="xMidYMid meet" version="1.0"><path fill="#19216d" d="M 54.824219 111.96875 C 52.96875 111.96875 51.101562 111.871094 49.265625 111.679688 C 48.960938 111.648438 48.742188 111.375 48.773438 111.074219 C 48.804688 110.769531 49.078125 110.546875 49.378906 110.578125 C 51.355469 110.785156 53.375 110.878906 55.371094 110.855469 C 55.371094 110.855469 55.375 110.855469 55.375 110.855469 C 55.679688 110.855469 55.925781 111.101562 55.929688 111.40625 C 55.933594 111.710938 55.6875 111.960938 55.382812 111.964844 C 55.195312 111.964844 55.011719 111.96875 54.824219 111.96875 Z M 61.421875 111.558594 C 61.144531 111.558594 60.90625 111.351562 60.871094 111.074219 C 60.835938 110.769531 61.050781 110.492188 61.351562 110.453125 C 63.332031 110.207031 65.316406 109.839844 67.25 109.367188 C 67.546875 109.296875 67.84375 109.476562 67.917969 109.773438 C 67.988281 110.070312 67.808594 110.371094 67.511719 110.445312 C 65.539062 110.925781 63.511719 111.300781 61.488281 111.554688 C 61.464844 111.554688 61.445312 111.558594 61.421875 111.558594 Z M 73.171875 108.679688 C 72.949219 108.679688 72.738281 108.542969 72.652344 108.320312 C 72.546875 108.035156 72.695312 107.714844 72.980469 107.609375 L 73.066406 107.574219 L 78.453125 105.097656 C 78.730469 104.96875 79.058594 105.089844 79.183594 105.367188 C 79.3125 105.644531 79.191406 105.972656 78.914062 106.101562 L 73.511719 108.589844 C 73.5 108.597656 73.484375 108.601562 73.472656 108.605469 L 73.363281 108.644531 C 73.300781 108.671875 73.234375 108.679688 73.171875 108.679688 Z M 83.828125 102.957031 C 83.648438 102.957031 83.46875 102.867188 83.363281 102.707031 C 83.195312 102.449219 83.269531 102.105469 83.523438 101.941406 L 85.015625 100.96875 L 88.082031 98.109375 C 88.304688 97.902344 88.652344 97.914062 88.863281 98.136719 C 89.070312 98.363281 89.058594 98.710938 88.832031 98.921875 L 85.734375 101.8125 C 85.710938 101.832031 85.683594 101.851562 85.65625 101.871094 L 84.128906 102.867188 C 84.035156 102.929688 83.929688 102.957031 83.828125 102.957031 Z M 83.828125 102.957031 " fill-opacity="1" fill-rule="nonzero"/><path fill="#19216d" d="M 105.164062 43.535156 C 104.929688 43.535156 104.710938 43.382812 104.636719 43.144531 C 104.097656 41.410156 103.460938 39.679688 102.742188 38.011719 C 102.621094 37.730469 102.75 37.402344 103.03125 37.28125 C 103.3125 37.160156 103.636719 37.292969 103.757812 37.574219 C 104.492188 39.277344 105.140625 41.042969 105.691406 42.816406 C 105.78125 43.109375 105.621094 43.417969 105.328125 43.507812 C 105.273438 43.527344 105.21875 43.535156 105.164062 43.535156 Z M 100.800781 33.386719 C 100.605469 33.386719 100.417969 33.285156 100.316406 33.105469 C 99.429688 31.519531 98.445312 29.960938 97.390625 28.476562 C 97.214844 28.230469 97.273438 27.882812 97.523438 27.707031 C 97.773438 27.53125 98.117188 27.589844 98.292969 27.835938 C 99.367188 29.355469 100.375 30.941406 101.28125 32.5625 C 101.429688 32.828125 101.335938 33.164062 101.070312 33.316406 C 100.984375 33.363281 100.890625 33.386719 100.800781 33.386719 Z M 94.417969 24.371094 C 94.261719 24.371094 94.109375 24.308594 94 24.183594 C 92.800781 22.816406 91.515625 21.5 90.179688 20.265625 C 89.957031 20.058594 89.941406 19.707031 90.148438 19.484375 C 90.355469 19.257812 90.707031 19.246094 90.929688 19.453125 C 92.292969 20.710938 93.605469 22.058594 94.832031 23.453125 C 95.03125 23.683594 95.011719 24.03125 94.78125 24.234375 C 94.675781 24.324219 94.546875 24.371094 94.417969 24.371094 Z M 86.304688 16.875 C 86.1875 16.875 86.074219 16.839844 85.972656 16.765625 C 84.515625 15.679688 82.988281 14.65625 81.425781 13.726562 C 81.164062 13.570312 81.078125 13.230469 81.234375 12.96875 C 81.390625 12.707031 81.726562 12.621094 81.992188 12.773438 C 83.585938 13.722656 85.148438 14.769531 86.636719 15.878906 C 86.878906 16.0625 86.929688 16.410156 86.746094 16.652344 C 86.640625 16.800781 86.472656 16.875 86.304688 16.875 Z M 86.304688 16.875 " fill-opacity="1" fill-rule="nonzero"/><path fill="#19216d" d="M 4.039062 73.355469 C 3.796875 73.355469 3.574219 73.195312 3.507812 72.953125 C 2.964844 70.988281 2.527344 68.972656 2.214844 66.960938 C 2.164062 66.65625 2.371094 66.375 2.675781 66.328125 C 2.976562 66.28125 3.257812 66.488281 3.304688 66.789062 C 3.613281 68.761719 4.039062 70.734375 4.574219 72.65625 C 4.65625 72.949219 4.484375 73.253906 4.1875 73.335938 C 4.140625 73.351562 4.089844 73.355469 4.039062 73.355469 Z M 2.167969 61.390625 C 1.871094 61.390625 1.625 61.15625 1.613281 60.859375 C 1.585938 60.128906 1.570312 59.382812 1.570312 58.644531 C 1.570312 57.34375 1.617188 56.023438 1.710938 54.730469 C 1.734375 54.425781 1.996094 54.195312 2.300781 54.21875 C 2.605469 54.238281 2.835938 54.503906 2.8125 54.808594 C 2.722656 56.078125 2.675781 57.367188 2.675781 58.644531 C 2.675781 59.367188 2.691406 60.097656 2.71875 60.816406 C 2.730469 61.121094 2.496094 61.378906 2.191406 61.390625 C 2.183594 61.390625 2.175781 61.390625 2.167969 61.390625 Z M 3.046875 49.308594 C 3.011719 49.308594 2.980469 49.304688 2.945312 49.296875 C 2.644531 49.238281 2.445312 48.949219 2.503906 48.648438 C 2.882812 46.648438 3.382812 44.644531 3.992188 42.703125 C 4.082031 42.410156 4.394531 42.246094 4.683594 42.339844 C 4.976562 42.429688 5.136719 42.742188 5.046875 43.03125 C 4.453125 44.9375 3.960938 46.894531 3.589844 48.855469 C 3.539062 49.121094 3.308594 49.308594 3.046875 49.308594 Z M 6.660156 37.746094 C 6.585938 37.746094 6.507812 37.730469 6.4375 37.699219 C 6.15625 37.574219 6.03125 37.246094 6.15625 36.96875 C 6.984375 35.109375 7.929688 33.273438 8.964844 31.519531 C 9.121094 31.257812 9.460938 31.171875 9.722656 31.328125 C 9.984375 31.480469 10.074219 31.820312 9.917969 32.085938 C 8.902344 33.800781 7.976562 35.597656 7.164062 37.417969 C 7.074219 37.625 6.871094 37.746094 6.660156 37.746094 Z M 12.820312 27.320312 C 12.707031 27.320312 12.589844 27.285156 12.488281 27.210938 C 12.246094 27.023438 12.199219 26.675781 12.382812 26.433594 C 13.117188 25.464844 13.890625 24.511719 14.691406 23.597656 C 14.699219 23.589844 14.707031 23.578125 14.714844 23.570312 L 16.441406 21.835938 C 16.65625 21.621094 17.007812 21.621094 17.222656 21.835938 C 17.441406 22.050781 17.441406 22.402344 17.222656 22.617188 L 15.511719 24.339844 C 14.734375 25.230469 13.976562 26.160156 13.261719 27.101562 C 13.152344 27.246094 12.988281 27.320312 12.820312 27.320312 Z M 21.238281 18.625 C 21.078125 18.625 20.914062 18.554688 20.804688 18.414062 C 20.617188 18.175781 20.65625 17.828125 20.898438 17.636719 L 25.648438 13.871094 C 25.886719 13.679688 26.234375 13.71875 26.425781 13.960938 C 26.613281 14.199219 26.574219 14.546875 26.335938 14.738281 L 21.582031 18.507812 C 21.480469 18.585938 21.359375 18.625 21.238281 18.625 Z M 21.238281 18.625 " fill-opacity="1" fill-rule="nonzero"/><path fill="#ffefd4" d="M 93.519531 58.644531 C 93.519531 59.914062 93.457031 61.179688 93.332031 62.445312 C 93.207031 63.707031 93.023438 64.960938 92.773438 66.203125 C 92.527344 67.449219 92.21875 68.679688 91.851562 69.890625 C 91.484375 71.105469 91.058594 72.300781 90.574219 73.472656 C 90.085938 74.644531 89.546875 75.789062 88.949219 76.910156 C 88.351562 78.027344 87.699219 79.117188 86.996094 80.171875 C 86.292969 81.226562 85.539062 82.242188 84.734375 83.222656 C 83.929688 84.203125 83.082031 85.144531 82.183594 86.042969 C 81.289062 86.9375 80.351562 87.789062 79.371094 88.59375 C 78.390625 89.398438 77.375 90.15625 76.320312 90.859375 C 75.265625 91.5625 74.183594 92.214844 73.0625 92.8125 C 71.945312 93.414062 70.800781 93.953125 69.632812 94.441406 C 68.460938 94.925781 67.269531 95.351562 66.054688 95.71875 C 64.84375 96.089844 63.617188 96.398438 62.371094 96.644531 C 61.128906 96.890625 59.878906 97.078125 58.617188 97.203125 C 57.355469 97.328125 56.089844 97.386719 54.824219 97.386719 C 53.554688 97.386719 52.292969 97.328125 51.03125 97.203125 C 49.769531 97.078125 48.519531 96.890625 47.273438 96.644531 C 46.03125 96.398438 44.804688 96.089844 43.589844 95.71875 C 42.378906 95.351562 41.1875 94.925781 40.015625 94.441406 C 38.84375 93.953125 37.703125 93.414062 36.582031 92.8125 C 35.464844 92.214844 34.378906 91.5625 33.328125 90.859375 C 32.273438 90.15625 31.257812 89.398438 30.277344 88.59375 C 29.296875 87.789062 28.359375 86.9375 27.464844 86.042969 C 26.566406 85.144531 25.71875 84.203125 24.914062 83.222656 C 24.109375 82.242188 23.355469 81.226562 22.652344 80.171875 C 21.945312 79.117188 21.296875 78.027344 20.699219 76.910156 C 20.101562 75.789062 19.558594 74.644531 19.074219 73.472656 C 18.589844 72.300781 18.164062 71.105469 17.796875 69.890625 C 17.429688 68.679688 17.121094 67.449219 16.875 66.203125 C 16.625 64.960938 16.441406 63.707031 16.316406 62.445312 C 16.191406 61.179688 16.128906 59.914062 16.128906 58.644531 C 16.128906 57.378906 16.191406 56.113281 16.316406 54.847656 C 16.441406 53.585938 16.625 52.332031 16.875 51.085938 C 17.121094 49.84375 17.429688 48.613281 17.796875 47.398438 C 18.164062 46.183594 18.589844 44.992188 19.074219 43.820312 C 19.558594 42.648438 20.101562 41.5 20.699219 40.382812 C 21.296875 39.265625 21.945312 38.175781 22.652344 37.121094 C 23.355469 36.066406 24.109375 35.050781 24.914062 34.066406 C 25.71875 33.085938 26.566406 32.148438 27.464844 31.25 C 28.359375 30.355469 29.296875 29.503906 30.277344 28.699219 C 31.257812 27.894531 32.273438 27.136719 33.328125 26.433594 C 34.378906 25.726562 35.464844 25.078125 36.582031 24.476562 C 37.703125 23.878906 38.84375 23.339844 40.015625 22.851562 C 41.1875 22.367188 42.378906 21.941406 43.589844 21.570312 C 44.804688 21.203125 46.03125 20.894531 47.273438 20.648438 C 48.519531 20.398438 49.769531 20.214844 51.03125 20.089844 C 52.292969 19.964844 53.554688 19.902344 54.824219 19.902344 C 56.089844 19.902344 57.355469 19.964844 58.617188 20.089844 C 59.878906 20.214844 61.128906 20.398438 62.371094 20.648438 C 63.617188 20.894531 64.84375 21.203125 66.054688 21.570312 C 67.269531 21.941406 68.460938 22.367188 69.632812 22.851562 C 70.800781 23.339844 71.945312 23.878906 73.0625 24.476562 C 74.183594 25.078125 75.265625 25.726562 76.320312 26.433594 C 77.375 27.136719 78.390625 27.894531 79.371094 28.699219 C 80.351562 29.503906 81.289062 30.355469 82.183594 31.25 C 83.082031 32.148438 83.929688 33.085938 84.734375 34.066406 C 85.539062 35.050781 86.292969 36.066406 86.996094 37.121094 C 87.699219 38.175781 88.351562 39.265625 88.949219 40.382812 C 89.546875 41.5 90.085938 42.648438 90.574219 43.820312 C 91.058594 44.992188 91.484375 46.183594 91.851562 47.398438 C 92.21875 48.613281 92.527344 49.84375 92.773438 51.085938 C 93.023438 52.332031 93.207031 53.585938 93.332031 54.847656 C 93.457031 56.113281 93.519531 57.378906 93.519531 58.644531 Z M 93.519531 58.644531 " fill-opacity="1" fill-rule="nonzero"/><path fill="#ffffff" d="M 34.359375 70.207031 L 36.023438 74.039062 C 33.878906 76.183594 31.195312 77.714844 28.261719 78.472656 C 27.890625 78.566406 27.632812 78.628906 27.570312 78.632812 C 26.621094 78.675781 25.773438 78.527344 25.183594 78.078125 L 24.429688 76.882812 C 24.125 75.636719 25.078125 74.636719 26.527344 74.308594 C 27.601562 74.058594 30.777344 73.363281 32.441406 71.859375 C 33.121094 71.242188 33.847656 70.675781 34.359375 70.207031 Z M 34.359375 70.207031 " fill-opacity="1" fill-rule="nonzero"/><path fill="#19216d" d="M 27.265625 79.191406 C 26.246094 79.191406 25.433594 78.964844 24.847656 78.515625 C 24.792969 78.476562 24.75 78.429688 24.714844 78.371094 L 23.960938 77.179688 C 23.945312 77.152344 23.933594 77.128906 23.921875 77.101562 C 23.917969 77.097656 23.917969 77.09375 23.914062 77.089844 C 23.90625 77.0625 23.898438 77.039062 23.890625 77.015625 C 23.734375 76.378906 23.832031 75.753906 24.164062 75.210938 C 24.597656 74.511719 25.394531 73.996094 26.40625 73.765625 L 26.515625 73.742188 C 27.625 73.484375 30.570312 72.804688 32.070312 71.445312 C 32.433594 71.117188 32.796875 70.8125 33.152344 70.515625 C 33.460938 70.257812 33.75 70.015625 33.988281 69.796875 C 34.121094 69.675781 34.300781 69.628906 34.476562 69.664062 C 34.652344 69.703125 34.796875 69.820312 34.867188 69.984375 L 36.53125 73.820312 C 36.621094 74.027344 36.574219 74.269531 36.414062 74.429688 C 34.195312 76.644531 31.425781 78.226562 28.398438 79.007812 C 27.78125 79.164062 27.675781 79.179688 27.59375 79.183594 C 27.484375 79.191406 27.375 79.191406 27.265625 79.191406 Z M 25.59375 77.691406 C 26.027344 77.984375 26.675781 78.113281 27.527344 78.078125 C 27.566406 78.074219 27.695312 78.046875 28.121094 77.933594 C 30.835938 77.234375 33.332031 75.847656 35.363281 73.910156 L 34.15625 71.117188 C 34.058594 71.199219 33.960938 71.28125 33.859375 71.367188 C 33.515625 71.65625 33.160156 71.953125 32.8125 72.269531 C 31.097656 73.820312 27.949219 74.546875 26.765625 74.820312 L 26.652344 74.847656 C 25.941406 75.007812 25.378906 75.355469 25.105469 75.792969 C 24.941406 76.058594 24.890625 76.355469 24.949219 76.667969 Z M 27.542969 78.078125 Z M 27.542969 78.078125 " fill-opacity="1" fill-rule="nonzero"/><path fill="#ffffff" d="M 37.144531 61.484375 C 37.144531 63.941406 35.164062 65.9375 32.726562 65.9375 C 30.285156 65.9375 28.308594 63.941406 28.308594 61.484375 C 28.308594 59.023438 30.285156 57.03125 32.726562 57.03125 C 35.164062 57.03125 37.144531 59.023438 37.144531 61.484375 Z M 37.144531 61.484375 " fill-opacity="1" fill-rule="nonzero"/><path fill="#19216d" d="M 32.726562 66.488281 C 29.984375 66.488281 27.753906 64.242188 27.753906 61.484375 C 27.753906 58.722656 29.984375 56.476562 32.726562 56.476562 C 35.464844 56.476562 37.695312 58.722656 37.695312 61.484375 C 37.695312 64.242188 35.464844 66.488281 32.726562 66.488281 Z M 32.726562 57.585938 C 30.59375 57.585938 28.859375 59.335938 28.859375 61.484375 C 28.859375 63.632812 30.59375 65.382812 32.726562 65.382812 C 34.855469 65.382812 36.589844 63.632812 36.589844 61.484375 C 36.589844 59.335938 34.855469 57.585938 32.726562 57.585938 Z M 32.726562 57.585938 " fill-opacity="1" fill-rule="nonzero"/><path fill="#6eabf4" d="M 39.945312 79.890625 C 40.296875 80.496094 42.40625 85.289062 42.40625 85.289062 L 43.285156 103.855469 C 43.28125 105.3125 44.277344 106.535156 45.621094 106.863281 C 45.847656 106.917969 46.085938 106.949219 46.332031 106.949219 C 48.019531 106.957031 49.394531 105.582031 49.402344 103.878906 C 49.398438 103.996094 49.1875 84 49.175781 81.90625 C 49.171875 81.015625 48.953125 79.683594 47.996094 77.980469 C 47.734375 77.523438 47.386719 76.898438 46.988281 76.179688 Z M 39.945312 79.890625 " fill-opacity="1" fill-rule="nonzero"/><path fill="#19216d" d="M 46.34375 107.503906 C 46.339844 107.503906 46.335938 107.503906 46.328125 107.503906 C 46.046875 107.503906 45.761719 107.46875 45.488281 107.402344 C 43.863281 107.003906 42.734375 105.554688 42.734375 103.867188 L 41.859375 85.417969 C 41.015625 83.5 39.710938 80.585938 39.464844 80.171875 C 39.3125 79.90625 39.402344 79.570312 39.664062 79.414062 C 39.929688 79.261719 40.265625 79.347656 40.421875 79.613281 C 40.777344 80.226562 42.695312 84.570312 42.914062 85.066406 C 42.941406 85.128906 42.957031 85.195312 42.960938 85.261719 L 43.839844 103.828125 C 43.839844 103.839844 43.839844 103.847656 43.839844 103.859375 C 43.835938 105.035156 44.621094 106.050781 45.753906 106.324219 C 45.941406 106.371094 46.136719 106.394531 46.335938 106.394531 C 46.335938 106.394531 46.339844 106.394531 46.34375 106.394531 C 47.71875 106.394531 48.84375 105.269531 48.847656 103.878906 C 48.847656 103.863281 48.847656 103.847656 48.847656 103.832031 L 48.84375 103.664062 C 48.84375 103.515625 48.839844 103.300781 48.835938 103.027344 C 48.832031 102.480469 48.824219 101.695312 48.8125 100.746094 C 48.792969 98.847656 48.765625 96.296875 48.738281 93.683594 C 48.714844 91.253906 48.632812 83.226562 48.625 81.90625 C 48.617188 80.785156 48.246094 79.554688 47.511719 78.253906 C 47.269531 77.820312 46.929688 77.214844 46.507812 76.449219 C 46.359375 76.179688 46.453125 75.84375 46.722656 75.695312 C 46.988281 75.546875 47.324219 75.644531 47.472656 75.910156 C 47.898438 76.675781 48.234375 77.28125 48.476562 77.710938 C 49.300781 79.175781 49.722656 80.585938 49.730469 81.902344 C 49.742188 83.878906 49.945312 103.324219 49.953125 103.855469 C 49.953125 103.863281 49.953125 103.875 49.953125 103.882812 C 49.945312 105.882812 48.328125 107.503906 46.34375 107.503906 Z M 46.34375 107.503906 " fill-opacity="1" fill-rule="nonzero"/><path fill="#ffeb85" d="M 40.25 80.5 L 47.015625 76.167969 L 46.992188 76.179688 C 45.1875 72.929688 42.371094 67.789062 42.371094 67.789062 C 41.21875 65.707031 38.613281 64.960938 36.546875 66.121094 C 34.480469 67.277344 33.738281 69.90625 34.890625 71.988281 L 36.023438 74.039062 Z M 40.25 80.5 " fill-opacity="1" fill-rule="nonzero"/><path fill="#19216d" d="M 40.25 81.054688 C 40.066406 81.054688 39.886719 80.964844 39.78125 80.800781 C 39.617188 80.542969 39.691406 80.199219 39.949219 80.035156 L 46.253906 75.996094 C 44.472656 72.773438 41.910156 68.105469 41.886719 68.054688 C 41.398438 67.175781 40.601562 66.542969 39.640625 66.269531 C 38.6875 65.996094 37.683594 66.117188 36.816406 66.601562 C 35.019531 67.613281 34.371094 69.90625 35.375 71.71875 L 36.507812 73.769531 C 36.65625 74.039062 36.558594 74.375 36.292969 74.523438 C 36.023438 74.671875 35.6875 74.574219 35.539062 74.308594 L 34.40625 72.257812 C 33.109375 69.914062 33.949219 66.941406 36.277344 65.636719 C 37.402344 65.003906 38.703125 64.851562 39.945312 65.203125 C 41.191406 65.558594 42.222656 66.382812 42.851562 67.519531 C 42.882812 67.574219 45.605469 72.539062 47.390625 75.761719 C 47.425781 75.792969 47.460938 75.835938 47.488281 75.882812 C 47.640625 76.140625 47.5625 76.472656 47.3125 76.632812 L 40.546875 80.96875 C 40.453125 81.027344 40.351562 81.054688 40.25 81.054688 Z M 40.25 81.054688 " fill-opacity="1" fill-rule="nonzero"/><path fill="#ffffff" d="M 41.316406 73.78125 C 41.140625 75.433594 40.851562 77.289062 40.398438 78.78125 C 39.300781 82.371094 34.816406 85.3125 33.882812 85.921875 C 32.691406 86.699219 30.882812 86.585938 30.207031 85.359375 C 29.683594 84.40625 29.960938 83.296875 31.230469 82.328125 C 32.746094 81.167969 35.1875 78.820312 35.597656 77.480469 C 35.886719 76.53125 35.988281 75.601562 36.023438 74.039062 Z M 41.316406 73.78125 " fill-opacity="1" fill-rule="nonzero"/><path fill="#19216d" d="M 32.214844 86.96875 C 31.9375 86.96875 31.664062 86.9375 31.398438 86.871094 C 30.660156 86.683594 30.0625 86.242188 29.722656 85.625 C 29.03125 84.371094 29.46875 82.972656 30.894531 81.886719 C 32.609375 80.578125 34.746094 78.375 35.066406 77.320312 C 35.332031 76.457031 35.4375 75.59375 35.472656 74.027344 C 35.476562 73.722656 35.730469 73.480469 36.035156 73.484375 C 36.34375 73.492188 36.582031 73.746094 36.578125 74.050781 C 36.539062 75.734375 36.421875 76.671875 36.125 77.640625 C 35.632812 79.253906 32.839844 81.792969 31.566406 82.769531 C 31 83.199219 30.132812 84.078125 30.691406 85.089844 C 30.933594 85.535156 31.355469 85.71875 31.667969 85.796875 C 32.289062 85.953125 33.023438 85.824219 33.582031 85.460938 C 35.539062 84.183594 38.960938 81.59375 39.867188 78.617188 C 40.347656 77.046875 40.621094 75.085938 40.765625 73.722656 C 40.796875 73.417969 41.070312 73.195312 41.375 73.230469 C 41.675781 73.261719 41.898438 73.535156 41.863281 73.835938 C 41.714844 75.25 41.429688 77.285156 40.925781 78.941406 C 39.914062 82.253906 36.269531 85.027344 34.183594 86.386719 C 33.601562 86.769531 32.902344 86.96875 32.214844 86.96875 Z M 32.214844 86.96875 " fill-opacity="1" fill-rule="nonzero"/><path fill="#ffeb85" d="M 36.023438 74.039062 L 41.113281 73.714844 L 41.316406 73.78125 C 41.53125 71.722656 41.574219 69.980469 41.539062 69.632812 Z M 36.023438 74.039062 " fill-opacity="1" fill-rule="nonzero"/><path fill="#19216d" d="M 36.023438 74.59375 C 35.734375 74.59375 35.492188 74.367188 35.472656 74.074219 C 35.453125 73.769531 35.683594 73.507812 35.988281 73.488281 L 40.820312 73.179688 C 40.984375 71.410156 41.015625 69.957031 40.988281 69.6875 C 40.960938 69.382812 41.179688 69.113281 41.484375 69.082031 C 41.789062 69.050781 42.058594 69.273438 42.089844 69.578125 C 42.128906 69.972656 42.085938 71.734375 41.863281 73.835938 C 41.847656 74.003906 41.757812 74.152344 41.617188 74.242188 C 41.480469 74.332031 41.308594 74.355469 41.152344 74.308594 L 41.046875 74.273438 L 36.058594 74.59375 C 36.046875 74.59375 36.035156 74.59375 36.023438 74.59375 Z M 36.023438 74.59375 " fill-opacity="1" fill-rule="nonzero"/><path fill="#ffffff" d="M 20.894531 66.125 C 20.894531 68.660156 18.855469 70.714844 16.339844 70.714844 C 13.824219 70.714844 11.789062 68.660156 11.789062 66.125 C 11.789062 63.59375 13.824219 61.539062 16.339844 61.539062 C 18.855469 61.539062 20.894531 63.59375 20.894531 66.125 Z M 20.894531 66.125 " fill-opacity="1" fill-rule="nonzero"/><path fill="#19216d" d="M 16.339844 71.269531 C 13.523438 71.269531 11.234375 68.960938 11.234375 66.125 C 11.234375 63.292969 13.523438 60.984375 16.339844 60.984375 C 19.15625 60.984375 21.445312 63.292969 21.445312 66.125 C 21.445312 68.960938 19.15625 71.269531 16.339844 71.269531 Z M 16.339844 62.089844 C 14.136719 62.089844 12.339844 63.902344 12.339844 66.125 C 12.339844 68.351562 14.136719 70.164062 16.339844 70.164062 C 18.546875 70.164062 20.339844 68.351562 20.339844 66.125 C 20.339844 63.902344 18.546875 62.089844 16.339844 62.089844 Z M 16.339844 62.089844 " fill-opacity="1" fill-rule="nonzero"/><path fill="#ffffff" d="M 9.996094 75.417969 C 10.585938 73.886719 12.066406 72.800781 13.792969 72.800781 L 19.253906 72.800781 C 21.015625 72.800781 22.515625 73.929688 23.085938 75.503906 Z M 9.996094 75.417969 " fill-opacity="1" fill-rule="nonzero"/><path fill="#19216d" d="M 23.085938 76.058594 C 22.859375 76.058594 22.648438 75.917969 22.566406 75.691406 C 22.0625 74.296875 20.730469 73.355469 19.253906 73.355469 L 13.792969 73.355469 C 12.332031 73.355469 11.042969 74.242188 10.511719 75.617188 C 10.402344 75.902344 10.082031 76.042969 9.796875 75.933594 C 9.511719 75.824219 9.371094 75.503906 9.480469 75.21875 C 9.8125 74.351562 10.390625 73.613281 11.152344 73.082031 C 11.929688 72.535156 12.84375 72.25 13.792969 72.25 L 19.253906 72.25 C 21.195312 72.25 22.945312 73.480469 23.605469 75.316406 C 23.710938 75.605469 23.5625 75.921875 23.273438 76.023438 C 23.210938 76.046875 23.148438 76.058594 23.085938 76.058594 Z M 23.085938 76.058594 " fill-opacity="1" fill-rule="nonzero"/><path fill="#6eabf4" d="M 26 84.632812 L 26 85.421875 C 26 86.492188 25.132812 87.359375 24.066406 87.359375 L 8.128906 87.359375 C 7.0625 87.359375 6.199219 86.492188 6.199219 85.421875 L 6.199219 77.28125 C 6.199219 76.328125 6.96875 75.558594 7.921875 75.558594 L 24.277344 75.558594 C 25.226562 75.558594 26 76.328125 26 77.28125 Z M 26 84.632812 " fill-opacity="1" fill-rule="nonzero"/><path fill="#19216d" d="M 24.066406 87.914062 L 8.128906 87.914062 C 6.761719 87.914062 5.644531 86.796875 5.644531 85.421875 L 5.644531 77.28125 C 5.644531 76.027344 6.667969 75.003906 7.921875 75.003906 L 24.277344 75.003906 C 25.53125 75.003906 26.550781 76.027344 26.550781 77.28125 L 26.550781 85.421875 C 26.550781 86.796875 25.4375 87.914062 24.066406 87.914062 Z M 7.921875 76.109375 C 7.277344 76.109375 6.75 76.636719 6.75 77.28125 L 6.75 85.421875 C 6.75 86.183594 7.371094 86.804688 8.128906 86.804688 L 24.066406 86.804688 C 24.828125 86.804688 25.445312 86.183594 25.445312 85.421875 L 25.445312 77.28125 C 25.445312 76.636719 24.921875 76.109375 24.277344 76.109375 Z M 7.921875 76.109375 " fill-opacity="1" fill-rule="nonzero"/><path fill="#ffffff" d="M 31.644531 106.410156 L 31.644531 87.359375 L 0.550781 87.359375 L 0.550781 94.230469 Z M 31.644531 106.410156 " fill-opacity="1" fill-rule="nonzero"/><path fill="#19216d" d="M 31.644531 106.964844 C 31.339844 106.964844 31.09375 106.71875 31.09375 106.410156 L 31.09375 87.914062 L 1.105469 87.914062 L 1.105469 94.230469 C 1.105469 94.539062 0.855469 94.785156 0.550781 94.785156 C 0.246094 94.785156 0 94.539062 0 94.230469 L 0 87.359375 C 0 87.054688 0.246094 86.804688 0.550781 86.804688 L 31.644531 86.804688 C 31.949219 86.804688 32.199219 87.054688 32.199219 87.359375 L 32.199219 106.410156 C 32.199219 106.71875 31.949219 106.964844 31.644531 106.964844 Z M 31.644531 106.964844 " fill-opacity="1" fill-rule="nonzero"/><path fill="#ffffff" d="M 64.453125 70.789062 L 64.453125 67.167969 C 64.453125 63.855469 67.152344 61.160156 70.472656 61.160156 L 72.984375 61.160156 L 72.984375 63.621094 L 77.824219 59.269531 L 72.984375 54.914062 L 72.984375 57.375 L 70.472656 57.375 C 65.066406 57.375 60.671875 61.769531 60.671875 67.167969 L 60.671875 70.789062 Z M 64.453125 70.789062 " fill-opacity="1" fill-rule="nonzero"/><path fill="#19216d" d="M 64.453125 71.34375 C 64.148438 71.34375 63.898438 71.097656 63.898438 70.789062 L 63.898438 67.167969 C 63.898438 63.550781 66.847656 60.609375 70.472656 60.609375 L 72.984375 60.609375 C 73.289062 60.609375 73.539062 60.855469 73.539062 61.160156 L 73.539062 62.378906 L 76.996094 59.269531 L 73.539062 56.15625 L 73.539062 57.375 C 73.539062 57.679688 73.289062 57.929688 72.984375 57.929688 L 70.472656 57.929688 C 65.371094 57.929688 61.222656 62.074219 61.222656 67.167969 L 61.222656 70.789062 C 61.222656 71.097656 60.976562 71.34375 60.671875 71.34375 C 60.363281 71.34375 60.117188 71.097656 60.117188 70.789062 L 60.117188 67.167969 C 60.117188 61.460938 64.761719 56.820312 70.472656 56.820312 L 72.433594 56.820312 L 72.433594 54.914062 C 72.433594 54.695312 72.558594 54.5 72.757812 54.410156 C 72.960938 54.320312 73.191406 54.359375 73.355469 54.503906 L 78.191406 58.855469 C 78.308594 58.960938 78.375 59.109375 78.375 59.269531 C 78.375 59.425781 78.308594 59.574219 78.191406 59.679688 L 73.355469 64.03125 C 73.191406 64.179688 72.960938 64.214844 72.757812 64.125 C 72.558594 64.035156 72.433594 63.839844 72.433594 63.621094 L 72.433594 61.714844 L 70.472656 61.714844 C 67.457031 61.714844 65.003906 64.160156 65.003906 67.167969 L 65.003906 70.789062 C 65.003906 71.097656 64.757812 71.34375 64.453125 71.34375 Z M 64.453125 71.34375 " fill-opacity="1" fill-rule="nonzero"/><path fill="#ffffff" d="M 100.179688 78.863281 L 100.179688 82.484375 C 100.179688 85.796875 97.480469 88.492188 94.160156 88.492188 L 91.644531 88.492188 L 91.644531 86.03125 L 87.195312 90.382812 L 91.644531 94.738281 L 91.644531 92.277344 L 94.160156 92.277344 C 99.5625 92.277344 103.960938 87.882812 103.960938 82.484375 L 103.960938 78.863281 Z M 100.179688 78.863281 " fill-opacity="1" fill-rule="nonzero"/><path fill="#19216d" d="M 91.644531 95.289062 C 91.503906 95.289062 91.367188 95.234375 91.261719 95.132812 L 86.808594 90.78125 C 86.703125 90.675781 86.640625 90.535156 86.640625 90.382812 C 86.640625 90.234375 86.703125 90.09375 86.808594 89.988281 L 91.261719 85.636719 C 91.417969 85.480469 91.65625 85.4375 91.859375 85.523438 C 92.066406 85.609375 92.199219 85.808594 92.199219 86.03125 L 92.199219 87.9375 L 94.160156 87.9375 C 97.171875 87.9375 99.625 85.492188 99.625 82.484375 L 99.625 78.863281 C 99.625 78.554688 99.875 78.308594 100.179688 78.308594 C 100.484375 78.308594 100.730469 78.554688 100.730469 78.863281 L 100.730469 82.484375 C 100.730469 86.101562 97.785156 89.042969 94.160156 89.042969 L 91.644531 89.042969 C 91.339844 89.042969 91.09375 88.796875 91.09375 88.492188 L 91.09375 87.347656 L 87.984375 90.386719 L 91.09375 93.421875 L 91.09375 92.277344 C 91.09375 91.972656 91.339844 91.726562 91.644531 91.726562 L 94.160156 91.726562 C 99.257812 91.726562 103.410156 87.578125 103.410156 82.484375 L 103.410156 78.863281 C 103.410156 78.554688 103.65625 78.308594 103.960938 78.308594 C 104.265625 78.308594 104.515625 78.558594 104.515625 78.863281 L 104.515625 82.484375 C 104.515625 88.191406 99.867188 92.832031 94.160156 92.832031 L 92.199219 92.832031 L 92.199219 94.738281 C 92.199219 94.960938 92.066406 95.160156 91.859375 95.246094 C 91.792969 95.277344 91.71875 95.289062 91.644531 95.289062 Z M 91.644531 95.289062 " fill-opacity="1" fill-rule="nonzero"/><path fill="#ffffff" d="M 83.546875 54.761719 C 79.671875 61.496094 82.03125 70.128906 88.820312 74.042969 C 95.609375 77.960938 104.25 75.671875 108.125 68.9375 C 112 62.203125 109.636719 53.570312 102.851562 49.65625 C 96.0625 45.742188 87.421875 48.027344 83.546875 54.761719 Z M 83.546875 54.761719 " fill-opacity="1" fill-rule="nonzero"/><path fill="#19216d" d="M 95.921875 76.515625 C 93.359375 76.515625 90.828125 75.839844 88.542969 74.523438 C 85.132812 72.558594 82.6875 69.390625 81.652344 65.605469 C 80.617188 61.820312 81.121094 57.871094 83.066406 54.484375 C 85.015625 51.101562 88.175781 48.683594 91.964844 47.679688 C 95.753906 46.679688 99.71875 47.210938 103.128906 49.175781 C 106.539062 51.144531 108.984375 54.3125 110.019531 58.09375 C 111.054688 61.878906 110.550781 65.828125 108.605469 69.214844 C 106.65625 72.601562 103.496094 75.019531 99.707031 76.019531 C 98.457031 76.351562 97.183594 76.515625 95.921875 76.515625 Z M 95.746094 48.300781 C 91.058594 48.300781 86.511719 50.71875 84.027344 55.039062 C 80.308594 61.496094 82.585938 69.808594 89.097656 73.566406 C 91.25 74.808594 93.605469 75.398438 95.925781 75.398438 C 100.613281 75.398438 105.160156 72.984375 107.644531 68.664062 C 111.363281 62.203125 109.085938 53.894531 102.574219 50.136719 C 100.421875 48.894531 98.066406 48.300781 95.746094 48.300781 Z M 83.546875 54.761719 Z M 83.546875 54.761719 " fill-opacity="1" fill-rule="nonzero"/><path fill="#19216d" d="M 95.832031 63.472656 C 93.121094 63.472656 90.914062 61.28125 90.914062 58.589844 C 90.914062 55.898438 93.121094 53.707031 95.832031 53.707031 C 98.542969 53.707031 100.75 55.898438 100.75 58.589844 C 100.75 61.28125 98.542969 63.472656 95.832031 63.472656 Z M 95.832031 54.8125 C 93.730469 54.8125 92.023438 56.507812 92.023438 58.589844 C 92.023438 60.671875 93.730469 62.367188 95.832031 62.367188 C 97.933594 62.367188 99.644531 60.671875 99.644531 58.589844 C 99.644531 56.507812 97.933594 54.8125 95.832031 54.8125 Z M 95.832031 54.8125 " fill-opacity="1" fill-rule="nonzero"/><path fill="#ffeb85" d="M 103.679688 69.808594 C 102.3125 66.863281 99.3125 64.824219 95.832031 64.824219 C 92.359375 64.824219 89.363281 66.859375 87.992188 69.792969 Z M 103.679688 69.808594 " fill-opacity="1" fill-rule="nonzero"/><path fill="#19216d" d="M 103.679688 70.359375 C 103.472656 70.359375 103.273438 70.242188 103.179688 70.039062 C 101.863281 67.207031 98.976562 65.375 95.832031 65.375 C 92.691406 65.375 89.8125 67.203125 88.492188 70.027344 C 88.363281 70.304688 88.035156 70.425781 87.757812 70.296875 C 87.480469 70.167969 87.363281 69.835938 87.492188 69.558594 C 88.21875 68.003906 89.371094 66.683594 90.824219 65.742188 C 92.3125 64.777344 94.046875 64.269531 95.832031 64.269531 C 97.621094 64.269531 99.355469 64.78125 100.847656 65.746094 C 102.304688 66.6875 103.457031 68.011719 104.179688 69.574219 C 104.308594 69.851562 104.191406 70.179688 103.914062 70.308594 C 103.835938 70.34375 103.757812 70.359375 103.679688 70.359375 Z M 103.679688 70.359375 " fill-opacity="1" fill-rule="nonzero"/><path fill="#ffffff" d="M 56.320312 80.210938 C 52.445312 86.945312 54.804688 95.578125 61.59375 99.492188 C 68.378906 103.410156 77.023438 101.121094 80.898438 94.386719 C 84.773438 87.652344 82.410156 79.019531 75.625 75.105469 C 68.835938 71.191406 60.195312 73.476562 56.320312 80.210938 Z M 56.320312 80.210938 " fill-opacity="1" fill-rule="nonzero"/><path fill="#19216d" d="M 68.695312 101.964844 C 66.132812 101.964844 63.601562 101.289062 61.316406 99.972656 C 57.90625 98.007812 55.460938 94.839844 54.425781 91.054688 C 53.390625 87.269531 53.890625 83.320312 55.839844 79.933594 C 57.789062 76.550781 60.949219 74.132812 64.738281 73.128906 C 68.527344 72.128906 72.492188 72.660156 75.898438 74.625 C 79.308594 76.59375 81.757812 79.761719 82.792969 83.542969 C 83.828125 87.328125 83.324219 91.277344 81.378906 94.664062 C 79.429688 98.050781 76.269531 100.46875 72.480469 101.46875 C 71.226562 101.800781 69.957031 101.964844 68.695312 101.964844 Z M 56.796875 80.488281 C 55 83.617188 54.535156 87.265625 55.492188 90.761719 C 56.449219 94.265625 58.714844 97.195312 61.867188 99.015625 C 65.023438 100.832031 68.691406 101.324219 72.195312 100.398438 C 75.699219 99.472656 78.621094 97.238281 80.417969 94.113281 C 84.136719 87.652344 81.859375 79.339844 75.347656 75.585938 C 68.835938 71.828125 60.515625 74.027344 56.796875 80.488281 Z M 56.796875 80.488281 " fill-opacity="1" fill-rule="nonzero"/><path fill="#19216d" d="M 68.605469 88.921875 C 65.894531 88.921875 63.6875 86.730469 63.6875 84.039062 C 63.6875 81.347656 65.894531 79.15625 68.605469 79.15625 C 71.316406 79.15625 73.523438 81.347656 73.523438 84.039062 C 73.523438 86.730469 71.316406 88.921875 68.605469 88.921875 Z M 68.605469 80.261719 C 66.503906 80.261719 64.792969 81.957031 64.792969 84.039062 C 64.792969 86.121094 66.503906 87.816406 68.605469 87.816406 C 70.707031 87.816406 72.417969 86.121094 72.417969 84.039062 C 72.417969 81.957031 70.707031 80.261719 68.605469 80.261719 Z M 68.605469 80.261719 " fill-opacity="1" fill-rule="nonzero"/><path fill="#6eabf4" d="M 76.453125 95.257812 C 75.085938 92.3125 72.085938 90.273438 68.605469 90.273438 C 65.128906 90.273438 62.132812 92.308594 60.765625 95.242188 Z M 76.453125 95.257812 " fill-opacity="1" fill-rule="nonzero"/><path fill="#19216d" d="M 76.453125 95.808594 C 76.242188 95.808594 76.042969 95.691406 75.949219 95.488281 C 74.632812 92.65625 71.75 90.824219 68.605469 90.824219 C 65.464844 90.824219 62.585938 92.652344 61.265625 95.476562 C 61.136719 95.753906 60.808594 95.875 60.53125 95.746094 C 60.253906 95.617188 60.132812 95.285156 60.265625 95.007812 C 60.992188 93.453125 62.144531 92.132812 63.59375 91.191406 C 65.085938 90.226562 66.816406 89.71875 68.605469 89.71875 C 70.394531 89.71875 72.128906 90.230469 73.621094 91.195312 C 75.074219 92.136719 76.226562 93.460938 76.953125 95.023438 C 77.082031 95.300781 76.960938 95.628906 76.683594 95.757812 C 76.609375 95.792969 76.53125 95.808594 76.453125 95.808594 Z M 76.453125 95.808594 " fill-opacity="1" fill-rule="nonzero"/><path fill="#ffeb85" d="M 53.410156 2.519531 L 53.40625 2.519531 C 53.730469 1.949219 53.914062 1.289062 53.914062 0.589844 L 42.121094 0.589844 C 38.480469 0.589844 35.527344 3.542969 35.527344 7.1875 L 35.527344 13.25 L 56.539062 13.1875 L 56.539062 7.167969 C 56.539062 4.761719 55.1875 3.078125 53.410156 2.519531 Z M 53.410156 2.519531 " fill-opacity="1" fill-rule="nonzero"/><path fill="#19216d" d="M 35.527344 13.804688 C 35.382812 13.804688 35.242188 13.746094 35.136719 13.644531 C 35.035156 13.539062 34.976562 13.398438 34.976562 13.25 L 34.976562 7.1875 C 34.976562 3.246094 38.179688 0.0351562 42.121094 0.0351562 L 53.914062 0.0351562 C 54.21875 0.0351562 54.46875 0.28125 54.46875 0.589844 C 54.46875 1.144531 54.363281 1.699219 54.160156 2.214844 C 54.929688 2.570312 55.589844 3.121094 56.09375 3.832031 C 56.746094 4.753906 57.09375 5.910156 57.09375 7.167969 L 57.09375 13.1875 C 57.09375 13.492188 56.847656 13.738281 56.542969 13.738281 L 35.53125 13.804688 C 35.527344 13.804688 35.527344 13.804688 35.527344 13.804688 Z M 42.121094 1.140625 C 38.789062 1.140625 36.082031 3.855469 36.082031 7.1875 L 36.082031 12.695312 L 55.988281 12.632812 L 55.988281 7.167969 C 55.988281 5.171875 54.953125 3.601562 53.28125 3.058594 C 53.160156 3.03125 53.050781 2.960938 52.972656 2.859375 C 52.835938 2.683594 52.816406 2.441406 52.925781 2.25 C 53.121094 1.902344 53.25 1.527344 53.316406 1.140625 Z M 42.121094 1.140625 " fill-opacity="1" fill-rule="nonzero"/><path fill="#ffffff" d="M 54.042969 12.058594 L 54.042969 11.171875 C 54.042969 7.503906 51.070312 4.527344 47.40625 4.527344 L 44.671875 4.527344 C 41.003906 4.527344 38.035156 7.503906 38.035156 11.171875 L 38.035156 12.058594 C 36.214844 12.085938 34.746094 13.570312 34.746094 15.398438 C 34.746094 17.226562 36.214844 18.710938 38.035156 18.734375 L 38.035156 19.007812 C 38.035156 23.015625 41.28125 26.265625 45.285156 26.265625 L 46.789062 26.265625 C 50.796875 26.265625 54.042969 23.015625 54.042969 19.007812 L 54.042969 18.738281 C 55.882812 18.738281 57.378906 17.242188 57.378906 15.398438 C 57.378906 13.554688 55.882812 12.058594 54.042969 12.058594 Z M 54.042969 12.058594 " fill-opacity="1" fill-rule="nonzero"/><path fill="#19216d" d="M 46.789062 26.820312 L 45.285156 26.820312 C 41.0625 26.820312 37.609375 23.441406 37.484375 19.242188 C 36.664062 19.117188 35.910156 18.734375 35.316406 18.132812 C 34.59375 17.398438 34.195312 16.425781 34.195312 15.398438 C 34.195312 14.367188 34.59375 13.398438 35.316406 12.664062 C 35.90625 12.0625 36.664062 11.679688 37.480469 11.550781 L 37.480469 11.171875 C 37.480469 7.203125 40.707031 3.972656 44.671875 3.972656 L 47.40625 3.972656 C 51.371094 3.972656 54.59375 7.203125 54.59375 11.171875 L 54.59375 11.542969 C 56.476562 11.8125 57.929688 13.4375 57.929688 15.398438 C 57.929688 17.359375 56.476562 18.984375 54.589844 19.25 C 54.460938 23.449219 51.011719 26.820312 46.789062 26.820312 Z M 44.671875 5.082031 C 41.316406 5.082031 38.585938 7.8125 38.585938 11.171875 L 38.585938 12.058594 C 38.585938 12.363281 38.34375 12.609375 38.042969 12.613281 C 36.53125 12.636719 35.300781 13.882812 35.300781 15.398438 C 35.300781 16.910156 36.53125 18.160156 38.042969 18.179688 C 38.34375 18.183594 38.585938 18.433594 38.585938 18.734375 L 38.585938 19.007812 C 38.585938 22.703125 41.59375 25.714844 45.285156 25.714844 L 46.789062 25.714844 C 50.484375 25.714844 53.488281 22.703125 53.488281 19.007812 L 53.488281 18.738281 C 53.488281 18.429688 53.738281 18.183594 54.042969 18.183594 C 55.578125 18.183594 56.824219 16.933594 56.824219 15.398438 C 56.824219 13.863281 55.578125 12.613281 54.042969 12.613281 C 53.738281 12.613281 53.488281 12.363281 53.488281 12.058594 L 53.488281 11.171875 C 53.488281 7.8125 50.761719 5.082031 47.40625 5.082031 Z M 44.671875 5.082031 " fill-opacity="1" fill-rule="nonzero"/><path fill="#ffeb85" d="M 31.632812 49.949219 L 31.605469 41.628906 C 31.605469 35.300781 36.65625 29.769531 42.917969 29.515625 L 49.601562 29.515625 C 55.863281 29.769531 61.574219 35.300781 61.574219 41.628906 L 61.574219 42.289062 L 61.5625 44.589844 L 61.574219 42.289062 L 66.984375 42.289062 L 66.984375 49.949219 Z M 31.632812 49.949219 " fill-opacity="1" fill-rule="nonzero"/><path fill="#19216d" d="M 31.632812 50.503906 C 31.328125 50.503906 31.078125 50.257812 31.078125 49.953125 L 31.050781 41.632812 C 31.050781 38.414062 32.28125 35.320312 34.507812 32.917969 C 36.753906 30.496094 39.734375 29.089844 42.894531 28.960938 C 42.902344 28.960938 42.910156 28.960938 42.917969 28.960938 L 49.601562 28.960938 C 49.609375 28.960938 49.617188 28.960938 49.625 28.960938 C 52.773438 29.089844 55.945312 30.527344 58.328125 32.902344 C 59.503906 34.078125 60.433594 35.414062 61.089844 36.875 C 61.777344 38.414062 62.128906 40.011719 62.128906 41.628906 L 62.128906 41.734375 L 66.984375 41.734375 C 67.289062 41.734375 67.535156 41.980469 67.535156 42.289062 L 67.535156 49.949219 C 67.535156 50.257812 67.289062 50.503906 66.984375 50.503906 C 66.675781 50.503906 66.429688 50.257812 66.429688 49.949219 L 66.429688 42.839844 L 62.125 42.839844 L 62.117188 44.589844 C 62.113281 44.898438 61.863281 45.144531 61.558594 45.140625 C 61.253906 45.140625 61.007812 44.890625 61.011719 44.585938 L 61.023438 41.625 C 61.023438 35.722656 55.683594 30.324219 49.589844 30.070312 L 42.929688 30.070312 C 36.988281 30.316406 32.160156 35.5 32.160156 41.628906 L 32.183594 49.949219 C 32.183594 50.253906 31.9375 50.503906 31.632812 50.503906 Z M 31.632812 50.503906 " fill-opacity="1" fill-rule="nonzero"/><path fill="#ffffff" d="M 76.914062 35.128906 L 73.347656 38.082031 C 73.167969 38.234375 72.945312 38.324219 72.710938 38.34375 L 66.984375 39.601562 L 66.984375 42.289062 L 61.574219 42.289062 L 61.574219 37.976562 C 61.574219 36.761719 62.53125 35.765625 63.722656 35.742188 L 72.171875 35.5625 L 75.125 33.570312 C 75.9375 33.023438 77.195312 33.644531 76.914062 35.128906 Z M 76.914062 35.128906 " fill-opacity="1" fill-rule="nonzero"/><path fill="#19216d" d="M 66.984375 42.839844 L 61.574219 42.839844 C 61.269531 42.839844 61.023438 42.59375 61.023438 42.289062 L 61.023438 37.976562 C 61.023438 37.246094 61.300781 36.554688 61.804688 36.03125 C 62.308594 35.503906 62.984375 35.203125 63.710938 35.1875 L 71.996094 35.015625 L 74.816406 33.109375 C 75.386719 32.726562 76.125 32.722656 76.699219 33.101562 C 77.347656 33.527344 77.628906 34.324219 77.457031 35.234375 C 77.433594 35.359375 77.363281 35.472656 77.265625 35.554688 L 73.699219 38.507812 C 73.445312 38.722656 73.132812 38.855469 72.796875 38.890625 L 67.535156 40.046875 L 67.535156 42.289062 C 67.535156 42.59375 67.289062 42.839844 66.984375 42.839844 Z M 62.128906 41.734375 L 66.429688 41.734375 L 66.429688 39.601562 C 66.429688 39.339844 66.609375 39.117188 66.863281 39.058594 L 72.59375 37.800781 C 72.617188 37.796875 72.640625 37.792969 72.664062 37.789062 C 72.785156 37.78125 72.898438 37.734375 72.992188 37.65625 L 76.394531 34.839844 C 76.425781 34.46875 76.320312 34.175781 76.089844 34.023438 C 75.890625 33.894531 75.632812 33.894531 75.433594 34.03125 L 72.480469 36.023438 C 72.390625 36.082031 72.289062 36.117188 72.183594 36.117188 L 63.734375 36.296875 C 62.847656 36.3125 62.128906 37.070312 62.128906 37.976562 Z M 76.914062 35.128906 Z M 76.914062 35.128906 " fill-opacity="1" fill-rule="nonzero"/><path fill="#19216d" d="M 46.261719 22.390625 C 45.183594 22.390625 44.109375 21.984375 43.292969 21.164062 C 43.074219 20.945312 43.074219 20.597656 43.292969 20.378906 C 43.507812 20.164062 43.855469 20.164062 44.074219 20.378906 C 45.277344 21.585938 47.242188 21.585938 48.449219 20.378906 C 48.664062 20.164062 49.015625 20.164062 49.230469 20.378906 C 49.445312 20.597656 49.445312 20.945312 49.230469 21.164062 C 48.410156 21.980469 47.335938 22.390625 46.261719 22.390625 Z M 46.261719 22.390625 " fill-opacity="1" fill-rule="nonzero"/><path fill="#19216d" d="M 55.753906 50.503906 C 55.449219 50.503906 55.203125 50.253906 55.203125 49.949219 L 55.203125 39.570312 C 55.203125 39.265625 55.449219 39.019531 55.753906 39.019531 C 56.058594 39.019531 56.308594 39.265625 56.308594 39.570312 L 56.308594 49.949219 C 56.308594 50.253906 56.058594 50.503906 55.753906 50.503906 Z M 55.753906 50.503906 " fill-opacity="1" fill-rule="nonzero"/><path fill="#ffffff" d="M 79.519531 22.832031 L 79.519531 20.648438 C 79.519531 20.242188 79.191406 19.914062 78.785156 19.914062 L 77.183594 19.914062 C 76.949219 18.695312 76.492188 17.632812 75.867188 16.671875 L 76.886719 15.640625 C 77.167969 15.355469 77.167969 14.890625 76.882812 14.605469 L 75.285156 13 C 74.992188 12.703125 74.515625 12.710938 74.230469 13.011719 L 73.316406 13.984375 C 72.355469 13.347656 71 12.878906 70.1875 12.636719 L 70.1875 11.304688 C 70.1875 10.902344 69.859375 10.570312 69.453125 10.570312 L 66.867188 10.570312 C 66.460938 10.570312 66.132812 10.902344 66.132812 11.304688 L 66.132812 12.636719 C 64.914062 12.878906 63.941406 13.34375 62.976562 13.980469 L 62.003906 12.984375 C 61.71875 12.695312 61.25 12.691406 60.960938 12.980469 L 59.363281 14.589844 C 59.082031 14.875 59.082031 15.339844 59.363281 15.625 L 60.394531 16.671875 C 59.765625 17.632812 59.320312 18.695312 59.082031 19.914062 L 57.535156 19.914062 C 57.128906 19.914062 56.800781 20.242188 56.800781 20.648438 L 56.800781 22.832031 C 56.800781 23.238281 57.128906 23.570312 57.535156 23.570312 L 59.101562 23.570312 C 59.34375 24.789062 59.800781 25.820312 60.433594 26.769531 L 59.382812 27.828125 C 59.097656 28.113281 59.097656 28.578125 59.386719 28.863281 L 60.988281 30.472656 C 61.277344 30.765625 61.753906 30.757812 62.039062 30.460938 L 63.027344 29.433594 C 63.976562 30.054688 64.914062 30.507812 66.132812 30.746094 L 66.132812 32.175781 C 66.132812 32.582031 66.460938 32.910156 66.867188 32.910156 L 69.453125 32.910156 C 69.859375 32.910156 70.1875 32.582031 70.1875 32.175781 L 70.1875 30.746094 C 71 30.507812 72.316406 30.054688 73.269531 29.433594 L 74.273438 30.46875 C 74.558594 30.765625 75.03125 30.769531 75.320312 30.476562 L 76.90625 28.875 C 77.191406 28.585938 77.191406 28.125 76.90625 27.839844 L 75.847656 26.769531 C 76.476562 25.820312 76.925781 24.789062 77.167969 23.570312 C 77.167969 23.570312 78.09375 23.570312 78.785156 23.570312 C 79.191406 23.570312 79.519531 23.238281 79.519531 22.832031 Z M 79.519531 22.832031 " fill-opacity="1" fill-rule="nonzero"/><path fill="#19216d" d="M 69.453125 33.464844 L 66.867188 33.464844 C 66.15625 33.464844 65.578125 32.886719 65.578125 32.175781 L 65.578125 31.191406 C 64.726562 30.980469 63.953125 30.648438 63.113281 30.140625 L 62.4375 30.84375 C 62.195312 31.097656 61.867188 31.238281 61.519531 31.242188 C 61.515625 31.242188 61.511719 31.242188 61.507812 31.242188 C 61.164062 31.242188 60.839844 31.105469 60.597656 30.863281 L 58.992188 29.253906 C 58.496094 28.753906 58.492188 27.9375 58.992188 27.4375 L 59.730469 26.695312 C 59.238281 25.875 58.882812 25.027344 58.65625 24.121094 L 57.535156 24.121094 C 56.828125 24.121094 56.25 23.542969 56.25 22.832031 L 56.25 20.648438 C 56.25 19.9375 56.828125 19.359375 57.535156 19.359375 L 58.636719 19.359375 C 58.859375 18.429688 59.207031 17.570312 59.695312 16.75 L 58.96875 16.015625 C 58.476562 15.511719 58.476562 14.699219 58.972656 14.199219 L 60.570312 12.59375 C 60.8125 12.347656 61.136719 12.210938 61.480469 12.210938 C 61.484375 12.210938 61.484375 12.210938 61.488281 12.210938 C 61.832031 12.214844 62.15625 12.351562 62.402344 12.597656 L 63.058594 13.273438 C 63.902344 12.757812 64.707031 12.414062 65.578125 12.195312 L 65.578125 11.308594 C 65.578125 10.597656 66.15625 10.019531 66.867188 10.019531 L 69.453125 10.019531 C 70.164062 10.019531 70.742188 10.597656 70.742188 11.308594 L 70.742188 12.230469 C 71.433594 12.453125 72.398438 12.808594 73.222656 13.277344 L 73.828125 12.632812 C 74.070312 12.378906 74.394531 12.234375 74.746094 12.230469 C 75.097656 12.226562 75.429688 12.359375 75.675781 12.609375 L 77.273438 14.214844 C 77.773438 14.714844 77.773438 15.527344 77.277344 16.03125 L 76.566406 16.75 C 77.054688 17.578125 77.40625 18.4375 77.628906 19.359375 L 78.785156 19.359375 C 79.496094 19.359375 80.070312 19.9375 80.070312 20.648438 L 80.070312 22.832031 C 80.070312 23.542969 79.496094 24.121094 78.785156 24.121094 L 77.609375 24.121094 C 77.382812 25.035156 77.035156 25.882812 76.550781 26.691406 L 77.300781 27.449219 C 77.796875 27.949219 77.796875 28.761719 77.300781 29.265625 L 75.714844 30.867188 C 75.472656 31.113281 75.144531 31.246094 74.800781 31.246094 C 74.796875 31.246094 74.796875 31.246094 74.792969 31.246094 C 74.445312 31.246094 74.121094 31.105469 73.875 30.855469 L 73.179688 30.136719 C 72.363281 30.59375 71.421875 30.941406 70.742188 31.15625 L 70.742188 32.175781 C 70.742188 32.886719 70.164062 33.464844 69.453125 33.464844 Z M 63.027344 28.878906 C 63.128906 28.878906 63.234375 28.90625 63.328125 28.96875 C 64.347656 29.632812 65.214844 30.003906 66.238281 30.203125 C 66.496094 30.253906 66.683594 30.480469 66.683594 30.746094 L 66.683594 32.175781 C 66.683594 32.277344 66.765625 32.355469 66.867188 32.355469 L 69.453125 32.355469 C 69.554688 32.355469 69.636719 32.277344 69.636719 32.175781 L 69.636719 30.746094 C 69.636719 30.5 69.796875 30.285156 70.035156 30.214844 C 70.730469 30.011719 72.035156 29.578125 72.964844 28.972656 C 73.1875 28.824219 73.480469 28.859375 73.664062 29.046875 L 74.671875 30.085938 C 74.714844 30.132812 74.769531 30.140625 74.800781 30.140625 C 74.828125 30.140625 74.882812 30.132812 74.929688 30.085938 L 76.515625 28.484375 C 76.585938 28.414062 76.585938 28.300781 76.515625 28.226562 L 75.453125 27.160156 C 75.269531 26.976562 75.242188 26.683594 75.386719 26.464844 C 76.003906 25.535156 76.40625 24.550781 76.625 23.460938 C 76.675781 23.203125 76.902344 23.015625 77.167969 23.015625 L 78.785156 23.015625 C 78.886719 23.015625 78.964844 22.933594 78.964844 22.832031 L 78.964844 20.648438 C 78.964844 20.546875 78.886719 20.46875 78.785156 20.46875 L 77.183594 20.46875 C 76.917969 20.46875 76.691406 20.277344 76.640625 20.019531 C 76.429688 18.921875 76.023438 17.925781 75.402344 16.972656 C 75.261719 16.753906 75.289062 16.46875 75.472656 16.28125 L 76.492188 15.25 C 76.5625 15.179688 76.5625 15.066406 76.492188 14.996094 L 74.894531 13.390625 C 74.847656 13.34375 74.792969 13.335938 74.761719 13.335938 C 74.734375 13.335938 74.679688 13.34375 74.632812 13.394531 L 73.71875 14.363281 C 73.535156 14.5625 73.234375 14.59375 73.011719 14.445312 C 72.078125 13.828125 70.746094 13.382812 70.03125 13.167969 C 69.796875 13.101562 69.636719 12.882812 69.636719 12.640625 L 69.636719 11.308594 C 69.636719 11.207031 69.554688 11.125 69.453125 11.125 L 66.867188 11.125 C 66.765625 11.125 66.683594 11.207031 66.683594 11.308594 L 66.683594 12.640625 C 66.683594 12.902344 66.5 13.128906 66.238281 13.183594 C 65.199219 13.386719 64.289062 13.777344 63.285156 14.441406 C 63.0625 14.589844 62.769531 14.558594 62.582031 14.367188 L 61.609375 13.375 C 61.566406 13.328125 61.511719 13.320312 61.480469 13.320312 C 61.453125 13.320312 61.398438 13.328125 61.355469 13.371094 L 59.757812 14.980469 C 59.6875 15.050781 59.6875 15.167969 59.757812 15.238281 L 60.785156 16.28125 C 60.96875 16.46875 61 16.757812 60.855469 16.972656 C 60.242188 17.914062 59.839844 18.910156 59.625 20.019531 C 59.574219 20.277344 59.347656 20.46875 59.082031 20.46875 L 57.535156 20.46875 C 57.4375 20.46875 57.355469 20.546875 57.355469 20.648438 L 57.355469 22.832031 C 57.355469 22.933594 57.4375 23.015625 57.535156 23.015625 L 59.101562 23.015625 C 59.363281 23.015625 59.589844 23.203125 59.640625 23.460938 C 59.855469 24.535156 60.265625 25.515625 60.894531 26.464844 C 61.039062 26.683594 61.007812 26.976562 60.824219 27.160156 L 59.777344 28.214844 C 59.707031 28.289062 59.707031 28.402344 59.777344 28.472656 L 61.378906 30.082031 C 61.425781 30.128906 61.480469 30.132812 61.507812 30.132812 C 61.539062 30.132812 61.59375 30.125 61.636719 30.078125 L 62.625 29.046875 C 62.734375 28.9375 62.878906 28.878906 63.027344 28.878906 Z M 63.027344 28.878906 " fill-opacity="1" fill-rule="nonzero"/><path fill="#ffffff" d="M 63.921875 21.042969 L 68.011719 26.074219 L 72.855469 18.246094 Z M 63.921875 21.042969 " fill-opacity="1" fill-rule="nonzero"/><path fill="#19216d" d="M 68.011719 26.628906 C 67.847656 26.628906 67.6875 26.554688 67.582031 26.425781 L 63.492188 21.394531 C 63.300781 21.15625 63.335938 20.808594 63.570312 20.617188 C 63.808594 20.421875 64.15625 20.457031 64.351562 20.695312 L 67.949219 25.125 L 72.386719 17.953125 C 72.546875 17.691406 72.886719 17.613281 73.144531 17.773438 C 73.40625 17.933594 73.484375 18.277344 73.324219 18.535156 L 68.480469 26.367188 C 68.386719 26.519531 68.226562 26.617188 68.046875 26.628906 C 68.035156 26.628906 68.023438 26.628906 68.011719 26.628906 Z M 68.011719 26.628906 " fill-opacity="1" fill-rule="nonzero"/><path fill="#6eabf4" d="M 12.597656 44.5625 L 12.597656 51.632812 C 12.597656 52.109375 12.984375 52.496094 13.460938 52.496094 L 32.808594 52.496094 C 33.285156 52.496094 33.671875 52.109375 33.671875 51.632812 L 33.671875 44.5625 Z M 12.597656 44.5625 " fill-opacity="1" fill-rule="nonzero"/><path fill="#19216d" d="M 32.808594 53.050781 L 13.460938 53.050781 C 12.679688 53.050781 12.046875 52.414062 12.046875 51.632812 L 12.046875 44.5625 C 12.046875 44.257812 12.292969 44.007812 12.597656 44.007812 C 12.902344 44.007812 13.152344 44.257812 13.152344 44.5625 L 13.152344 51.632812 C 13.152344 51.804688 13.289062 51.941406 13.460938 51.941406 L 32.808594 51.941406 C 32.980469 51.941406 33.117188 51.804688 33.117188 51.632812 L 33.117188 44.5625 C 33.117188 44.257812 33.367188 44.007812 33.671875 44.007812 C 33.976562 44.007812 34.222656 44.257812 34.222656 44.5625 L 34.222656 51.632812 C 34.222656 52.414062 33.589844 53.050781 32.808594 53.050781 Z M 32.808594 53.050781 " fill-opacity="1" fill-rule="nonzero"/><path fill="#ffffff" d="M 29.125 35.976562 L 29.125 33.484375 C 29.125 32.410156 28.253906 31.539062 27.183594 31.539062 L 19.085938 31.539062 C 18.015625 31.539062 17.144531 32.410156 17.144531 33.484375 L 17.144531 35.976562 Z M 29.125 35.976562 " fill-opacity="1" fill-rule="nonzero"/><path fill="#19216d" d="M 29.125 36.527344 C 28.820312 36.527344 28.574219 36.28125 28.574219 35.976562 L 28.574219 33.484375 C 28.574219 32.714844 27.949219 32.089844 27.183594 32.089844 L 19.085938 32.089844 C 18.320312 32.089844 17.695312 32.714844 17.695312 33.484375 L 17.695312 35.976562 C 17.695312 36.28125 17.449219 36.527344 17.144531 36.527344 C 16.839844 36.527344 16.589844 36.28125 16.589844 35.976562 L 16.589844 33.484375 C 16.589844 32.105469 17.710938 30.984375 19.085938 30.984375 L 27.183594 30.984375 C 28.558594 30.984375 29.679688 32.105469 29.679688 33.484375 L 29.679688 35.976562 C 29.679688 36.28125 29.429688 36.527344 29.125 36.527344 Z M 29.125 36.527344 " fill-opacity="1" fill-rule="nonzero"/><path fill="#6eabf4" d="M 26.300781 44.5625 L 33.804688 44.5625 C 34.28125 44.5625 34.667969 44.175781 34.667969 43.699219 L 34.667969 36.839844 C 34.667969 36.363281 34.28125 35.976562 33.804688 35.976562 L 12.464844 35.976562 C 11.988281 35.976562 11.601562 36.363281 11.601562 36.839844 L 11.601562 43.699219 C 11.601562 44.175781 11.988281 44.5625 12.464844 44.5625 Z M 26.300781 44.5625 " fill-opacity="1" fill-rule="nonzero"/><path fill="#19216d" d="M 33.804688 45.113281 L 26.300781 45.113281 C 25.996094 45.113281 25.75 44.867188 25.75 44.5625 C 25.75 44.257812 25.996094 44.007812 26.300781 44.007812 L 33.804688 44.007812 C 33.976562 44.007812 34.113281 43.867188 34.113281 43.699219 L 34.113281 36.839844 C 34.113281 36.667969 33.976562 36.527344 33.804688 36.527344 L 12.464844 36.527344 C 12.292969 36.527344 12.15625 36.667969 12.15625 36.839844 L 12.15625 43.699219 C 12.15625 43.867188 12.292969 44.007812 12.464844 44.007812 L 19.96875 44.007812 C 20.273438 44.007812 20.519531 44.257812 20.519531 44.5625 C 20.519531 44.867188 20.273438 45.113281 19.96875 45.113281 L 12.464844 45.113281 C 11.683594 45.113281 11.050781 44.480469 11.050781 43.699219 L 11.050781 36.839844 C 11.050781 36.058594 11.683594 35.421875 12.464844 35.421875 L 33.804688 35.421875 C 34.585938 35.421875 35.21875 36.058594 35.21875 36.839844 L 35.21875 43.699219 C 35.21875 44.480469 34.585938 45.113281 33.804688 45.113281 Z M 33.804688 45.113281 " fill-opacity="1" fill-rule="nonzero"/><path fill="#ffffff" d="M 20.832031 46.695312 L 25.4375 46.695312 C 25.914062 46.695312 26.300781 46.308594 26.300781 45.832031 L 26.300781 43.289062 C 26.300781 42.8125 25.914062 42.425781 25.4375 42.425781 L 20.832031 42.425781 C 20.355469 42.425781 19.96875 42.8125 19.96875 43.289062 L 19.96875 45.832031 C 19.96875 46.308594 20.355469 46.695312 20.832031 46.695312 Z M 20.832031 46.695312 " fill-opacity="1" fill-rule="nonzero"/><path fill="#19216d" d="M 25.4375 47.25 L 20.832031 47.25 C 20.050781 47.25 19.414062 46.613281 19.414062 45.832031 L 19.414062 43.289062 C 19.414062 42.507812 20.050781 41.875 20.832031 41.875 L 25.4375 41.875 C 26.21875 41.875 26.855469 42.507812 26.855469 43.289062 L 26.855469 45.832031 C 26.855469 46.613281 26.21875 47.25 25.4375 47.25 Z M 20.832031 42.980469 C 20.660156 42.980469 20.519531 43.121094 20.519531 43.289062 L 20.519531 45.832031 C 20.519531 46.003906 20.660156 46.144531 20.832031 46.144531 L 25.4375 46.144531 C 25.609375 46.144531 25.75 46.003906 25.75 45.832031 L 25.75 43.289062 C 25.75 43.121094 25.609375 42.980469 25.4375 42.980469 Z M 20.832031 42.980469 " fill-opacity="1" fill-rule="nonzero"/></svg>