<svg xmlns="http://www.w3.org/2000/svg" xmlns:xlink="http://www.w3.org/1999/xlink" width="150" zoomAndPan="magnify" viewBox="0 0 112.5 112.499997" height="150" preserveAspectRatio="xMidYMid meet" version="1.0"><path fill="#caddff" d="M 27.667969 11.15625 C 47.917969 0.00390625 75.046875 11.589844 89.183594 24.4375 C 93.222656 28.109375 103.015625 37.265625 105.324219 51.941406 C 108.199219 70.167969 98.796875 92.265625 77.234375 101.714844 C 53.761719 112.003906 27.519531 102.253906 15.238281 86.429688 C 3.75 71.628906 6.050781 54.199219 6.871094 47.976562 C 7.835938 40.671875 10.703125 20.503906 27.667969 11.15625 " fill-opacity="1" fill-rule="nonzero"/><path fill="#ffffff" d="M 89.878906 106.386719 L 84.3125 106.386719 L 84.3125 37.902344 L 89.824219 37.515625 L 89.878906 106.386719 " fill-opacity="1" fill-rule="nonzero"/><path fill="#000000" d="M 84.492188 106.203125 L 89.699219 106.203125 L 89.644531 37.707031 L 84.492188 38.070312 Z M 89.878906 106.566406 L 84.3125 106.566406 C 84.210938 106.566406 84.132812 106.484375 84.132812 106.386719 L 84.132812 37.902344 C 84.132812 37.808594 84.203125 37.730469 84.300781 37.722656 L 89.8125 37.335938 C 89.863281 37.332031 89.910156 37.347656 89.949219 37.382812 C 89.984375 37.417969 90.003906 37.464844 90.003906 37.515625 L 90.058594 106.386719 C 90.058594 106.433594 90.042969 106.480469 90.007812 106.511719 C 89.972656 106.546875 89.929688 106.566406 89.878906 106.566406 " fill-opacity="1" fill-rule="nonzero"/><path fill="#99b9ff" d="M 104.8125 106.386719 L 89.878906 106.386719 C 89.847656 106.386719 89.824219 106.351562 89.824219 106.308594 L 89.824219 37.59375 C 89.824219 37.550781 89.851562 37.515625 89.882812 37.519531 L 104.8125 38.304688 C 104.84375 38.308594 104.867188 38.34375 104.867188 38.382812 L 104.867188 106.308594 C 104.867188 106.351562 104.84375 106.386719 104.8125 106.386719 " fill-opacity="1" fill-rule="nonzero"/><path fill="#000000" d="M 90.003906 106.203125 L 104.6875 106.203125 L 104.6875 38.480469 L 90.003906 37.703125 Z M 104.8125 106.566406 L 89.878906 106.566406 C 89.746094 106.566406 89.644531 106.453125 89.644531 106.308594 L 89.644531 37.59375 C 89.644531 37.519531 89.671875 37.449219 89.726562 37.402344 C 89.769531 37.355469 89.832031 37.335938 89.890625 37.335938 L 104.824219 38.125 C 104.949219 38.132812 105.046875 38.246094 105.046875 38.382812 L 105.046875 106.308594 C 105.046875 106.453125 104.941406 106.566406 104.8125 106.566406 " fill-opacity="1" fill-rule="nonzero"/><path fill="#caddff" d="M 99.910156 70.664062 C 99.8125 70.664062 99.730469 70.582031 99.730469 70.484375 L 99.730469 42.675781 C 99.730469 42.574219 99.8125 42.496094 99.910156 42.496094 C 100.011719 42.496094 100.089844 42.574219 100.089844 42.675781 L 100.089844 70.484375 C 100.089844 70.582031 100.011719 70.664062 99.910156 70.664062 " fill-opacity="1" fill-rule="nonzero"/><path fill="#caddff" d="M 95.1875 60.753906 C 95.085938 60.753906 95.007812 60.675781 95.007812 60.574219 L 95.007812 52.371094 C 95.007812 52.269531 95.085938 52.191406 95.1875 52.191406 C 95.285156 52.191406 95.367188 52.269531 95.367188 52.371094 L 95.367188 60.574219 C 95.367188 60.675781 95.285156 60.753906 95.1875 60.753906 " fill-opacity="1" fill-rule="nonzero"/><path fill="#caddff" d="M 95.1875 88.886719 C 95.085938 88.886719 95.007812 88.804688 95.007812 88.707031 L 95.007812 74.550781 C 95.007812 74.449219 95.085938 74.371094 95.1875 74.371094 C 95.285156 74.371094 95.367188 74.449219 95.367188 74.550781 L 95.367188 88.707031 C 95.367188 88.804688 95.285156 88.886719 95.1875 88.886719 " fill-opacity="1" fill-rule="nonzero"/><path fill="#ffffff" d="M 71.101562 106.394531 L 65.558594 106.394531 L 65.558594 55.269531 L 71.070312 53.527344 L 71.101562 106.394531 " fill-opacity="1" fill-rule="nonzero"/><path fill="#000000" d="M 65.738281 106.210938 L 70.921875 106.210938 L 70.890625 53.773438 L 65.738281 55.398438 Z M 71.101562 106.574219 L 65.558594 106.574219 C 65.460938 106.574219 65.378906 106.492188 65.378906 106.394531 L 65.378906 55.269531 C 65.378906 55.1875 65.429688 55.121094 65.503906 55.09375 L 71.019531 53.351562 C 71.074219 53.335938 71.132812 53.347656 71.179688 53.378906 C 71.226562 53.414062 71.253906 53.46875 71.253906 53.527344 L 71.28125 106.394531 C 71.28125 106.441406 71.265625 106.488281 71.230469 106.519531 C 71.195312 106.554688 71.148438 106.574219 71.101562 106.574219 " fill-opacity="1" fill-rule="nonzero"/><path fill="#99b9ff" d="M 86.058594 106.394531 L 71.128906 106.394531 C 71.097656 106.394531 71.070312 106.367188 71.070312 106.332031 L 71.070312 53.585938 C 71.070312 53.554688 71.097656 53.527344 71.128906 53.527344 L 86.0625 54.132812 C 86.089844 54.132812 86.113281 54.160156 86.113281 54.191406 L 86.113281 106.332031 C 86.113281 106.367188 86.089844 106.394531 86.058594 106.394531 " fill-opacity="1" fill-rule="nonzero"/><path fill="#000000" d="M 71.253906 106.210938 L 85.933594 106.210938 L 85.933594 54.308594 L 71.253906 53.710938 Z M 86.058594 106.574219 L 71.128906 106.574219 C 71 106.574219 70.894531 106.464844 70.894531 106.332031 L 70.894531 53.585938 C 70.894531 53.523438 70.917969 53.457031 70.964844 53.414062 C 71.011719 53.367188 71.074219 53.34375 71.136719 53.347656 L 86.070312 53.953125 C 86.195312 53.957031 86.296875 54.0625 86.296875 54.191406 L 86.296875 106.332031 C 86.296875 106.464844 86.191406 106.574219 86.058594 106.574219 " fill-opacity="1" fill-rule="nonzero"/><path fill="#caddff" d="M 78.597656 81.207031 C 78.496094 81.207031 78.417969 81.128906 78.417969 81.027344 L 78.417969 57.609375 C 78.417969 57.511719 78.496094 57.429688 78.597656 57.429688 C 78.695312 57.429688 78.777344 57.511719 78.777344 57.609375 L 78.777344 81.027344 C 78.777344 81.128906 78.695312 81.207031 78.597656 81.207031 " fill-opacity="1" fill-rule="nonzero"/><path fill="#caddff" d="M 74.65625 65.433594 C 74.554688 65.433594 74.472656 65.351562 74.472656 65.25 L 74.472656 61.257812 C 74.472656 61.160156 74.554688 61.078125 74.65625 61.078125 C 74.753906 61.078125 74.835938 61.160156 74.835938 61.257812 L 74.835938 65.25 C 74.835938 65.351562 74.753906 65.433594 74.65625 65.433594 " fill-opacity="1" fill-rule="nonzero"/><path fill="#caddff" d="M 74.65625 91.917969 C 74.554688 91.917969 74.472656 91.835938 74.472656 91.738281 L 74.472656 71.855469 C 74.472656 71.753906 74.554688 71.671875 74.65625 71.671875 C 74.753906 71.671875 74.835938 71.753906 74.835938 71.855469 L 74.835938 91.738281 C 74.835938 91.835938 74.753906 91.917969 74.65625 91.917969 " fill-opacity="1" fill-rule="nonzero"/><path fill="#caddff" d="M 82.539062 73.300781 C 82.441406 73.300781 82.359375 73.222656 82.359375 73.121094 L 82.359375 69.128906 C 82.359375 69.03125 82.441406 68.949219 82.539062 68.949219 C 82.636719 68.949219 82.71875 69.03125 82.71875 69.128906 L 82.71875 73.121094 C 82.71875 73.222656 82.636719 73.300781 82.539062 73.300781 " fill-opacity="1" fill-rule="nonzero"/><path fill="#ffffff" d="M 52.457031 106.394531 L 46.945312 106.394531 L 46.945312 77.007812 L 52.457031 75.800781 L 52.457031 106.394531 " fill-opacity="1" fill-rule="nonzero"/><path fill="#000000" d="M 47.125 106.210938 L 52.277344 106.210938 L 52.277344 76.023438 L 47.125 77.15625 Z M 52.457031 106.574219 L 46.945312 106.574219 C 46.84375 106.574219 46.761719 106.492188 46.761719 106.394531 L 46.761719 77.007812 C 46.761719 76.925781 46.824219 76.851562 46.90625 76.832031 L 52.417969 75.625 C 52.472656 75.613281 52.527344 75.625 52.570312 75.660156 C 52.613281 75.695312 52.636719 75.746094 52.636719 75.800781 L 52.636719 106.394531 C 52.636719 106.492188 52.554688 106.574219 52.457031 106.574219 " fill-opacity="1" fill-rule="nonzero"/><path fill="#99b9ff" d="M 67.5 106.394531 L 52.457031 106.394531 L 52.457031 75.863281 C 52.457031 75.828125 52.484375 75.800781 52.519531 75.800781 L 67.5 76.304688 L 67.5 106.394531 " fill-opacity="1" fill-rule="nonzero"/><path fill="#000000" d="M 52.636719 106.210938 L 67.320312 106.210938 L 67.320312 76.480469 L 52.636719 75.988281 Z M 67.679688 106.574219 L 52.277344 106.574219 L 52.277344 75.863281 C 52.277344 75.796875 52.304688 75.734375 52.351562 75.691406 C 52.398438 75.644531 52.460938 75.621094 52.527344 75.621094 L 67.679688 76.128906 L 67.679688 106.574219 " fill-opacity="1" fill-rule="nonzero"/><path fill="#caddff" d="M 56.457031 97.863281 C 56.355469 97.863281 56.273438 97.78125 56.273438 97.683594 L 56.273438 79.457031 C 56.273438 79.355469 56.355469 79.273438 56.457031 79.273438 C 56.554688 79.273438 56.636719 79.355469 56.636719 79.457031 L 56.636719 97.683594 C 56.636719 97.78125 56.554688 97.863281 56.457031 97.863281 " fill-opacity="1" fill-rule="nonzero"/><path fill="#caddff" d="M 64.339844 99.996094 C 64.238281 99.996094 64.160156 99.914062 64.160156 99.8125 L 64.160156 81.585938 C 64.160156 81.488281 64.238281 81.40625 64.339844 81.40625 C 64.4375 81.40625 64.519531 81.488281 64.519531 81.585938 L 64.519531 99.8125 C 64.519531 99.914062 64.4375 99.996094 64.339844 99.996094 " fill-opacity="1" fill-rule="nonzero"/><path fill="#caddff" d="M 60.398438 92.851562 C 60.296875 92.851562 60.21875 92.773438 60.21875 92.671875 L 60.21875 88.941406 C 60.21875 88.84375 60.296875 88.761719 60.398438 88.761719 C 60.496094 88.761719 60.578125 88.84375 60.578125 88.941406 L 60.578125 92.671875 C 60.578125 92.773438 60.496094 92.851562 60.398438 92.851562 " fill-opacity="1" fill-rule="nonzero"/><path fill="#ffffff" d="M 33.917969 106.394531 L 28.351562 106.394531 L 28.351562 91.820312 L 33.867188 90.730469 L 33.917969 106.394531 " fill-opacity="1" fill-rule="nonzero"/><path fill="#000000" d="M 28.53125 106.210938 L 33.738281 106.210938 L 33.6875 90.953125 L 28.53125 91.96875 Z M 33.917969 106.574219 L 28.351562 106.574219 C 28.253906 106.574219 28.171875 106.492188 28.171875 106.394531 L 28.171875 91.820312 C 28.171875 91.734375 28.234375 91.660156 28.316406 91.644531 L 33.832031 90.554688 C 33.882812 90.546875 33.9375 90.558594 33.980469 90.59375 C 34.019531 90.625 34.046875 90.679688 34.046875 90.730469 L 34.097656 106.394531 C 34.097656 106.441406 34.078125 106.488281 34.046875 106.519531 C 34.011719 106.554688 33.964844 106.574219 33.917969 106.574219 " fill-opacity="1" fill-rule="nonzero"/><path fill="#99b9ff" d="M 48.855469 106.394531 L 33.917969 106.394531 C 33.890625 106.394531 33.867188 106.371094 33.867188 106.339844 L 33.867188 90.785156 C 33.867188 90.757812 33.890625 90.734375 33.917969 90.734375 L 48.855469 90.976562 C 48.886719 90.976562 48.90625 91 48.90625 91.03125 L 48.90625 106.339844 C 48.90625 106.371094 48.882812 106.394531 48.855469 106.394531 " fill-opacity="1" fill-rule="nonzero"/><path fill="#000000" d="M 34.046875 106.210938 L 48.726562 106.210938 L 48.726562 91.15625 L 34.046875 90.914062 Z M 48.855469 106.574219 L 33.917969 106.574219 C 33.789062 106.574219 33.683594 106.46875 33.683594 106.339844 L 33.683594 90.785156 C 33.683594 90.722656 33.710938 90.664062 33.753906 90.621094 C 33.800781 90.574219 33.859375 90.550781 33.921875 90.550781 L 48.859375 90.796875 C 48.984375 90.796875 49.089844 90.902344 49.089844 91.03125 L 49.089844 106.339844 C 49.089844 106.46875 48.984375 106.574219 48.855469 106.574219 " fill-opacity="1" fill-rule="nonzero"/><path fill="#caddff" d="M 44.363281 102.871094 C 44.261719 102.871094 44.179688 102.792969 44.179688 102.691406 L 44.179688 93.417969 C 44.179688 93.320312 44.261719 93.238281 44.363281 93.238281 C 44.460938 93.238281 44.542969 93.320312 44.542969 93.417969 L 44.542969 102.691406 C 44.542969 102.792969 44.460938 102.871094 44.363281 102.871094 " fill-opacity="1" fill-rule="nonzero"/><path fill="#caddff" d="M 39.636719 99.566406 C 39.539062 99.566406 39.457031 99.488281 39.457031 99.386719 L 39.457031 96.652344 C 39.457031 96.550781 39.539062 96.472656 39.636719 96.472656 C 39.738281 96.472656 39.820312 96.550781 39.820312 96.652344 L 39.820312 99.386719 C 39.820312 99.488281 39.738281 99.566406 39.636719 99.566406 " fill-opacity="1" fill-rule="nonzero"/><path fill="#ffffff" d="M 15.371094 106.394531 L 9.804688 106.394531 L 9.804688 98.761719 L 15.320312 97.832031 L 15.371094 106.394531 " fill-opacity="1" fill-rule="nonzero"/><path fill="#000000" d="M 9.984375 106.210938 L 15.191406 106.210938 L 15.140625 98.042969 L 9.984375 98.914062 Z M 15.371094 106.574219 L 9.804688 106.574219 C 9.707031 106.574219 9.625 106.492188 9.625 106.394531 L 9.625 98.761719 C 9.625 98.671875 9.6875 98.597656 9.777344 98.582031 L 15.289062 97.652344 C 15.339844 97.644531 15.394531 97.660156 15.433594 97.691406 C 15.476562 97.726562 15.5 97.777344 15.5 97.828125 L 15.550781 106.390625 C 15.550781 106.441406 15.53125 106.484375 15.5 106.519531 C 15.464844 106.554688 15.417969 106.574219 15.371094 106.574219 " fill-opacity="1" fill-rule="nonzero"/><path fill="#99b9ff" d="M 30.308594 106.394531 L 15.371094 106.394531 C 15.34375 106.394531 15.320312 106.378906 15.320312 106.363281 L 15.320312 97.859375 C 15.320312 97.84375 15.34375 97.832031 15.371094 97.832031 L 30.308594 97.964844 C 30.339844 97.964844 30.359375 97.976562 30.359375 97.992188 L 30.359375 106.363281 C 30.359375 106.378906 30.335938 106.394531 30.308594 106.394531 " fill-opacity="1" fill-rule="nonzero"/><path fill="#000000" d="M 15.5 106.210938 L 30.179688 106.210938 L 30.179688 98.144531 L 15.5 98.011719 Z M 30.308594 106.574219 L 15.371094 106.574219 C 15.242188 106.574219 15.136719 106.480469 15.136719 106.363281 L 15.136719 97.859375 C 15.136719 97.804688 15.160156 97.753906 15.199219 97.71875 C 15.242188 97.675781 15.308594 97.652344 15.375 97.652344 L 30.3125 97.785156 C 30.441406 97.785156 30.542969 97.875 30.542969 97.992188 L 30.542969 106.363281 C 30.542969 106.480469 30.4375 106.574219 30.308594 106.574219 " fill-opacity="1" fill-rule="nonzero"/><path fill="#caddff" d="M 25.816406 104.550781 C 25.714844 104.550781 25.632812 104.46875 25.632812 104.371094 L 25.632812 99.300781 C 25.632812 99.199219 25.714844 99.117188 25.816406 99.117188 C 25.914062 99.117188 25.996094 99.199219 25.996094 99.300781 L 25.996094 104.371094 C 25.996094 104.46875 25.914062 104.550781 25.816406 104.550781 " fill-opacity="1" fill-rule="nonzero"/><path fill="#caddff" d="M 21.089844 102.742188 C 20.992188 102.742188 20.910156 102.664062 20.910156 102.5625 L 20.910156 101.066406 C 20.910156 100.96875 20.992188 100.886719 21.089844 100.886719 C 21.191406 100.886719 21.273438 100.96875 21.273438 101.066406 L 21.273438 102.5625 C 21.273438 102.664062 21.191406 102.742188 21.089844 102.742188 " fill-opacity="1" fill-rule="nonzero"/><path fill="#5479f7" d="M 93.96875 36.347656 L 91.273438 36.347656 L 91.273438 29.164062 L 93.96875 29.164062 L 93.96875 36.347656 " fill-opacity="1" fill-rule="nonzero"/><path fill="#000000" d="M 91.453125 36.167969 L 93.785156 36.167969 L 93.785156 29.34375 L 91.453125 29.34375 Z M 93.96875 36.527344 L 91.273438 36.527344 C 91.175781 36.527344 91.09375 36.449219 91.09375 36.347656 L 91.09375 29.164062 C 91.09375 29.0625 91.175781 28.984375 91.273438 28.984375 L 93.96875 28.984375 C 94.066406 28.984375 94.148438 29.0625 94.148438 29.164062 L 94.148438 36.347656 C 94.148438 36.449219 94.066406 36.527344 93.96875 36.527344 " fill-opacity="1" fill-rule="nonzero"/><path fill="#5479f7" d="M 94.742188 36.457031 L 90.46875 36.457031 C 90.296875 36.457031 90.15625 36.316406 90.15625 36.144531 L 90.15625 34.757812 C 90.15625 34.582031 90.296875 34.445312 90.46875 34.445312 L 94.742188 34.445312 C 94.914062 34.445312 95.054688 34.582031 95.054688 34.757812 L 95.054688 36.144531 C 95.054688 36.316406 94.914062 36.457031 94.742188 36.457031 " fill-opacity="1" fill-rule="nonzero"/><path fill="#000000" d="M 91.121094 34.625 C 90.691406 34.625 90.339844 34.972656 90.339844 35.40625 L 90.339844 35.496094 C 90.339844 35.925781 90.691406 36.277344 91.121094 36.277344 L 94.09375 36.277344 C 94.523438 36.277344 94.875 35.925781 94.875 35.496094 L 94.875 35.40625 C 94.875 34.972656 94.523438 34.625 94.09375 34.625 Z M 94.09375 36.636719 L 91.121094 36.636719 C 90.492188 36.636719 89.976562 36.125 89.976562 35.496094 L 89.976562 35.40625 C 89.976562 34.777344 90.492188 34.261719 91.121094 34.261719 L 94.09375 34.261719 C 94.722656 34.261719 95.234375 34.777344 95.234375 35.40625 L 95.234375 35.496094 C 95.234375 36.125 94.722656 36.636719 94.09375 36.636719 " fill-opacity="1" fill-rule="nonzero"/><path fill="#5479f7" d="M 97.71875 37.710938 L 87.492188 37.710938 L 87.492188 36.621094 C 87.492188 36.351562 87.710938 36.132812 87.984375 36.132812 L 97.230469 36.132812 C 97.5 36.132812 97.71875 36.351562 97.71875 36.621094 L 97.71875 37.710938 " fill-opacity="1" fill-rule="nonzero"/><path fill="#000000" d="M 87.683594 37.527344 L 97.527344 37.527344 C 97.441406 36.84375 96.851562 36.3125 96.140625 36.3125 L 89.070312 36.3125 C 88.359375 36.3125 87.773438 36.84375 87.683594 37.527344 Z M 97.722656 37.890625 L 87.492188 37.890625 C 87.390625 37.890625 87.3125 37.808594 87.3125 37.710938 C 87.3125 36.738281 88.101562 35.949219 89.070312 35.949219 L 96.140625 35.949219 C 97.113281 35.949219 97.902344 36.738281 97.902344 37.710938 C 97.902344 37.808594 97.820312 37.890625 97.722656 37.890625 " fill-opacity="1" fill-rule="nonzero"/><path fill="#5479f7" d="M 90.539062 28.8125 C 87.714844 27.226562 84.890625 24.828125 82.789062 22.238281 C 81.5 20.648438 79.441406 17.671875 80.15625 15.609375 C 80.363281 15.015625 80.886719 14.269531 82.210938 14.085938 C 83.175781 13.953125 84.476562 14.136719 86.082031 14.628906 L 85.730469 16.046875 C 84.292969 15.605469 83.164062 15.4375 82.371094 15.546875 C 81.828125 15.621094 81.496094 15.820312 81.386719 16.140625 C 81.125 16.898438 81.757812 18.777344 83.765625 21.253906 C 85.761719 23.714844 88.449219 25.992188 91.132812 27.5 L 90.539062 28.8125 " fill-opacity="1" fill-rule="nonzero"/><path fill="#000000" d="M 82.867188 14.226562 C 82.640625 14.226562 82.429688 14.238281 82.234375 14.265625 C 81 14.433594 80.515625 15.121094 80.328125 15.671875 C 79.640625 17.648438 81.664062 20.566406 82.929688 22.125 C 84.972656 24.644531 87.707031 26.980469 90.457031 28.558594 L 90.902344 27.574219 C 88.246094 26.054688 85.601562 23.800781 83.628906 21.367188 C 81.433594 18.664062 80.957031 16.828125 81.214844 16.082031 C 81.351562 15.691406 81.734375 15.449219 82.347656 15.367188 C 83.132812 15.257812 84.226562 15.410156 85.601562 15.816406 L 85.863281 14.75 C 84.6875 14.402344 83.679688 14.226562 82.867188 14.226562 Z M 90.539062 28.992188 C 90.507812 28.992188 90.480469 28.984375 90.453125 28.96875 C 87.605469 27.371094 84.761719 24.960938 82.648438 22.351562 C 81.335938 20.734375 79.242188 17.699219 79.984375 15.550781 C 80.207031 14.910156 80.769531 14.101562 82.1875 13.90625 C 83.175781 13.773438 84.503906 13.957031 86.132812 14.457031 C 86.226562 14.484375 86.277344 14.578125 86.257812 14.671875 L 85.90625 16.089844 C 85.894531 16.136719 85.863281 16.179688 85.820312 16.203125 C 85.777344 16.226562 85.726562 16.234375 85.679688 16.21875 C 84.265625 15.785156 83.160156 15.617188 82.398438 15.722656 C 81.925781 15.789062 81.644531 15.949219 81.558594 16.199219 C 81.320312 16.886719 81.953125 18.730469 83.90625 21.140625 C 85.890625 23.582031 88.554688 25.84375 91.222656 27.34375 C 91.304688 27.390625 91.335938 27.488281 91.296875 27.574219 L 90.703125 28.886719 C 90.683594 28.933594 90.644531 28.96875 90.597656 28.984375 C 90.578125 28.988281 90.558594 28.992188 90.539062 28.992188 " fill-opacity="1" fill-rule="nonzero"/><path fill="#5479f7" d="M 94.757812 28.730469 C 97.535156 27.144531 100.316406 24.746094 102.382812 22.15625 C 103.652344 20.566406 105.675781 17.589844 104.972656 15.527344 C 104.769531 14.933594 104.253906 14.1875 102.949219 14.003906 C 102.003906 13.871094 100.722656 14.054688 99.144531 14.546875 L 99.488281 15.964844 C 100.902344 15.523438 102.015625 15.355469 102.792969 15.460938 C 103.328125 15.535156 103.652344 15.738281 103.761719 16.058594 C 104.019531 16.816406 103.394531 18.695312 101.417969 21.171875 C 99.457031 23.632812 96.816406 25.910156 94.171875 27.417969 L 94.757812 28.730469 " fill-opacity="1" fill-rule="nonzero"/><path fill="#000000" d="M 94.402344 27.492188 L 94.839844 28.472656 C 97.542969 26.898438 100.230469 24.5625 102.242188 22.046875 C 103.488281 20.484375 105.476562 17.566406 104.800781 15.585938 C 104.617188 15.039062 104.140625 14.351562 102.925781 14.183594 C 102.039062 14.058594 100.835938 14.222656 99.359375 14.667969 L 99.617188 15.734375 C 100.972656 15.328125 102.046875 15.175781 102.816406 15.285156 C 103.425781 15.367188 103.800781 15.609375 103.933594 16 C 104.1875 16.746094 103.71875 18.578125 101.5625 21.285156 C 99.617188 23.71875 97.015625 25.972656 94.402344 27.492188 Z M 94.757812 28.910156 C 94.738281 28.910156 94.71875 28.90625 94.699219 28.902344 C 94.652344 28.886719 94.613281 28.851562 94.59375 28.804688 L 94.007812 27.492188 C 93.96875 27.40625 94.003906 27.308594 94.082031 27.261719 C 96.707031 25.761719 99.328125 23.503906 101.277344 21.058594 C 103.203125 18.648438 103.824219 16.804688 103.589844 16.117188 C 103.503906 15.867188 103.226562 15.707031 102.765625 15.640625 C 102.015625 15.535156 100.929688 15.703125 99.542969 16.136719 C 99.492188 16.152344 99.441406 16.144531 99.398438 16.121094 C 99.355469 16.097656 99.324219 16.054688 99.3125 16.007812 L 98.96875 14.589844 C 98.945312 14.496094 99 14.402344 99.089844 14.375 C 100.695312 13.875 102 13.691406 102.976562 13.824219 C 104.371094 14.019531 104.925781 14.828125 105.144531 15.472656 C 105.875 17.613281 103.816406 20.652344 102.523438 22.269531 C 100.445312 24.875 97.644531 27.289062 94.84375 28.886719 C 94.820312 28.902344 94.789062 28.910156 94.757812 28.910156 " fill-opacity="1" fill-rule="nonzero"/><path fill="#5479f7" d="M 92.625 30.089844 C 99.816406 30.167969 99.894531 19.949219 101.441406 11.808594 L 83.757812 11.742188 C 85.1875 20.117188 85.449219 30.222656 92.625 30.089844 " fill-opacity="1" fill-rule="nonzero"/><path fill="#000000" d="M 83.972656 11.925781 C 84.164062 13.074219 84.335938 14.265625 84.507812 15.421875 C 85.035156 19.039062 85.582031 22.777344 86.742188 25.507812 C 88.042969 28.5625 89.910156 29.960938 92.621094 29.90625 C 92.625 29.90625 92.625 29.90625 92.628906 29.90625 C 92.65625 29.910156 92.683594 29.910156 92.710938 29.910156 C 95.296875 29.910156 97.089844 28.566406 98.347656 25.683594 C 99.488281 23.082031 100.03125 19.515625 100.558594 16.066406 C 100.761719 14.714844 100.976562 13.316406 101.222656 11.988281 Z M 92.484375 30.269531 C 86.3125 30.269531 85.214844 22.75 84.148438 15.472656 C 83.972656 14.25 83.785156 12.984375 83.578125 11.773438 C 83.570312 11.722656 83.585938 11.667969 83.621094 11.628906 C 83.652344 11.585938 83.703125 11.5625 83.757812 11.5625 L 101.441406 11.628906 C 101.496094 11.628906 101.546875 11.652344 101.578125 11.695312 C 101.613281 11.734375 101.628906 11.789062 101.617188 11.84375 C 101.355469 13.230469 101.128906 14.699219 100.914062 16.121094 C 99.851562 23.078125 98.753906 30.269531 92.710938 30.269531 C 92.683594 30.269531 92.65625 30.269531 92.625 30.269531 C 92.578125 30.269531 92.53125 30.269531 92.484375 30.269531 " fill-opacity="1" fill-rule="nonzero"/><path fill="#caddff" d="M 98.882812 21.347656 C 98.867188 21.347656 98.855469 21.347656 98.84375 21.34375 C 98.746094 21.324219 98.683594 21.230469 98.703125 21.132812 C 99.03125 19.539062 99.253906 17.796875 99.46875 16.109375 C 99.609375 14.988281 99.757812 13.832031 99.9375 12.722656 C 99.953125 12.625 100.046875 12.558594 100.144531 12.574219 C 100.242188 12.589844 100.308594 12.679688 100.292969 12.78125 C 100.117188 13.882812 99.96875 15.039062 99.824219 16.15625 C 99.609375 17.847656 99.386719 19.597656 99.058594 21.203125 C 99.039062 21.289062 98.964844 21.347656 98.882812 21.347656 " fill-opacity="1" fill-rule="nonzero"/><path fill="#caddff" d="M 92.78125 29.351562 C 92.695312 29.351562 92.621094 29.292969 92.605469 29.207031 C 92.582031 29.109375 92.644531 29.015625 92.742188 28.992188 C 95.441406 28.421875 97.179688 26.554688 98.210938 23.113281 C 98.238281 23.019531 98.339844 22.964844 98.433594 22.992188 C 98.53125 23.023438 98.585938 23.121094 98.554688 23.21875 C 97.480469 26.796875 95.65625 28.742188 92.816406 29.347656 C 92.804688 29.347656 92.792969 29.351562 92.78125 29.351562 " fill-opacity="1" fill-rule="nonzero"/><path fill="#5479f7" d="M 102.117188 12.714844 L 83.253906 12.714844 C 83.054688 12.714844 82.890625 12.554688 82.890625 12.355469 L 82.890625 10.75 C 82.890625 10.550781 83.054688 10.390625 83.253906 10.390625 L 102.117188 10.390625 C 102.316406 10.390625 102.476562 10.550781 102.476562 10.75 L 102.476562 12.355469 C 102.476562 12.554688 102.316406 12.714844 102.117188 12.714844 " fill-opacity="1" fill-rule="nonzero"/><path fill="#000000" d="M 84.054688 10.570312 C 83.511719 10.570312 83.070312 11.011719 83.070312 11.550781 C 83.070312 12.09375 83.511719 12.535156 84.054688 12.535156 L 101.316406 12.535156 C 101.855469 12.535156 102.296875 12.09375 102.296875 11.550781 C 102.296875 11.011719 101.855469 10.570312 101.316406 10.570312 Z M 101.316406 12.894531 L 84.054688 12.894531 C 83.3125 12.894531 82.710938 12.292969 82.710938 11.550781 C 82.710938 10.8125 83.3125 10.207031 84.054688 10.207031 L 101.316406 10.207031 C 102.054688 10.207031 102.660156 10.8125 102.660156 11.550781 C 102.660156 12.292969 102.054688 12.894531 101.316406 12.894531 " fill-opacity="1" fill-rule="nonzero"/><path fill="#caddff" d="M 96.445312 11.527344 C 96.347656 11.527344 96.265625 11.449219 96.265625 11.351562 C 96.265625 11.25 96.34375 11.167969 96.445312 11.167969 L 100.113281 11.128906 C 100.214844 11.128906 100.292969 11.207031 100.296875 11.304688 C 100.296875 11.40625 100.214844 11.488281 100.117188 11.488281 L 96.449219 11.527344 C 96.449219 11.527344 96.449219 11.527344 96.445312 11.527344 " fill-opacity="1" fill-rule="nonzero"/><path fill="#caddff" d="M 93.441406 11.5625 C 93.34375 11.5625 93.261719 11.484375 93.261719 11.386719 C 93.261719 11.285156 93.339844 11.203125 93.441406 11.203125 L 95.484375 11.179688 C 95.585938 11.179688 95.664062 11.257812 95.664062 11.359375 C 95.667969 11.457031 95.585938 11.539062 95.488281 11.539062 L 93.445312 11.5625 C 93.441406 11.5625 93.441406 11.5625 93.441406 11.5625 " fill-opacity="1" fill-rule="nonzero"/><path fill="#ffffff" d="M 32.726562 83.101562 L 32.179688 87.9375 L 34.238281 88.792969 L 34.996094 83.519531 L 32.726562 83.101562 " fill-opacity="1" fill-rule="nonzero"/><path fill="#000000" d="M 32.375 87.820312 L 34.09375 88.535156 L 34.792969 83.664062 L 32.882812 83.3125 Z M 34.238281 88.972656 C 34.214844 88.972656 34.191406 88.96875 34.167969 88.960938 L 32.113281 88.101562 C 32.039062 88.070312 31.992188 87.996094 32.003906 87.917969 L 32.546875 83.078125 C 32.554688 83.03125 32.578125 82.984375 32.621094 82.953125 C 32.660156 82.925781 32.710938 82.914062 32.757812 82.921875 L 35.027344 83.34375 C 35.121094 83.359375 35.1875 83.449219 35.171875 83.546875 L 34.417969 88.820312 C 34.40625 88.875 34.375 88.921875 34.328125 88.949219 C 34.300781 88.964844 34.269531 88.972656 34.238281 88.972656 " fill-opacity="1" fill-rule="nonzero"/><path fill="#99b9ff" d="M 31.703125 87.480469 C 31.636719 87.9375 31.535156 88.789062 31.523438 89.550781 C 31.519531 90.03125 31.878906 90.433594 32.355469 90.496094 C 33.695312 90.667969 36.742188 90.855469 39.335938 90.621094 C 39.511719 90.605469 39.824219 90.476562 39.914062 90.03125 C 40.207031 88.542969 37.617188 88.175781 34.777344 87.097656 C 34.667969 87.054688 34.539062 87.078125 34.457031 87.164062 L 34.148438 87.460938 C 33.84375 87.753906 33.386719 87.839844 32.996094 87.671875 L 32.066406 87.273438 C 31.90625 87.207031 31.726562 87.308594 31.703125 87.480469 " fill-opacity="1" fill-rule="nonzero"/><path fill="#000000" d="M 31.882812 87.503906 C 31.820312 87.945312 31.714844 88.796875 31.707031 89.554688 C 31.699219 89.9375 31.988281 90.265625 32.375 90.316406 C 33.761719 90.492188 36.75 90.671875 39.316406 90.441406 C 39.375 90.433594 39.660156 90.390625 39.738281 89.996094 C 39.921875 89.058594 38.742188 88.621094 36.640625 87.933594 C 36.023438 87.730469 35.382812 87.519531 34.714844 87.265625 C 34.667969 87.246094 34.617188 87.257812 34.582031 87.292969 L 34.273438 87.589844 C 33.914062 87.9375 33.386719 88.035156 32.925781 87.839844 L 31.996094 87.441406 C 31.960938 87.425781 31.933594 87.4375 31.921875 87.445312 C 31.910156 87.453125 31.886719 87.46875 31.882812 87.503906 Z M 36.632812 90.910156 C 34.882812 90.910156 33.253906 90.792969 32.332031 90.671875 C 31.761719 90.601562 31.339844 90.117188 31.34375 89.550781 C 31.355469 88.773438 31.460938 87.902344 31.523438 87.453125 C 31.542969 87.316406 31.625 87.199219 31.746094 87.128906 C 31.867188 87.0625 32.007812 87.054688 32.136719 87.109375 L 33.066406 87.507812 C 33.394531 87.644531 33.769531 87.578125 34.023438 87.328125 L 34.328125 87.03125 C 34.464844 86.902344 34.664062 86.859375 34.84375 86.925781 C 35.503906 87.179688 36.140625 87.386719 36.753906 87.589844 C 38.761719 88.25 40.347656 88.769531 40.089844 90.066406 C 39.992188 90.566406 39.628906 90.773438 39.351562 90.800781 C 38.46875 90.878906 37.535156 90.910156 36.632812 90.910156 " fill-opacity="1" fill-rule="nonzero"/><path fill="#ffffff" d="M 31.527344 89.4375 C 31.527344 89.4375 31.527344 89.515625 31.523438 89.550781 C 31.519531 90.03125 31.878906 90.433594 32.355469 90.496094 C 33.695312 90.667969 36.742188 90.855469 39.335938 90.621094 C 39.511719 90.605469 39.824219 90.476562 39.914062 90.03125 C 39.941406 89.894531 39.925781 89.648438 39.925781 89.648438 L 39.738281 89.660156 C 37.117188 89.789062 34.492188 89.726562 31.878906 89.472656 L 31.527344 89.4375 " fill-opacity="1" fill-rule="nonzero"/><path fill="#000000" d="M 31.707031 89.636719 C 31.742188 89.984375 32.015625 90.269531 32.375 90.316406 C 33.761719 90.492188 36.75 90.671875 39.316406 90.441406 C 39.375 90.433594 39.660156 90.390625 39.738281 89.996094 C 39.746094 89.957031 39.746094 89.898438 39.75 89.839844 C 37.128906 89.96875 34.476562 89.90625 31.863281 89.652344 Z M 36.632812 90.910156 C 34.882812 90.910156 33.253906 90.792969 32.332031 90.671875 C 31.761719 90.601562 31.339844 90.117188 31.34375 89.550781 L 31.347656 89.433594 C 31.347656 89.382812 31.371094 89.335938 31.40625 89.300781 C 31.445312 89.269531 31.496094 89.253906 31.542969 89.257812 L 31.898438 89.292969 C 34.492188 89.542969 37.128906 89.609375 39.730469 89.480469 L 39.914062 89.46875 C 40.015625 89.464844 40.097656 89.539062 40.105469 89.636719 C 40.105469 89.664062 40.121094 89.910156 40.089844 90.066406 C 39.992188 90.566406 39.628906 90.773438 39.351562 90.800781 C 38.46875 90.878906 37.535156 90.910156 36.632812 90.910156 " fill-opacity="1" fill-rule="nonzero"/><path fill="#000000" d="M 35.429688 88.886719 C 35.382812 88.886719 35.335938 88.867188 35.300781 88.832031 C 35.230469 88.761719 35.230469 88.648438 35.300781 88.578125 L 36.296875 87.582031 C 36.367188 87.511719 36.480469 87.511719 36.554688 87.582031 C 36.625 87.652344 36.625 87.765625 36.554688 87.835938 L 35.558594 88.832031 C 35.519531 88.867188 35.476562 88.886719 35.429688 88.886719 " fill-opacity="1" fill-rule="nonzero"/><path fill="#000000" d="M 36.40625 88.988281 C 36.363281 88.988281 36.316406 88.972656 36.28125 88.9375 C 36.210938 88.867188 36.207031 88.753906 36.277344 88.683594 L 37.074219 87.855469 C 37.144531 87.785156 37.257812 87.78125 37.328125 87.851562 C 37.402344 87.921875 37.402344 88.035156 37.332031 88.105469 L 36.539062 88.933594 C 36.503906 88.96875 36.457031 88.988281 36.40625 88.988281 " fill-opacity="1" fill-rule="nonzero"/><path fill="#000000" d="M 40.195312 51.226562 C 40.195312 51.226562 38.941406 51.953125 38.453125 56.214844 C 37.964844 60.476562 38.128906 65.5 34.726562 70.480469 C 32.007812 74.457031 32.25 81.171875 31.851562 85.574219 C 31.835938 85.785156 31.996094 85.972656 32.210938 85.976562 L 34.816406 86.066406 C 34.980469 86.074219 35.128906 85.96875 35.183594 85.8125 C 35.648438 84.367188 37.960938 77.410156 40.5625 73.375 C 43.3125 69.113281 46.652344 58.046875 46.652344 58.046875 C 46.652344 58.046875 46.03125 55.25 45.945312 52.570312 C 45.859375 49.886719 40.195312 51.226562 40.195312 51.226562 " fill-opacity="1" fill-rule="nonzero"/><path fill="#ffffff" d="M 55.53125 68.753906 L 54.433594 73.496094 L 56.378906 74.582031 L 57.738281 69.433594 L 55.53125 68.753906 " fill-opacity="1" fill-rule="nonzero"/><path fill="#000000" d="M 54.640625 73.402344 L 56.261719 74.3125 L 57.519531 69.554688 L 55.664062 68.980469 Z M 56.378906 74.761719 C 56.347656 74.761719 56.316406 74.753906 56.289062 74.738281 L 54.347656 73.652344 C 54.277344 73.613281 54.238281 73.53125 54.257812 73.453125 L 55.355469 68.710938 C 55.367188 68.664062 55.398438 68.621094 55.441406 68.597656 C 55.484375 68.570312 55.539062 68.566406 55.585938 68.582031 L 57.789062 69.257812 C 57.882812 69.289062 57.9375 69.382812 57.910156 69.476562 L 56.550781 74.628906 C 56.539062 74.683594 56.5 74.726562 56.449219 74.75 C 56.425781 74.757812 56.402344 74.761719 56.378906 74.761719 " fill-opacity="1" fill-rule="nonzero"/><path fill="#99b9ff" d="M 54.199219 73.214844 C 54.136719 73.671875 53.722656 74.542969 53.714844 75.304688 C 53.710938 75.78125 54.070312 76.1875 54.542969 76.246094 C 55.886719 76.421875 59.238281 76.589844 61.832031 76.355469 C 62.007812 76.339844 62.324219 76.210938 62.410156 75.765625 C 62.703125 74.277344 60.113281 73.910156 57.277344 72.832031 C 57.164062 72.789062 57.039062 72.8125 56.953125 72.898438 L 56.648438 73.195312 C 56.339844 73.492188 55.886719 73.574219 55.492188 73.40625 L 54.5625 73.007812 C 54.402344 72.941406 54.222656 73.042969 54.199219 73.214844 " fill-opacity="1" fill-rule="nonzero"/><path fill="#000000" d="M 54.378906 73.238281 C 54.351562 73.421875 54.28125 73.652344 54.195312 73.921875 C 54.0625 74.335938 53.898438 74.851562 53.894531 75.304688 C 53.890625 75.691406 54.179688 76.019531 54.566406 76.070312 C 55.78125 76.226562 59.15625 76.417969 61.816406 76.175781 C 61.871094 76.167969 62.15625 76.125 62.234375 75.730469 C 62.417969 74.792969 61.238281 74.355469 59.140625 73.667969 C 58.519531 73.464844 57.878906 73.253906 57.210938 73 C 57.164062 72.984375 57.113281 72.992188 57.078125 73.027344 L 56.773438 73.324219 C 56.414062 73.671875 55.882812 73.769531 55.421875 73.574219 L 54.492188 73.175781 C 54.460938 73.160156 54.433594 73.171875 54.417969 73.179688 C 54.40625 73.1875 54.382812 73.203125 54.378906 73.238281 Z M 58.925781 76.648438 C 57.167969 76.648438 55.460938 76.546875 54.519531 76.425781 C 53.953125 76.355469 53.527344 75.871094 53.535156 75.300781 C 53.539062 74.796875 53.714844 74.25 53.851562 73.8125 C 53.929688 73.5625 54 73.34375 54.023438 73.1875 C 54.039062 73.050781 54.121094 72.933594 54.242188 72.867188 C 54.363281 72.796875 54.503906 72.789062 54.632812 72.84375 L 55.566406 73.242188 C 55.890625 73.378906 56.265625 73.3125 56.519531 73.0625 L 56.828125 72.765625 C 56.960938 72.636719 57.164062 72.59375 57.339844 72.664062 C 58 72.914062 58.636719 73.121094 59.253906 73.324219 C 61.257812 73.984375 62.84375 74.503906 62.585938 75.800781 C 62.488281 76.300781 62.128906 76.507812 61.847656 76.535156 C 60.945312 76.617188 59.925781 76.648438 58.925781 76.648438 " fill-opacity="1" fill-rule="nonzero"/><path fill="#ffffff" d="M 53.789062 75.15625 C 53.789062 75.15625 53.785156 75.234375 53.785156 75.273438 C 53.78125 75.75 54.140625 76.15625 54.613281 76.214844 C 55.957031 76.386719 59.238281 76.589844 61.832031 76.355469 C 62.007812 76.339844 62.324219 76.210938 62.410156 75.765625 C 62.4375 75.628906 62.421875 75.386719 62.421875 75.386719 L 62.238281 75.394531 C 59.617188 75.523438 56.988281 75.460938 54.378906 75.207031 L 53.789062 75.15625 " fill-opacity="1" fill-rule="nonzero"/><path fill="#000000" d="M 53.96875 75.355469 C 54.003906 75.703125 54.277344 75.992188 54.636719 76.039062 C 55.8125 76.1875 59.113281 76.421875 61.816406 76.175781 C 61.871094 76.167969 62.15625 76.125 62.234375 75.730469 C 62.242188 75.691406 62.246094 75.632812 62.246094 75.574219 C 59.625 75.703125 56.972656 75.640625 54.359375 75.386719 Z M 59.175781 76.644531 C 57.226562 76.644531 55.40625 76.5 54.589844 76.394531 C 54.023438 76.320312 53.597656 75.839844 53.605469 75.269531 L 53.609375 75.152344 C 53.609375 75.105469 53.628906 75.058594 53.667969 75.023438 C 53.703125 74.992188 53.753906 74.972656 53.804688 74.976562 L 54.394531 75.027344 C 56.988281 75.277344 59.625 75.34375 62.230469 75.214844 L 62.414062 75.203125 C 62.511719 75.199219 62.59375 75.273438 62.601562 75.371094 C 62.601562 75.398438 62.617188 75.644531 62.585938 75.800781 C 62.488281 76.300781 62.128906 76.507812 61.847656 76.535156 C 60.988281 76.613281 60.070312 76.644531 59.175781 76.644531 " fill-opacity="1" fill-rule="nonzero"/><path fill="#000000" d="M 57.925781 74.621094 C 57.878906 74.621094 57.835938 74.601562 57.800781 74.566406 C 57.730469 74.496094 57.730469 74.382812 57.800781 74.3125 L 58.796875 73.316406 C 58.867188 73.246094 58.980469 73.246094 59.050781 73.316406 C 59.121094 73.386719 59.121094 73.5 59.050781 73.570312 L 58.054688 74.566406 C 58.019531 74.601562 57.972656 74.621094 57.925781 74.621094 " fill-opacity="1" fill-rule="nonzero"/><path fill="#000000" d="M 58.90625 74.722656 C 58.859375 74.722656 58.816406 74.707031 58.78125 74.671875 C 58.707031 74.605469 58.707031 74.488281 58.773438 74.417969 L 59.570312 73.589844 C 59.640625 73.519531 59.753906 73.515625 59.828125 73.585938 C 59.898438 73.65625 59.898438 73.769531 59.832031 73.839844 L 59.035156 74.667969 C 59 74.703125 58.953125 74.722656 58.90625 74.722656 " fill-opacity="1" fill-rule="nonzero"/><path fill="#000000" d="M 45.210938 58.796875 C 45.210938 58.796875 51.0625 58.339844 57.59375 54.828125 C 57.789062 54.726562 57.910156 55.042969 57.796875 55.230469 C 57.464844 55.75 57.292969 56.53125 56.800781 57.863281 C 56.195312 59.5 54.921875 67.984375 54.503906 70.621094 C 54.464844 70.863281 54.644531 71.078125 54.886719 71.085938 L 57.398438 71.167969 C 57.554688 71.171875 57.703125 71.085938 57.769531 70.941406 C 58.675781 69.054688 64.59375 54.191406 64.367188 51.421875 C 64.121094 48.429688 60.707031 48.628906 59.28125 48.535156 C 57.808594 48.441406 44.449219 50.941406 44.449219 50.941406 L 45.210938 58.796875 " fill-opacity="1" fill-rule="nonzero"/><path fill="#ffffff" d="M 27.410156 54.425781 C 27.613281 54.1875 27.875 53.902344 28.101562 53.679688 C 28.390625 53.394531 29.363281 51.5 29.363281 51.5 L 31.0625 51.984375 C 31.0625 51.984375 30.265625 53.371094 30.457031 54.066406 C 30.636719 54.707031 30.777344 56.070312 29.832031 57.058594 C 29.726562 57.175781 29.488281 57.203125 29.40625 57.183594 C 29.160156 57.128906 29.152344 56.785156 29.273438 56.5625 L 29.617188 55.9375 C 29.644531 55.878906 29.601562 55.816406 29.539062 55.824219 C 29.28125 55.859375 28.722656 56.023438 28.136719 56.746094 C 27.683594 57.304688 26.789062 58.546875 26.488281 58.339844 C 25.953125 57.972656 26.304688 55.746094 27.410156 54.425781 " fill-opacity="1" fill-rule="nonzero"/><path fill="#000000" d="M 27.410156 54.425781 L 27.414062 54.425781 Z M 27.550781 54.542969 C 26.75 55.5 26.328125 57.007812 26.441406 57.820312 C 26.464844 57.996094 26.515625 58.125 26.578125 58.183594 C 26.808594 58.144531 27.476562 57.292969 27.765625 56.921875 C 27.851562 56.816406 27.929688 56.714844 27.996094 56.632812 C 28.613281 55.871094 29.210938 55.6875 29.511719 55.644531 C 29.609375 55.632812 29.703125 55.671875 29.757812 55.753906 C 29.816406 55.832031 29.820312 55.9375 29.773438 56.023438 L 29.433594 56.648438 C 29.378906 56.75 29.363281 56.890625 29.394531 56.964844 C 29.410156 56.996094 29.425781 57.003906 29.445312 57.007812 C 29.496094 57.019531 29.652344 56.988281 29.703125 56.9375 C 30.707031 55.882812 30.363281 54.398438 30.285156 54.113281 C 30.117188 53.511719 30.570312 52.527344 30.796875 52.09375 L 29.457031 51.714844 C 29.21875 52.175781 28.496094 53.546875 28.226562 53.808594 C 28.003906 54.03125 27.742188 54.3125 27.550781 54.542969 Z M 26.566406 58.546875 C 26.503906 58.546875 26.445312 58.527344 26.386719 58.488281 C 26.226562 58.378906 26.125 58.171875 26.082031 57.867188 C 25.960938 56.984375 26.382812 55.375 27.273438 54.3125 C 27.476562 54.066406 27.738281 53.785156 27.972656 53.550781 C 28.171875 53.359375 28.832031 52.140625 29.203125 51.417969 C 29.242188 51.34375 29.328125 51.304688 29.414062 51.328125 L 31.109375 51.808594 C 31.164062 51.824219 31.207031 51.863281 31.226562 51.914062 C 31.25 51.964844 31.246094 52.023438 31.21875 52.074219 C 31.007812 52.441406 30.492188 53.507812 30.632812 54.015625 C 30.886719 54.941406 30.84375 56.257812 29.964844 57.183594 C 29.800781 57.355469 29.492188 57.390625 29.363281 57.359375 C 29.230469 57.328125 29.125 57.242188 29.066406 57.113281 C 28.984375 56.933594 29.003906 56.683594 29.117188 56.476562 L 29.34375 56.054688 C 29.085938 56.140625 28.691406 56.351562 28.277344 56.859375 C 28.210938 56.941406 28.132812 57.039062 28.050781 57.148438 C 27.402344 57.972656 26.921875 58.546875 26.566406 58.546875 " fill-opacity="1" fill-rule="nonzero"/><path fill="#5479f7" d="M 68.121094 33.070312 L 67.023438 31.21875 C 66.84375 30.914062 66.273438 30.824219 65.992188 31.035156 C 59.789062 35.660156 53.191406 33.773438 52.171875 33.53125 C 49.644531 32.925781 48.371094 32.835938 46.375 32.714844 C 43.453125 32.535156 39.25 34.226562 36.421875 37.054688 C 34.171875 39.304688 30.335938 46.605469 28.597656 51.675781 C 28.523438 51.890625 28.617188 52.125 28.816406 52.226562 L 30.5625 53.132812 C 30.785156 53.25 31.054688 53.164062 31.171875 52.945312 C 32.0625 51.269531 35.910156 44.324219 39.9375 42.03125 C 40.234375 41.863281 40.679688 42.042969 40.664062 42.382812 C 40.609375 43.449219 39.945312 47.40625 39.746094 51.074219 C 39.71875 51.554688 40.050781 51.984375 40.527344 52.074219 L 42.289062 52.402344 C 45.363281 53.117188 48.246094 52.320312 49.515625 51.867188 C 49.90625 51.726562 50.09375 51.351562 50.152344 50.945312 C 50.25 50.265625 51.613281 44.828125 54.101562 41.234375 C 54.414062 40.78125 54.890625 40.46875 55.4375 40.4375 C 57.65625 40.308594 63.972656 39.417969 68.09375 33.640625 C 68.214844 33.472656 68.226562 33.25 68.121094 33.070312 " fill-opacity="1" fill-rule="nonzero"/><path fill="#ffffff" d="M 66.609375 31.777344 C 66.585938 31.636719 66.636719 31.5 66.742188 31.40625 C 66.882812 31.289062 67.121094 31.085938 67.464844 30.785156 C 68.070312 30.253906 68.828125 29.191406 69.492188 28.875 C 70.152344 28.554688 72.550781 27.617188 72.9375 27.816406 C 73.320312 28.015625 73.128906 28.46875 72.585938 28.730469 C 72.039062 28.992188 71.332031 29.261719 71.332031 29.261719 C 71.332031 29.261719 71.726562 29.238281 72.019531 29.695312 C 72.3125 30.152344 71.90625 30.339844 72.078125 30.566406 C 72.296875 30.855469 72.234375 31.195312 72.058594 31.339844 C 71.660156 31.679688 71.183594 31.011719 70.824219 31.703125 C 70.574219 32.183594 69.988281 32.496094 68.796875 32.722656 C 68.476562 32.78125 68.171875 32.90625 67.894531 33.078125 C 67.78125 33.148438 67.636719 33.15625 67.519531 33.089844 C 67.234375 32.929688 66.742188 32.546875 66.609375 31.777344 " fill-opacity="1" fill-rule="nonzero"/><path fill="#000000" d="M 72.761719 27.964844 C 72.25 27.964844 70.351562 28.660156 69.570312 29.035156 C 69.179688 29.222656 68.734375 29.710938 68.304688 30.179688 C 68.050781 30.457031 67.8125 30.71875 67.582031 30.917969 C 67.238281 31.222656 67 31.425781 66.859375 31.546875 C 66.800781 31.59375 66.773438 31.667969 66.789062 31.746094 C 66.90625 32.441406 67.351562 32.789062 67.605469 32.933594 C 67.664062 32.964844 67.738281 32.960938 67.800781 32.925781 C 68.101562 32.738281 68.425781 32.609375 68.761719 32.542969 C 69.867188 32.332031 70.4375 32.054688 70.664062 31.621094 C 70.933594 31.101562 71.308594 31.179688 71.558594 31.230469 C 71.742188 31.269531 71.84375 31.285156 71.941406 31.203125 C 72.042969 31.117188 72.09375 30.886719 71.933594 30.671875 C 71.800781 30.5 71.863281 30.328125 71.90625 30.210938 C 71.949219 30.082031 71.988281 29.980469 71.867188 29.792969 C 71.640625 29.4375 71.351562 29.441406 71.339844 29.441406 C 71.253906 29.445312 71.171875 29.382812 71.15625 29.292969 C 71.136719 29.207031 71.183594 29.121094 71.265625 29.089844 C 71.273438 29.089844 71.976562 28.820312 72.507812 28.566406 C 72.8125 28.417969 72.953125 28.226562 72.957031 28.109375 C 72.957031 28.089844 72.957031 28.03125 72.851562 27.976562 C 72.832031 27.96875 72.800781 27.964844 72.761719 27.964844 Z M 67.695312 33.316406 C 67.605469 33.316406 67.511719 33.292969 67.429688 33.246094 C 67.117188 33.070312 66.574219 32.648438 66.433594 31.804688 C 66.398438 31.605469 66.472656 31.398438 66.625 31.269531 C 66.765625 31.152344 67 30.949219 67.34375 30.648438 C 67.558594 30.460938 67.792969 30.207031 68.039062 29.933594 C 68.492188 29.441406 68.960938 28.929688 69.414062 28.710938 C 69.441406 28.699219 72.453125 27.363281 73.019531 27.65625 C 73.210938 27.757812 73.320312 27.925781 73.316406 28.117188 C 73.3125 28.402344 73.0625 28.699219 72.664062 28.890625 C 72.394531 29.019531 72.085938 29.152344 71.84375 29.25 C 71.953125 29.328125 72.070312 29.4375 72.171875 29.597656 C 72.386719 29.9375 72.300781 30.175781 72.246094 30.335938 C 72.207031 30.4375 72.210938 30.441406 72.222656 30.457031 C 72.5 30.824219 72.414062 31.273438 72.175781 31.480469 C 71.941406 31.679688 71.675781 31.625 71.488281 31.585938 C 71.246094 31.535156 71.128906 31.511719 70.984375 31.785156 C 70.703125 32.332031 70.058594 32.664062 68.828125 32.898438 C 68.535156 32.953125 68.253906 33.066406 67.992188 33.230469 C 67.898438 33.289062 67.796875 33.316406 67.695312 33.316406 " fill-opacity="1" fill-rule="nonzero"/><path fill="#ffffff" d="M 50.578125 27.695312 L 47.296875 33.136719 C 47.25 33.199219 46.769531 33.183594 46.226562 33.238281 C 45.972656 33.261719 45.707031 33.300781 45.488281 33.339844 C 45.308594 33.367188 45.257812 33.601562 45.410156 33.703125 L 45.996094 34.09375 C 47.226562 34.910156 48.691406 35.332031 50.164062 35.230469 C 50.574219 35.203125 50.964844 35.136719 51.3125 35.027344 L 52.570312 34.632812 C 52.757812 34.574219 52.757812 34.304688 52.570312 34.25 L 50.96875 33.761719 L 52.320312 30.894531 L 50.578125 27.695312 " fill-opacity="1" fill-rule="nonzero"/><path fill="#000000" d="M 50.570312 28.058594 L 47.453125 33.230469 C 47.449219 33.234375 47.445312 33.238281 47.441406 33.242188 C 47.367188 33.351562 47.234375 33.355469 46.84375 33.375 C 46.671875 33.382812 46.460938 33.394531 46.246094 33.417969 C 46.035156 33.4375 45.789062 33.472656 45.515625 33.515625 C 45.511719 33.515625 45.503906 33.515625 45.5 33.53125 C 45.496094 33.542969 45.503906 33.550781 45.507812 33.554688 L 46.097656 33.941406 C 47.316406 34.75 48.757812 35.144531 50.152344 35.050781 C 50.5625 35.023438 50.9375 34.957031 51.261719 34.855469 L 52.515625 34.460938 C 52.523438 34.457031 52.53125 34.457031 52.53125 34.441406 C 52.53125 34.425781 52.523438 34.421875 52.515625 34.421875 L 50.917969 33.9375 C 50.867188 33.921875 50.824219 33.882812 50.804688 33.835938 C 50.78125 33.789062 50.785156 33.734375 50.804688 33.683594 L 52.117188 30.898438 Z M 49.742188 35.425781 C 48.40625 35.425781 47.058594 35.011719 45.898438 34.242188 L 45.308594 33.855469 C 45.179688 33.765625 45.113281 33.609375 45.148438 33.457031 C 45.179688 33.300781 45.304688 33.183594 45.460938 33.160156 C 45.738281 33.113281 45.988281 33.078125 46.207031 33.058594 C 46.433594 33.035156 46.648438 33.023438 46.824219 33.015625 C 46.957031 33.007812 47.101562 33 47.175781 32.992188 L 50.421875 27.601562 C 50.457031 27.546875 50.519531 27.515625 50.582031 27.515625 C 50.648438 27.515625 50.707031 27.554688 50.734375 27.609375 L 52.476562 30.808594 C 52.507812 30.859375 52.507812 30.917969 52.484375 30.96875 L 51.222656 33.648438 L 52.621094 34.074219 C 52.78125 34.125 52.890625 34.269531 52.890625 34.4375 C 52.894531 34.605469 52.785156 34.753906 52.625 34.804688 L 51.367188 35.199219 C 51.015625 35.308594 50.617188 35.378906 50.175781 35.410156 C 50.03125 35.417969 49.886719 35.425781 49.742188 35.425781 " fill-opacity="1" fill-rule="nonzero"/><path fill="#ffffff" d="M 52.042969 31.007812 C 52.214844 31.027344 52.390625 31.035156 52.574219 31.027344 L 52.898438 31.007812 C 52.898438 31.007812 54.753906 30.761719 55.054688 30.300781 C 55.351562 29.839844 54.722656 28.167969 54.722656 28.167969 C 55.007812 27.945312 55.074219 27.660156 55.011719 27.566406 C 54.949219 27.472656 54.535156 27.328125 54.367188 27.203125 C 54.230469 27.101562 53.925781 26.300781 53.792969 25.957031 C 53.792969 25.957031 53.550781 24.601562 51.371094 24.777344 C 46.382812 25.179688 49.96875 29.800781 49.96875 29.800781 C 50.046875 29.890625 50.128906 29.976562 50.207031 30.058594 L 52.042969 31.007812 " fill-opacity="1" fill-rule="nonzero"/><path fill="#000000" d="M 54.871094 27.679688 Z M 52.417969 31.210938 C 52.136719 31.210938 51.859375 31.171875 51.59375 31.097656 C 51.496094 31.070312 51.441406 30.972656 51.46875 30.875 C 51.496094 30.78125 51.59375 30.722656 51.691406 30.75 C 51.972656 30.828125 52.265625 30.863281 52.566406 30.847656 L 52.882812 30.828125 C 53.617188 30.730469 54.726562 30.472656 54.902344 30.203125 C 55.074219 29.9375 54.800781 28.890625 54.554688 28.230469 C 54.523438 28.15625 54.546875 28.074219 54.609375 28.023438 C 54.796875 27.882812 54.851562 27.726562 54.851562 27.664062 C 54.804688 27.632812 54.691406 27.578125 54.613281 27.539062 C 54.484375 27.476562 54.351562 27.414062 54.261719 27.347656 C 54.128906 27.25 53.960938 26.902344 53.625 26.023438 C 53.621094 26.011719 53.617188 26 53.613281 25.988281 C 53.605469 25.941406 53.363281 24.796875 51.386719 24.957031 C 50.175781 25.054688 49.402344 25.398438 49.09375 25.980469 C 48.570312 26.96875 49.414062 28.46875 49.921875 29.363281 L 49.964844 29.445312 C 50.015625 29.53125 49.984375 29.640625 49.898438 29.6875 C 49.808594 29.738281 49.699219 29.707031 49.652344 29.621094 L 49.605469 29.539062 C 49.0625 28.582031 48.15625 26.976562 48.773438 25.8125 C 49.144531 25.113281 50.015625 24.707031 51.359375 24.597656 C 53.515625 24.421875 53.917969 25.71875 53.964844 25.90625 C 54.296875 26.769531 54.429688 27.011719 54.480469 27.0625 C 54.535156 27.105469 54.660156 27.164062 54.765625 27.214844 C 54.980469 27.316406 55.105469 27.378906 55.164062 27.46875 C 55.273438 27.636719 55.207031 27.957031 54.933594 28.222656 C 55.097656 28.679688 55.503906 29.9375 55.207031 30.398438 C 54.878906 30.90625 53.246094 31.144531 52.921875 31.1875 C 52.917969 31.1875 52.910156 31.1875 52.90625 31.1875 L 52.582031 31.207031 C 52.527344 31.210938 52.472656 31.210938 52.417969 31.210938 " fill-opacity="1" fill-rule="nonzero"/><path fill="#000000" d="M 50.351562 24.1875 C 50.898438 24.078125 51.515625 24.164062 51.78125 24.074219 C 52.210938 23.925781 52.199219 23.433594 52.800781 23.386719 C 53.332031 23.34375 53.824219 23.441406 54.09375 23.847656 C 54.136719 23.917969 54.175781 23.992188 54.207031 24.078125 C 54.625 25.226562 54.046875 25.777344 53.792969 25.957031 C 53.792969 25.957031 52.175781 26.734375 51.898438 26.957031 C 51.636719 27.167969 51.328125 27.664062 51.5 28.382812 C 51.519531 28.476562 51.476562 28.570312 51.390625 28.617188 C 51.292969 28.671875 51.171875 28.644531 51.109375 28.550781 C 50.90625 28.261719 50.46875 27.703125 50.140625 27.832031 C 49.761719 27.984375 49.632812 28.9375 50.332031 29.175781 C 50.546875 29.246094 50.617188 29.527344 50.460938 29.695312 C 50.332031 29.832031 50.136719 29.929688 49.839844 29.855469 C 49.839844 29.855469 48.101562 28.613281 47.894531 26.980469 C 47.691406 25.347656 49.628906 24.328125 50.351562 24.1875 " fill-opacity="1" fill-rule="nonzero"/><path fill="#000000" d="M 47.089844 9.539062 Z M 47.738281 9.382812 C 47.699219 9.382812 47.664062 9.386719 47.628906 9.394531 C 47.46875 9.421875 47.332031 9.511719 47.238281 9.644531 C 47.144531 9.777344 47.109375 9.9375 47.140625 10.097656 C 47.167969 10.253906 47.257812 10.394531 47.390625 10.488281 C 47.664062 10.675781 48.042969 10.609375 48.234375 10.335938 C 48.324219 10.203125 48.359375 10.042969 48.332031 9.882812 C 48.304688 9.722656 48.214844 9.585938 48.082031 9.492188 C 47.980469 9.421875 47.859375 9.382812 47.738281 9.382812 Z M 47.734375 10.957031 C 47.542969 10.957031 47.351562 10.898438 47.183594 10.78125 C 46.972656 10.636719 46.832031 10.414062 46.785156 10.160156 C 46.738281 9.90625 46.796875 9.648438 46.941406 9.4375 C 47.089844 9.226562 47.3125 9.082031 47.566406 9.039062 C 47.820312 8.992188 48.074219 9.046875 48.289062 9.195312 C 48.5 9.34375 48.640625 9.566406 48.6875 9.820312 C 48.734375 10.074219 48.675781 10.332031 48.527344 10.542969 C 48.339844 10.8125 48.039062 10.957031 47.734375 10.957031 " fill-opacity="1" fill-rule="nonzero"/><path fill="#000000" d="M 102.851562 29.746094 C 102.800781 29.746094 102.75 29.726562 102.714844 29.683594 C 102.648438 29.609375 102.660156 29.496094 102.734375 29.429688 L 103.316406 28.933594 C 103.394531 28.867188 103.507812 28.878906 103.570312 28.953125 C 103.636719 29.027344 103.628906 29.144531 103.550781 29.207031 L 102.96875 29.703125 C 102.933594 29.734375 102.894531 29.746094 102.851562 29.746094 " fill-opacity="1" fill-rule="nonzero"/><path fill="#000000" d="M 101.011719 31.316406 C 100.960938 31.316406 100.910156 31.296875 100.875 31.253906 C 100.808594 31.179688 100.820312 31.066406 100.894531 31 L 101.476562 30.503906 C 101.554688 30.4375 101.667969 30.449219 101.730469 30.523438 C 101.796875 30.597656 101.785156 30.714844 101.710938 30.777344 L 101.128906 31.273438 C 101.09375 31.304688 101.050781 31.316406 101.011719 31.316406 " fill-opacity="1" fill-rule="nonzero"/><path fill="#000000" d="M 101.6875 29.65625 C 101.632812 29.65625 101.585938 29.632812 101.546875 29.59375 L 101.050781 29.007812 C 100.988281 28.933594 100.996094 28.820312 101.070312 28.753906 C 101.148438 28.691406 101.261719 28.699219 101.328125 28.773438 L 101.824219 29.359375 C 101.886719 29.433594 101.878906 29.546875 101.800781 29.613281 C 101.769531 29.640625 101.726562 29.65625 101.6875 29.65625 " fill-opacity="1" fill-rule="nonzero"/><path fill="#000000" d="M 103.257812 31.496094 C 103.203125 31.496094 103.15625 31.476562 103.117188 31.433594 L 102.621094 30.851562 C 102.558594 30.773438 102.566406 30.660156 102.640625 30.597656 C 102.71875 30.53125 102.832031 30.539062 102.894531 30.617188 L 103.394531 31.199219 C 103.457031 31.273438 103.449219 31.386719 103.371094 31.453125 C 103.339844 31.480469 103.296875 31.496094 103.257812 31.496094 " fill-opacity="1" fill-rule="nonzero"/><path fill="#000000" d="M 22.3125 87.851562 C 22.214844 87.851562 22.136719 87.777344 22.132812 87.679688 L 22.105469 86.914062 C 22.101562 86.8125 22.175781 86.730469 22.277344 86.726562 C 22.378906 86.722656 22.460938 86.800781 22.464844 86.898438 L 22.492188 87.664062 C 22.496094 87.765625 22.417969 87.847656 22.320312 87.851562 C 22.316406 87.851562 22.316406 87.851562 22.3125 87.851562 " fill-opacity="1" fill-rule="nonzero"/><path fill="#000000" d="M 22.402344 90.269531 C 22.308594 90.269531 22.226562 90.195312 22.222656 90.097656 L 22.195312 89.332031 C 22.191406 89.230469 22.269531 89.148438 22.367188 89.144531 C 22.46875 89.140625 22.550781 89.21875 22.554688 89.316406 L 22.585938 90.082031 C 22.589844 90.183594 22.511719 90.265625 22.410156 90.269531 C 22.410156 90.269531 22.40625 90.269531 22.402344 90.269531 " fill-opacity="1" fill-rule="nonzero"/><path fill="#000000" d="M 20.753906 88.738281 C 20.65625 88.738281 20.578125 88.664062 20.574219 88.566406 C 20.570312 88.464844 20.648438 88.382812 20.746094 88.378906 L 21.511719 88.347656 C 21.613281 88.34375 21.695312 88.421875 21.699219 88.523438 C 21.703125 88.621094 21.625 88.707031 21.523438 88.710938 L 20.761719 88.738281 C 20.757812 88.738281 20.753906 88.738281 20.753906 88.738281 " fill-opacity="1" fill-rule="nonzero"/><path fill="#000000" d="M 23.167969 88.648438 C 23.074219 88.648438 22.992188 88.570312 22.988281 88.472656 C 22.984375 88.375 23.0625 88.289062 23.164062 88.289062 L 23.929688 88.257812 C 24.027344 88.253906 24.113281 88.332031 24.113281 88.429688 C 24.117188 88.53125 24.042969 88.613281 23.941406 88.617188 L 23.175781 88.648438 C 23.175781 88.648438 23.171875 88.648438 23.167969 88.648438 " fill-opacity="1" fill-rule="nonzero"/><path fill="#000000" d="M 15 74.019531 C 14.933594 74.019531 14.871094 73.984375 14.839844 73.921875 C 11.328125 67.128906 9.90625 59.503906 10.726562 51.867188 C 10.933594 49.945312 11.28125 48.027344 11.761719 46.171875 C 11.789062 46.074219 11.886719 46.015625 11.984375 46.042969 C 12.078125 46.066406 12.136719 46.164062 12.113281 46.261719 C 11.632812 48.101562 11.289062 50 11.085938 51.90625 C 10.273438 59.472656 11.683594 67.027344 15.160156 73.757812 C 15.207031 73.847656 15.171875 73.953125 15.082031 74 C 15.054688 74.015625 15.027344 74.019531 15 74.019531 " fill-opacity="1" fill-rule="nonzero"/><path fill="#000000" d="M 15.5 74.953125 C 15.433594 74.953125 15.375 74.921875 15.339844 74.859375 C 15.171875 74.550781 15.003906 74.238281 14.839844 73.921875 C 14.792969 73.835938 14.828125 73.726562 14.917969 73.679688 C 15.003906 73.632812 15.113281 73.667969 15.160156 73.757812 C 15.320312 74.070312 15.488281 74.382812 15.65625 74.6875 C 15.703125 74.773438 15.671875 74.882812 15.585938 74.929688 C 15.558594 74.945312 15.527344 74.953125 15.5 74.953125 " fill-opacity="1" fill-rule="nonzero"/><path fill="#000000" d="M 13.363281 78.773438 C 13.300781 78.773438 13.238281 78.738281 13.207031 78.679688 C 10.777344 74.433594 9.082031 69.828125 8.171875 64.996094 C 7.230469 59.992188 7.152344 54.875 7.945312 49.78125 C 7.960938 49.679688 8.054688 49.613281 8.152344 49.628906 C 8.25 49.644531 8.316406 49.738281 8.304688 49.835938 C 6.761719 59.746094 8.613281 69.925781 13.519531 78.503906 C 13.570312 78.589844 13.539062 78.699219 13.453125 78.75 C 13.421875 78.765625 13.394531 78.773438 13.363281 78.773438 " fill-opacity="1" fill-rule="nonzero"/><path fill="#000000" d="M 8.171875 47.300781 L 9.199219 47.664062 L 9.171875 46.441406 Z M 9.386719 48.101562 C 9.363281 48.101562 9.34375 48.097656 9.324219 48.089844 L 7.757812 47.539062 C 7.695312 47.519531 7.652344 47.464844 7.640625 47.402344 C 7.628906 47.339844 7.652344 47.273438 7.699219 47.234375 L 9.226562 45.921875 C 9.277344 45.875 9.351562 45.863281 9.417969 45.890625 C 9.480469 45.921875 9.523438 45.984375 9.523438 46.054688 L 9.566406 47.917969 C 9.566406 47.976562 9.539062 48.03125 9.492188 48.066406 C 9.460938 48.089844 9.421875 48.101562 9.386719 48.101562 " fill-opacity="1" fill-rule="nonzero"/><path fill="#000000" d="M 62.898438 46.984375 C 62.84375 46.984375 62.789062 46.960938 62.753906 46.914062 C 62.695312 46.832031 62.710938 46.71875 62.792969 46.660156 L 68.046875 42.765625 C 68.128906 42.707031 68.242188 42.722656 68.300781 42.800781 C 68.359375 42.882812 68.34375 42.996094 68.261719 43.054688 L 63.007812 46.949219 C 62.976562 46.972656 62.9375 46.984375 62.898438 46.984375 " fill-opacity="1" fill-rule="nonzero"/><path fill="#000000" d="M 62.660156 30.265625 C 62.605469 30.265625 62.550781 30.242188 62.515625 30.195312 C 62.457031 30.113281 62.472656 30 62.550781 29.941406 L 75.960938 20.003906 C 76.042969 19.945312 76.15625 19.960938 76.214844 20.042969 C 76.273438 20.121094 76.257812 20.234375 76.175781 20.292969 L 62.765625 30.230469 C 62.734375 30.253906 62.695312 30.265625 62.660156 30.265625 " fill-opacity="1" fill-rule="nonzero"/><path fill="#000000" d="M 72.140625 25.796875 C 72.085938 25.796875 72.03125 25.769531 71.996094 25.722656 C 71.9375 25.644531 71.953125 25.53125 72.035156 25.472656 L 79.085938 20.246094 C 79.167969 20.183594 79.28125 20.203125 79.339844 20.28125 C 79.398438 20.363281 79.382812 20.476562 79.300781 20.535156 L 72.25 25.761719 C 72.21875 25.785156 72.179688 25.796875 72.140625 25.796875 " fill-opacity="1" fill-rule="nonzero"/><path fill="#000000" d="M 22.546875 48.082031 C 22.421875 48.082031 22.300781 48.0625 22.183594 48.015625 C 21.929688 47.917969 21.730469 47.722656 21.621094 47.46875 C 21.398438 46.953125 21.628906 46.347656 22.136719 46.121094 C 22.226562 46.078125 22.335938 46.117188 22.375 46.210938 C 22.417969 46.300781 22.375 46.40625 22.285156 46.449219 C 21.957031 46.597656 21.808594 46.988281 21.953125 47.328125 C 22.023438 47.492188 22.152344 47.617188 22.316406 47.679688 C 22.472656 47.742188 22.648438 47.738281 22.804688 47.667969 C 23.132812 47.519531 23.28125 47.125 23.136719 46.789062 C 23.097656 46.695312 23.140625 46.589844 23.230469 46.550781 C 23.324219 46.511719 23.429688 46.554688 23.46875 46.644531 C 23.691406 47.164062 23.460938 47.769531 22.953125 47.996094 C 22.820312 48.054688 22.683594 48.082031 22.546875 48.082031 " fill-opacity="1" fill-rule="nonzero"/><path fill="#ffffff" d="M 33.175781 11.304688 C 34.964844 10.835938 36.792969 11.910156 37.261719 13.699219 C 37.730469 15.492188 36.65625 17.324219 34.867188 17.789062 C 33.074219 18.257812 31.246094 17.183594 30.777344 15.394531 C 30.3125 13.601562 31.382812 11.769531 33.175781 11.304688 Z M 27.339844 15.617188 L 27.667969 16.878906 L 29.089844 16.832031 C 29.21875 17.109375 29.367188 17.371094 29.539062 17.621094 L 28.769531 18.816406 L 29.683594 19.742188 L 30.890625 18.992188 C 31.140625 19.164062 31.402344 19.316406 31.671875 19.449219 L 31.609375 20.867188 L 32.863281 21.214844 L 33.53125 19.960938 C 33.828125 19.988281 34.132812 19.988281 34.4375 19.964844 L 35.089844 21.230469 L 36.351562 20.898438 L 36.300781 19.480469 C 36.582031 19.351562 36.84375 19.203125 37.089844 19.03125 L 38.285156 19.796875 L 39.214844 18.882812 L 38.460938 17.675781 C 38.636719 17.429688 38.789062 17.167969 38.917969 16.894531 L 40.339844 16.960938 L 40.683594 15.707031 L 39.433594 15.035156 C 39.457031 14.738281 39.460938 14.433594 39.4375 14.128906 L 40.699219 13.476562 L 40.371094 12.214844 L 38.949219 12.261719 C 38.820312 11.984375 38.671875 11.722656 38.503906 11.472656 L 39.269531 10.277344 L 38.355469 9.351562 L 37.148438 10.105469 C 36.902344 9.929688 36.640625 9.777344 36.367188 9.644531 L 36.433594 8.222656 L 35.175781 7.878906 L 34.507812 9.132812 C 34.210938 9.105469 33.90625 9.105469 33.601562 9.128906 L 32.949219 7.863281 L 31.691406 8.195312 L 31.738281 9.617188 C 31.460938 9.742188 31.195312 9.894531 30.949219 10.0625 L 29.753906 9.296875 L 28.828125 10.210938 L 29.578125 11.417969 C 29.40625 11.664062 29.25 11.925781 29.121094 12.199219 L 27.699219 12.132812 L 27.355469 13.390625 L 28.609375 14.058594 C 28.582031 14.355469 28.578125 14.660156 28.605469 14.964844 L 27.339844 15.617188 " fill-opacity="1" fill-rule="nonzero"/><path fill="#000000" d="M 33.726562 11.628906 L 33.773438 11.800781 C 32.953125 12.015625 32.265625 12.535156 31.835938 13.265625 C 31.410156 14 31.292969 14.851562 31.503906 15.671875 C 31.945312 17.363281 33.683594 18.382812 35.371094 17.941406 C 36.191406 17.726562 36.878906 17.207031 37.308594 16.472656 C 37.734375 15.742188 37.855469 14.890625 37.640625 14.070312 C 37.199219 12.378906 35.464844 11.359375 33.773438 11.800781 Z M 34.574219 18.402344 C 33.003906 18.402344 31.570312 17.351562 31.15625 15.761719 C 30.917969 14.851562 31.050781 13.898438 31.527344 13.085938 C 32.003906 12.269531 32.769531 11.691406 33.679688 11.453125 C 35.566406 10.960938 37.496094 12.09375 37.988281 13.980469 C 38.226562 14.890625 38.09375 15.84375 37.617188 16.65625 C 37.140625 17.472656 36.375 18.050781 35.464844 18.289062 C 35.167969 18.367188 34.867188 18.402344 34.574219 18.402344 Z M 34.988281 20.109375 C 35.058594 20.109375 35.121094 20.144531 35.148438 20.207031 L 35.738281 21.339844 L 36.71875 21.085938 L 36.675781 19.808594 C 36.671875 19.734375 36.714844 19.667969 36.78125 19.640625 C 37.046875 19.515625 37.304688 19.367188 37.542969 19.207031 C 37.601562 19.164062 37.679688 19.164062 37.742188 19.203125 L 38.816406 19.890625 L 39.535156 19.179688 L 38.859375 18.09375 C 38.824219 18.035156 38.824219 17.957031 38.867188 17.894531 C 39.035156 17.65625 39.183594 17.402344 39.308594 17.140625 C 39.339844 17.074219 39.410156 17.035156 39.480469 17.039062 L 40.757812 17.097656 L 41.023438 16.121094 L 39.898438 15.519531 C 39.835938 15.484375 39.796875 15.417969 39.804688 15.34375 C 39.832031 15.058594 39.832031 14.761719 39.808594 14.46875 C 39.804688 14.394531 39.839844 14.328125 39.90625 14.292969 L 41.039062 13.707031 L 40.785156 12.726562 L 39.507812 12.769531 C 39.4375 12.769531 39.367188 12.730469 39.339844 12.664062 C 39.214844 12.394531 39.070312 12.136719 38.90625 11.898438 C 38.867188 11.839844 38.863281 11.761719 38.902344 11.699219 L 39.589844 10.625 L 38.878906 9.90625 L 37.796875 10.582031 C 37.734375 10.621094 37.65625 10.617188 37.597656 10.574219 C 37.359375 10.40625 37.105469 10.257812 36.839844 10.132812 C 36.777344 10.101562 36.734375 10.035156 36.738281 9.960938 L 36.796875 8.683594 L 35.820312 8.414062 L 35.21875 9.542969 C 35.1875 9.605469 35.117188 9.644531 35.046875 9.636719 C 34.757812 9.609375 34.464844 9.609375 34.167969 9.632812 C 34.097656 9.636719 34.027344 9.597656 33.996094 9.535156 L 33.40625 8.398438 L 32.425781 8.65625 L 32.46875 9.933594 C 32.472656 10.003906 32.429688 10.074219 32.367188 10.101562 C 32.097656 10.226562 31.839844 10.371094 31.601562 10.535156 C 31.542969 10.574219 31.464844 10.578125 31.402344 10.539062 L 30.328125 9.847656 L 29.609375 10.5625 L 30.285156 11.644531 C 30.324219 11.707031 30.320312 11.785156 30.277344 11.84375 C 30.109375 12.085938 29.960938 12.339844 29.835938 12.601562 C 29.804688 12.667969 29.734375 12.707031 29.664062 12.703125 L 28.390625 12.644531 L 28.121094 13.621094 L 29.246094 14.222656 C 29.308594 14.257812 29.347656 14.324219 29.339844 14.398438 C 29.3125 14.683594 29.3125 14.980469 29.335938 15.273438 C 29.339844 15.347656 29.304688 15.417969 29.238281 15.449219 L 28.105469 16.035156 L 28.359375 17.015625 L 29.636719 16.972656 C 29.707031 16.972656 29.777344 17.011719 29.804688 17.078125 C 29.929688 17.347656 30.074219 17.605469 30.238281 17.839844 C 30.28125 17.902344 30.28125 17.980469 30.242188 18.039062 L 29.554688 19.117188 L 30.265625 19.835938 L 31.347656 19.160156 C 31.410156 19.121094 31.488281 19.125 31.546875 19.167969 C 31.785156 19.332031 32.042969 19.484375 32.304688 19.609375 C 32.371094 19.640625 32.410156 19.707031 32.40625 19.78125 L 32.347656 21.058594 L 33.324219 21.324219 L 33.925781 20.199219 C 33.957031 20.136719 34.027344 20.097656 34.101562 20.105469 C 34.386719 20.132812 34.679688 20.132812 34.976562 20.109375 C 34.980469 20.109375 34.984375 20.109375 34.988281 20.109375 Z M 35.644531 21.734375 C 35.578125 21.734375 35.515625 21.695312 35.484375 21.636719 L 34.882812 20.476562 C 34.648438 20.492188 34.417969 20.488281 34.1875 20.472656 L 33.574219 21.625 C 33.535156 21.699219 33.449219 21.734375 33.367188 21.710938 L 32.113281 21.367188 C 32.03125 21.34375 31.976562 21.269531 31.980469 21.183594 L 32.039062 19.882812 C 31.832031 19.777344 31.632812 19.660156 31.441406 19.53125 L 30.332031 20.21875 C 30.261719 20.265625 30.167969 20.253906 30.109375 20.191406 L 29.195312 19.265625 C 29.136719 19.207031 29.125 19.113281 29.171875 19.042969 L 29.875 17.945312 C 29.75 17.753906 29.632812 17.550781 29.53125 17.339844 L 28.226562 17.382812 C 28.140625 17.386719 28.070312 17.328125 28.046875 17.246094 L 27.71875 15.988281 C 27.699219 15.90625 27.734375 15.820312 27.8125 15.78125 L 28.96875 15.183594 C 28.953125 14.949219 28.957031 14.714844 28.972656 14.484375 L 27.824219 13.871094 C 27.75 13.832031 27.710938 13.746094 27.734375 13.664062 L 28.078125 12.410156 C 28.101562 12.328125 28.175781 12.273438 28.261719 12.277344 L 29.5625 12.339844 C 29.667969 12.132812 29.785156 11.929688 29.914062 11.738281 L 29.226562 10.628906 C 29.183594 10.558594 29.191406 10.464844 29.253906 10.40625 L 30.179688 9.492188 C 30.238281 9.433594 30.332031 9.421875 30.402344 9.46875 L 31.5 10.171875 C 31.691406 10.046875 31.894531 9.929688 32.105469 9.828125 L 32.0625 8.523438 C 32.058594 8.441406 32.117188 8.363281 32.195312 8.34375 L 33.457031 8.015625 C 33.539062 7.992188 33.625 8.03125 33.664062 8.105469 L 34.261719 9.265625 C 34.496094 9.25 34.730469 9.253906 34.957031 9.269531 L 35.570312 8.117188 C 35.609375 8.042969 35.695312 8.007812 35.777344 8.03125 L 37.03125 8.375 C 37.113281 8.398438 37.167969 8.472656 37.164062 8.558594 L 37.105469 9.859375 C 37.3125 9.964844 37.511719 10.082031 37.703125 10.210938 L 38.8125 9.523438 C 38.882812 9.476562 38.976562 9.488281 39.035156 9.550781 L 39.949219 10.476562 C 40.007812 10.535156 40.019531 10.628906 39.972656 10.699219 L 39.269531 11.796875 C 39.394531 11.988281 39.511719 12.191406 39.613281 12.402344 L 40.917969 12.359375 C 41.003906 12.355469 41.074219 12.414062 41.097656 12.492188 L 41.425781 13.753906 C 41.445312 13.835938 41.410156 13.921875 41.335938 13.960938 L 40.175781 14.558594 C 40.191406 14.792969 40.1875 15.027344 40.171875 15.257812 L 41.320312 15.871094 C 41.394531 15.910156 41.433594 15.996094 41.410156 16.078125 L 41.066406 17.332031 C 41.042969 17.414062 40.964844 17.46875 40.882812 17.464844 L 39.582031 17.402344 C 39.476562 17.609375 39.359375 17.8125 39.230469 18.003906 L 39.917969 19.113281 C 39.960938 19.183594 39.953125 19.277344 39.890625 19.335938 L 38.964844 20.25 C 38.90625 20.308594 38.8125 20.320312 38.742188 20.273438 L 37.644531 19.570312 C 37.453125 19.695312 37.25 19.8125 37.039062 19.914062 L 37.082031 21.21875 C 37.085938 21.300781 37.03125 21.378906 36.949219 21.398438 L 35.6875 21.726562 C 35.671875 21.730469 35.65625 21.734375 35.644531 21.734375 " fill-opacity="1" fill-rule="nonzero"/><path fill="#99b9ff" d="M 15.964844 20.761719 C 19.027344 19.960938 22.160156 21.800781 22.957031 24.863281 C 23.757812 27.929688 21.921875 31.0625 18.859375 31.863281 C 15.796875 32.664062 12.664062 30.828125 11.863281 27.761719 C 11.0625 24.695312 12.898438 21.5625 15.964844 20.761719 Z M 5.980469 28.144531 L 6.542969 30.300781 L 8.976562 30.21875 C 9.195312 30.695312 9.449219 31.148438 9.742188 31.570312 L 8.429688 33.617188 L 9.992188 35.203125 L 12.058594 33.914062 C 12.480469 34.214844 12.929688 34.476562 13.394531 34.699219 L 13.28125 37.132812 L 15.429688 37.722656 L 16.574219 35.578125 C 17.085938 35.625 17.601562 35.625 18.125 35.585938 L 19.242188 37.746094 L 21.398438 37.183594 L 21.316406 34.753906 C 21.792969 34.53125 22.242188 34.277344 22.667969 33.988281 L 24.710938 35.296875 L 26.296875 33.734375 L 25.011719 31.667969 C 25.308594 31.242188 25.570312 30.796875 25.792969 30.328125 L 28.226562 30.441406 L 28.816406 28.292969 L 26.671875 27.148438 C 26.71875 26.640625 26.71875 26.121094 26.679688 25.597656 L 28.839844 24.480469 L 28.277344 22.324219 L 25.847656 22.40625 C 25.625 21.929688 25.371094 21.476562 25.082031 21.054688 L 26.394531 19.007812 L 24.828125 17.421875 L 22.761719 18.710938 C 22.339844 18.410156 21.894531 18.148438 21.425781 17.925781 L 21.539062 15.496094 L 19.390625 14.902344 L 18.246094 17.046875 C 17.738281 17 17.21875 17 16.695312 17.039062 L 15.578125 14.878906 L 13.425781 15.441406 L 13.503906 17.875 C 13.03125 18.09375 12.578125 18.347656 12.15625 18.636719 L 10.109375 17.328125 L 8.523438 18.890625 L 9.8125 20.957031 C 9.511719 21.382812 9.25 21.828125 9.027344 22.296875 L 6.597656 22.183594 L 6.007812 24.332031 L 8.148438 25.476562 C 8.105469 25.988281 8.101562 26.503906 8.144531 27.027344 L 5.980469 28.144531 " fill-opacity="1" fill-rule="nonzero"/><path fill="#000000" d="M 16.953125 21.492188 C 15.519531 21.867188 14.316406 22.777344 13.566406 24.058594 C 12.816406 25.339844 12.609375 26.835938 12.984375 28.269531 C 13.359375 29.707031 14.269531 30.910156 15.546875 31.660156 C 16.828125 32.410156 18.324219 32.617188 19.757812 32.242188 C 21.195312 31.867188 22.398438 30.957031 23.148438 29.675781 C 23.898438 28.394531 24.105469 26.898438 23.730469 25.464844 C 23.355469 24.027344 22.445312 22.824219 21.164062 22.074219 C 19.882812 21.324219 18.390625 21.117188 16.953125 21.492188 Z M 18.347656 32.785156 C 17.308594 32.785156 16.285156 32.507812 15.367188 31.972656 C 14.003906 31.171875 13.035156 29.890625 12.632812 28.359375 C 12.234375 26.832031 12.457031 25.238281 13.253906 23.875 C 14.054688 22.511719 15.335938 21.542969 16.863281 21.144531 C 18.390625 20.742188 19.984375 20.964844 21.347656 21.761719 C 22.710938 22.5625 23.679688 23.84375 24.078125 25.375 C 24.476562 26.902344 24.257812 28.496094 23.457031 29.859375 C 22.660156 31.222656 21.378906 32.191406 19.851562 32.589844 C 19.351562 32.722656 18.847656 32.785156 18.347656 32.785156 Z M 19.070312 35.957031 C 19.136719 35.957031 19.199219 35.996094 19.230469 36.054688 L 20.28125 38.089844 L 22.15625 37.601562 L 22.082031 35.3125 C 22.078125 35.238281 22.121094 35.171875 22.1875 35.140625 C 22.652344 34.925781 23.097656 34.675781 23.511719 34.390625 C 23.570312 34.351562 23.648438 34.351562 23.710938 34.390625 L 25.632812 35.621094 L 27.011719 34.261719 L 25.804688 32.316406 C 25.765625 32.253906 25.765625 32.175781 25.808594 32.117188 C 26.101562 31.703125 26.359375 31.261719 26.578125 30.804688 C 26.609375 30.742188 26.675781 30.699219 26.75 30.703125 L 29.035156 30.808594 L 29.546875 28.941406 L 27.53125 27.863281 C 27.46875 27.828125 27.429688 27.761719 27.4375 27.6875 C 27.484375 27.191406 27.484375 26.679688 27.445312 26.167969 C 27.4375 26.09375 27.476562 26.023438 27.542969 25.992188 L 29.574219 24.941406 L 29.085938 23.0625 L 26.796875 23.140625 C 26.726562 23.144531 26.660156 23.101562 26.628906 23.035156 C 26.414062 22.566406 26.160156 22.121094 25.878906 21.710938 C 25.835938 21.652344 25.835938 21.574219 25.875 21.511719 L 27.109375 19.585938 L 25.746094 18.207031 L 23.804688 19.417969 C 23.742188 19.457031 23.664062 19.453125 23.605469 19.410156 C 23.191406 19.121094 22.75 18.863281 22.292969 18.640625 C 22.226562 18.613281 22.1875 18.542969 22.191406 18.472656 L 22.296875 16.183594 L 20.429688 15.671875 L 19.351562 17.6875 C 19.316406 17.75 19.25 17.789062 19.175781 17.78125 C 18.679688 17.738281 18.167969 17.734375 17.65625 17.773438 C 17.582031 17.78125 17.515625 17.742188 17.480469 17.675781 L 16.429688 15.644531 L 14.554688 16.132812 L 14.632812 18.421875 C 14.632812 18.496094 14.59375 18.5625 14.527344 18.589844 C 14.058594 18.808594 13.613281 19.058594 13.203125 19.34375 C 13.144531 19.382812 13.0625 19.382812 13.003906 19.34375 L 11.078125 18.109375 L 9.699219 19.472656 L 10.910156 21.417969 C 10.949219 21.480469 10.945312 21.558594 10.902344 21.617188 C 10.613281 22.03125 10.355469 22.472656 10.136719 22.929688 C 10.105469 22.992188 10.035156 23.035156 9.964844 23.03125 L 7.679688 22.925781 L 7.164062 24.792969 L 9.179688 25.871094 C 9.246094 25.90625 9.28125 25.972656 9.273438 26.046875 C 9.230469 26.542969 9.226562 27.054688 9.269531 27.566406 C 9.273438 27.640625 9.234375 27.710938 9.171875 27.742188 L 7.136719 28.792969 L 7.628906 30.671875 L 9.914062 30.59375 C 9.988281 30.589844 10.054688 30.632812 10.085938 30.699219 C 10.300781 31.164062 10.550781 31.613281 10.835938 32.023438 C 10.875 32.082031 10.875 32.160156 10.835938 32.222656 L 9.605469 34.148438 L 10.964844 35.527344 L 12.910156 34.316406 C 12.96875 34.277344 13.050781 34.28125 13.109375 34.324219 C 13.523438 34.613281 13.964844 34.871094 14.417969 35.089844 C 14.484375 35.121094 14.523438 35.191406 14.523438 35.261719 L 14.414062 37.550781 L 16.285156 38.0625 L 17.359375 36.046875 C 17.394531 35.984375 17.464844 35.945312 17.535156 35.953125 C 18.03125 35.996094 18.542969 36 19.058594 35.960938 C 19.0625 35.957031 19.066406 35.957031 19.070312 35.957031 Z M 20.1875 38.480469 C 20.121094 38.480469 20.058594 38.445312 20.027344 38.382812 L 18.964844 36.328125 C 18.515625 36.355469 18.0625 36.355469 17.621094 36.320312 L 16.535156 38.363281 C 16.496094 38.433594 16.410156 38.472656 16.328125 38.449219 L 14.179688 37.859375 C 14.097656 37.835938 14.042969 37.761719 14.046875 37.675781 L 14.15625 35.363281 C 13.753906 35.164062 13.367188 34.9375 13 34.6875 L 11.035156 35.910156 C 10.960938 35.953125 10.871094 35.945312 10.8125 35.882812 L 9.246094 34.296875 C 9.1875 34.238281 9.175781 34.144531 9.222656 34.074219 L 10.46875 32.128906 C 10.226562 31.761719 10.003906 31.367188 9.808594 30.957031 L 7.496094 31.035156 C 7.40625 31.039062 7.335938 30.984375 7.316406 30.902344 L 6.753906 28.746094 C 6.730469 28.664062 6.769531 28.578125 6.84375 28.539062 L 8.898438 27.476562 C 8.871094 27.023438 8.871094 26.574219 8.90625 26.132812 L 6.867188 25.042969 C 6.792969 25.003906 6.757812 24.917969 6.777344 24.835938 L 7.367188 22.691406 C 7.390625 22.609375 7.464844 22.554688 7.550781 22.558594 L 9.863281 22.664062 C 10.0625 22.265625 10.289062 21.875 10.539062 21.507812 L 9.316406 19.542969 C 9.273438 19.46875 9.285156 19.378906 9.34375 19.316406 L 10.929688 17.753906 C 10.988281 17.695312 11.082031 17.683594 11.152344 17.730469 L 13.097656 18.976562 C 13.464844 18.730469 13.859375 18.511719 14.265625 18.316406 L 14.1875 16 C 14.1875 15.917969 14.242188 15.84375 14.324219 15.820312 L 16.480469 15.257812 C 16.5625 15.238281 16.644531 15.277344 16.683594 15.351562 L 17.746094 17.40625 C 18.199219 17.375 18.648438 17.378906 19.089844 17.414062 L 20.175781 15.371094 C 20.21875 15.296875 20.304688 15.261719 20.382812 15.285156 L 22.53125 15.875 C 22.613281 15.898438 22.667969 15.972656 22.664062 16.058594 L 22.558594 18.371094 C 22.957031 18.566406 23.34375 18.796875 23.714844 19.046875 L 25.679688 17.824219 C 25.75 17.78125 25.84375 17.789062 25.902344 17.851562 L 27.464844 19.4375 C 27.527344 19.496094 27.535156 19.589844 27.488281 19.660156 L 26.242188 21.605469 C 26.488281 21.972656 26.710938 22.367188 26.90625 22.777344 L 29.21875 22.699219 C 29.300781 22.695312 29.375 22.75 29.398438 22.832031 L 29.960938 24.988281 C 29.980469 25.070312 29.941406 25.15625 29.867188 25.195312 L 27.8125 26.257812 C 27.84375 26.710938 27.839844 27.160156 27.804688 27.601562 L 29.84375 28.6875 C 29.917969 28.730469 29.957031 28.816406 29.933594 28.894531 L 29.34375 31.042969 C 29.320312 31.125 29.246094 31.179688 29.160156 31.175781 L 26.851562 31.070312 C 26.652344 31.46875 26.425781 31.859375 26.171875 32.226562 L 27.394531 34.191406 C 27.441406 34.265625 27.429688 34.355469 27.367188 34.414062 L 25.785156 35.980469 C 25.722656 36.039062 25.632812 36.050781 25.558594 36.003906 L 23.613281 34.757812 C 23.246094 35.003906 22.855469 35.222656 22.445312 35.417969 L 22.523438 37.734375 C 22.527344 37.816406 22.46875 37.890625 22.390625 37.914062 L 20.234375 38.476562 C 20.21875 38.480469 20.203125 38.480469 20.1875 38.480469 " fill-opacity="1" fill-rule="nonzero"/></svg>