<svg xmlns="http://www.w3.org/2000/svg" xmlns:xlink="http://www.w3.org/1999/xlink" width="1920" zoomAndPan="magnify" viewBox="0 0 1440 525.000007" height="700" preserveAspectRatio="xMidYMid meet" version="1.0"><defs><clipPath id="f10934c81e"><path d="M 1.367188 466.410156 L 1438.628906 466.410156 L 1438.628906 524 L 1.367188 524 Z M 1.367188 466.410156 " clip-rule="nonzero"/></clipPath><clipPath id="685020c61c"><path d="M 1.367188 0 L 1438.628906 0 L 1438.628906 67.738281 L 1.367188 67.738281 Z M 1.367188 0 " clip-rule="nonzero"/></clipPath></defs><g clip-path="url(#f10934c81e)"><path fill="#ffffff" d="M 1457.746094 478.726562 C 1457.746094 471.898438 1452.113281 466.386719 1445.285156 466.582031 C 1334.777344 469.75 1330.628906 514.996094 1212.109375 514.996094 C 1089.292969 514.996094 1089.292969 466.410156 966.476562 466.410156 C 843.660156 466.410156 843.660156 514.996094 720.84375 514.996094 C 598.027344 514.996094 598.027344 466.410156 475.210938 466.410156 C 352.398438 466.410156 352.398438 514.996094 229.585938 514.996094 C 111.070312 514.996094 106.921875 469.75 -3.582031 466.582031 C -10.410156 466.386719 -16.042969 471.898438 -16.042969 478.726562 L -16.042969 705.292969 C -16.042969 712 -10.601562 717.4375 -3.894531 717.4375 L 1445.597656 717.4375 C 1452.304688 717.4375 1457.746094 712 1457.746094 705.292969 Z M 1457.746094 478.726562 " fill-opacity="1" fill-rule="nonzero"/></g><g clip-path="url(#685020c61c)"><path fill="#ffffff" d="M -16.074219 55.515625 C -16.074219 62.292969 -10.488281 67.757812 -3.714844 67.5625 C 105.925781 64.421875 110.039062 19.53125 227.625 19.53125 C 349.472656 19.53125 349.472656 67.738281 471.324219 67.738281 C 593.175781 67.738281 593.175781 19.53125 715.023438 19.53125 C 836.871094 19.53125 836.871094 67.738281 958.71875 67.738281 C 1080.566406 67.738281 1080.566406 19.53125 1202.410156 19.53125 C 1319.992188 19.53125 1324.109375 64.421875 1433.746094 67.5625 C 1440.519531 67.757812 1446.105469 62.292969 1446.105469 55.515625 L 1446.105469 -169.265625 C 1446.105469 -175.921875 1440.710938 -181.316406 1434.054688 -181.316406 L -4.023438 -181.316406 C -10.679688 -181.316406 -16.074219 -175.921875 -16.074219 -169.265625 Z M -16.074219 55.515625 " fill-opacity="1" fill-rule="nonzero"/></g></svg>